<?xml version="1.0" encoding="UTF-8"?>
<svg xmlns="http://www.w3.org/2000/svg" xmlns:xlink="http://www.w3.org/1999/xlink" width="110.760mm" height="111.112mm" viewBox="-358.791870 64.080559 110.759995 111.112007">
    <path transform="matrix(-1,0,0,1,0,0)" style="stroke:none;fill:#0000ff;fill-rule:evenodd" d="M345.626312,165.379578L345.626312,162.204971L339.100739,162.204971L332.575134,162.204971L332.575134,158.854004L332.575134,155.503021L329.400543,155.503021L326.225952,155.503021L326.225952,148.977448L326.225952,142.451874L322.874969,142.451874L319.523987,142.451874L319.523987,145.802841L319.523987,149.153809L312.998413,149.153809L306.472839,149.153809L306.472839,152.328415L306.472839,155.503021L303.298218,155.503021L300.123627,155.503021L300.123627,152.328415L300.123627,149.153809L303.298218,149.153809L306.472839,149.153809L306.472839,145.802841L306.472839,142.451874L312.998413,142.451874L319.523987,142.451874L319.523987,139.277252L319.523987,136.102661L312.998413,136.102661L306.472839,136.102661L306.472839,132.751678L306.472839,129.400696L303.298218,129.400696L300.123627,129.400696L300.123627,126.226105L300.123627,123.051498L296.772644,123.051498L293.421692,123.051498L293.421692,119.700523L293.421692,116.349548L290.24707,116.349548L287.072449,116.349548L287.072449,113.174942L287.072449,110.000336L283.721497,110.000336L280.370514,110.000336L280.370514,106.649368L280.370514,103.298386L277.195923,103.298386L274.021301,103.298386L274.021301,100.123779L274.021301,96.949181L270.670349,96.949181L267.319366,96.949181L267.319366,93.598206L267.319366,90.247231L264.144745,90.247231L260.970154,90.247231L260.970154,87.072624L260.970154,83.898026L257.619171,83.898026L254.268204,83.898026L254.268204,77.372444L254.268204,70.846863L260.793793,70.846863L267.319366,70.846863L267.319366,74.021469L267.319366,77.196075L270.670349,77.196075L274.021301,77.196075L274.021301,80.54705L274.021301,83.898026L277.195923,83.898026L280.370514,83.898026L280.370514,87.072624L280.370514,90.247231L283.721497,90.247231L287.072449,90.247231L287.072449,93.598206L287.072449,96.949181L290.24707,96.949181L293.421692,96.949181L293.421692,100.123779L293.421692,103.298386L296.772644,103.298386L300.123627,103.298386L300.123627,106.649368L300.123627,110.000336L303.298218,110.000336L306.472839,110.000336L306.472839,113.174942L306.472839,116.349548L309.823792,116.349548L313.174774,116.349548L313.174774,119.700523L313.174774,123.051498L316.349396,123.051498L319.523987,123.051498L319.523987,129.577072L319.523987,136.102661L322.874969,136.102661L326.225952,136.102661L326.225952,129.577072L326.225952,123.051498L329.400543,123.051498L332.575134,123.051498L332.575134,119.700523L332.575134,116.349548L335.926117,116.349548L339.2771,116.349548L339.2771,119.700523L339.2771,123.051498L335.926117,123.051498L332.575134,123.051498L332.575134,129.577072L332.575134,136.102661L329.400543,136.102661L326.225952,136.102661L326.225952,139.277252L326.225952,142.451874L332.751526,142.451874L339.2771,142.451874L339.2771,145.802841L339.2771,149.153809L342.451721,149.153809L345.626312,149.153809L345.626312,155.679382L345.626312,162.204971L348.977295,162.204971L352.328247,162.204971L352.328247,165.379578L352.328247,168.554184L348.977295,168.554184L345.626312,168.554184L345.626312,165.379578z"/>
    <path transform="matrix(-1,0,0,1,0,0)" style="stroke:none;fill:#000000;fill-rule:evenodd" d="M358.783875,155.440552L358.79187,156.24057L358.79187,175.192566L339.391846,175.192566L339.391846,162.136566L345.735901,162.136566L345.735901,155.440552L358.783875,155.440552M352.43988,168.488556L352.43988,162.136566L345.735901,162.136566L345.735901,168.488556L352.43988,168.488556"/>
    <path transform="matrix(-1,0,0,1,0,0)" style="stroke:none;fill:#000000;fill-rule:evenodd" d="M332.687866,155.440552L339.391846,155.440552L339.391846,149.088562L332.687866,149.088562L332.687866,142.384552L326.335876,142.384552L326.335876,149.088562L319.639893,149.088562L319.639893,155.440552L306.583862,155.440552L306.583862,162.136566L293.535889,162.136566L293.535889,149.088562L300.239868,149.088562L300.239868,142.384552L306.583862,142.384552L306.583862,136.040558L300.239868,136.040558L300.239868,129.336548L293.535889,129.336548L293.535889,122.984566L287.183868,122.984566L287.183868,116.288567L280.487854,116.288567L280.487854,109.936562L274.135864,109.936562L274.135864,103.232567L267.431885,103.232567L267.431885,96.880562L261.079895,96.880562L261.079895,90.184563L254.383881,90.184563L254.383881,83.832558L261.079895,83.832558L261.079895,90.184563L267.431885,90.184563L267.431885,96.880562L274.135864,96.880562L274.135864,103.232567L280.487854,103.232567L280.487854,109.936562L287.183868,109.936562L287.183868,116.288567L293.535889,116.288567L293.535889,122.984566L300.239868,122.984566L300.239868,129.336548L306.583862,129.336548L306.583862,136.040558L319.639893,136.040558L319.639893,122.984566L313.287872,122.984566L313.287872,116.288567L306.583862,116.288567L306.583862,109.936562L300.239868,109.936562L300.239868,103.232567L293.535889,103.232567L293.535889,96.880562L287.183868,96.880562L287.183868,90.184563L280.487854,90.184563L280.487854,83.832558L274.135864,83.832558L274.135864,77.128563L267.431885,77.128563L267.431885,70.784561L274.135864,70.784561L274.135864,77.128563L280.487854,77.128563L280.487854,83.832558L287.183868,83.832558L287.183868,90.184563L293.535889,90.184563L293.535889,96.880562L300.239868,96.880562L300.239868,103.232567L306.583862,103.232567L306.583862,109.936562L313.287872,109.936562L313.287872,116.288567L319.639893,116.288567L319.639893,122.984566L326.335876,122.984566L326.335876,116.288567L332.687866,116.288567L332.687866,109.936562L345.735901,109.936562L345.735901,122.984566L339.391846,122.984566L339.391846,136.040558L332.687866,136.040558L332.687866,142.384552L339.391846,142.384552L339.391846,149.088562L345.735901,149.088562L345.735901,155.440552L339.391846,155.440552L339.391846,162.136566L332.687866,162.136566L332.687866,155.440552L326.335876,155.440552L326.335876,149.088562L332.687866,149.088562L332.687866,155.440552M332.687866,116.288567L332.687866,122.984566L326.335876,122.984566L326.335876,136.040558L319.639893,136.040558L319.639893,142.384552L306.583862,142.384552L306.583862,149.088562L300.239868,149.088562L300.239868,155.440552L306.583862,155.440552L306.583862,149.088562L319.639893,149.088562L319.639893,142.384552L326.335876,142.384552L326.335876,136.040558L332.687866,136.040558L332.687866,122.984566L339.391846,122.984566L339.391846,116.288567L332.687866,116.288567"/>
    <path transform="matrix(-1,0,0,1,0,0)" style="stroke:none;fill:#000000;fill-rule:evenodd" d="M267.431885,64.088562L267.431885,70.784561L254.383881,70.784561L254.383881,83.832558L248.031876,83.832558L248.031876,64.080559L266.615875,64.080559L267.431885,64.088562z"/>
</svg>
