<?xml version="1.0" encoding="UTF-8" standalone="no"?>
<svg
   xmlns:dc="http://purl.org/dc/elements/1.1/"
   xmlns:cc="http://creativecommons.org/ns#"
   xmlns:rdf="http://www.w3.org/1999/02/22-rdf-syntax-ns#"
   xmlns:svg="http://www.w3.org/2000/svg"
   xmlns="http://www.w3.org/2000/svg"
   xmlns:sodipodi="http://sodipodi.sourceforge.net/DTD/sodipodi-0.dtd"
   xmlns:inkscape="http://www.inkscape.org/namespaces/inkscape"
   width="100.0mm"
   height="100.0mm"
   viewBox="0 0 100.0 100.0"
   version="1.1"
   id="svg8"
   sodipodi:docname="Project Narsil Sword.svg"
   inkscape:version="1.0.2 (e86c8708, 2021-01-15)">
  <defs
     id="defs2" />
  <sodipodi:namedview
     id="base"
     pagecolor="#ffffff"
     bordercolor="#666666"
     borderopacity="1.0"
     inkscape:pageopacity="0.0"
     inkscape:pageshadow="2"
     inkscape:zoom="1.6549755"
     inkscape:cx="276.10437"
     inkscape:cy="200.22732"
     inkscape:document-units="mm"
     inkscape:current-layer="g856"
     inkscape:document-rotation="0"
     showgrid="false"
     inkscape:window-width="1799"
     inkscape:window-height="1470"
     inkscape:window-x="609"
     inkscape:window-y="88"
     inkscape:window-maximized="0"
     inkscape:snap-global="false" />
  <metadata
     id="metadata5">
    <rdf:RDF>
      <cc:Work
         rdf:about="">
        <dc:format>image/svg+xml</dc:format>
        <dc:type
           rdf:resource="http://purl.org/dc/dcmitype/StillImage" />
        <dc:title></dc:title>
      </cc:Work>
    </rdf:RDF>
  </metadata>
  <g
     inkscape:label="[fixed] BG"
     inkscape:groupmode="layer"
     sodipodi:insensitive="true"
     id="g838"
     style="display:inline">
    <rect
       x="0"
       y="0"
       width="100"
       height="100"
       style="fill:#ffffff;fill-opacity:1;stroke:none"
       id="rect836" />
  </g>
  <g
     inkscape:label="Edge.Cuts"
     inkscape:groupmode="layer"
     id="g840"
     style="display:inline">
    <path
       id="path966"
       style="display:inline;fill:#000000;fill-rule:evenodd;stroke:none;stroke-width:3.36753"
       d="m 314.756,1.85156 -2.748,0.02735 V 24.4277 h 43.939 v 43.9395 h 21.391 V 1.85156 h -62.582 m 41.191,66.51564 h -0.004 V 24.4297 h -43.935 v -0.002 h -0.002 v -0.002 H 312 v 0.002 h -22.566 v 21.3652 h 22.572 v 0.002 H 312 v 0.0098 H 300.717 289.434 V 45.793 h -21.391 v 22.5742 h 21.389 V 68.375 H 278.74 268.051 v 10.6914 10.6895 h -0.008 V 68.3672 h -22.551 v 21.3906 h 22.547 v 0.002 h -22.547 v -0.002 h -0.004 v -0.002 h -0.006 v 0.002 h -21.381 v 22.5492 h 21.387 v 0.004 h -0.006 v 0.013 H 234.79 224.101 v -0.017 h -22.576 v 21.39 h 22.574 v 0.008 h -11.283 -11.285 v 11.286 11.283 h -0.006 v -22.576 h -21.364 v 22.576 h 21.36 v 0.002 h -21.36 v -0.002 h -0.004 -0.008 -22.564 v 21.39 h 22.572 v 0.002 h -22.572 v -0.002 h -0.002 v -0.008 h -0.002 v 0.008 h -21.387 v 22.549 h 21.387 v 0.002 h -0.002 v 0.01 h -10.691 -10.69 v 21.977 21.974 h 21.975 21.976 v -11.285 -11.283 h 0.008 v -0.002 h 0.004 v 22.574 h 21.364 v -22.572 h 0.006 v -0.002 h -0.006 v -0.002 h -0.004 v -21.389 h 0.004 v 21.389 h 22.576 v -21.391 h -0.004 v -22.545 h 0.002 v -0.011 h 10.691 10.692 v -10.69 -10.694 h 0.01 v 21.391 h 22.55 v -21.391 h -0.004 v -22.572 h 0.004 v 22.572 h 21.391 v -22.576 h -0.004 v -21.388 h 0.004 v 21.388 h 22.574 v -21.39 H 312 V 101.039 89.7559 h 10.691 10.69 V 79.0664 68.375 h 0.014 v -0.0039 h 0.004 v 21.3867 h 22.548 V 68.375 h 0.004 v -0.0039 h -0.004 v -0.0039 m -22.549,21.3906 h -21.39 v 22.5492 h 21.39 V 89.7578 m -87.906,87.9062 h -21.39 v 22.549 h 21.39 v -22.549 m -65.33,66.516 h -43.963 v -0.004 h -0.004 v -43.963 h -22.549 v 43.967 h 22.545 v 0.002 h 0.004 v 21.361 h 43.967 V 244.18 m 0,21.363 v 22.576 h 21.363 v -22.576 h -21.363 m 21.363,22.576 v 21.391 h -21.363 v 22.549 h 43.94 v -43.94 h -22.577 m -21.363,21.391 v -0.002 h 10.678 10.681 V 288.125 H 190.84 180.162 v -0.006 h -0.012 v -11.277 -11.285 h -21.974 -21.977 v 11.285 11.277 h -0.004 v 21.391 h 43.967 m -43.967,-21.391 v -22.562 h 0.004 v -0.01 h -0.004 v -0.004 h -0.004 v -21.362 h -22.545 v -0.002 h -0.004 v -0.004 h -0.011 v 0.004 H 92.2559 v 21.364 h 21.3871 v 0.004 h 0.004 v 22.572 h 22.548 m -22.549,0 h -0.015 v -0.586 -21.976 H 92.2559 v -0.014 H 69.6797 v 22.576 H 92.252 v 0.004 h 0.0039 V 309.51 H 113.646 V 288.119 M 92.2559,309.51 H 92.25 v -0.002 h 0.002 V 288.123 H 69.6816 v 0.002 h -0.002 v -0.006 H 48.3164 v 21.391 h 21.3594 v 0.004 h 0.0039 v 22.545 H 92.2559 V 309.51 M 69.6797,332.059 H 69.6758 V 309.514 H 48.3164 V 309.51 H 48.3125 V 288.125 H 48.2988 V 309.51 H 4.37891 l -0.0293,2.693 v 63.822 H 69.6797 V 332.076 H 70.2754 92.25 v -0.015 H 69.6797 v -0.002 m 43.9513,-66.502 h 0.012 v -0.01 h -0.012 v 0.01 M 92.2559,244.18 v -0.004 h 10.6851 10.69 v -21.975 -21.976 h -10.69 -10.6851 v -0.012 H 92.25 V 188.941 177.666 H 69.6816 v 11.275 11.272 h -0.002 V 244.18 H 92.2559 M 69.6797,200.213 V 177.664 H 92.2559 V 156.273 H 48.3164 v 43.94 h 21.3633 m 22.5762,-22.549 v 22.549 H 113.646 V 177.664 H 92.2559 M 25.7402,332.059 h 22.5723 v 0.002 h 0.0039 v 21.388 H 48.2988 V 342.768 332.076 H 37.0156 25.7402 v -0.017 m 22.5586,0.017 h 0.0137 v -0.015 h -0.0137 v 0.015"
       inkscape:label="Outline"
       transform="scale(0.264583)" />
  </g>
  <g
     inkscape:label="B.Cu"
     inkscape:groupmode="layer"
     id="g842"
     style="display:inline" />
  <g
     inkscape:label="B.Mask"
     inkscape:groupmode="layer"
     id="g844"
     style="display:inline" />
  <g
     inkscape:label="B.SilkS"
     inkscape:groupmode="layer"
     id="g846"
     style="display:inline" />
  <g
     inkscape:label="F.Cu"
     inkscape:groupmode="layer"
     id="g848"
     style="display:inline">
    <path
       id="path870"
       style="display:inline;fill:#0000ff;fill-rule:evenodd;stroke:none;stroke-width:0.890993"
       d="m 82.549967,6.4624241 v 0.0014 h 0.0014 v -0.0014 z m 0.0014,0.0014 v 5.6527349 h -0.0014 v 0.0028 H 79.56452 76.578611 v 2.985908 2.985448 h -2.828438 -2.828441 v 2.8289 2.82844 h -0.0032 v 9.19e-4 h -5.966293 v 5.966291 h -0.0019 v 0.0041 h -2.828441 -2.8289 v 2.82844 2.82844 h -2.985447 -2.985907 v 2.985908 2.985447 h -0.0024 v 4.72e-4 h -5.652275 v 5.659641 h -5.973197 v 5.965831 h -4.71e-4 v 0.0028 H 38.8644 36.03596 v 5.814347 5.814347 h 5.814347 5.814347 v -2.985907 -2.985446 h 0.0024 v -4.72e-4 h 5.652275 v -5.659642 h 5.973197 v -5.96583 h 4.72e-4 v -0.0028 h 2.8289 2.828441 v -2.82845 -2.828899 h 2.985446 2.982687 v -5.972737 h 5.659641 v -5.659644 h 5.971802 v -2.981764 -2.985448 h 2.8289 2.828441 v -2.82844 -2.8289 h 0.0032 v -9.21e-4 h 5.966319 V 6.4638051 Z M 94.176806,18.089747 v 9.22e-4 h 0.0019 v -9.22e-4 z M 76.578151,35.374853 v 0.0014 h 4.72e-4 v -0.0014 z m -17.285575,17.59867 v 0.0028 h 4.71e-4 v -0.0028 z m -5.973197,5.659641 v 4.72e-4 h 0.0024 v -4.72e-4 z M 36.036107,64.60498 h -0.0019 v 0.0014 h 0.0019 z m -0.0019,0.0014 h -5.966293 v 5.652737 h 5.966293 z m 0,5.652737 v 0.0028 h 0.0019 v -0.0028 z m 0.0019,0.0028 v 2.985907 2.984528 h 11.628694 v -2.984528 -2.985907 h -5.814347 z m -5.968134,-0.0028 h -0.0032 v 0.0028 h 0.0032 z m -0.0032,0.0028 H 24.40836 v 5.970435 h 5.65642 v -0.156087 z m -5.656413,5.970406 h -5.971815 v 9.43e-4 h -0.0014 v 5.658722 h 5.972736 v -0.0014 h 4.72e-4 z m -5.973197,5.659642 h -5.652304 v 5.96583 h 5.652275 z m 0,5.96583 v 0.0041 h 0.158389 5.814348 v -0.0041 z m -5.652275,0 h -0.0037 v 0.0041 h 0.0037 z m -0.0037,0.0041 H 9.793728 6.8096619 v 5.655497 h 5.9695131 v -2.827061 z m 0.0037,-5.969974 v -5.658723 h -0.0037 v 5.658723 z M 30.067973,64.606366 v -0.0014 h -0.0032 v 0.0014 z m -0.0032,-0.0014 V 58.790647 52.9763 H 27.236339 24.40836 v 11.628694 h 2.827979 z M 41.6939,47.007664 v -0.0028 h -4.71e-4 v 0.0028 z m 5.973197,-5.659642 v -4.72e-4 h -0.0024 v 4.72e-4 z M 64.95221,23.748892 v -9.2e-4 h -0.0019 v 9.2e-4 z M 18.436516,47.007693 v 2.983146 2.982684 h 5.971355 v -2.982684 -2.983146 z m 29.230588,29.225522 v 5.65734 h 2.826137 2.826138 v -5.65734 h -2.826138 z" />
  </g>
  <g
     inkscape:label="F.Mask"
     inkscape:groupmode="layer"
     id="g850"
     style="display:inline" />
  <g
     inkscape:label="F.SilkS"
     inkscape:groupmode="layer"
     id="g852"
     style="display:inline">
    <path
       id="path872"
       style="display:inline;fill:none;fill-rule:evenodd;stroke:#ffff00;stroke-width:0.191;stroke-miterlimit:4;stroke-dasharray:none"
       d="m 83.279317,0.48990808 -0.727025,0.0074 V 6.4631381 H 94.177764 V 18.089071 h 5.659644 V 0.48990808 Z M 94.177764,18.089038 h -5.96629 v 5.659182 h 5.96629 z m -5.96629,5.659182 h -5.659182 v 5.966291 h 5.659182 z m -5.659182,5.966291 h -5.973197 v 5.659642 h 5.973197 z m -5.973197,5.659642 h -5.659641 v 5.973197 h 5.659641 z m -5.659641,5.973197 h -5.966292 v 5.659643 h 5.966292 z m -5.966292,5.659643 H 59.29352 v 5.96583 h 5.659642 z m -5.659642,5.96583 h -5.973197 v 5.659641 h 5.973197 z m -5.973197,5.659641 h -5.652275 v 5.973197 h 5.652275 z m -5.652275,5.973197 H 36.035209 v 5.652737 h 11.632839 z m 0,5.652737 v 5.973197 h 5.652275 v -5.973197 z m 5.652275,5.973197 v 5.659642 h -5.652275 v 5.96583 H 59.29352 V 76.231595 Z m -5.652275,5.659642 V 76.231595 H 36.035209 v 5.659642 z M 36.035209,76.231595 v -5.973197 h -5.966292 v 5.973197 z m -5.966292,0 h -5.659642 v 5.659642 h 5.659642 z m -5.659642,5.659642 h -5.973197 v 5.96583 h 5.973197 z m -5.973197,5.96583 h -5.652275 v 5.659642 H 6.8106056 v -5.659642 h 5.9731974 v -5.96583 H 1.1583301 l -0.00737,0.712751 v 16.88592 H 18.436078 Z m -5.652275,-5.96583 h 5.652275 v -5.659642 h -5.652275 z m 5.652275,-5.659642 h 5.973197 v -5.973197 h -5.973197 z m 5.973197,-5.973197 h 5.659642 v -5.652737 h -5.659642 z m 0,-5.652737 V 52.972823 H 18.436078 V 64.605661 Z M 18.436078,52.972823 v -5.96583 h 5.973197 V 41.34735 H 12.783803 v 11.625473 z m 5.973197,-5.96583 v 5.96583 h 5.659642 v -5.96583 z m 5.659642,5.96583 v 11.632838 h 5.966292 V 52.972823 Z m 5.966292,0 h 5.659642 v -5.96583 h -5.659642 z m 5.659642,-5.96583 h 5.973197 V 41.34735 h -5.973197 z m 5.973197,-5.659643 h 5.652275 v -5.973197 h -5.652275 z m 5.652275,-5.973197 h 5.973197 v -5.659642 h -5.973197 z m 5.973197,-5.659642 h 5.659642 V 23.74822 H 59.29352 Z m 5.659642,-5.966291 h 5.966292 v -5.659182 h -5.966292 z m 5.966292,-5.659182 h 5.659641 v -5.973197 h -5.659641 z m 5.659641,-5.973197 h 5.973197 V 6.4631051 h -5.973197 z"
       inkscape:label="BlockOutline" />
  </g>
  <g
     inkscape:label="Dwgs.User"
     inkscape:groupmode="layer"
     id="g854"
     style="display:inline" />
  <g
     inkscape:label="Drill"
     inkscape:groupmode="layer"
     id="g856">
    <path
       id="path900"
       style="display:none;fill:#000000;fill-rule:evenodd;stroke:none;stroke-width:0.890993"
       d="m 83.279317,0.48990808 -0.727025,0.0074 V 6.4631381 H 94.177764 V 18.089071 h 5.659644 V 0.48990808 Z M 94.177764,18.089038 h -5.96629 v 5.659182 h 5.96629 z m -5.96629,5.659182 h -5.659182 v 5.966291 h 5.659182 z m -5.659182,5.966291 h -5.973197 v 5.659642 h 5.973197 z m -5.973197,5.659642 h -5.659641 v 5.973197 h 5.659641 z m -5.659641,5.973197 h -5.966292 v 5.659643 h 5.966292 z m -5.966292,5.659643 H 59.29352 v 5.96583 h 5.659642 z m -5.659642,5.96583 h -5.973197 v 5.659641 h 5.973197 z m -5.973197,5.659641 h -5.652275 v 5.973197 h 5.652275 z m -5.652275,5.973197 H 36.035209 v 5.652737 h 11.632839 z m 0,5.652737 v 5.973197 h 5.652275 v -5.973197 z m 5.652275,5.973197 v 5.659642 h -5.652275 v 5.96583 H 59.29352 V 76.231595 Z m -5.652275,5.659642 V 76.231595 H 36.035209 v 5.659642 z M 36.035209,76.231595 v -5.973197 h -5.966292 v 5.973197 z m -5.966292,0 h -5.659642 v 5.659642 h 5.659642 z m -5.659642,5.659642 h -5.973197 v 5.96583 h 5.973197 z m -5.973197,5.96583 h -5.652275 v 5.659642 H 6.8106056 v -5.659642 h 5.9731974 v -5.96583 H 1.1583301 l -0.00737,0.712751 v 16.88592 H 18.436078 Z m -5.652275,-5.96583 h 5.652275 v -5.659642 h -5.652275 z m 5.652275,-5.659642 h 5.973197 v -5.973197 h -5.973197 z m 5.973197,-5.973197 h 5.659642 v -5.652737 h -5.659642 z m 0,-5.652737 V 52.972823 H 18.436078 V 64.605661 Z M 18.436078,52.972823 v -5.96583 h 5.973197 V 41.34735 H 12.783803 v 11.625473 z m 5.973197,-5.96583 v 5.96583 h 5.659642 v -5.96583 z m 5.659642,5.96583 v 11.632838 h 5.966292 V 52.972823 Z m 5.966292,0 h 5.659642 v -5.96583 h -5.659642 z m 5.659642,-5.96583 h 5.973197 V 41.34735 h -5.973197 z m 5.973197,-5.659643 h 5.652275 v -5.973197 h -5.652275 z m 5.652275,-5.973197 h 5.973197 v -5.659642 h -5.973197 z m 5.973197,-5.659642 h 5.659642 V 23.74822 H 59.29352 Z m 5.659642,-5.966291 h 5.966292 v -5.659182 h -5.966292 z m 5.966292,-5.659182 h 5.659641 v -5.973197 h -5.659641 z m 5.659641,-5.973197 h 5.973197 V 6.4631051 h -5.973197 z"
       inkscape:label="unused" />
  </g>
</svg>
