<?xml version="1.0" encoding="UTF-8"?>
<svg xmlns="http://www.w3.org/2000/svg" xmlns:xlink="http://www.w3.org/1999/xlink" width="110.758mm" height="111.111mm" viewBox="-204.361389 219.372894 110.758377 111.111115">
    <path transform="matrix(-0.352734,0,0,0.352734,-93.603012,219.020157)" style="stroke:#000000;stroke-width:0.05mm;fill:none" d="M259,297.5L259,279L249.5,279L240,279L240,269.5L240,260L231,260L222,260L222,251L222,242L212.5,242L203,242L203,251L203,260L184.5,260L166,260L166,269.5L166,279L147.5,279L129,279L129,260.5L129,242L138.5,242L148,242L148,232.5L148,223L157,223L166,223L166,214L166,205L157,205L148,205L148,195.5L148,186L138.5,186L129,186L129,177L129,168L120,168L111,168L111,158.5L111,149L101.5,149L92,149L92,140L92,131L83,131L74,131L74,121.5L74,112L64.5,112L55,112L55,103L55,94L46,94L37,94L37,84.5L37,75L27.5,75L18,75L18,66L18,57L9,57L0,57L0,29L0,1L27.5,1L55,1L55,10.5L55,20L64.5,20L74,20L74,29L74,38L83,38L92,38L92,47.5L92,57L101.5,57L111,57L111,66L111,75L120,75L129,75L129,84.5L129,94L138.5,94L148,94L148,103L148,112L157,112L166,112L166,121.5L166,131L175.5,131L185,131L185,140L185,149L194,149L203,149L203,158.5L203,168L212.5,168L222,168L222,158.5L222,149L231,149L240,149L240,140L240,131L258.5,131L277,131L277,149.5L277,168L268,168L259,168L259,186.5L259,205L249.5,205L240,205L240,214L240,223L249.5,223L259,223L259,232.5L259,242L268,242L277,242L277,251L277,260L295.5,260L314,260L314,288L314,316L286.5,316L259,316L259,297.5z"/>
</svg>
