M48
; DRILL file {KiCad (6.0.1)} date Sat Jun 11 11:37:19 2022
; FORMAT={-:-/ absolute / inch / decimal}
; #@! TF.CreationDate,2022-06-11T11:37:19-05:00
; #@! TF.GenerationSoftware,Kicad,Pcbnew,(6.0.1)
; #@! TF.FileFunction,Plated,1,2,PTH
FMAT,2
INCH
; #@! TA.AperFunction,Plated,PTH,ComponentDrill
T1C0.0400
; #@! TA.AperFunction,Plated,PTH,ComponentDrill
T2C0.2165
%
G90
G05
T1
X3.5632Y-5.2234
X3.5632Y-5.3234
X3.5632Y-5.4234
X3.6632Y-5.2234
X3.6632Y-5.3234
X3.6632Y-5.4234
X4.7035Y-4.2312
X4.7035Y-4.3312
X4.8035Y-4.2312
X4.8035Y-4.3312
X4.9035Y-4.2312
X4.9035Y-4.3312
X5.1155Y-2.3952
X5.1155Y-2.4952
X5.2155Y-2.3952
X5.2155Y-2.4952
X5.3155Y-2.3952
X5.3155Y-2.4952
X5.9531Y-3.0182
X6.0238Y-2.9475
X6.0238Y-3.0889
X6.0945Y-3.0182
X6.0945Y-3.1597
X6.1652Y-3.0889
X6.5748Y-3.7925
X6.5748Y-3.8925
X6.5748Y-3.9925
X6.6748Y-3.7925
X6.6748Y-3.8925
X6.6748Y-3.9925
T2
X7.144Y-1.95
T0
M30
