%TF.GenerationSoftware,KiCad,Pcbnew,7.0.2*%
%TF.CreationDate,2023-08-16T09:45:11-05:00*%
%TF.ProjectId,Project Narsil Sword,50726f6a-6563-4742-904e-617273696c20,rev?*%
%TF.SameCoordinates,Original*%
%TF.FileFunction,Copper,L1,Top*%
%TF.FilePolarity,Positive*%
%FSLAX46Y46*%
G04 Gerber Fmt 4.6, Leading zero omitted, Abs format (unit mm)*
G04 Created by KiCad (PCBNEW 7.0.2) date 2023-08-16 09:45:11*
%MOMM*%
%LPD*%
G01*
G04 APERTURE LIST*
G04 Aperture macros list*
%AMHorizOval*
0 Thick line with rounded ends*
0 $1 width*
0 $2 $3 position (X,Y) of the first rounded end (center of the circle)*
0 $4 $5 position (X,Y) of the second rounded end (center of the circle)*
0 Add line between two ends*
20,1,$1,$2,$3,$4,$5,0*
0 Add two circle primitives to create the rounded ends*
1,1,$1,$2,$3*
1,1,$1,$4,$5*%
%AMRotRect*
0 Rectangle, with rotation*
0 The origin of the aperture is its center*
0 $1 length*
0 $2 width*
0 $3 Rotation angle, in degrees counterclockwise*
0 Add horizontal line*
21,1,$1,$2,0,0,$3*%
G04 Aperture macros list end*
%TA.AperFunction,ComponentPad*%
%ADD10C,6.000000*%
%TD*%
%TA.AperFunction,ComponentPad*%
%ADD11O,1.727200X1.727200*%
%TD*%
%TA.AperFunction,ComponentPad*%
%ADD12R,1.727200X1.727200*%
%TD*%
%TA.AperFunction,ComponentPad*%
%ADD13C,1.727200*%
%TD*%
%TA.AperFunction,ComponentPad*%
%ADD14HorizOval,1.727200X0.000000X0.000000X0.000000X0.000000X0*%
%TD*%
%TA.AperFunction,ComponentPad*%
%ADD15RotRect,1.727200X1.727200X225.000000*%
%TD*%
%TA.AperFunction,ViaPad*%
%ADD16C,0.600000*%
%TD*%
%TA.AperFunction,Conductor*%
%ADD17C,0.250000*%
%TD*%
G04 APERTURE END LIST*
D10*
%TO.P,REF\u002A\u002A,1*%
%TO.N,N/C*%
X181457600Y-49530000D03*
%TD*%
D11*
%TO.P,X5,1,VCC*%
%TO.N,VCC*%
X91813700Y-136966000D03*
D12*
%TO.P,X5,2,GND*%
%TO.N,GND*%
X89273700Y-136966000D03*
D11*
%TO.P,X5,3,SDA*%
%TO.N,unconnected-(X5-SDA-Pad3)*%
X91813700Y-139506000D03*
%TO.P,X5,4,SCL*%
%TO.N,unconnected-(X5-SCL-Pad4)*%
X89273700Y-139506000D03*
D13*
%TO.P,X5,5,GPIO1*%
%TO.N,unconnected-(X5-GPIO1-Pad5)*%
X91813700Y-142046000D03*
%TO.P,X5,6,GPIO2*%
%TO.N,unconnected-(X5-GPIO2-Pad6)*%
X89273700Y-142046000D03*
%TD*%
D14*
%TO.P,X1,1,VCC*%
%TO.N,VCC*%
X160751471Y-66475627D03*
D15*
%TO.P,X1,2,GND*%
%TO.N,GND*%
X158955420Y-68271679D03*
D14*
%TO.P,X1,3,SDA*%
%TO.N,unconnected-(X1-SDA-Pad3)*%
X162547523Y-68271679D03*
%TO.P,X1,4,SCL*%
%TO.N,unconnected-(X1-SCL-Pad4)*%
X160751471Y-70067730D03*
D13*
%TO.P,X1,5,GPIO1*%
%TO.N,unconnected-(X1-GPIO1-Pad5)*%
X164343574Y-70067730D03*
%TO.P,X1,6,GPIO2*%
%TO.N,unconnected-(X1-GPIO2-Pad6)*%
X162547523Y-71863781D03*
%TD*%
D14*
%TO.P,X4,1,VCC*%
%TO.N,VCC*%
X123756148Y-103882646D03*
D15*
%TO.P,X4,2,GND*%
%TO.N,GND*%
X121960097Y-105678698D03*
D14*
%TO.P,X4,3,SDA*%
%TO.N,unconnected-(X4-SDA-Pad3)*%
X125552200Y-105678698D03*
%TO.P,X4,4,SCL*%
%TO.N,unconnected-(X4-SCL-Pad4)*%
X123756148Y-107474749D03*
D13*
%TO.P,X4,5,GPIO1*%
%TO.N,unconnected-(X4-GPIO1-Pad5)*%
X127348251Y-107474749D03*
%TO.P,X4,6,GPIO2*%
%TO.N,unconnected-(X4-GPIO2-Pad6)*%
X125552200Y-109270800D03*
%TD*%
D11*
%TO.P,X3,1,VCC*%
%TO.N,VCC*%
X169541000Y-96330700D03*
D12*
%TO.P,X3,2,GND*%
%TO.N,GND*%
X167001000Y-96330700D03*
D11*
%TO.P,X3,3,SDA*%
%TO.N,unconnected-(X3-SDA-Pad3)*%
X169541000Y-98870700D03*
%TO.P,X3,4,SCL*%
%TO.N,unconnected-(X3-SCL-Pad4)*%
X167001000Y-98870700D03*
D13*
%TO.P,X3,5,GPIO1*%
%TO.N,unconnected-(X3-GPIO1-Pad5)*%
X169541000Y-101410700D03*
%TO.P,X3,6,GPIO2*%
%TO.N,unconnected-(X3-GPIO2-Pad6)*%
X167001000Y-101410700D03*
%TD*%
D11*
%TO.P,X2,1,VCC*%
%TO.N,VCC*%
X129934900Y-60837000D03*
D12*
%TO.P,X2,2,GND*%
%TO.N,GND*%
X129934900Y-63377000D03*
D11*
%TO.P,X2,3,SDA*%
%TO.N,unconnected-(X2-SDA-Pad3)*%
X132474900Y-60837000D03*
%TO.P,X2,4,SCL*%
%TO.N,unconnected-(X2-SCL-Pad4)*%
X132474900Y-63377000D03*
D13*
%TO.P,X2,5,GPIO1*%
%TO.N,unconnected-(X2-GPIO1-Pad5)*%
X135014900Y-60837000D03*
%TO.P,X2,6,GPIO2*%
%TO.N,unconnected-(X2-GPIO2-Pad6)*%
X135014900Y-63377000D03*
%TD*%
D16*
%TO.N,VCC*%
X104825000Y-113100000D03*
X94875000Y-124346326D03*
%TD*%
D17*
%TO.N,VCC*%
X94875000Y-124346326D02*
X104825000Y-114396326D01*
X104825000Y-114396326D02*
X104825000Y-113100000D01*
%TD*%
%TA.AperFunction,Conductor*%
%TO.N,GND*%
G36*
X182697744Y-45287420D02*
G01*
X182710158Y-45286971D01*
X182710159Y-45286972D01*
X182722932Y-45286510D01*
X182730145Y-45286458D01*
X183037074Y-45293021D01*
X183051476Y-45294157D01*
X183352030Y-45335333D01*
X183366201Y-45338110D01*
X183660065Y-45413436D01*
X183673820Y-45417816D01*
X183957116Y-45526296D01*
X183970294Y-45532230D01*
X184116389Y-45608375D01*
X184239300Y-45672436D01*
X184251709Y-45679838D01*
X184502888Y-45849930D01*
X184514371Y-45858707D01*
X184744417Y-46056442D01*
X184754819Y-46066477D01*
X184960708Y-46289258D01*
X184969893Y-46300417D01*
X185148913Y-46545307D01*
X185156760Y-46557446D01*
X185306558Y-46821231D01*
X185312962Y-46834187D01*
X185431565Y-47113387D01*
X185436444Y-47126992D01*
X185522294Y-47417943D01*
X185525582Y-47432018D01*
X185577545Y-47730871D01*
X185579201Y-47745229D01*
X185596839Y-48052264D01*
X185597045Y-48060087D01*
X185554191Y-57111506D01*
X185522936Y-63713090D01*
X185522733Y-63755897D01*
X185502408Y-63823922D01*
X185448533Y-63870160D01*
X185396734Y-63881300D01*
X174001348Y-63881300D01*
X173982891Y-63877456D01*
X173964621Y-63877130D01*
X173945693Y-63884970D01*
X173926586Y-63892488D01*
X173925981Y-63893071D01*
X173918120Y-63912048D01*
X173909939Y-63930844D01*
X173909939Y-63949118D01*
X173913450Y-63967637D01*
X173842594Y-67935692D01*
X173820657Y-69164200D01*
X173815604Y-69447150D01*
X173794389Y-69514902D01*
X173739912Y-69560430D01*
X173689624Y-69570900D01*
X168310109Y-69570900D01*
X168289191Y-69566739D01*
X168275000Y-69566739D01*
X168264955Y-69570900D01*
X168236349Y-69582748D01*
X168236348Y-69582749D01*
X168236349Y-69582749D01*
X168221408Y-69618821D01*
X168220339Y-69621401D01*
X168220339Y-69635593D01*
X168224500Y-69656509D01*
X168224500Y-75363100D01*
X168204498Y-75431221D01*
X168150842Y-75477714D01*
X168098500Y-75489100D01*
X162468109Y-75489100D01*
X162447191Y-75484939D01*
X162433000Y-75484939D01*
X162422955Y-75489100D01*
X162394349Y-75500948D01*
X162389152Y-75513496D01*
X162380002Y-75535587D01*
X162378339Y-75539601D01*
X162378339Y-75553793D01*
X162382500Y-75574709D01*
X162382500Y-80203492D01*
X162378339Y-80224412D01*
X162378339Y-80238601D01*
X162382499Y-80248644D01*
X162394348Y-80277249D01*
X162394349Y-80277251D01*
X162433000Y-80293261D01*
X162433001Y-80293260D01*
X162433002Y-80293261D01*
X162447192Y-80293261D01*
X162468110Y-80289100D01*
X168149300Y-80289100D01*
X168217421Y-80309102D01*
X168263914Y-80362758D01*
X168275300Y-80415100D01*
X168275300Y-91811292D01*
X168271139Y-91832212D01*
X168271139Y-91846401D01*
X168275299Y-91856444D01*
X168287148Y-91885049D01*
X168287149Y-91885051D01*
X168325800Y-91901061D01*
X168325801Y-91901060D01*
X168325802Y-91901061D01*
X168339992Y-91901061D01*
X168360910Y-91896900D01*
X173889700Y-91896900D01*
X173957821Y-91916902D01*
X174004314Y-91970558D01*
X174015700Y-92022900D01*
X174015700Y-104573461D01*
X173995698Y-104641582D01*
X173942042Y-104688075D01*
X173889959Y-104699461D01*
X161696478Y-104724500D01*
X161568843Y-104724500D01*
X161500722Y-104704498D01*
X161454229Y-104650842D01*
X161442844Y-104597971D01*
X161456236Y-101410700D01*
X165624198Y-101410700D01*
X165642976Y-101637314D01*
X165642976Y-101637317D01*
X165642977Y-101637318D01*
X165698796Y-101857745D01*
X165790139Y-102065985D01*
X165914510Y-102256350D01*
X166068515Y-102423645D01*
X166247960Y-102563312D01*
X166356049Y-102621807D01*
X166447945Y-102671539D01*
X166663015Y-102745372D01*
X166752731Y-102760343D01*
X166887302Y-102782800D01*
X166887305Y-102782800D01*
X167114698Y-102782800D01*
X167226840Y-102764086D01*
X167338985Y-102745372D01*
X167554055Y-102671539D01*
X167754039Y-102563312D01*
X167933483Y-102423646D01*
X168087490Y-102256349D01*
X168165516Y-102136920D01*
X168219520Y-102090831D01*
X168289868Y-102081256D01*
X168354225Y-102111233D01*
X168376483Y-102136920D01*
X168454510Y-102256350D01*
X168608515Y-102423645D01*
X168787960Y-102563312D01*
X168896049Y-102621807D01*
X168987945Y-102671539D01*
X169203015Y-102745372D01*
X169292731Y-102760343D01*
X169427302Y-102782800D01*
X169427305Y-102782800D01*
X169654698Y-102782800D01*
X169766839Y-102764086D01*
X169878985Y-102745372D01*
X170094055Y-102671539D01*
X170294039Y-102563312D01*
X170473483Y-102423646D01*
X170627490Y-102256349D01*
X170751861Y-102065985D01*
X170843203Y-101857747D01*
X170899024Y-101637314D01*
X170917802Y-101410700D01*
X170899024Y-101184086D01*
X170843203Y-100963653D01*
X170751861Y-100755415D01*
X170627490Y-100565051D01*
X170627489Y-100565049D01*
X170473484Y-100397754D01*
X170294039Y-100258088D01*
X170281891Y-100251514D01*
X170231500Y-100201502D01*
X170216147Y-100132185D01*
X170240707Y-100065572D01*
X170281891Y-100029886D01*
X170294039Y-100023312D01*
X170473483Y-99883646D01*
X170627490Y-99716349D01*
X170751861Y-99525985D01*
X170843203Y-99317747D01*
X170899024Y-99097314D01*
X170917802Y-98870700D01*
X170899024Y-98644086D01*
X170843203Y-98423653D01*
X170751861Y-98215415D01*
X170656269Y-98069100D01*
X170627489Y-98025049D01*
X170473484Y-97857754D01*
X170294039Y-97718088D01*
X170281891Y-97711514D01*
X170231500Y-97661502D01*
X170216147Y-97592185D01*
X170240707Y-97525572D01*
X170281891Y-97489886D01*
X170294039Y-97483312D01*
X170473483Y-97343646D01*
X170627490Y-97176349D01*
X170751861Y-96985985D01*
X170843203Y-96777747D01*
X170899024Y-96557314D01*
X170917802Y-96330700D01*
X170899024Y-96104086D01*
X170843203Y-95883653D01*
X170751861Y-95675415D01*
X170627490Y-95485051D01*
X170627489Y-95485049D01*
X170473484Y-95317754D01*
X170294039Y-95178087D01*
X170094056Y-95069861D01*
X169878982Y-94996027D01*
X169654698Y-94958600D01*
X169654695Y-94958600D01*
X169427305Y-94958600D01*
X169427302Y-94958600D01*
X169203017Y-94996027D01*
X168987943Y-95069861D01*
X168787960Y-95178087D01*
X168608518Y-95317752D01*
X168564333Y-95365750D01*
X168503479Y-95402321D01*
X168432515Y-95400186D01*
X168373970Y-95360024D01*
X168353576Y-95324444D01*
X168315045Y-95221136D01*
X168227504Y-95104195D01*
X168110562Y-95016654D01*
X167973693Y-94965605D01*
X167916536Y-94959459D01*
X167909823Y-94959100D01*
X167255000Y-94959100D01*
X167255000Y-95888229D01*
X167145592Y-95838265D01*
X167037334Y-95822700D01*
X166964666Y-95822700D01*
X166856408Y-95838265D01*
X166747000Y-95888229D01*
X166747000Y-94959100D01*
X166092177Y-94959100D01*
X166085463Y-94959459D01*
X166028306Y-94965605D01*
X165891437Y-95016654D01*
X165774495Y-95104195D01*
X165686954Y-95221137D01*
X165635905Y-95358006D01*
X165629759Y-95415163D01*
X165629400Y-95421877D01*
X165629400Y-96076700D01*
X166560375Y-96076700D01*
X166534155Y-96117499D01*
X166493000Y-96257661D01*
X166493000Y-96403739D01*
X166534155Y-96543901D01*
X166560375Y-96584700D01*
X165629400Y-96584700D01*
X165629400Y-97239522D01*
X165629759Y-97246236D01*
X165635905Y-97303393D01*
X165686954Y-97440262D01*
X165774495Y-97557204D01*
X165891436Y-97644745D01*
X165993615Y-97682855D01*
X166050451Y-97725401D01*
X166075262Y-97791921D01*
X166060171Y-97861296D01*
X166042285Y-97886248D01*
X165914508Y-98025052D01*
X165790139Y-98215414D01*
X165698796Y-98423654D01*
X165651749Y-98609441D01*
X165642976Y-98644086D01*
X165624198Y-98870700D01*
X165642976Y-99097314D01*
X165642976Y-99097317D01*
X165642977Y-99097318D01*
X165698796Y-99317745D01*
X165790139Y-99525985D01*
X165914510Y-99716350D01*
X166068515Y-99883645D01*
X166247960Y-100023312D01*
X166260110Y-100029887D01*
X166310500Y-100079900D01*
X166325852Y-100149217D01*
X166301291Y-100215830D01*
X166260110Y-100251513D01*
X166247960Y-100258087D01*
X166068515Y-100397754D01*
X165914510Y-100565049D01*
X165790139Y-100755414D01*
X165698796Y-100963654D01*
X165642977Y-101184081D01*
X165642976Y-101184086D01*
X165624198Y-101410700D01*
X161456236Y-101410700D01*
X161458989Y-100755414D01*
X161467350Y-98765542D01*
X161471527Y-98745240D01*
X161471661Y-98730029D01*
X161463793Y-98710809D01*
X161455988Y-98691487D01*
X161455819Y-98691314D01*
X161436751Y-98683321D01*
X161417482Y-98675141D01*
X161402279Y-98675077D01*
X161381924Y-98678987D01*
X155826590Y-98630042D01*
X155758648Y-98609441D01*
X155712630Y-98555378D01*
X155701700Y-98504047D01*
X155701700Y-92872562D01*
X155705785Y-92852284D01*
X155705861Y-92837002D01*
X155697896Y-92817771D01*
X155690040Y-92798536D01*
X155689857Y-92798351D01*
X155670661Y-92790400D01*
X155651469Y-92782339D01*
X155636195Y-92782338D01*
X155615893Y-92786323D01*
X150555693Y-92761273D01*
X150534704Y-92756998D01*
X150520631Y-92756939D01*
X150500685Y-92765102D01*
X150492911Y-92768277D01*
X150481920Y-92772766D01*
X150481911Y-92772786D01*
X150481912Y-92772786D01*
X150473786Y-92792172D01*
X150471192Y-92798349D01*
X150465739Y-92811330D01*
X150465670Y-92825398D01*
X150469752Y-92846425D01*
X150445244Y-98654630D01*
X150424955Y-98722665D01*
X150371103Y-98768931D01*
X150318672Y-98780097D01*
X144941917Y-98755657D01*
X144920464Y-98751339D01*
X144907000Y-98751339D01*
X144887708Y-98759329D01*
X144868512Y-98767179D01*
X144868354Y-98767335D01*
X144860370Y-98786609D01*
X144852340Y-98805751D01*
X144852279Y-98819221D01*
X144856500Y-98840692D01*
X144856500Y-104369900D01*
X144836498Y-104438021D01*
X144782842Y-104484514D01*
X144730500Y-104495900D01*
X138998509Y-104495900D01*
X138977591Y-104491739D01*
X138963400Y-104491739D01*
X138953355Y-104495900D01*
X138924749Y-104507748D01*
X138908739Y-104546401D01*
X138908739Y-104560593D01*
X138912900Y-104581509D01*
X138912900Y-110211900D01*
X138892898Y-110280021D01*
X138839242Y-110326514D01*
X138786900Y-110337900D01*
X133283509Y-110337900D01*
X133262591Y-110333739D01*
X133248400Y-110333739D01*
X133238355Y-110337900D01*
X133209749Y-110349748D01*
X133193738Y-110388401D01*
X133193738Y-110402584D01*
X133197899Y-110423503D01*
X133197900Y-115952300D01*
X133177898Y-116020421D01*
X133124242Y-116066914D01*
X133071900Y-116078300D01*
X127391108Y-116078300D01*
X127370747Y-116074204D01*
X127355837Y-116074139D01*
X127355836Y-116074139D01*
X127355601Y-116074138D01*
X127336423Y-116082082D01*
X127317095Y-116089990D01*
X127316958Y-116090125D01*
X127308977Y-116109391D01*
X127300938Y-116128567D01*
X127300939Y-116143708D01*
X127304946Y-116164084D01*
X127280457Y-121821041D01*
X127260160Y-121889075D01*
X127206304Y-121935335D01*
X127155031Y-121946495D01*
X121776268Y-121970943D01*
X121754274Y-121966773D01*
X121741469Y-121966944D01*
X121722456Y-121975118D01*
X121703353Y-121983133D01*
X121703047Y-121983441D01*
X121695375Y-122002683D01*
X121687540Y-122021846D01*
X121687598Y-122034651D01*
X121692161Y-122056568D01*
X121723928Y-124439062D01*
X121763502Y-127407124D01*
X121765520Y-127558420D01*
X121746428Y-127626801D01*
X121693397Y-127674006D01*
X121639531Y-127686100D01*
X115733263Y-127686100D01*
X115714038Y-127682150D01*
X115697011Y-127681935D01*
X115677953Y-127689828D01*
X115658805Y-127697478D01*
X115658365Y-127697906D01*
X115650450Y-127717016D01*
X115642339Y-127735924D01*
X115642339Y-127752951D01*
X115646046Y-127772226D01*
X115572500Y-133606888D01*
X115551641Y-133674751D01*
X115497404Y-133720564D01*
X115446510Y-133731300D01*
X110067909Y-133731300D01*
X110046991Y-133727139D01*
X110032800Y-133727139D01*
X110022755Y-133731300D01*
X109994149Y-133743148D01*
X109978139Y-133781801D01*
X109978139Y-133795993D01*
X109982300Y-133816909D01*
X109982300Y-139193300D01*
X109962298Y-139261421D01*
X109908642Y-139307914D01*
X109856300Y-139319300D01*
X104124309Y-139319300D01*
X104103391Y-139315139D01*
X104089200Y-139315139D01*
X104079155Y-139319300D01*
X104050549Y-139331148D01*
X104034538Y-139369801D01*
X104034538Y-139383984D01*
X104038699Y-139404903D01*
X104038699Y-145111746D01*
X104018697Y-145179867D01*
X103965041Y-145226360D01*
X103912876Y-145237746D01*
X86156658Y-145262650D01*
X86088509Y-145242743D01*
X86041941Y-145189153D01*
X86030483Y-145135955D01*
X86039878Y-143442456D01*
X97316700Y-143442456D01*
X97357410Y-143607625D01*
X97436466Y-143758252D01*
X97549271Y-143885583D01*
X97689270Y-143982218D01*
X97848328Y-144042540D01*
X97974828Y-144057900D01*
X97978637Y-144057900D01*
X98055763Y-144057900D01*
X98059572Y-144057900D01*
X98186072Y-144042540D01*
X98345130Y-143982218D01*
X98485129Y-143885583D01*
X98597934Y-143758252D01*
X98676990Y-143607625D01*
X98717700Y-143442456D01*
X100316700Y-143442456D01*
X100357410Y-143607625D01*
X100436466Y-143758252D01*
X100549271Y-143885583D01*
X100689270Y-143982218D01*
X100848328Y-144042540D01*
X100974828Y-144057900D01*
X100978637Y-144057900D01*
X101055763Y-144057900D01*
X101059572Y-144057900D01*
X101186072Y-144042540D01*
X101345130Y-143982218D01*
X101485129Y-143885583D01*
X101597934Y-143758252D01*
X101676990Y-143607625D01*
X101717700Y-143442456D01*
X101717700Y-143272344D01*
X101676990Y-143107175D01*
X101597934Y-142956548D01*
X101485129Y-142829217D01*
X101402555Y-142772220D01*
X101345129Y-142732581D01*
X101186071Y-142672259D01*
X101063355Y-142657359D01*
X101063349Y-142657358D01*
X101059572Y-142656900D01*
X100974828Y-142656900D01*
X100971051Y-142657358D01*
X100971044Y-142657359D01*
X100848328Y-142672259D01*
X100689270Y-142732581D01*
X100549272Y-142829216D01*
X100549271Y-142829217D01*
X100436466Y-142956548D01*
X100357410Y-143107175D01*
X100316700Y-143272344D01*
X100316700Y-143442456D01*
X98717700Y-143442456D01*
X98717700Y-143272344D01*
X98676990Y-143107175D01*
X98597934Y-142956548D01*
X98485129Y-142829217D01*
X98402555Y-142772220D01*
X98345129Y-142732581D01*
X98186071Y-142672259D01*
X98063355Y-142657359D01*
X98063349Y-142657358D01*
X98059572Y-142656900D01*
X97974828Y-142656900D01*
X97971051Y-142657358D01*
X97971044Y-142657359D01*
X97848328Y-142672259D01*
X97689270Y-142732581D01*
X97549272Y-142829216D01*
X97549271Y-142829217D01*
X97436466Y-142956548D01*
X97357410Y-143107175D01*
X97316700Y-143272344D01*
X97316700Y-143442456D01*
X86039878Y-143442456D01*
X86047626Y-142046000D01*
X87896898Y-142046000D01*
X87915676Y-142272614D01*
X87915676Y-142272617D01*
X87915677Y-142272618D01*
X87971496Y-142493045D01*
X88062839Y-142701285D01*
X88187210Y-142891650D01*
X88341215Y-143058945D01*
X88520660Y-143198612D01*
X88656904Y-143272344D01*
X88720645Y-143306839D01*
X88935715Y-143380672D01*
X89025431Y-143395643D01*
X89160002Y-143418100D01*
X89160005Y-143418100D01*
X89387398Y-143418100D01*
X89499539Y-143399386D01*
X89611685Y-143380672D01*
X89826755Y-143306839D01*
X90026739Y-143198612D01*
X90206183Y-143058946D01*
X90360190Y-142891649D01*
X90438216Y-142772220D01*
X90492220Y-142726131D01*
X90562568Y-142716556D01*
X90626925Y-142746533D01*
X90649183Y-142772220D01*
X90727210Y-142891650D01*
X90881215Y-143058945D01*
X91060660Y-143198612D01*
X91196904Y-143272344D01*
X91260645Y-143306839D01*
X91475715Y-143380672D01*
X91565431Y-143395643D01*
X91700002Y-143418100D01*
X91700005Y-143418100D01*
X91927398Y-143418100D01*
X92039539Y-143399386D01*
X92151685Y-143380672D01*
X92366755Y-143306839D01*
X92566739Y-143198612D01*
X92746183Y-143058946D01*
X92900190Y-142891649D01*
X93024561Y-142701285D01*
X93115903Y-142493047D01*
X93171724Y-142272614D01*
X93190502Y-142046000D01*
X93171724Y-141819386D01*
X93115903Y-141598953D01*
X93024561Y-141390715D01*
X92900190Y-141200351D01*
X92900189Y-141200349D01*
X92746184Y-141033054D01*
X92566739Y-140893388D01*
X92554591Y-140886814D01*
X92504200Y-140836802D01*
X92488847Y-140767485D01*
X92513407Y-140700872D01*
X92554591Y-140665186D01*
X92566739Y-140658612D01*
X92746183Y-140518946D01*
X92900190Y-140351649D01*
X93024561Y-140161285D01*
X93115903Y-139953047D01*
X93171724Y-139732614D01*
X93190502Y-139506000D01*
X93171724Y-139279386D01*
X93115903Y-139058953D01*
X93024561Y-138850715D01*
X92958567Y-138749703D01*
X92900189Y-138660349D01*
X92746184Y-138493054D01*
X92566739Y-138353388D01*
X92554591Y-138346814D01*
X92504200Y-138296802D01*
X92488847Y-138227485D01*
X92513407Y-138160872D01*
X92554591Y-138125186D01*
X92566739Y-138118612D01*
X92746183Y-137978946D01*
X92900190Y-137811649D01*
X93024561Y-137621285D01*
X93115903Y-137413047D01*
X93171724Y-137192614D01*
X93190502Y-136966000D01*
X93171724Y-136739386D01*
X93115903Y-136518953D01*
X93024561Y-136310715D01*
X92900190Y-136120351D01*
X92900189Y-136120349D01*
X92746184Y-135953054D01*
X92566739Y-135813387D01*
X92366756Y-135705161D01*
X92151682Y-135631327D01*
X91927398Y-135593900D01*
X91927395Y-135593900D01*
X91700005Y-135593900D01*
X91700002Y-135593900D01*
X91475717Y-135631327D01*
X91260643Y-135705161D01*
X91060660Y-135813387D01*
X90881218Y-135953052D01*
X90837033Y-136001050D01*
X90776179Y-136037621D01*
X90705215Y-136035486D01*
X90646670Y-135995324D01*
X90626276Y-135959744D01*
X90587745Y-135856436D01*
X90500204Y-135739495D01*
X90383262Y-135651954D01*
X90246393Y-135600905D01*
X90189236Y-135594759D01*
X90182523Y-135594400D01*
X89527700Y-135594400D01*
X89527700Y-136523529D01*
X89418292Y-136473565D01*
X89310034Y-136458000D01*
X89237366Y-136458000D01*
X89129108Y-136473565D01*
X89019700Y-136523529D01*
X89019700Y-135594400D01*
X88364877Y-135594400D01*
X88358163Y-135594759D01*
X88301006Y-135600905D01*
X88164137Y-135651954D01*
X88047195Y-135739495D01*
X87959654Y-135856437D01*
X87908605Y-135993306D01*
X87902459Y-136050463D01*
X87902100Y-136057177D01*
X87902100Y-136712000D01*
X88833075Y-136712000D01*
X88806855Y-136752799D01*
X88765700Y-136892961D01*
X88765700Y-137039039D01*
X88806855Y-137179201D01*
X88833075Y-137220000D01*
X87902100Y-137220000D01*
X87902100Y-137874822D01*
X87902459Y-137881536D01*
X87908605Y-137938693D01*
X87959654Y-138075562D01*
X88047195Y-138192504D01*
X88164136Y-138280045D01*
X88266315Y-138318155D01*
X88323151Y-138360701D01*
X88347962Y-138427221D01*
X88332871Y-138496596D01*
X88314985Y-138521548D01*
X88187208Y-138660352D01*
X88062839Y-138850714D01*
X87971496Y-139058954D01*
X87920225Y-139261421D01*
X87915676Y-139279386D01*
X87896898Y-139506000D01*
X87915676Y-139732614D01*
X87915676Y-139732617D01*
X87915677Y-139732618D01*
X87971496Y-139953045D01*
X88062839Y-140161285D01*
X88187210Y-140351650D01*
X88341215Y-140518945D01*
X88520660Y-140658612D01*
X88532810Y-140665187D01*
X88583200Y-140715200D01*
X88598552Y-140784517D01*
X88573991Y-140851130D01*
X88532810Y-140886813D01*
X88520660Y-140893387D01*
X88341215Y-141033054D01*
X88187210Y-141200349D01*
X88062839Y-141390714D01*
X87971496Y-141598954D01*
X87915677Y-141819381D01*
X87915676Y-141819386D01*
X87896898Y-142046000D01*
X86047626Y-142046000D01*
X86096294Y-133273800D01*
X98018600Y-133273800D01*
X103606599Y-133273800D01*
X103606600Y-133273800D01*
X103531386Y-127407123D01*
X103550513Y-127338753D01*
X103603569Y-127291576D01*
X103657911Y-127279511D01*
X109550200Y-127304800D01*
X109525255Y-121767165D01*
X109544950Y-121698957D01*
X109598396Y-121652223D01*
X109651254Y-121640600D01*
X115138199Y-121640600D01*
X115138200Y-121640600D01*
X115062000Y-115697000D01*
X115061999Y-115696999D01*
X115061996Y-115696751D01*
X115054575Y-115696965D01*
X109550200Y-115671600D01*
X109550200Y-121541307D01*
X109530198Y-121609428D01*
X109476542Y-121655921D01*
X109425851Y-121667296D01*
X103708200Y-121742200D01*
X103708199Y-121742201D01*
X103633012Y-127205825D01*
X103612075Y-127273664D01*
X103557784Y-127319414D01*
X103506444Y-127330089D01*
X98018600Y-127304800D01*
X98018600Y-133273800D01*
X86096294Y-133273800D01*
X86126711Y-127791256D01*
X86130126Y-127175801D01*
X86150506Y-127107792D01*
X86204418Y-127061598D01*
X86256124Y-127050500D01*
X91658064Y-127050500D01*
X91677794Y-127054517D01*
X91693507Y-127054658D01*
X91693508Y-127054659D01*
X91693508Y-127054658D01*
X91693994Y-127054663D01*
X91704044Y-127050500D01*
X91704045Y-127050500D01*
X91713073Y-127046760D01*
X91732301Y-127038998D01*
X91732301Y-127038997D01*
X91732304Y-127038996D01*
X91732647Y-127038658D01*
X91732649Y-127038651D01*
X91732651Y-127038651D01*
X91740581Y-127019506D01*
X91744407Y-127010500D01*
X91744407Y-127010499D01*
X91748661Y-127000486D01*
X91748660Y-126984288D01*
X91744821Y-126964519D01*
X91744850Y-126961286D01*
X91793727Y-121535808D01*
X91814342Y-121467874D01*
X91868414Y-121421866D01*
X91919178Y-121410948D01*
X96630045Y-121390643D01*
X96698251Y-121410351D01*
X96744975Y-121463806D01*
X96755382Y-121534036D01*
X96726167Y-121598743D01*
X96719683Y-121605737D01*
X94813438Y-123511982D01*
X94751126Y-123546008D01*
X94738452Y-123548095D01*
X94693950Y-123553109D01*
X94521985Y-123613282D01*
X94367717Y-123710215D01*
X94238889Y-123839043D01*
X94141956Y-123993311D01*
X94081783Y-124165276D01*
X94061384Y-124346326D01*
X94081783Y-124527375D01*
X94141956Y-124699340D01*
X94238889Y-124853608D01*
X94367717Y-124982436D01*
X94367719Y-124982437D01*
X94521985Y-125079369D01*
X94693953Y-125139543D01*
X94875000Y-125159942D01*
X95056047Y-125139543D01*
X95228015Y-125079369D01*
X95382281Y-124982437D01*
X95511111Y-124853607D01*
X95608043Y-124699341D01*
X95668217Y-124527373D01*
X95673230Y-124482871D01*
X95700733Y-124417420D01*
X95709333Y-124407895D01*
X104615156Y-115502073D01*
X115163779Y-115502073D01*
X115171665Y-115501792D01*
X121081984Y-115527159D01*
X121056699Y-109913973D01*
X121076393Y-109845767D01*
X121129839Y-109799033D01*
X121183235Y-109787411D01*
X124204420Y-109800377D01*
X124272453Y-109820671D01*
X124318715Y-109874526D01*
X124319263Y-109875758D01*
X124341339Y-109926085D01*
X124366476Y-109964560D01*
X124465710Y-110116450D01*
X124619715Y-110283745D01*
X124799160Y-110423412D01*
X124999143Y-110531638D01*
X124999145Y-110531639D01*
X125214215Y-110605472D01*
X125303931Y-110620443D01*
X125438502Y-110642900D01*
X125438505Y-110642900D01*
X125665898Y-110642900D01*
X125778039Y-110624185D01*
X125890185Y-110605472D01*
X126105255Y-110531639D01*
X126305239Y-110423412D01*
X126484683Y-110283746D01*
X126638690Y-110116449D01*
X126763061Y-109926085D01*
X126780066Y-109887315D01*
X126825746Y-109832967D01*
X126893558Y-109811942D01*
X126895943Y-109811929D01*
X126949384Y-109812159D01*
X126945490Y-108947945D01*
X126965185Y-108879736D01*
X127018631Y-108833002D01*
X127088859Y-108822582D01*
X127092197Y-108823093D01*
X127172500Y-108836493D01*
X127234554Y-108846849D01*
X127234556Y-108846849D01*
X127461949Y-108846849D01*
X127574091Y-108828134D01*
X127686236Y-108809421D01*
X127901306Y-108735588D01*
X128101290Y-108627361D01*
X128280734Y-108487695D01*
X128434741Y-108320398D01*
X128559112Y-108130034D01*
X128650454Y-107921796D01*
X128706275Y-107701363D01*
X128725053Y-107474749D01*
X128706275Y-107248135D01*
X128650454Y-107027702D01*
X128559112Y-106819464D01*
X128434741Y-106629100D01*
X128434740Y-106629098D01*
X128280735Y-106461803D01*
X128101290Y-106322136D01*
X127901307Y-106213910D01*
X127686233Y-106140076D01*
X127461949Y-106102649D01*
X127461946Y-106102649D01*
X127234556Y-106102649D01*
X127078971Y-106128612D01*
X127008487Y-106120095D01*
X126953797Y-106074823D01*
X126932264Y-106007171D01*
X126932233Y-106004963D01*
X126923984Y-104173573D01*
X126943679Y-104105366D01*
X126997125Y-104058632D01*
X127050519Y-104047011D01*
X132816784Y-104071759D01*
X132791384Y-98432959D01*
X132791383Y-98432959D01*
X132791383Y-98432958D01*
X126974784Y-98509159D01*
X126974783Y-98509160D01*
X126898519Y-104051066D01*
X126877582Y-104118905D01*
X126823291Y-104164655D01*
X126774181Y-104175321D01*
X125245560Y-104195346D01*
X125177184Y-104176238D01*
X125129992Y-104123196D01*
X125118340Y-104058954D01*
X125132950Y-103882646D01*
X125114172Y-103656032D01*
X125058351Y-103435599D01*
X124967009Y-103227361D01*
X124842638Y-103036997D01*
X124842637Y-103036995D01*
X124688632Y-102869700D01*
X124509187Y-102730033D01*
X124309204Y-102621807D01*
X124094130Y-102547973D01*
X123869846Y-102510546D01*
X123869843Y-102510546D01*
X123642453Y-102510546D01*
X123642450Y-102510546D01*
X123418165Y-102547973D01*
X123203091Y-102621807D01*
X123003108Y-102730033D01*
X122823663Y-102869700D01*
X122669658Y-103036995D01*
X122545287Y-103227360D01*
X122453944Y-103435600D01*
X122407565Y-103618749D01*
X122398124Y-103656032D01*
X122383474Y-103832832D01*
X122379346Y-103882646D01*
X122379472Y-103884173D01*
X122379049Y-103886225D01*
X122378484Y-103893051D01*
X122377658Y-103892982D01*
X122365161Y-103953712D01*
X122315527Y-104004476D01*
X122246327Y-104020346D01*
X122201560Y-104009188D01*
X122104687Y-103964947D01*
X121960097Y-103944158D01*
X121815505Y-103964947D01*
X121682629Y-104025631D01*
X121637870Y-104061700D01*
X121632857Y-104066202D01*
X121490264Y-104208795D01*
X121427952Y-104242820D01*
X121402820Y-104245688D01*
X121107383Y-104249559D01*
X121098788Y-104874154D01*
X121077851Y-104941993D01*
X121023560Y-104987743D01*
X120953154Y-104996879D01*
X120888985Y-104966500D01*
X120883705Y-104961515D01*
X120810625Y-104888435D01*
X120810624Y-104888435D01*
X120347601Y-105351458D01*
X120343099Y-105356471D01*
X120307030Y-105401230D01*
X120246346Y-105534106D01*
X120225557Y-105678698D01*
X120246346Y-105823289D01*
X120307030Y-105956165D01*
X120343101Y-106000927D01*
X120347594Y-106005929D01*
X120810623Y-106468959D01*
X120861203Y-106418380D01*
X120923515Y-106384355D01*
X120994331Y-106389419D01*
X121051167Y-106431965D01*
X121075978Y-106498486D01*
X121076287Y-106509209D01*
X121031468Y-109766061D01*
X121010531Y-109833900D01*
X120956240Y-109879650D01*
X120907131Y-109890316D01*
X115239984Y-109964559D01*
X115239983Y-109964560D01*
X115163779Y-115502073D01*
X104615156Y-115502073D01*
X105213659Y-114903570D01*
X105229980Y-114890495D01*
X105232014Y-114888327D01*
X105232018Y-114888326D01*
X105278660Y-114838655D01*
X105281352Y-114835877D01*
X105301135Y-114816096D01*
X105303613Y-114812900D01*
X105311308Y-114803889D01*
X105341586Y-114771647D01*
X105351342Y-114753897D01*
X105362195Y-114737376D01*
X105374614Y-114721367D01*
X105392175Y-114680780D01*
X105397388Y-114670139D01*
X105418695Y-114631386D01*
X105423733Y-114611760D01*
X105430137Y-114593058D01*
X105438181Y-114574470D01*
X105445096Y-114530808D01*
X105447504Y-114519179D01*
X105458500Y-114476355D01*
X105458500Y-114456101D01*
X105460051Y-114436389D01*
X105463220Y-114416383D01*
X105459059Y-114372362D01*
X105458500Y-114360505D01*
X105458500Y-113647736D01*
X105477813Y-113580700D01*
X105478826Y-113579087D01*
X105558043Y-113453015D01*
X105618217Y-113281047D01*
X105638616Y-113100000D01*
X105618217Y-112918953D01*
X105558043Y-112746985D01*
X105461111Y-112592719D01*
X105461110Y-112592717D01*
X105332282Y-112463889D01*
X105178014Y-112366956D01*
X105006049Y-112306783D01*
X104825000Y-112286384D01*
X104643950Y-112306783D01*
X104471985Y-112366956D01*
X104317717Y-112463889D01*
X104188889Y-112592717D01*
X104091956Y-112746985D01*
X104031783Y-112918950D01*
X104011384Y-113099999D01*
X104031783Y-113281049D01*
X104091956Y-113453014D01*
X104172187Y-113580700D01*
X104191500Y-113647736D01*
X104191499Y-114081731D01*
X104171497Y-114149852D01*
X104154594Y-114170826D01*
X103519281Y-114806139D01*
X103456969Y-114840165D01*
X103386154Y-114835100D01*
X103329318Y-114792553D01*
X103304507Y-114726033D01*
X103304187Y-114716502D01*
X103326112Y-109827733D01*
X103346420Y-109759705D01*
X103400283Y-109713453D01*
X103452111Y-109702300D01*
X109082515Y-109702300D01*
X109102319Y-109706327D01*
X109118396Y-109706463D01*
X109137523Y-109698539D01*
X109156722Y-109690777D01*
X109156722Y-109690776D01*
X109156723Y-109690776D01*
X109157049Y-109690454D01*
X109157050Y-109690451D01*
X109157051Y-109690451D01*
X109161520Y-109679661D01*
X109164978Y-109671314D01*
X109173060Y-109652260D01*
X109173060Y-109651802D01*
X109173061Y-109651800D01*
X109173060Y-109651797D01*
X109173061Y-109636184D01*
X109169202Y-109616340D01*
X109169229Y-109613149D01*
X109218215Y-103832831D01*
X109238793Y-103764883D01*
X109292841Y-103718847D01*
X109344210Y-103707900D01*
X114798707Y-103707900D01*
X114820179Y-103712120D01*
X114833643Y-103712059D01*
X114833646Y-103712060D01*
X114852764Y-103704039D01*
X114872051Y-103696051D01*
X114872051Y-103696049D01*
X114872224Y-103695877D01*
X114872224Y-103695876D01*
X114872225Y-103695876D01*
X114880097Y-103676624D01*
X114888061Y-103657400D01*
X114888060Y-103657397D01*
X114888061Y-103643933D01*
X114883743Y-103622477D01*
X114883726Y-103618749D01*
X114859298Y-98195667D01*
X114871457Y-98153558D01*
X132638983Y-98153558D01*
X132638984Y-98153558D01*
X132638984Y-98153559D01*
X138557184Y-98178959D01*
X138531901Y-92566209D01*
X138551595Y-92498003D01*
X138605041Y-92451269D01*
X138658437Y-92439647D01*
X144322984Y-92463959D01*
X144297584Y-86825159D01*
X144297583Y-86825159D01*
X144297583Y-86825158D01*
X138480984Y-86901359D01*
X138480983Y-86901360D01*
X138405050Y-92419192D01*
X138384113Y-92487031D01*
X138329822Y-92532781D01*
X138280713Y-92543447D01*
X132715184Y-92616359D01*
X132715183Y-92616360D01*
X132638983Y-98153558D01*
X114871457Y-98153558D01*
X114878993Y-98127457D01*
X114932439Y-98080723D01*
X114985297Y-98069100D01*
X120767290Y-98069100D01*
X120788208Y-98073261D01*
X120802398Y-98073261D01*
X120802399Y-98073260D01*
X120802400Y-98073261D01*
X120841051Y-98057251D01*
X120852900Y-98028645D01*
X120857061Y-98018600D01*
X120857060Y-98018597D01*
X120857061Y-98004412D01*
X120852900Y-97983492D01*
X120852900Y-92226100D01*
X120872902Y-92157979D01*
X120926558Y-92111486D01*
X120978900Y-92100100D01*
X126380283Y-92100100D01*
X126400624Y-92104193D01*
X126415553Y-92104258D01*
X126415556Y-92104260D01*
X126415558Y-92104258D01*
X126415802Y-92104260D01*
X126425844Y-92100100D01*
X126425845Y-92100100D01*
X126435061Y-92096282D01*
X126454278Y-92088423D01*
X126454278Y-92088421D01*
X126454449Y-92088251D01*
X126454451Y-92088251D01*
X126462414Y-92069026D01*
X126466255Y-92059870D01*
X126466255Y-92059868D01*
X126470460Y-92049844D01*
X126470460Y-92049602D01*
X126470461Y-92049600D01*
X126470460Y-92049597D01*
X126470461Y-92034673D01*
X126466458Y-92014309D01*
X126466526Y-91999100D01*
X126490917Y-86535179D01*
X126511223Y-86467150D01*
X126565086Y-86420897D01*
X126616369Y-86409744D01*
X132298715Y-86385252D01*
X132319099Y-86389261D01*
X132333997Y-86389260D01*
X132334000Y-86389261D01*
X132334002Y-86389260D01*
X132334234Y-86389260D01*
X132344260Y-86385056D01*
X132344263Y-86385056D01*
X132353387Y-86381230D01*
X132372651Y-86373251D01*
X132372652Y-86373247D01*
X132372813Y-86373085D01*
X132372817Y-86373084D01*
X132380710Y-86353794D01*
X132384500Y-86344645D01*
X132384500Y-86344643D01*
X132388661Y-86334598D01*
X132388660Y-86334366D01*
X132388661Y-86334364D01*
X132388659Y-86334361D01*
X132388596Y-86319458D01*
X132384500Y-86299094D01*
X132384500Y-80542100D01*
X132404502Y-80473979D01*
X132458158Y-80427486D01*
X132510500Y-80416100D01*
X137987516Y-80416100D01*
X138007019Y-80420087D01*
X138023016Y-80420256D01*
X138023019Y-80420258D01*
X138023021Y-80420256D01*
X138023595Y-80420263D01*
X138033643Y-80416100D01*
X138033645Y-80416100D01*
X138042650Y-80412369D01*
X138061838Y-80404660D01*
X138061838Y-80404658D01*
X138061847Y-80404655D01*
X138062244Y-80404266D01*
X138062250Y-80404251D01*
X138062251Y-80404251D01*
X138070156Y-80385166D01*
X138073990Y-80376182D01*
X138073990Y-80376179D01*
X138078260Y-80366172D01*
X138078260Y-80365602D01*
X138078261Y-80365600D01*
X138078260Y-80365597D01*
X138078261Y-80349600D01*
X138074480Y-80330049D01*
X138076034Y-80183939D01*
X138124520Y-75626251D01*
X138128868Y-75605670D01*
X138129056Y-75591105D01*
X138129057Y-75591104D01*
X138129056Y-75591102D01*
X138129058Y-75590981D01*
X138121390Y-75571900D01*
X138118566Y-75564826D01*
X138113546Y-75552250D01*
X138113545Y-75552249D01*
X138113544Y-75552247D01*
X138113464Y-75552165D01*
X138113460Y-75552163D01*
X138094329Y-75543999D01*
X138075104Y-75535743D01*
X138060428Y-75535587D01*
X138039742Y-75539449D01*
X132332599Y-75465966D01*
X132264741Y-75445088D01*
X132218943Y-75390838D01*
X132208226Y-75338880D01*
X132209794Y-75158599D01*
X132210015Y-75133200D01*
X156083000Y-75133200D01*
X161772600Y-75158600D01*
X161772600Y-75158599D01*
X161772600Y-73216006D01*
X161792602Y-73147885D01*
X161846258Y-73101392D01*
X161916532Y-73091288D01*
X161958571Y-73105193D01*
X161994468Y-73124620D01*
X162209538Y-73198453D01*
X162299253Y-73213424D01*
X162433825Y-73235881D01*
X162433828Y-73235881D01*
X162661221Y-73235881D01*
X162780320Y-73216006D01*
X162885508Y-73198453D01*
X163100578Y-73124620D01*
X163300562Y-73016393D01*
X163480006Y-72876727D01*
X163634013Y-72709430D01*
X163758384Y-72519066D01*
X163849726Y-72310828D01*
X163905547Y-72090395D01*
X163924325Y-71863781D01*
X163905547Y-71637167D01*
X163886402Y-71561565D01*
X163889070Y-71490621D01*
X163929671Y-71432380D01*
X163995314Y-71405334D01*
X164029282Y-71406355D01*
X164155151Y-71427359D01*
X164229877Y-71439830D01*
X164229879Y-71439830D01*
X164457272Y-71439830D01*
X164595673Y-71416734D01*
X164681559Y-71402402D01*
X164896629Y-71328569D01*
X165096613Y-71220342D01*
X165276057Y-71080676D01*
X165430064Y-70913379D01*
X165554435Y-70723015D01*
X165645777Y-70514777D01*
X165701598Y-70294344D01*
X165720376Y-70067730D01*
X165701598Y-69841116D01*
X165645777Y-69620683D01*
X165554435Y-69412445D01*
X165519593Y-69359115D01*
X165499080Y-69291146D01*
X165518569Y-69222877D01*
X165571874Y-69175983D01*
X165625076Y-69164200D01*
X167741600Y-69164200D01*
X167766357Y-63626111D01*
X167786664Y-63558083D01*
X167840527Y-63511831D01*
X167892920Y-63500678D01*
X173405800Y-63525400D01*
X173405800Y-57530999D01*
X167741599Y-57556400D01*
X167741600Y-63356360D01*
X167721598Y-63424481D01*
X167667942Y-63470974D01*
X167615436Y-63482360D01*
X161671000Y-63474599D01*
X161694275Y-65212574D01*
X161675187Y-65280956D01*
X161622158Y-65328163D01*
X161552026Y-65339207D01*
X161508316Y-65325075D01*
X161504511Y-65323015D01*
X161504510Y-65323015D01*
X161304526Y-65214788D01*
X161304525Y-65214787D01*
X161304522Y-65214786D01*
X161089453Y-65140954D01*
X160865169Y-65103527D01*
X160865166Y-65103527D01*
X160637776Y-65103527D01*
X160637773Y-65103527D01*
X160413488Y-65140954D01*
X160198414Y-65214788D01*
X159998431Y-65323014D01*
X159818986Y-65462681D01*
X159664981Y-65629976D01*
X159540610Y-65820341D01*
X159449267Y-66028581D01*
X159393448Y-66249008D01*
X159393447Y-66249013D01*
X159374668Y-66475627D01*
X159374669Y-66475627D01*
X159374795Y-66477154D01*
X159374372Y-66479206D01*
X159373807Y-66486032D01*
X159372981Y-66485963D01*
X159360484Y-66546693D01*
X159310850Y-66597457D01*
X159241650Y-66613327D01*
X159196883Y-66602169D01*
X159100010Y-66557928D01*
X158955420Y-66537139D01*
X158810828Y-66557928D01*
X158677952Y-66618612D01*
X158633193Y-66654681D01*
X158628180Y-66659183D01*
X158165157Y-67122206D01*
X158165157Y-67122207D01*
X158820765Y-67777815D01*
X158810828Y-67779244D01*
X158677950Y-67839927D01*
X158567551Y-67935589D01*
X158488575Y-68058478D01*
X158464614Y-68140082D01*
X157805948Y-67481416D01*
X157805947Y-67481416D01*
X157342924Y-67944439D01*
X157338422Y-67949452D01*
X157302353Y-67994211D01*
X157241669Y-68127087D01*
X157220880Y-68271678D01*
X157241669Y-68416270D01*
X157302353Y-68549146D01*
X157338424Y-68593908D01*
X157342926Y-68598920D01*
X157667711Y-68923705D01*
X157701737Y-68986017D01*
X157696672Y-69056832D01*
X157654125Y-69113668D01*
X157587605Y-69138479D01*
X157578616Y-69138800D01*
X156083000Y-69138800D01*
X156083000Y-75133200D01*
X132210015Y-75133200D01*
X132257199Y-69706946D01*
X132261661Y-69685023D01*
X132261661Y-69672200D01*
X132253736Y-69653067D01*
X132245983Y-69633878D01*
X132245665Y-69633555D01*
X132241612Y-69631876D01*
X132226570Y-69625645D01*
X132207475Y-69617541D01*
X132207473Y-69617540D01*
X132194657Y-69617429D01*
X132172688Y-69621700D01*
X126618777Y-69621700D01*
X126550656Y-69601698D01*
X126504163Y-69548042D01*
X126492779Y-69494933D01*
X126493606Y-69359115D01*
X126545464Y-60837000D01*
X128558098Y-60837000D01*
X128576876Y-61063614D01*
X128576876Y-61063617D01*
X128576877Y-61063618D01*
X128632696Y-61284045D01*
X128724039Y-61492285D01*
X128848407Y-61682646D01*
X128976185Y-61821451D01*
X129007605Y-61885116D01*
X128999618Y-61955662D01*
X128954759Y-62010691D01*
X128927515Y-62024844D01*
X128825337Y-62062954D01*
X128708395Y-62150495D01*
X128620854Y-62267437D01*
X128569805Y-62404306D01*
X128563659Y-62461463D01*
X128563300Y-62468177D01*
X128563300Y-63123000D01*
X129494275Y-63123000D01*
X129468055Y-63163799D01*
X129426900Y-63303961D01*
X129426900Y-63450039D01*
X129468055Y-63590201D01*
X129494275Y-63631000D01*
X128563300Y-63631000D01*
X128563300Y-64285822D01*
X128563659Y-64292536D01*
X128569805Y-64349693D01*
X128620854Y-64486562D01*
X128708395Y-64603504D01*
X128825337Y-64691045D01*
X128962206Y-64742094D01*
X129019363Y-64748240D01*
X129026077Y-64748600D01*
X129680900Y-64748600D01*
X129680900Y-63819470D01*
X129790308Y-63869435D01*
X129898566Y-63885000D01*
X129971234Y-63885000D01*
X130079492Y-63869435D01*
X130188900Y-63819470D01*
X130188900Y-64748600D01*
X130843723Y-64748600D01*
X130850436Y-64748240D01*
X130907593Y-64742094D01*
X131044462Y-64691045D01*
X131161404Y-64603504D01*
X131248946Y-64486562D01*
X131287476Y-64383256D01*
X131330022Y-64326420D01*
X131396542Y-64301608D01*
X131465916Y-64316699D01*
X131498233Y-64341950D01*
X131542415Y-64389945D01*
X131721860Y-64529612D01*
X131858400Y-64603504D01*
X131921845Y-64637839D01*
X132136915Y-64711672D01*
X132226630Y-64726643D01*
X132361202Y-64749100D01*
X132361205Y-64749100D01*
X132588598Y-64749100D01*
X132700739Y-64730386D01*
X132812885Y-64711672D01*
X133027955Y-64637839D01*
X133227939Y-64529612D01*
X133407383Y-64389946D01*
X133561390Y-64222649D01*
X133639416Y-64103220D01*
X133693420Y-64057131D01*
X133763768Y-64047556D01*
X133828125Y-64077533D01*
X133850383Y-64103220D01*
X133928410Y-64222650D01*
X134082415Y-64389945D01*
X134261860Y-64529612D01*
X134398400Y-64603504D01*
X134461845Y-64637839D01*
X134676915Y-64711672D01*
X134766631Y-64726643D01*
X134901202Y-64749100D01*
X134901205Y-64749100D01*
X135128598Y-64749100D01*
X135240740Y-64730386D01*
X135352885Y-64711672D01*
X135567955Y-64637839D01*
X135767939Y-64529612D01*
X135947383Y-64389946D01*
X136101390Y-64222649D01*
X136225761Y-64032285D01*
X136317103Y-63824047D01*
X136372924Y-63603614D01*
X136391702Y-63377000D01*
X136372924Y-63150386D01*
X136317103Y-62929953D01*
X136225761Y-62721715D01*
X136101390Y-62531351D01*
X136101389Y-62531349D01*
X135947384Y-62364054D01*
X135767939Y-62224388D01*
X135755791Y-62217814D01*
X135705400Y-62167802D01*
X135690047Y-62098485D01*
X135714607Y-62031872D01*
X135755791Y-61996186D01*
X135767939Y-61989612D01*
X135947383Y-61849946D01*
X136101390Y-61682649D01*
X136225761Y-61492285D01*
X136317103Y-61284047D01*
X136372924Y-61063614D01*
X136391702Y-60837000D01*
X136372924Y-60610386D01*
X136317103Y-60389953D01*
X136225761Y-60181715D01*
X136101390Y-59991351D01*
X136101389Y-59991349D01*
X135947384Y-59824054D01*
X135767939Y-59684387D01*
X135567956Y-59576161D01*
X135352882Y-59502327D01*
X135128598Y-59464900D01*
X135128595Y-59464900D01*
X134901205Y-59464900D01*
X134901202Y-59464900D01*
X134676917Y-59502327D01*
X134461843Y-59576161D01*
X134261860Y-59684387D01*
X134082415Y-59824054D01*
X133928410Y-59991349D01*
X133850383Y-60110779D01*
X133796379Y-60156868D01*
X133726031Y-60166443D01*
X133661674Y-60136466D01*
X133639417Y-60110779D01*
X133561389Y-59991349D01*
X133407384Y-59824054D01*
X133227939Y-59684387D01*
X133027956Y-59576161D01*
X132812882Y-59502327D01*
X132588598Y-59464900D01*
X132588595Y-59464900D01*
X132361205Y-59464900D01*
X132361202Y-59464900D01*
X132136917Y-59502327D01*
X131921843Y-59576161D01*
X131721860Y-59684387D01*
X131542415Y-59824054D01*
X131388410Y-59991349D01*
X131310383Y-60110779D01*
X131256379Y-60156868D01*
X131186031Y-60166443D01*
X131121674Y-60136466D01*
X131099417Y-60110779D01*
X131021389Y-59991349D01*
X130867384Y-59824054D01*
X130687939Y-59684387D01*
X130487956Y-59576161D01*
X130272882Y-59502327D01*
X130048598Y-59464900D01*
X130048595Y-59464900D01*
X129821205Y-59464900D01*
X129821202Y-59464900D01*
X129596917Y-59502327D01*
X129381843Y-59576161D01*
X129181860Y-59684387D01*
X129002415Y-59824054D01*
X128848410Y-59991349D01*
X128724039Y-60181714D01*
X128632696Y-60389954D01*
X128576877Y-60610381D01*
X128576876Y-60610386D01*
X128558098Y-60837000D01*
X126545464Y-60837000D01*
X126566835Y-57325022D01*
X126587252Y-57257026D01*
X126641189Y-57210860D01*
X126692322Y-57199791D01*
X138886456Y-57150422D01*
X138954655Y-57170148D01*
X139001365Y-57223615D01*
X139012959Y-57277507D01*
X138964001Y-62956655D01*
X138959629Y-62977807D01*
X138959539Y-62991643D01*
X138967432Y-63011056D01*
X138975216Y-63030316D01*
X138975297Y-63030397D01*
X138975298Y-63030399D01*
X138994672Y-63038572D01*
X139013729Y-63046659D01*
X139013729Y-63046658D01*
X139013730Y-63046659D01*
X139027579Y-63046778D01*
X139048786Y-63042726D01*
X150547921Y-63117557D01*
X150615909Y-63138002D01*
X150662052Y-63191959D01*
X150673100Y-63243554D01*
X150673100Y-68543934D01*
X150669107Y-68563475D01*
X150668935Y-68579990D01*
X150676848Y-68599096D01*
X150684554Y-68618261D01*
X150684929Y-68618643D01*
X150704045Y-68626561D01*
X150723036Y-68634661D01*
X150723600Y-68634661D01*
X150739563Y-68634661D01*
X150759136Y-68630873D01*
X155566548Y-68680950D01*
X155589647Y-68685560D01*
X155600895Y-68685459D01*
X155619693Y-68677472D01*
X155619730Y-68677456D01*
X155638647Y-68669852D01*
X155638654Y-68669833D01*
X155638718Y-68669808D01*
X155639372Y-68669167D01*
X155647039Y-68650171D01*
X155647040Y-68650169D01*
X155655058Y-68631369D01*
X155655049Y-68631348D01*
X155655058Y-68631330D01*
X155655175Y-68620117D01*
X155650595Y-68597018D01*
X155601701Y-63194243D01*
X155621086Y-63125946D01*
X155674319Y-63078970D01*
X155727129Y-63067106D01*
X161203139Y-63042661D01*
X161222342Y-63046521D01*
X161238739Y-63046658D01*
X161238741Y-63046659D01*
X161238742Y-63046658D01*
X161239437Y-63046664D01*
X161249470Y-63042455D01*
X161249471Y-63042455D01*
X161258462Y-63038683D01*
X161277525Y-63030974D01*
X161277525Y-63030972D01*
X161277542Y-63030966D01*
X161278013Y-63030502D01*
X161278331Y-63029726D01*
X161285823Y-63011407D01*
X161285973Y-63011055D01*
X161293864Y-62992449D01*
X161293788Y-62975356D01*
X161290002Y-62956133D01*
X161339028Y-57122240D01*
X161359602Y-57054291D01*
X161413647Y-57008251D01*
X161465024Y-56997300D01*
X167172294Y-56997300D01*
X167192074Y-57001323D01*
X167207725Y-57001458D01*
X167207726Y-57001459D01*
X167207726Y-57001458D01*
X167208194Y-57001463D01*
X167227305Y-56993548D01*
X167246521Y-56985782D01*
X167246846Y-56985462D01*
X167254775Y-56966321D01*
X167262860Y-56947271D01*
X167262860Y-56946802D01*
X167262861Y-56946800D01*
X167262860Y-56946797D01*
X167262861Y-56931148D01*
X167259009Y-56911332D01*
X167259038Y-56908054D01*
X167323055Y-49530000D01*
X177944285Y-49530000D01*
X177944458Y-49533301D01*
X177963358Y-49893951D01*
X177963359Y-49893962D01*
X177963531Y-49897241D01*
X177964044Y-49900482D01*
X177964045Y-49900488D01*
X178020542Y-50257198D01*
X178020543Y-50257207D01*
X178021059Y-50260459D01*
X178116239Y-50615674D01*
X178117424Y-50618761D01*
X178117425Y-50618764D01*
X178246842Y-50955909D01*
X178246847Y-50955921D01*
X178248027Y-50958994D01*
X178414980Y-51286658D01*
X178416776Y-51289424D01*
X178416778Y-51289427D01*
X178613465Y-51592300D01*
X178613473Y-51592311D01*
X178615268Y-51595075D01*
X178846698Y-51880867D01*
X179106733Y-52140902D01*
X179392525Y-52372332D01*
X179395291Y-52374128D01*
X179395299Y-52374134D01*
X179634988Y-52529789D01*
X179700942Y-52572620D01*
X180028606Y-52739573D01*
X180371926Y-52871361D01*
X180727141Y-52966541D01*
X181090359Y-53024069D01*
X181457600Y-53043315D01*
X181824841Y-53024069D01*
X182188059Y-52966541D01*
X182543274Y-52871361D01*
X182886594Y-52739573D01*
X183214258Y-52572620D01*
X183522675Y-52372332D01*
X183808467Y-52140902D01*
X184068502Y-51880867D01*
X184299932Y-51595075D01*
X184500220Y-51286658D01*
X184667173Y-50958994D01*
X184798961Y-50615674D01*
X184894141Y-50260459D01*
X184951669Y-49897241D01*
X184970915Y-49530000D01*
X184951669Y-49162759D01*
X184894141Y-48799541D01*
X184798961Y-48444326D01*
X184667173Y-48101006D01*
X184500220Y-47773343D01*
X184299932Y-47464925D01*
X184068502Y-47179133D01*
X183808467Y-46919098D01*
X183522675Y-46687668D01*
X183519911Y-46685873D01*
X183519900Y-46685865D01*
X183217027Y-46489178D01*
X183217024Y-46489176D01*
X183214258Y-46487380D01*
X183155291Y-46457335D01*
X182889533Y-46321924D01*
X182889525Y-46321920D01*
X182886594Y-46320427D01*
X182883521Y-46319247D01*
X182883509Y-46319242D01*
X182546364Y-46189825D01*
X182546361Y-46189824D01*
X182543274Y-46188639D01*
X182540088Y-46187785D01*
X182540081Y-46187783D01*
X182191248Y-46094313D01*
X182191239Y-46094311D01*
X182188059Y-46093459D01*
X182184807Y-46092943D01*
X182184798Y-46092942D01*
X181828088Y-46036445D01*
X181828082Y-46036444D01*
X181824841Y-46035931D01*
X181821562Y-46035759D01*
X181821551Y-46035758D01*
X181460901Y-46016858D01*
X181457600Y-46016685D01*
X181454299Y-46016858D01*
X181093648Y-46035758D01*
X181093635Y-46035759D01*
X181090359Y-46035931D01*
X181087119Y-46036444D01*
X181087111Y-46036445D01*
X180730401Y-46092942D01*
X180730388Y-46092944D01*
X180727141Y-46093459D01*
X180723964Y-46094310D01*
X180723951Y-46094313D01*
X180375118Y-46187783D01*
X180375105Y-46187787D01*
X180371926Y-46188639D01*
X180368843Y-46189822D01*
X180368835Y-46189825D01*
X180031690Y-46319242D01*
X180031671Y-46319250D01*
X180028606Y-46320427D01*
X180025681Y-46321917D01*
X180025666Y-46321924D01*
X179703884Y-46485881D01*
X179703876Y-46485885D01*
X179700943Y-46487380D01*
X179698184Y-46489171D01*
X179698173Y-46489178D01*
X179395299Y-46685866D01*
X179395291Y-46685871D01*
X179392525Y-46687668D01*
X179389957Y-46689746D01*
X179389948Y-46689754D01*
X179109308Y-46917012D01*
X179109299Y-46917019D01*
X179106733Y-46919098D01*
X179104399Y-46921431D01*
X179104389Y-46921441D01*
X178849041Y-47176789D01*
X178849031Y-47176799D01*
X178846698Y-47179133D01*
X178844619Y-47181699D01*
X178844612Y-47181708D01*
X178617354Y-47462348D01*
X178617346Y-47462357D01*
X178615268Y-47464925D01*
X178613471Y-47467691D01*
X178613466Y-47467699D01*
X178416778Y-47770573D01*
X178416771Y-47770584D01*
X178414980Y-47773343D01*
X178413485Y-47776276D01*
X178413481Y-47776284D01*
X178249524Y-48098066D01*
X178249517Y-48098081D01*
X178248027Y-48101006D01*
X178246850Y-48104071D01*
X178246842Y-48104090D01*
X178117425Y-48441235D01*
X178117422Y-48441243D01*
X178116239Y-48444326D01*
X178115387Y-48447505D01*
X178115383Y-48447518D01*
X178021913Y-48796351D01*
X178021910Y-48796364D01*
X178021059Y-48799541D01*
X178020544Y-48802788D01*
X178020542Y-48802801D01*
X177964045Y-49159511D01*
X177963531Y-49162759D01*
X177963359Y-49166035D01*
X177963358Y-49166048D01*
X177944458Y-49526698D01*
X177944285Y-49530000D01*
X167323055Y-49530000D01*
X167358779Y-45412787D01*
X167379371Y-45344844D01*
X167433428Y-45298819D01*
X167484757Y-45287882D01*
X182690575Y-45286416D01*
X182697744Y-45287420D01*
G37*
%TD.AperFunction*%
%TD*%
M02*
