%TF.GenerationSoftware,KiCad,Pcbnew,7.0.2*%
%TF.CreationDate,2023-08-16T09:45:11-05:00*%
%TF.ProjectId,Project Narsil Sword,50726f6a-6563-4742-904e-617273696c20,rev?*%
%TF.SameCoordinates,Original*%
%TF.FileFunction,Legend,Bot*%
%TF.FilePolarity,Positive*%
%FSLAX46Y46*%
G04 Gerber Fmt 4.6, Leading zero omitted, Abs format (unit mm)*
G04 Created by KiCad (PCBNEW 7.0.2) date 2023-08-16 09:45:11*
%MOMM*%
%LPD*%
G01*
G04 APERTURE LIST*
%ADD10C,0.150000*%
%ADD11C,0.010000*%
%ADD12C,0.500000*%
%ADD13C,0.120000*%
G04 APERTURE END LIST*
D10*
%TO.C,X5*%
X92406647Y-133866600D02*
X92311409Y-133914219D01*
X92311409Y-133914219D02*
X92120933Y-133914219D01*
X92120933Y-133914219D02*
X92025695Y-133866600D01*
X92025695Y-133866600D02*
X91978076Y-133771361D01*
X91978076Y-133771361D02*
X91978076Y-133723742D01*
X91978076Y-133723742D02*
X92025695Y-133628504D01*
X92025695Y-133628504D02*
X92120933Y-133580885D01*
X92120933Y-133580885D02*
X92263790Y-133580885D01*
X92263790Y-133580885D02*
X92359028Y-133533266D01*
X92359028Y-133533266D02*
X92406647Y-133438028D01*
X92406647Y-133438028D02*
X92406647Y-133390409D01*
X92406647Y-133390409D02*
X92359028Y-133295171D01*
X92359028Y-133295171D02*
X92263790Y-133247552D01*
X92263790Y-133247552D02*
X92120933Y-133247552D01*
X92120933Y-133247552D02*
X92025695Y-133295171D01*
X91120933Y-133914219D02*
X91120933Y-133390409D01*
X91120933Y-133390409D02*
X91168552Y-133295171D01*
X91168552Y-133295171D02*
X91263790Y-133247552D01*
X91263790Y-133247552D02*
X91454266Y-133247552D01*
X91454266Y-133247552D02*
X91549504Y-133295171D01*
X91120933Y-133866600D02*
X91216171Y-133914219D01*
X91216171Y-133914219D02*
X91454266Y-133914219D01*
X91454266Y-133914219D02*
X91549504Y-133866600D01*
X91549504Y-133866600D02*
X91597123Y-133771361D01*
X91597123Y-133771361D02*
X91597123Y-133676123D01*
X91597123Y-133676123D02*
X91549504Y-133580885D01*
X91549504Y-133580885D02*
X91454266Y-133533266D01*
X91454266Y-133533266D02*
X91216171Y-133533266D01*
X91216171Y-133533266D02*
X91120933Y-133485647D01*
X90501885Y-133914219D02*
X90597123Y-133866600D01*
X90597123Y-133866600D02*
X90644742Y-133818980D01*
X90644742Y-133818980D02*
X90692361Y-133723742D01*
X90692361Y-133723742D02*
X90692361Y-133438028D01*
X90692361Y-133438028D02*
X90644742Y-133342790D01*
X90644742Y-133342790D02*
X90597123Y-133295171D01*
X90597123Y-133295171D02*
X90501885Y-133247552D01*
X90501885Y-133247552D02*
X90359028Y-133247552D01*
X90359028Y-133247552D02*
X90263790Y-133295171D01*
X90263790Y-133295171D02*
X90216171Y-133342790D01*
X90216171Y-133342790D02*
X90168552Y-133438028D01*
X90168552Y-133438028D02*
X90168552Y-133723742D01*
X90168552Y-133723742D02*
X90216171Y-133818980D01*
X90216171Y-133818980D02*
X90263790Y-133866600D01*
X90263790Y-133866600D02*
X90359028Y-133914219D01*
X90359028Y-133914219D02*
X90501885Y-133914219D01*
X87427778Y-136029771D02*
X87392064Y-135958343D01*
X87392064Y-135958343D02*
X87392064Y-135851200D01*
X87392064Y-135851200D02*
X87427778Y-135744057D01*
X87427778Y-135744057D02*
X87499207Y-135672628D01*
X87499207Y-135672628D02*
X87570635Y-135636914D01*
X87570635Y-135636914D02*
X87713492Y-135601200D01*
X87713492Y-135601200D02*
X87820635Y-135601200D01*
X87820635Y-135601200D02*
X87963492Y-135636914D01*
X87963492Y-135636914D02*
X88034921Y-135672628D01*
X88034921Y-135672628D02*
X88106350Y-135744057D01*
X88106350Y-135744057D02*
X88142064Y-135851200D01*
X88142064Y-135851200D02*
X88142064Y-135922628D01*
X88142064Y-135922628D02*
X88106350Y-136029771D01*
X88106350Y-136029771D02*
X88070635Y-136065485D01*
X88070635Y-136065485D02*
X87820635Y-136065485D01*
X87820635Y-136065485D02*
X87820635Y-135922628D01*
X88142064Y-136386914D02*
X87392064Y-136386914D01*
X87392064Y-136386914D02*
X88142064Y-136815485D01*
X88142064Y-136815485D02*
X87392064Y-136815485D01*
X88142064Y-137172628D02*
X87392064Y-137172628D01*
X87392064Y-137172628D02*
X87392064Y-137351199D01*
X87392064Y-137351199D02*
X87427778Y-137458342D01*
X87427778Y-137458342D02*
X87499207Y-137529771D01*
X87499207Y-137529771D02*
X87570635Y-137565485D01*
X87570635Y-137565485D02*
X87713492Y-137601199D01*
X87713492Y-137601199D02*
X87820635Y-137601199D01*
X87820635Y-137601199D02*
X87963492Y-137565485D01*
X87963492Y-137565485D02*
X88034921Y-137529771D01*
X88034921Y-137529771D02*
X88106350Y-137458342D01*
X88106350Y-137458342D02*
X88142064Y-137351199D01*
X88142064Y-137351199D02*
X88142064Y-137172628D01*
X93030864Y-135550400D02*
X93780864Y-135800400D01*
X93780864Y-135800400D02*
X93030864Y-136050400D01*
X93709435Y-136728971D02*
X93745150Y-136693257D01*
X93745150Y-136693257D02*
X93780864Y-136586114D01*
X93780864Y-136586114D02*
X93780864Y-136514686D01*
X93780864Y-136514686D02*
X93745150Y-136407543D01*
X93745150Y-136407543D02*
X93673721Y-136336114D01*
X93673721Y-136336114D02*
X93602292Y-136300400D01*
X93602292Y-136300400D02*
X93459435Y-136264686D01*
X93459435Y-136264686D02*
X93352292Y-136264686D01*
X93352292Y-136264686D02*
X93209435Y-136300400D01*
X93209435Y-136300400D02*
X93138007Y-136336114D01*
X93138007Y-136336114D02*
X93066578Y-136407543D01*
X93066578Y-136407543D02*
X93030864Y-136514686D01*
X93030864Y-136514686D02*
X93030864Y-136586114D01*
X93030864Y-136586114D02*
X93066578Y-136693257D01*
X93066578Y-136693257D02*
X93102292Y-136728971D01*
X93709435Y-137478971D02*
X93745150Y-137443257D01*
X93745150Y-137443257D02*
X93780864Y-137336114D01*
X93780864Y-137336114D02*
X93780864Y-137264686D01*
X93780864Y-137264686D02*
X93745150Y-137157543D01*
X93745150Y-137157543D02*
X93673721Y-137086114D01*
X93673721Y-137086114D02*
X93602292Y-137050400D01*
X93602292Y-137050400D02*
X93459435Y-137014686D01*
X93459435Y-137014686D02*
X93352292Y-137014686D01*
X93352292Y-137014686D02*
X93209435Y-137050400D01*
X93209435Y-137050400D02*
X93138007Y-137086114D01*
X93138007Y-137086114D02*
X93066578Y-137157543D01*
X93066578Y-137157543D02*
X93030864Y-137264686D01*
X93030864Y-137264686D02*
X93030864Y-137336114D01*
X93030864Y-137336114D02*
X93066578Y-137443257D01*
X93066578Y-137443257D02*
X93102292Y-137478971D01*
X93015778Y-141183657D02*
X92980064Y-141112229D01*
X92980064Y-141112229D02*
X92980064Y-141005086D01*
X92980064Y-141005086D02*
X93015778Y-140897943D01*
X93015778Y-140897943D02*
X93087207Y-140826514D01*
X93087207Y-140826514D02*
X93158635Y-140790800D01*
X93158635Y-140790800D02*
X93301492Y-140755086D01*
X93301492Y-140755086D02*
X93408635Y-140755086D01*
X93408635Y-140755086D02*
X93551492Y-140790800D01*
X93551492Y-140790800D02*
X93622921Y-140826514D01*
X93622921Y-140826514D02*
X93694350Y-140897943D01*
X93694350Y-140897943D02*
X93730064Y-141005086D01*
X93730064Y-141005086D02*
X93730064Y-141076514D01*
X93730064Y-141076514D02*
X93694350Y-141183657D01*
X93694350Y-141183657D02*
X93658635Y-141219371D01*
X93658635Y-141219371D02*
X93408635Y-141219371D01*
X93408635Y-141219371D02*
X93408635Y-141076514D01*
X93730064Y-141540800D02*
X92980064Y-141540800D01*
X92980064Y-141540800D02*
X92980064Y-141826514D01*
X92980064Y-141826514D02*
X93015778Y-141897943D01*
X93015778Y-141897943D02*
X93051492Y-141933657D01*
X93051492Y-141933657D02*
X93122921Y-141969371D01*
X93122921Y-141969371D02*
X93230064Y-141969371D01*
X93230064Y-141969371D02*
X93301492Y-141933657D01*
X93301492Y-141933657D02*
X93337207Y-141897943D01*
X93337207Y-141897943D02*
X93372921Y-141826514D01*
X93372921Y-141826514D02*
X93372921Y-141540800D01*
X93730064Y-142290800D02*
X92980064Y-142290800D01*
X92980064Y-142790800D02*
X92980064Y-142933657D01*
X92980064Y-142933657D02*
X93015778Y-143005086D01*
X93015778Y-143005086D02*
X93087207Y-143076514D01*
X93087207Y-143076514D02*
X93230064Y-143112229D01*
X93230064Y-143112229D02*
X93480064Y-143112229D01*
X93480064Y-143112229D02*
X93622921Y-143076514D01*
X93622921Y-143076514D02*
X93694350Y-143005086D01*
X93694350Y-143005086D02*
X93730064Y-142933657D01*
X93730064Y-142933657D02*
X93730064Y-142790800D01*
X93730064Y-142790800D02*
X93694350Y-142719372D01*
X93694350Y-142719372D02*
X93622921Y-142647943D01*
X93622921Y-142647943D02*
X93480064Y-142612229D01*
X93480064Y-142612229D02*
X93230064Y-142612229D01*
X93230064Y-142612229D02*
X93087207Y-142647943D01*
X93087207Y-142647943D02*
X93015778Y-142719372D01*
X93015778Y-142719372D02*
X92980064Y-142790800D01*
X93730064Y-143826514D02*
X93730064Y-143397943D01*
X93730064Y-143612228D02*
X92980064Y-143612228D01*
X92980064Y-143612228D02*
X93087207Y-143540800D01*
X93087207Y-143540800D02*
X93158635Y-143469371D01*
X93158635Y-143469371D02*
X93194350Y-143397943D01*
X87453178Y-141183657D02*
X87417464Y-141112229D01*
X87417464Y-141112229D02*
X87417464Y-141005086D01*
X87417464Y-141005086D02*
X87453178Y-140897943D01*
X87453178Y-140897943D02*
X87524607Y-140826514D01*
X87524607Y-140826514D02*
X87596035Y-140790800D01*
X87596035Y-140790800D02*
X87738892Y-140755086D01*
X87738892Y-140755086D02*
X87846035Y-140755086D01*
X87846035Y-140755086D02*
X87988892Y-140790800D01*
X87988892Y-140790800D02*
X88060321Y-140826514D01*
X88060321Y-140826514D02*
X88131750Y-140897943D01*
X88131750Y-140897943D02*
X88167464Y-141005086D01*
X88167464Y-141005086D02*
X88167464Y-141076514D01*
X88167464Y-141076514D02*
X88131750Y-141183657D01*
X88131750Y-141183657D02*
X88096035Y-141219371D01*
X88096035Y-141219371D02*
X87846035Y-141219371D01*
X87846035Y-141219371D02*
X87846035Y-141076514D01*
X88167464Y-141540800D02*
X87417464Y-141540800D01*
X87417464Y-141540800D02*
X87417464Y-141826514D01*
X87417464Y-141826514D02*
X87453178Y-141897943D01*
X87453178Y-141897943D02*
X87488892Y-141933657D01*
X87488892Y-141933657D02*
X87560321Y-141969371D01*
X87560321Y-141969371D02*
X87667464Y-141969371D01*
X87667464Y-141969371D02*
X87738892Y-141933657D01*
X87738892Y-141933657D02*
X87774607Y-141897943D01*
X87774607Y-141897943D02*
X87810321Y-141826514D01*
X87810321Y-141826514D02*
X87810321Y-141540800D01*
X88167464Y-142290800D02*
X87417464Y-142290800D01*
X87417464Y-142790800D02*
X87417464Y-142933657D01*
X87417464Y-142933657D02*
X87453178Y-143005086D01*
X87453178Y-143005086D02*
X87524607Y-143076514D01*
X87524607Y-143076514D02*
X87667464Y-143112229D01*
X87667464Y-143112229D02*
X87917464Y-143112229D01*
X87917464Y-143112229D02*
X88060321Y-143076514D01*
X88060321Y-143076514D02*
X88131750Y-143005086D01*
X88131750Y-143005086D02*
X88167464Y-142933657D01*
X88167464Y-142933657D02*
X88167464Y-142790800D01*
X88167464Y-142790800D02*
X88131750Y-142719372D01*
X88131750Y-142719372D02*
X88060321Y-142647943D01*
X88060321Y-142647943D02*
X87917464Y-142612229D01*
X87917464Y-142612229D02*
X87667464Y-142612229D01*
X87667464Y-142612229D02*
X87524607Y-142647943D01*
X87524607Y-142647943D02*
X87453178Y-142719372D01*
X87453178Y-142719372D02*
X87417464Y-142790800D01*
X87488892Y-143397943D02*
X87453178Y-143433657D01*
X87453178Y-143433657D02*
X87417464Y-143505086D01*
X87417464Y-143505086D02*
X87417464Y-143683657D01*
X87417464Y-143683657D02*
X87453178Y-143755086D01*
X87453178Y-143755086D02*
X87488892Y-143790800D01*
X87488892Y-143790800D02*
X87560321Y-143826514D01*
X87560321Y-143826514D02*
X87631750Y-143826514D01*
X87631750Y-143826514D02*
X87738892Y-143790800D01*
X87738892Y-143790800D02*
X88167464Y-143362228D01*
X88167464Y-143362228D02*
X88167464Y-143826514D01*
X93770550Y-138433686D02*
X93806264Y-138540829D01*
X93806264Y-138540829D02*
X93806264Y-138719400D01*
X93806264Y-138719400D02*
X93770550Y-138790829D01*
X93770550Y-138790829D02*
X93734835Y-138826543D01*
X93734835Y-138826543D02*
X93663407Y-138862257D01*
X93663407Y-138862257D02*
X93591978Y-138862257D01*
X93591978Y-138862257D02*
X93520550Y-138826543D01*
X93520550Y-138826543D02*
X93484835Y-138790829D01*
X93484835Y-138790829D02*
X93449121Y-138719400D01*
X93449121Y-138719400D02*
X93413407Y-138576543D01*
X93413407Y-138576543D02*
X93377692Y-138505114D01*
X93377692Y-138505114D02*
X93341978Y-138469400D01*
X93341978Y-138469400D02*
X93270550Y-138433686D01*
X93270550Y-138433686D02*
X93199121Y-138433686D01*
X93199121Y-138433686D02*
X93127692Y-138469400D01*
X93127692Y-138469400D02*
X93091978Y-138505114D01*
X93091978Y-138505114D02*
X93056264Y-138576543D01*
X93056264Y-138576543D02*
X93056264Y-138755114D01*
X93056264Y-138755114D02*
X93091978Y-138862257D01*
X93806264Y-139183686D02*
X93056264Y-139183686D01*
X93056264Y-139183686D02*
X93056264Y-139362257D01*
X93056264Y-139362257D02*
X93091978Y-139469400D01*
X93091978Y-139469400D02*
X93163407Y-139540829D01*
X93163407Y-139540829D02*
X93234835Y-139576543D01*
X93234835Y-139576543D02*
X93377692Y-139612257D01*
X93377692Y-139612257D02*
X93484835Y-139612257D01*
X93484835Y-139612257D02*
X93627692Y-139576543D01*
X93627692Y-139576543D02*
X93699121Y-139540829D01*
X93699121Y-139540829D02*
X93770550Y-139469400D01*
X93770550Y-139469400D02*
X93806264Y-139362257D01*
X93806264Y-139362257D02*
X93806264Y-139183686D01*
X93591978Y-139897972D02*
X93591978Y-140255115D01*
X93806264Y-139826543D02*
X93056264Y-140076543D01*
X93056264Y-140076543D02*
X93806264Y-140326543D01*
X88106350Y-138197543D02*
X88142064Y-138304686D01*
X88142064Y-138304686D02*
X88142064Y-138483257D01*
X88142064Y-138483257D02*
X88106350Y-138554686D01*
X88106350Y-138554686D02*
X88070635Y-138590400D01*
X88070635Y-138590400D02*
X87999207Y-138626114D01*
X87999207Y-138626114D02*
X87927778Y-138626114D01*
X87927778Y-138626114D02*
X87856350Y-138590400D01*
X87856350Y-138590400D02*
X87820635Y-138554686D01*
X87820635Y-138554686D02*
X87784921Y-138483257D01*
X87784921Y-138483257D02*
X87749207Y-138340400D01*
X87749207Y-138340400D02*
X87713492Y-138268971D01*
X87713492Y-138268971D02*
X87677778Y-138233257D01*
X87677778Y-138233257D02*
X87606350Y-138197543D01*
X87606350Y-138197543D02*
X87534921Y-138197543D01*
X87534921Y-138197543D02*
X87463492Y-138233257D01*
X87463492Y-138233257D02*
X87427778Y-138268971D01*
X87427778Y-138268971D02*
X87392064Y-138340400D01*
X87392064Y-138340400D02*
X87392064Y-138518971D01*
X87392064Y-138518971D02*
X87427778Y-138626114D01*
X88070635Y-139376114D02*
X88106350Y-139340400D01*
X88106350Y-139340400D02*
X88142064Y-139233257D01*
X88142064Y-139233257D02*
X88142064Y-139161829D01*
X88142064Y-139161829D02*
X88106350Y-139054686D01*
X88106350Y-139054686D02*
X88034921Y-138983257D01*
X88034921Y-138983257D02*
X87963492Y-138947543D01*
X87963492Y-138947543D02*
X87820635Y-138911829D01*
X87820635Y-138911829D02*
X87713492Y-138911829D01*
X87713492Y-138911829D02*
X87570635Y-138947543D01*
X87570635Y-138947543D02*
X87499207Y-138983257D01*
X87499207Y-138983257D02*
X87427778Y-139054686D01*
X87427778Y-139054686D02*
X87392064Y-139161829D01*
X87392064Y-139161829D02*
X87392064Y-139233257D01*
X87392064Y-139233257D02*
X87427778Y-139340400D01*
X87427778Y-139340400D02*
X87463492Y-139376114D01*
X88142064Y-140054686D02*
X88142064Y-139697543D01*
X88142064Y-139697543D02*
X87392064Y-139697543D01*
%TO.C,X1*%
X158587757Y-73700878D02*
X158486742Y-73667206D01*
X158486742Y-73667206D02*
X158352055Y-73532519D01*
X158352055Y-73532519D02*
X158318383Y-73431504D01*
X158318383Y-73431504D02*
X158352055Y-73330489D01*
X158352055Y-73330489D02*
X158385727Y-73296817D01*
X158385727Y-73296817D02*
X158486742Y-73263145D01*
X158486742Y-73263145D02*
X158587757Y-73296817D01*
X158587757Y-73296817D02*
X158688773Y-73397832D01*
X158688773Y-73397832D02*
X158789788Y-73431504D01*
X158789788Y-73431504D02*
X158890803Y-73397832D01*
X158890803Y-73397832D02*
X158924475Y-73364161D01*
X158924475Y-73364161D02*
X158958147Y-73263145D01*
X158958147Y-73263145D02*
X158924475Y-73162130D01*
X158924475Y-73162130D02*
X158823460Y-73061115D01*
X158823460Y-73061115D02*
X158722444Y-73027443D01*
X157644948Y-72825412D02*
X158015338Y-72455023D01*
X158015338Y-72455023D02*
X158116353Y-72421351D01*
X158116353Y-72421351D02*
X158217368Y-72455023D01*
X158217368Y-72455023D02*
X158352055Y-72589710D01*
X158352055Y-72589710D02*
X158385727Y-72690725D01*
X157678620Y-72791741D02*
X157712292Y-72892756D01*
X157712292Y-72892756D02*
X157880651Y-73061115D01*
X157880651Y-73061115D02*
X157981666Y-73094786D01*
X157981666Y-73094786D02*
X158082681Y-73061115D01*
X158082681Y-73061115D02*
X158150025Y-72993771D01*
X158150025Y-72993771D02*
X158183696Y-72892756D01*
X158183696Y-72892756D02*
X158150025Y-72791741D01*
X158150025Y-72791741D02*
X157981666Y-72623382D01*
X157981666Y-72623382D02*
X157947994Y-72522367D01*
X157207215Y-72387680D02*
X157308231Y-72421351D01*
X157308231Y-72421351D02*
X157375574Y-72421351D01*
X157375574Y-72421351D02*
X157476589Y-72387680D01*
X157476589Y-72387680D02*
X157678620Y-72185649D01*
X157678620Y-72185649D02*
X157712292Y-72084634D01*
X157712292Y-72084634D02*
X157712292Y-72017290D01*
X157712292Y-72017290D02*
X157678620Y-71916275D01*
X157678620Y-71916275D02*
X157577605Y-71815260D01*
X157577605Y-71815260D02*
X157476589Y-71781588D01*
X157476589Y-71781588D02*
X157409246Y-71781588D01*
X157409246Y-71781588D02*
X157308231Y-71815260D01*
X157308231Y-71815260D02*
X157106200Y-72017290D01*
X157106200Y-72017290D02*
X157072528Y-72118306D01*
X157072528Y-72118306D02*
X157072528Y-72185649D01*
X157072528Y-72185649D02*
X157106200Y-72286664D01*
X157106200Y-72286664D02*
X157207215Y-72387680D01*
X166579207Y-69923636D02*
X166654968Y-69948890D01*
X166654968Y-69948890D02*
X166730730Y-70024651D01*
X166730730Y-70024651D02*
X166781237Y-70125666D01*
X166781237Y-70125666D02*
X166781237Y-70226682D01*
X166781237Y-70226682D02*
X166755984Y-70302443D01*
X166755984Y-70302443D02*
X166680222Y-70428712D01*
X166680222Y-70428712D02*
X166604461Y-70504474D01*
X166604461Y-70504474D02*
X166478192Y-70580235D01*
X166478192Y-70580235D02*
X166402430Y-70605489D01*
X166402430Y-70605489D02*
X166301415Y-70605489D01*
X166301415Y-70605489D02*
X166200400Y-70554981D01*
X166200400Y-70554981D02*
X166149892Y-70504474D01*
X166149892Y-70504474D02*
X166099384Y-70403458D01*
X166099384Y-70403458D02*
X166099384Y-70352951D01*
X166099384Y-70352951D02*
X166276161Y-70176174D01*
X166276161Y-70176174D02*
X166377176Y-70277189D01*
X165821592Y-70176174D02*
X166351923Y-69645844D01*
X166351923Y-69645844D02*
X166149892Y-69443813D01*
X166149892Y-69443813D02*
X166074131Y-69418560D01*
X166074131Y-69418560D02*
X166023623Y-69418560D01*
X166023623Y-69418560D02*
X165947862Y-69443813D01*
X165947862Y-69443813D02*
X165872100Y-69519575D01*
X165872100Y-69519575D02*
X165846846Y-69595336D01*
X165846846Y-69595336D02*
X165846846Y-69645844D01*
X165846846Y-69645844D02*
X165872100Y-69721605D01*
X165872100Y-69721605D02*
X166074131Y-69923636D01*
X165291262Y-69645844D02*
X165821592Y-69115514D01*
X165468039Y-68761960D02*
X165367024Y-68660945D01*
X165367024Y-68660945D02*
X165291262Y-68635691D01*
X165291262Y-68635691D02*
X165190247Y-68635691D01*
X165190247Y-68635691D02*
X165063978Y-68711453D01*
X165063978Y-68711453D02*
X164887201Y-68888229D01*
X164887201Y-68888229D02*
X164811440Y-69014499D01*
X164811440Y-69014499D02*
X164811440Y-69115514D01*
X164811440Y-69115514D02*
X164836694Y-69191275D01*
X164836694Y-69191275D02*
X164937709Y-69292291D01*
X164937709Y-69292291D02*
X165013470Y-69317544D01*
X165013470Y-69317544D02*
X165114486Y-69317544D01*
X165114486Y-69317544D02*
X165240755Y-69241783D01*
X165240755Y-69241783D02*
X165417531Y-69065006D01*
X165417531Y-69065006D02*
X165493293Y-68938737D01*
X165493293Y-68938737D02*
X165493293Y-68837722D01*
X165493293Y-68837722D02*
X165468039Y-68761960D01*
X164205349Y-68559930D02*
X164508394Y-68862976D01*
X164356871Y-68711453D02*
X164887201Y-68181123D01*
X164887201Y-68181123D02*
X164861948Y-68307392D01*
X164861948Y-68307392D02*
X164861948Y-68408407D01*
X164861948Y-68408407D02*
X164887201Y-68484169D01*
X158567183Y-69275421D02*
X158642944Y-69300675D01*
X158642944Y-69300675D02*
X158718706Y-69376436D01*
X158718706Y-69376436D02*
X158769213Y-69477451D01*
X158769213Y-69477451D02*
X158769213Y-69578467D01*
X158769213Y-69578467D02*
X158743960Y-69654228D01*
X158743960Y-69654228D02*
X158668198Y-69780497D01*
X158668198Y-69780497D02*
X158592437Y-69856259D01*
X158592437Y-69856259D02*
X158466168Y-69932020D01*
X158466168Y-69932020D02*
X158390406Y-69957274D01*
X158390406Y-69957274D02*
X158289391Y-69957274D01*
X158289391Y-69957274D02*
X158188376Y-69906766D01*
X158188376Y-69906766D02*
X158137868Y-69856259D01*
X158137868Y-69856259D02*
X158087360Y-69755243D01*
X158087360Y-69755243D02*
X158087360Y-69704736D01*
X158087360Y-69704736D02*
X158264137Y-69527959D01*
X158264137Y-69527959D02*
X158365152Y-69628974D01*
X157809568Y-69527959D02*
X158339899Y-68997629D01*
X158339899Y-68997629D02*
X157506523Y-69224913D01*
X157506523Y-69224913D02*
X158036853Y-68694583D01*
X157253985Y-68972375D02*
X157784315Y-68442045D01*
X157784315Y-68442045D02*
X157658046Y-68315776D01*
X157658046Y-68315776D02*
X157557031Y-68265269D01*
X157557031Y-68265269D02*
X157456015Y-68265269D01*
X157456015Y-68265269D02*
X157380254Y-68290522D01*
X157380254Y-68290522D02*
X157253985Y-68366284D01*
X157253985Y-68366284D02*
X157178223Y-68442045D01*
X157178223Y-68442045D02*
X157102462Y-68568314D01*
X157102462Y-68568314D02*
X157077208Y-68644076D01*
X157077208Y-68644076D02*
X157077208Y-68745091D01*
X157077208Y-68745091D02*
X157127716Y-68846106D01*
X157127716Y-68846106D02*
X157253985Y-68972375D01*
X163895029Y-68199103D02*
X163794014Y-68148596D01*
X163794014Y-68148596D02*
X163667745Y-68022327D01*
X163667745Y-68022327D02*
X163642491Y-67946565D01*
X163642491Y-67946565D02*
X163642491Y-67896058D01*
X163642491Y-67896058D02*
X163667745Y-67820296D01*
X163667745Y-67820296D02*
X163718253Y-67769789D01*
X163718253Y-67769789D02*
X163794014Y-67744535D01*
X163794014Y-67744535D02*
X163844522Y-67744535D01*
X163844522Y-67744535D02*
X163920283Y-67769789D01*
X163920283Y-67769789D02*
X164046552Y-67845550D01*
X164046552Y-67845550D02*
X164122314Y-67870804D01*
X164122314Y-67870804D02*
X164172821Y-67870804D01*
X164172821Y-67870804D02*
X164248583Y-67845550D01*
X164248583Y-67845550D02*
X164299090Y-67795042D01*
X164299090Y-67795042D02*
X164324344Y-67719281D01*
X164324344Y-67719281D02*
X164324344Y-67668773D01*
X164324344Y-67668773D02*
X164299090Y-67593012D01*
X164299090Y-67593012D02*
X164172821Y-67466743D01*
X164172821Y-67466743D02*
X164071806Y-67416235D01*
X163339445Y-67694027D02*
X163869775Y-67163697D01*
X163869775Y-67163697D02*
X163743506Y-67037428D01*
X163743506Y-67037428D02*
X163642491Y-66986920D01*
X163642491Y-66986920D02*
X163541476Y-66986920D01*
X163541476Y-66986920D02*
X163465714Y-67012174D01*
X163465714Y-67012174D02*
X163339445Y-67087935D01*
X163339445Y-67087935D02*
X163263684Y-67163697D01*
X163263684Y-67163697D02*
X163187922Y-67289966D01*
X163187922Y-67289966D02*
X163162669Y-67365727D01*
X163162669Y-67365727D02*
X163162669Y-67466743D01*
X163162669Y-67466743D02*
X163213176Y-67567758D01*
X163213176Y-67567758D02*
X163339445Y-67694027D01*
X162985892Y-67037428D02*
X162733354Y-66784890D01*
X162884877Y-67239458D02*
X163238430Y-66532352D01*
X163238430Y-66532352D02*
X162531323Y-66885905D01*
X160200498Y-71868382D02*
X160099482Y-71817874D01*
X160099482Y-71817874D02*
X159973213Y-71691605D01*
X159973213Y-71691605D02*
X159947960Y-71615843D01*
X159947960Y-71615843D02*
X159947960Y-71565336D01*
X159947960Y-71565336D02*
X159973213Y-71489574D01*
X159973213Y-71489574D02*
X160023721Y-71439067D01*
X160023721Y-71439067D02*
X160099482Y-71413813D01*
X160099482Y-71413813D02*
X160149990Y-71413813D01*
X160149990Y-71413813D02*
X160225751Y-71439067D01*
X160225751Y-71439067D02*
X160352021Y-71514828D01*
X160352021Y-71514828D02*
X160427782Y-71540082D01*
X160427782Y-71540082D02*
X160478290Y-71540082D01*
X160478290Y-71540082D02*
X160554051Y-71514828D01*
X160554051Y-71514828D02*
X160604559Y-71464321D01*
X160604559Y-71464321D02*
X160629812Y-71388559D01*
X160629812Y-71388559D02*
X160629812Y-71338052D01*
X160629812Y-71338052D02*
X160604559Y-71262290D01*
X160604559Y-71262290D02*
X160478290Y-71136021D01*
X160478290Y-71136021D02*
X160377274Y-71085513D01*
X159392375Y-71009752D02*
X159392375Y-71060259D01*
X159392375Y-71060259D02*
X159442883Y-71161275D01*
X159442883Y-71161275D02*
X159493391Y-71211782D01*
X159493391Y-71211782D02*
X159594406Y-71262290D01*
X159594406Y-71262290D02*
X159695421Y-71262290D01*
X159695421Y-71262290D02*
X159771183Y-71237036D01*
X159771183Y-71237036D02*
X159897452Y-71161275D01*
X159897452Y-71161275D02*
X159973213Y-71085513D01*
X159973213Y-71085513D02*
X160048975Y-70959244D01*
X160048975Y-70959244D02*
X160074228Y-70883483D01*
X160074228Y-70883483D02*
X160074228Y-70782467D01*
X160074228Y-70782467D02*
X160023721Y-70681452D01*
X160023721Y-70681452D02*
X159973213Y-70630945D01*
X159973213Y-70630945D02*
X159872198Y-70580437D01*
X159872198Y-70580437D02*
X159821690Y-70580437D01*
X158862045Y-70580437D02*
X159114583Y-70832975D01*
X159114583Y-70832975D02*
X159644914Y-70302645D01*
X162667189Y-65961111D02*
X161960082Y-66314664D01*
X161960082Y-66314664D02*
X162313636Y-65607557D01*
X161353991Y-65607557D02*
X161353991Y-65658065D01*
X161353991Y-65658065D02*
X161404499Y-65759080D01*
X161404499Y-65759080D02*
X161455006Y-65809588D01*
X161455006Y-65809588D02*
X161556021Y-65860095D01*
X161556021Y-65860095D02*
X161657037Y-65860095D01*
X161657037Y-65860095D02*
X161732798Y-65834842D01*
X161732798Y-65834842D02*
X161859067Y-65759080D01*
X161859067Y-65759080D02*
X161934829Y-65683319D01*
X161934829Y-65683319D02*
X162010590Y-65557050D01*
X162010590Y-65557050D02*
X162035844Y-65481288D01*
X162035844Y-65481288D02*
X162035844Y-65380273D01*
X162035844Y-65380273D02*
X161985336Y-65279258D01*
X161985336Y-65279258D02*
X161934829Y-65228750D01*
X161934829Y-65228750D02*
X161833813Y-65178242D01*
X161833813Y-65178242D02*
X161783306Y-65178242D01*
X160823661Y-65077227D02*
X160823661Y-65127735D01*
X160823661Y-65127735D02*
X160874168Y-65228750D01*
X160874168Y-65228750D02*
X160924676Y-65279258D01*
X160924676Y-65279258D02*
X161025691Y-65329765D01*
X161025691Y-65329765D02*
X161126707Y-65329765D01*
X161126707Y-65329765D02*
X161202468Y-65304512D01*
X161202468Y-65304512D02*
X161328737Y-65228750D01*
X161328737Y-65228750D02*
X161404499Y-65152989D01*
X161404499Y-65152989D02*
X161480260Y-65026720D01*
X161480260Y-65026720D02*
X161505514Y-64950958D01*
X161505514Y-64950958D02*
X161505514Y-64849943D01*
X161505514Y-64849943D02*
X161455006Y-64748928D01*
X161455006Y-64748928D02*
X161404499Y-64698420D01*
X161404499Y-64698420D02*
X161303483Y-64647912D01*
X161303483Y-64647912D02*
X161252976Y-64647912D01*
X162987105Y-73695343D02*
X163062866Y-73720597D01*
X163062866Y-73720597D02*
X163138628Y-73796358D01*
X163138628Y-73796358D02*
X163189135Y-73897373D01*
X163189135Y-73897373D02*
X163189135Y-73998389D01*
X163189135Y-73998389D02*
X163163882Y-74074150D01*
X163163882Y-74074150D02*
X163088120Y-74200419D01*
X163088120Y-74200419D02*
X163012359Y-74276181D01*
X163012359Y-74276181D02*
X162886090Y-74351942D01*
X162886090Y-74351942D02*
X162810328Y-74377196D01*
X162810328Y-74377196D02*
X162709313Y-74377196D01*
X162709313Y-74377196D02*
X162608298Y-74326688D01*
X162608298Y-74326688D02*
X162557790Y-74276181D01*
X162557790Y-74276181D02*
X162507282Y-74175165D01*
X162507282Y-74175165D02*
X162507282Y-74124658D01*
X162507282Y-74124658D02*
X162684059Y-73947881D01*
X162684059Y-73947881D02*
X162785074Y-74048896D01*
X162229490Y-73947881D02*
X162759821Y-73417551D01*
X162759821Y-73417551D02*
X162557790Y-73215520D01*
X162557790Y-73215520D02*
X162482029Y-73190267D01*
X162482029Y-73190267D02*
X162431521Y-73190267D01*
X162431521Y-73190267D02*
X162355760Y-73215520D01*
X162355760Y-73215520D02*
X162279998Y-73291282D01*
X162279998Y-73291282D02*
X162254744Y-73367043D01*
X162254744Y-73367043D02*
X162254744Y-73417551D01*
X162254744Y-73417551D02*
X162279998Y-73493312D01*
X162279998Y-73493312D02*
X162482029Y-73695343D01*
X161699160Y-73417551D02*
X162229490Y-72887221D01*
X161875937Y-72533667D02*
X161774922Y-72432652D01*
X161774922Y-72432652D02*
X161699160Y-72407398D01*
X161699160Y-72407398D02*
X161598145Y-72407398D01*
X161598145Y-72407398D02*
X161471876Y-72483160D01*
X161471876Y-72483160D02*
X161295099Y-72659936D01*
X161295099Y-72659936D02*
X161219338Y-72786206D01*
X161219338Y-72786206D02*
X161219338Y-72887221D01*
X161219338Y-72887221D02*
X161244592Y-72962982D01*
X161244592Y-72962982D02*
X161345607Y-73063998D01*
X161345607Y-73063998D02*
X161421368Y-73089251D01*
X161421368Y-73089251D02*
X161522384Y-73089251D01*
X161522384Y-73089251D02*
X161648653Y-73013490D01*
X161648653Y-73013490D02*
X161825429Y-72836713D01*
X161825429Y-72836713D02*
X161901191Y-72710444D01*
X161901191Y-72710444D02*
X161901191Y-72609429D01*
X161901191Y-72609429D02*
X161875937Y-72533667D01*
X161396115Y-72154860D02*
X161396115Y-72104353D01*
X161396115Y-72104353D02*
X161370861Y-72028591D01*
X161370861Y-72028591D02*
X161244592Y-71902322D01*
X161244592Y-71902322D02*
X161168830Y-71877068D01*
X161168830Y-71877068D02*
X161118323Y-71877068D01*
X161118323Y-71877068D02*
X161042561Y-71902322D01*
X161042561Y-71902322D02*
X160992054Y-71952830D01*
X160992054Y-71952830D02*
X160941546Y-72053845D01*
X160941546Y-72053845D02*
X160941546Y-72659937D01*
X160941546Y-72659937D02*
X160613247Y-72331637D01*
%TO.C,X4*%
X121592434Y-111107897D02*
X121491419Y-111074225D01*
X121491419Y-111074225D02*
X121356732Y-110939538D01*
X121356732Y-110939538D02*
X121323060Y-110838523D01*
X121323060Y-110838523D02*
X121356732Y-110737508D01*
X121356732Y-110737508D02*
X121390404Y-110703836D01*
X121390404Y-110703836D02*
X121491419Y-110670164D01*
X121491419Y-110670164D02*
X121592434Y-110703836D01*
X121592434Y-110703836D02*
X121693450Y-110804851D01*
X121693450Y-110804851D02*
X121794465Y-110838523D01*
X121794465Y-110838523D02*
X121895480Y-110804851D01*
X121895480Y-110804851D02*
X121929152Y-110771180D01*
X121929152Y-110771180D02*
X121962824Y-110670164D01*
X121962824Y-110670164D02*
X121929152Y-110569149D01*
X121929152Y-110569149D02*
X121828137Y-110468134D01*
X121828137Y-110468134D02*
X121727121Y-110434462D01*
X120649625Y-110232431D02*
X121020015Y-109862042D01*
X121020015Y-109862042D02*
X121121030Y-109828370D01*
X121121030Y-109828370D02*
X121222045Y-109862042D01*
X121222045Y-109862042D02*
X121356732Y-109996729D01*
X121356732Y-109996729D02*
X121390404Y-110097744D01*
X120683297Y-110198760D02*
X120716969Y-110299775D01*
X120716969Y-110299775D02*
X120885328Y-110468134D01*
X120885328Y-110468134D02*
X120986343Y-110501805D01*
X120986343Y-110501805D02*
X121087358Y-110468134D01*
X121087358Y-110468134D02*
X121154702Y-110400790D01*
X121154702Y-110400790D02*
X121188373Y-110299775D01*
X121188373Y-110299775D02*
X121154702Y-110198760D01*
X121154702Y-110198760D02*
X120986343Y-110030401D01*
X120986343Y-110030401D02*
X120952671Y-109929386D01*
X120211892Y-109794699D02*
X120312908Y-109828370D01*
X120312908Y-109828370D02*
X120380251Y-109828370D01*
X120380251Y-109828370D02*
X120481266Y-109794699D01*
X120481266Y-109794699D02*
X120683297Y-109592668D01*
X120683297Y-109592668D02*
X120716969Y-109491653D01*
X120716969Y-109491653D02*
X120716969Y-109424309D01*
X120716969Y-109424309D02*
X120683297Y-109323294D01*
X120683297Y-109323294D02*
X120582282Y-109222279D01*
X120582282Y-109222279D02*
X120481266Y-109188607D01*
X120481266Y-109188607D02*
X120413923Y-109188607D01*
X120413923Y-109188607D02*
X120312908Y-109222279D01*
X120312908Y-109222279D02*
X120110877Y-109424309D01*
X120110877Y-109424309D02*
X120077205Y-109525325D01*
X120077205Y-109525325D02*
X120077205Y-109592668D01*
X120077205Y-109592668D02*
X120110877Y-109693683D01*
X120110877Y-109693683D02*
X120211892Y-109794699D01*
X122828005Y-109077835D02*
X122726989Y-109027327D01*
X122726989Y-109027327D02*
X122600720Y-108901058D01*
X122600720Y-108901058D02*
X122575467Y-108825296D01*
X122575467Y-108825296D02*
X122575467Y-108774789D01*
X122575467Y-108774789D02*
X122600720Y-108699027D01*
X122600720Y-108699027D02*
X122651228Y-108648520D01*
X122651228Y-108648520D02*
X122726989Y-108623266D01*
X122726989Y-108623266D02*
X122777497Y-108623266D01*
X122777497Y-108623266D02*
X122853258Y-108648520D01*
X122853258Y-108648520D02*
X122979528Y-108724281D01*
X122979528Y-108724281D02*
X123055289Y-108749535D01*
X123055289Y-108749535D02*
X123105797Y-108749535D01*
X123105797Y-108749535D02*
X123181558Y-108724281D01*
X123181558Y-108724281D02*
X123232066Y-108673774D01*
X123232066Y-108673774D02*
X123257319Y-108598012D01*
X123257319Y-108598012D02*
X123257319Y-108547505D01*
X123257319Y-108547505D02*
X123232066Y-108471743D01*
X123232066Y-108471743D02*
X123105797Y-108345474D01*
X123105797Y-108345474D02*
X123004781Y-108294966D01*
X122019882Y-108219205D02*
X122019882Y-108269712D01*
X122019882Y-108269712D02*
X122070390Y-108370728D01*
X122070390Y-108370728D02*
X122120898Y-108421235D01*
X122120898Y-108421235D02*
X122221913Y-108471743D01*
X122221913Y-108471743D02*
X122322928Y-108471743D01*
X122322928Y-108471743D02*
X122398690Y-108446489D01*
X122398690Y-108446489D02*
X122524959Y-108370728D01*
X122524959Y-108370728D02*
X122600720Y-108294966D01*
X122600720Y-108294966D02*
X122676482Y-108168697D01*
X122676482Y-108168697D02*
X122701735Y-108092936D01*
X122701735Y-108092936D02*
X122701735Y-107991920D01*
X122701735Y-107991920D02*
X122651228Y-107890905D01*
X122651228Y-107890905D02*
X122600720Y-107840398D01*
X122600720Y-107840398D02*
X122499705Y-107789890D01*
X122499705Y-107789890D02*
X122449197Y-107789890D01*
X121489552Y-107789890D02*
X121742090Y-108042428D01*
X121742090Y-108042428D02*
X122272421Y-107512098D01*
X121320413Y-106610598D02*
X121396174Y-106635852D01*
X121396174Y-106635852D02*
X121471936Y-106711613D01*
X121471936Y-106711613D02*
X121522443Y-106812628D01*
X121522443Y-106812628D02*
X121522443Y-106913644D01*
X121522443Y-106913644D02*
X121497190Y-106989405D01*
X121497190Y-106989405D02*
X121421428Y-107115674D01*
X121421428Y-107115674D02*
X121345667Y-107191436D01*
X121345667Y-107191436D02*
X121219398Y-107267197D01*
X121219398Y-107267197D02*
X121143636Y-107292451D01*
X121143636Y-107292451D02*
X121042621Y-107292451D01*
X121042621Y-107292451D02*
X120941606Y-107241943D01*
X120941606Y-107241943D02*
X120891098Y-107191436D01*
X120891098Y-107191436D02*
X120840590Y-107090420D01*
X120840590Y-107090420D02*
X120840590Y-107039913D01*
X120840590Y-107039913D02*
X121017367Y-106863136D01*
X121017367Y-106863136D02*
X121118382Y-106964151D01*
X120562798Y-106863136D02*
X121093129Y-106332806D01*
X121093129Y-106332806D02*
X120259753Y-106560090D01*
X120259753Y-106560090D02*
X120790083Y-106029760D01*
X120007215Y-106307552D02*
X120537545Y-105777222D01*
X120537545Y-105777222D02*
X120411276Y-105650953D01*
X120411276Y-105650953D02*
X120310261Y-105600446D01*
X120310261Y-105600446D02*
X120209245Y-105600446D01*
X120209245Y-105600446D02*
X120133484Y-105625699D01*
X120133484Y-105625699D02*
X120007215Y-105701461D01*
X120007215Y-105701461D02*
X119931453Y-105777222D01*
X119931453Y-105777222D02*
X119855692Y-105903491D01*
X119855692Y-105903491D02*
X119830438Y-105979253D01*
X119830438Y-105979253D02*
X119830438Y-106080268D01*
X119830438Y-106080268D02*
X119880946Y-106181283D01*
X119880946Y-106181283D02*
X120007215Y-106307552D01*
X127025430Y-105264872D02*
X126924415Y-105214365D01*
X126924415Y-105214365D02*
X126798146Y-105088096D01*
X126798146Y-105088096D02*
X126772892Y-105012334D01*
X126772892Y-105012334D02*
X126772892Y-104961827D01*
X126772892Y-104961827D02*
X126798146Y-104886065D01*
X126798146Y-104886065D02*
X126848654Y-104835558D01*
X126848654Y-104835558D02*
X126924415Y-104810304D01*
X126924415Y-104810304D02*
X126974923Y-104810304D01*
X126974923Y-104810304D02*
X127050684Y-104835558D01*
X127050684Y-104835558D02*
X127176953Y-104911319D01*
X127176953Y-104911319D02*
X127252715Y-104936573D01*
X127252715Y-104936573D02*
X127303222Y-104936573D01*
X127303222Y-104936573D02*
X127378984Y-104911319D01*
X127378984Y-104911319D02*
X127429491Y-104860811D01*
X127429491Y-104860811D02*
X127454745Y-104785050D01*
X127454745Y-104785050D02*
X127454745Y-104734542D01*
X127454745Y-104734542D02*
X127429491Y-104658781D01*
X127429491Y-104658781D02*
X127303222Y-104532512D01*
X127303222Y-104532512D02*
X127202207Y-104482004D01*
X126469846Y-104759796D02*
X127000176Y-104229466D01*
X127000176Y-104229466D02*
X126873907Y-104103197D01*
X126873907Y-104103197D02*
X126772892Y-104052689D01*
X126772892Y-104052689D02*
X126671877Y-104052689D01*
X126671877Y-104052689D02*
X126596115Y-104077943D01*
X126596115Y-104077943D02*
X126469846Y-104153704D01*
X126469846Y-104153704D02*
X126394085Y-104229466D01*
X126394085Y-104229466D02*
X126318323Y-104355735D01*
X126318323Y-104355735D02*
X126293070Y-104431496D01*
X126293070Y-104431496D02*
X126293070Y-104532512D01*
X126293070Y-104532512D02*
X126343577Y-104633527D01*
X126343577Y-104633527D02*
X126469846Y-104759796D01*
X126116293Y-104103197D02*
X125863755Y-103850659D01*
X126015278Y-104305227D02*
X126368831Y-103598121D01*
X126368831Y-103598121D02*
X125661724Y-103951674D01*
X125600024Y-102865235D02*
X124892917Y-103218788D01*
X124892917Y-103218788D02*
X125246471Y-102511681D01*
X124286826Y-102511681D02*
X124286826Y-102562189D01*
X124286826Y-102562189D02*
X124337334Y-102663204D01*
X124337334Y-102663204D02*
X124387841Y-102713712D01*
X124387841Y-102713712D02*
X124488856Y-102764219D01*
X124488856Y-102764219D02*
X124589872Y-102764219D01*
X124589872Y-102764219D02*
X124665633Y-102738966D01*
X124665633Y-102738966D02*
X124791902Y-102663204D01*
X124791902Y-102663204D02*
X124867664Y-102587443D01*
X124867664Y-102587443D02*
X124943425Y-102461174D01*
X124943425Y-102461174D02*
X124968679Y-102385412D01*
X124968679Y-102385412D02*
X124968679Y-102284397D01*
X124968679Y-102284397D02*
X124918171Y-102183382D01*
X124918171Y-102183382D02*
X124867664Y-102132874D01*
X124867664Y-102132874D02*
X124766648Y-102082366D01*
X124766648Y-102082366D02*
X124716141Y-102082366D01*
X123756496Y-101981351D02*
X123756496Y-102031859D01*
X123756496Y-102031859D02*
X123807003Y-102132874D01*
X123807003Y-102132874D02*
X123857511Y-102183382D01*
X123857511Y-102183382D02*
X123958526Y-102233889D01*
X123958526Y-102233889D02*
X124059542Y-102233889D01*
X124059542Y-102233889D02*
X124135303Y-102208636D01*
X124135303Y-102208636D02*
X124261572Y-102132874D01*
X124261572Y-102132874D02*
X124337334Y-102057113D01*
X124337334Y-102057113D02*
X124413095Y-101930844D01*
X124413095Y-101930844D02*
X124438349Y-101855082D01*
X124438349Y-101855082D02*
X124438349Y-101754067D01*
X124438349Y-101754067D02*
X124387841Y-101653052D01*
X124387841Y-101653052D02*
X124337334Y-101602544D01*
X124337334Y-101602544D02*
X124236318Y-101552036D01*
X124236318Y-101552036D02*
X124185811Y-101552036D01*
X126386913Y-111641178D02*
X126462674Y-111666432D01*
X126462674Y-111666432D02*
X126538436Y-111742193D01*
X126538436Y-111742193D02*
X126588943Y-111843208D01*
X126588943Y-111843208D02*
X126588943Y-111944224D01*
X126588943Y-111944224D02*
X126563690Y-112019985D01*
X126563690Y-112019985D02*
X126487928Y-112146254D01*
X126487928Y-112146254D02*
X126412167Y-112222016D01*
X126412167Y-112222016D02*
X126285898Y-112297777D01*
X126285898Y-112297777D02*
X126210136Y-112323031D01*
X126210136Y-112323031D02*
X126109121Y-112323031D01*
X126109121Y-112323031D02*
X126008106Y-112272523D01*
X126008106Y-112272523D02*
X125957598Y-112222016D01*
X125957598Y-112222016D02*
X125907090Y-112121000D01*
X125907090Y-112121000D02*
X125907090Y-112070493D01*
X125907090Y-112070493D02*
X126083867Y-111893716D01*
X126083867Y-111893716D02*
X126184882Y-111994731D01*
X125629298Y-111893716D02*
X126159629Y-111363386D01*
X126159629Y-111363386D02*
X125957598Y-111161355D01*
X125957598Y-111161355D02*
X125881837Y-111136102D01*
X125881837Y-111136102D02*
X125831329Y-111136102D01*
X125831329Y-111136102D02*
X125755568Y-111161355D01*
X125755568Y-111161355D02*
X125679806Y-111237117D01*
X125679806Y-111237117D02*
X125654552Y-111312878D01*
X125654552Y-111312878D02*
X125654552Y-111363386D01*
X125654552Y-111363386D02*
X125679806Y-111439147D01*
X125679806Y-111439147D02*
X125881837Y-111641178D01*
X125098968Y-111363386D02*
X125629298Y-110833056D01*
X125275745Y-110479502D02*
X125174730Y-110378487D01*
X125174730Y-110378487D02*
X125098968Y-110353233D01*
X125098968Y-110353233D02*
X124997953Y-110353233D01*
X124997953Y-110353233D02*
X124871684Y-110428995D01*
X124871684Y-110428995D02*
X124694907Y-110605771D01*
X124694907Y-110605771D02*
X124619146Y-110732041D01*
X124619146Y-110732041D02*
X124619146Y-110833056D01*
X124619146Y-110833056D02*
X124644400Y-110908817D01*
X124644400Y-110908817D02*
X124745415Y-111009833D01*
X124745415Y-111009833D02*
X124821176Y-111035086D01*
X124821176Y-111035086D02*
X124922192Y-111035086D01*
X124922192Y-111035086D02*
X125048461Y-110959325D01*
X125048461Y-110959325D02*
X125225237Y-110782548D01*
X125225237Y-110782548D02*
X125300999Y-110656279D01*
X125300999Y-110656279D02*
X125300999Y-110555264D01*
X125300999Y-110555264D02*
X125275745Y-110479502D01*
X124795923Y-110100695D02*
X124795923Y-110050188D01*
X124795923Y-110050188D02*
X124770669Y-109974426D01*
X124770669Y-109974426D02*
X124644400Y-109848157D01*
X124644400Y-109848157D02*
X124568638Y-109822903D01*
X124568638Y-109822903D02*
X124518131Y-109822903D01*
X124518131Y-109822903D02*
X124442369Y-109848157D01*
X124442369Y-109848157D02*
X124391862Y-109898665D01*
X124391862Y-109898665D02*
X124341354Y-109999680D01*
X124341354Y-109999680D02*
X124341354Y-110605772D01*
X124341354Y-110605772D02*
X124013055Y-110277472D01*
X130248423Y-107528220D02*
X130324184Y-107553474D01*
X130324184Y-107553474D02*
X130399946Y-107629235D01*
X130399946Y-107629235D02*
X130450453Y-107730250D01*
X130450453Y-107730250D02*
X130450453Y-107831266D01*
X130450453Y-107831266D02*
X130425200Y-107907027D01*
X130425200Y-107907027D02*
X130349438Y-108033296D01*
X130349438Y-108033296D02*
X130273677Y-108109058D01*
X130273677Y-108109058D02*
X130147408Y-108184819D01*
X130147408Y-108184819D02*
X130071646Y-108210073D01*
X130071646Y-108210073D02*
X129970631Y-108210073D01*
X129970631Y-108210073D02*
X129869616Y-108159565D01*
X129869616Y-108159565D02*
X129819108Y-108109058D01*
X129819108Y-108109058D02*
X129768600Y-108008042D01*
X129768600Y-108008042D02*
X129768600Y-107957535D01*
X129768600Y-107957535D02*
X129945377Y-107780758D01*
X129945377Y-107780758D02*
X130046392Y-107881773D01*
X129490808Y-107780758D02*
X130021139Y-107250428D01*
X130021139Y-107250428D02*
X129819108Y-107048397D01*
X129819108Y-107048397D02*
X129743347Y-107023144D01*
X129743347Y-107023144D02*
X129692839Y-107023144D01*
X129692839Y-107023144D02*
X129617078Y-107048397D01*
X129617078Y-107048397D02*
X129541316Y-107124159D01*
X129541316Y-107124159D02*
X129516062Y-107199920D01*
X129516062Y-107199920D02*
X129516062Y-107250428D01*
X129516062Y-107250428D02*
X129541316Y-107326189D01*
X129541316Y-107326189D02*
X129743347Y-107528220D01*
X128960478Y-107250428D02*
X129490808Y-106720098D01*
X129137255Y-106366544D02*
X129036240Y-106265529D01*
X129036240Y-106265529D02*
X128960478Y-106240275D01*
X128960478Y-106240275D02*
X128859463Y-106240275D01*
X128859463Y-106240275D02*
X128733194Y-106316037D01*
X128733194Y-106316037D02*
X128556417Y-106492813D01*
X128556417Y-106492813D02*
X128480656Y-106619083D01*
X128480656Y-106619083D02*
X128480656Y-106720098D01*
X128480656Y-106720098D02*
X128505910Y-106795859D01*
X128505910Y-106795859D02*
X128606925Y-106896875D01*
X128606925Y-106896875D02*
X128682686Y-106922128D01*
X128682686Y-106922128D02*
X128783702Y-106922128D01*
X128783702Y-106922128D02*
X128909971Y-106846367D01*
X128909971Y-106846367D02*
X129086747Y-106669590D01*
X129086747Y-106669590D02*
X129162509Y-106543321D01*
X129162509Y-106543321D02*
X129162509Y-106442306D01*
X129162509Y-106442306D02*
X129137255Y-106366544D01*
X127874565Y-106164514D02*
X128177610Y-106467560D01*
X128026087Y-106316037D02*
X128556417Y-105785707D01*
X128556417Y-105785707D02*
X128531164Y-105911976D01*
X128531164Y-105911976D02*
X128531164Y-106012991D01*
X128531164Y-106012991D02*
X128556417Y-106088753D01*
%TO.C,X3*%
X163732000Y-97671652D02*
X163779619Y-97766890D01*
X163779619Y-97766890D02*
X163779619Y-97957366D01*
X163779619Y-97957366D02*
X163732000Y-98052604D01*
X163732000Y-98052604D02*
X163636761Y-98100223D01*
X163636761Y-98100223D02*
X163589142Y-98100223D01*
X163589142Y-98100223D02*
X163493904Y-98052604D01*
X163493904Y-98052604D02*
X163446285Y-97957366D01*
X163446285Y-97957366D02*
X163446285Y-97814509D01*
X163446285Y-97814509D02*
X163398666Y-97719271D01*
X163398666Y-97719271D02*
X163303428Y-97671652D01*
X163303428Y-97671652D02*
X163255809Y-97671652D01*
X163255809Y-97671652D02*
X163160571Y-97719271D01*
X163160571Y-97719271D02*
X163112952Y-97814509D01*
X163112952Y-97814509D02*
X163112952Y-97957366D01*
X163112952Y-97957366D02*
X163160571Y-98052604D01*
X163779619Y-98957366D02*
X163255809Y-98957366D01*
X163255809Y-98957366D02*
X163160571Y-98909747D01*
X163160571Y-98909747D02*
X163112952Y-98814509D01*
X163112952Y-98814509D02*
X163112952Y-98624033D01*
X163112952Y-98624033D02*
X163160571Y-98528795D01*
X163732000Y-98957366D02*
X163779619Y-98862128D01*
X163779619Y-98862128D02*
X163779619Y-98624033D01*
X163779619Y-98624033D02*
X163732000Y-98528795D01*
X163732000Y-98528795D02*
X163636761Y-98481176D01*
X163636761Y-98481176D02*
X163541523Y-98481176D01*
X163541523Y-98481176D02*
X163446285Y-98528795D01*
X163446285Y-98528795D02*
X163398666Y-98624033D01*
X163398666Y-98624033D02*
X163398666Y-98862128D01*
X163398666Y-98862128D02*
X163351047Y-98957366D01*
X163779619Y-99576414D02*
X163732000Y-99481176D01*
X163732000Y-99481176D02*
X163684380Y-99433557D01*
X163684380Y-99433557D02*
X163589142Y-99385938D01*
X163589142Y-99385938D02*
X163303428Y-99385938D01*
X163303428Y-99385938D02*
X163208190Y-99433557D01*
X163208190Y-99433557D02*
X163160571Y-99481176D01*
X163160571Y-99481176D02*
X163112952Y-99576414D01*
X163112952Y-99576414D02*
X163112952Y-99719271D01*
X163112952Y-99719271D02*
X163160571Y-99814509D01*
X163160571Y-99814509D02*
X163208190Y-99862128D01*
X163208190Y-99862128D02*
X163303428Y-99909747D01*
X163303428Y-99909747D02*
X163589142Y-99909747D01*
X163589142Y-99909747D02*
X163684380Y-99862128D01*
X163684380Y-99862128D02*
X163732000Y-99814509D01*
X163732000Y-99814509D02*
X163779619Y-99719271D01*
X163779619Y-99719271D02*
X163779619Y-99576414D01*
X165155078Y-95394471D02*
X165119364Y-95323043D01*
X165119364Y-95323043D02*
X165119364Y-95215900D01*
X165119364Y-95215900D02*
X165155078Y-95108757D01*
X165155078Y-95108757D02*
X165226507Y-95037328D01*
X165226507Y-95037328D02*
X165297935Y-95001614D01*
X165297935Y-95001614D02*
X165440792Y-94965900D01*
X165440792Y-94965900D02*
X165547935Y-94965900D01*
X165547935Y-94965900D02*
X165690792Y-95001614D01*
X165690792Y-95001614D02*
X165762221Y-95037328D01*
X165762221Y-95037328D02*
X165833650Y-95108757D01*
X165833650Y-95108757D02*
X165869364Y-95215900D01*
X165869364Y-95215900D02*
X165869364Y-95287328D01*
X165869364Y-95287328D02*
X165833650Y-95394471D01*
X165833650Y-95394471D02*
X165797935Y-95430185D01*
X165797935Y-95430185D02*
X165547935Y-95430185D01*
X165547935Y-95430185D02*
X165547935Y-95287328D01*
X165869364Y-95751614D02*
X165119364Y-95751614D01*
X165119364Y-95751614D02*
X165869364Y-96180185D01*
X165869364Y-96180185D02*
X165119364Y-96180185D01*
X165869364Y-96537328D02*
X165119364Y-96537328D01*
X165119364Y-96537328D02*
X165119364Y-96715899D01*
X165119364Y-96715899D02*
X165155078Y-96823042D01*
X165155078Y-96823042D02*
X165226507Y-96894471D01*
X165226507Y-96894471D02*
X165297935Y-96930185D01*
X165297935Y-96930185D02*
X165440792Y-96965899D01*
X165440792Y-96965899D02*
X165547935Y-96965899D01*
X165547935Y-96965899D02*
X165690792Y-96930185D01*
X165690792Y-96930185D02*
X165762221Y-96894471D01*
X165762221Y-96894471D02*
X165833650Y-96823042D01*
X165833650Y-96823042D02*
X165869364Y-96715899D01*
X165869364Y-96715899D02*
X165869364Y-96537328D01*
X165833650Y-97562243D02*
X165869364Y-97669386D01*
X165869364Y-97669386D02*
X165869364Y-97847957D01*
X165869364Y-97847957D02*
X165833650Y-97919386D01*
X165833650Y-97919386D02*
X165797935Y-97955100D01*
X165797935Y-97955100D02*
X165726507Y-97990814D01*
X165726507Y-97990814D02*
X165655078Y-97990814D01*
X165655078Y-97990814D02*
X165583650Y-97955100D01*
X165583650Y-97955100D02*
X165547935Y-97919386D01*
X165547935Y-97919386D02*
X165512221Y-97847957D01*
X165512221Y-97847957D02*
X165476507Y-97705100D01*
X165476507Y-97705100D02*
X165440792Y-97633671D01*
X165440792Y-97633671D02*
X165405078Y-97597957D01*
X165405078Y-97597957D02*
X165333650Y-97562243D01*
X165333650Y-97562243D02*
X165262221Y-97562243D01*
X165262221Y-97562243D02*
X165190792Y-97597957D01*
X165190792Y-97597957D02*
X165155078Y-97633671D01*
X165155078Y-97633671D02*
X165119364Y-97705100D01*
X165119364Y-97705100D02*
X165119364Y-97883671D01*
X165119364Y-97883671D02*
X165155078Y-97990814D01*
X165797935Y-98740814D02*
X165833650Y-98705100D01*
X165833650Y-98705100D02*
X165869364Y-98597957D01*
X165869364Y-98597957D02*
X165869364Y-98526529D01*
X165869364Y-98526529D02*
X165833650Y-98419386D01*
X165833650Y-98419386D02*
X165762221Y-98347957D01*
X165762221Y-98347957D02*
X165690792Y-98312243D01*
X165690792Y-98312243D02*
X165547935Y-98276529D01*
X165547935Y-98276529D02*
X165440792Y-98276529D01*
X165440792Y-98276529D02*
X165297935Y-98312243D01*
X165297935Y-98312243D02*
X165226507Y-98347957D01*
X165226507Y-98347957D02*
X165155078Y-98419386D01*
X165155078Y-98419386D02*
X165119364Y-98526529D01*
X165119364Y-98526529D02*
X165119364Y-98597957D01*
X165119364Y-98597957D02*
X165155078Y-98705100D01*
X165155078Y-98705100D02*
X165190792Y-98740814D01*
X165869364Y-99419386D02*
X165869364Y-99062243D01*
X165869364Y-99062243D02*
X165119364Y-99062243D01*
X171421650Y-97798386D02*
X171457364Y-97905529D01*
X171457364Y-97905529D02*
X171457364Y-98084100D01*
X171457364Y-98084100D02*
X171421650Y-98155529D01*
X171421650Y-98155529D02*
X171385935Y-98191243D01*
X171385935Y-98191243D02*
X171314507Y-98226957D01*
X171314507Y-98226957D02*
X171243078Y-98226957D01*
X171243078Y-98226957D02*
X171171650Y-98191243D01*
X171171650Y-98191243D02*
X171135935Y-98155529D01*
X171135935Y-98155529D02*
X171100221Y-98084100D01*
X171100221Y-98084100D02*
X171064507Y-97941243D01*
X171064507Y-97941243D02*
X171028792Y-97869814D01*
X171028792Y-97869814D02*
X170993078Y-97834100D01*
X170993078Y-97834100D02*
X170921650Y-97798386D01*
X170921650Y-97798386D02*
X170850221Y-97798386D01*
X170850221Y-97798386D02*
X170778792Y-97834100D01*
X170778792Y-97834100D02*
X170743078Y-97869814D01*
X170743078Y-97869814D02*
X170707364Y-97941243D01*
X170707364Y-97941243D02*
X170707364Y-98119814D01*
X170707364Y-98119814D02*
X170743078Y-98226957D01*
X171457364Y-98548386D02*
X170707364Y-98548386D01*
X170707364Y-98548386D02*
X170707364Y-98726957D01*
X170707364Y-98726957D02*
X170743078Y-98834100D01*
X170743078Y-98834100D02*
X170814507Y-98905529D01*
X170814507Y-98905529D02*
X170885935Y-98941243D01*
X170885935Y-98941243D02*
X171028792Y-98976957D01*
X171028792Y-98976957D02*
X171135935Y-98976957D01*
X171135935Y-98976957D02*
X171278792Y-98941243D01*
X171278792Y-98941243D02*
X171350221Y-98905529D01*
X171350221Y-98905529D02*
X171421650Y-98834100D01*
X171421650Y-98834100D02*
X171457364Y-98726957D01*
X171457364Y-98726957D02*
X171457364Y-98548386D01*
X171243078Y-99262672D02*
X171243078Y-99619815D01*
X171457364Y-99191243D02*
X170707364Y-99441243D01*
X170707364Y-99441243D02*
X171457364Y-99691243D01*
X170707364Y-95067500D02*
X171457364Y-95317500D01*
X171457364Y-95317500D02*
X170707364Y-95567500D01*
X171385935Y-96246071D02*
X171421650Y-96210357D01*
X171421650Y-96210357D02*
X171457364Y-96103214D01*
X171457364Y-96103214D02*
X171457364Y-96031786D01*
X171457364Y-96031786D02*
X171421650Y-95924643D01*
X171421650Y-95924643D02*
X171350221Y-95853214D01*
X171350221Y-95853214D02*
X171278792Y-95817500D01*
X171278792Y-95817500D02*
X171135935Y-95781786D01*
X171135935Y-95781786D02*
X171028792Y-95781786D01*
X171028792Y-95781786D02*
X170885935Y-95817500D01*
X170885935Y-95817500D02*
X170814507Y-95853214D01*
X170814507Y-95853214D02*
X170743078Y-95924643D01*
X170743078Y-95924643D02*
X170707364Y-96031786D01*
X170707364Y-96031786D02*
X170707364Y-96103214D01*
X170707364Y-96103214D02*
X170743078Y-96210357D01*
X170743078Y-96210357D02*
X170778792Y-96246071D01*
X171385935Y-96996071D02*
X171421650Y-96960357D01*
X171421650Y-96960357D02*
X171457364Y-96853214D01*
X171457364Y-96853214D02*
X171457364Y-96781786D01*
X171457364Y-96781786D02*
X171421650Y-96674643D01*
X171421650Y-96674643D02*
X171350221Y-96603214D01*
X171350221Y-96603214D02*
X171278792Y-96567500D01*
X171278792Y-96567500D02*
X171135935Y-96531786D01*
X171135935Y-96531786D02*
X171028792Y-96531786D01*
X171028792Y-96531786D02*
X170885935Y-96567500D01*
X170885935Y-96567500D02*
X170814507Y-96603214D01*
X170814507Y-96603214D02*
X170743078Y-96674643D01*
X170743078Y-96674643D02*
X170707364Y-96781786D01*
X170707364Y-96781786D02*
X170707364Y-96853214D01*
X170707364Y-96853214D02*
X170743078Y-96960357D01*
X170743078Y-96960357D02*
X170778792Y-96996071D01*
X170743078Y-100421357D02*
X170707364Y-100349929D01*
X170707364Y-100349929D02*
X170707364Y-100242786D01*
X170707364Y-100242786D02*
X170743078Y-100135643D01*
X170743078Y-100135643D02*
X170814507Y-100064214D01*
X170814507Y-100064214D02*
X170885935Y-100028500D01*
X170885935Y-100028500D02*
X171028792Y-99992786D01*
X171028792Y-99992786D02*
X171135935Y-99992786D01*
X171135935Y-99992786D02*
X171278792Y-100028500D01*
X171278792Y-100028500D02*
X171350221Y-100064214D01*
X171350221Y-100064214D02*
X171421650Y-100135643D01*
X171421650Y-100135643D02*
X171457364Y-100242786D01*
X171457364Y-100242786D02*
X171457364Y-100314214D01*
X171457364Y-100314214D02*
X171421650Y-100421357D01*
X171421650Y-100421357D02*
X171385935Y-100457071D01*
X171385935Y-100457071D02*
X171135935Y-100457071D01*
X171135935Y-100457071D02*
X171135935Y-100314214D01*
X171457364Y-100778500D02*
X170707364Y-100778500D01*
X170707364Y-100778500D02*
X170707364Y-101064214D01*
X170707364Y-101064214D02*
X170743078Y-101135643D01*
X170743078Y-101135643D02*
X170778792Y-101171357D01*
X170778792Y-101171357D02*
X170850221Y-101207071D01*
X170850221Y-101207071D02*
X170957364Y-101207071D01*
X170957364Y-101207071D02*
X171028792Y-101171357D01*
X171028792Y-101171357D02*
X171064507Y-101135643D01*
X171064507Y-101135643D02*
X171100221Y-101064214D01*
X171100221Y-101064214D02*
X171100221Y-100778500D01*
X171457364Y-101528500D02*
X170707364Y-101528500D01*
X170707364Y-102028500D02*
X170707364Y-102171357D01*
X170707364Y-102171357D02*
X170743078Y-102242786D01*
X170743078Y-102242786D02*
X170814507Y-102314214D01*
X170814507Y-102314214D02*
X170957364Y-102349929D01*
X170957364Y-102349929D02*
X171207364Y-102349929D01*
X171207364Y-102349929D02*
X171350221Y-102314214D01*
X171350221Y-102314214D02*
X171421650Y-102242786D01*
X171421650Y-102242786D02*
X171457364Y-102171357D01*
X171457364Y-102171357D02*
X171457364Y-102028500D01*
X171457364Y-102028500D02*
X171421650Y-101957072D01*
X171421650Y-101957072D02*
X171350221Y-101885643D01*
X171350221Y-101885643D02*
X171207364Y-101849929D01*
X171207364Y-101849929D02*
X170957364Y-101849929D01*
X170957364Y-101849929D02*
X170814507Y-101885643D01*
X170814507Y-101885643D02*
X170743078Y-101957072D01*
X170743078Y-101957072D02*
X170707364Y-102028500D01*
X171457364Y-103064214D02*
X171457364Y-102635643D01*
X171457364Y-102849928D02*
X170707364Y-102849928D01*
X170707364Y-102849928D02*
X170814507Y-102778500D01*
X170814507Y-102778500D02*
X170885935Y-102707071D01*
X170885935Y-102707071D02*
X170921650Y-102635643D01*
X165180478Y-100548357D02*
X165144764Y-100476929D01*
X165144764Y-100476929D02*
X165144764Y-100369786D01*
X165144764Y-100369786D02*
X165180478Y-100262643D01*
X165180478Y-100262643D02*
X165251907Y-100191214D01*
X165251907Y-100191214D02*
X165323335Y-100155500D01*
X165323335Y-100155500D02*
X165466192Y-100119786D01*
X165466192Y-100119786D02*
X165573335Y-100119786D01*
X165573335Y-100119786D02*
X165716192Y-100155500D01*
X165716192Y-100155500D02*
X165787621Y-100191214D01*
X165787621Y-100191214D02*
X165859050Y-100262643D01*
X165859050Y-100262643D02*
X165894764Y-100369786D01*
X165894764Y-100369786D02*
X165894764Y-100441214D01*
X165894764Y-100441214D02*
X165859050Y-100548357D01*
X165859050Y-100548357D02*
X165823335Y-100584071D01*
X165823335Y-100584071D02*
X165573335Y-100584071D01*
X165573335Y-100584071D02*
X165573335Y-100441214D01*
X165894764Y-100905500D02*
X165144764Y-100905500D01*
X165144764Y-100905500D02*
X165144764Y-101191214D01*
X165144764Y-101191214D02*
X165180478Y-101262643D01*
X165180478Y-101262643D02*
X165216192Y-101298357D01*
X165216192Y-101298357D02*
X165287621Y-101334071D01*
X165287621Y-101334071D02*
X165394764Y-101334071D01*
X165394764Y-101334071D02*
X165466192Y-101298357D01*
X165466192Y-101298357D02*
X165501907Y-101262643D01*
X165501907Y-101262643D02*
X165537621Y-101191214D01*
X165537621Y-101191214D02*
X165537621Y-100905500D01*
X165894764Y-101655500D02*
X165144764Y-101655500D01*
X165144764Y-102155500D02*
X165144764Y-102298357D01*
X165144764Y-102298357D02*
X165180478Y-102369786D01*
X165180478Y-102369786D02*
X165251907Y-102441214D01*
X165251907Y-102441214D02*
X165394764Y-102476929D01*
X165394764Y-102476929D02*
X165644764Y-102476929D01*
X165644764Y-102476929D02*
X165787621Y-102441214D01*
X165787621Y-102441214D02*
X165859050Y-102369786D01*
X165859050Y-102369786D02*
X165894764Y-102298357D01*
X165894764Y-102298357D02*
X165894764Y-102155500D01*
X165894764Y-102155500D02*
X165859050Y-102084072D01*
X165859050Y-102084072D02*
X165787621Y-102012643D01*
X165787621Y-102012643D02*
X165644764Y-101976929D01*
X165644764Y-101976929D02*
X165394764Y-101976929D01*
X165394764Y-101976929D02*
X165251907Y-102012643D01*
X165251907Y-102012643D02*
X165180478Y-102084072D01*
X165180478Y-102084072D02*
X165144764Y-102155500D01*
X165216192Y-102762643D02*
X165180478Y-102798357D01*
X165180478Y-102798357D02*
X165144764Y-102869786D01*
X165144764Y-102869786D02*
X165144764Y-103048357D01*
X165144764Y-103048357D02*
X165180478Y-103119786D01*
X165180478Y-103119786D02*
X165216192Y-103155500D01*
X165216192Y-103155500D02*
X165287621Y-103191214D01*
X165287621Y-103191214D02*
X165359050Y-103191214D01*
X165359050Y-103191214D02*
X165466192Y-103155500D01*
X165466192Y-103155500D02*
X165894764Y-102726928D01*
X165894764Y-102726928D02*
X165894764Y-103191214D01*
%TO.C,X2*%
X133513947Y-67476000D02*
X133418709Y-67523619D01*
X133418709Y-67523619D02*
X133228233Y-67523619D01*
X133228233Y-67523619D02*
X133132995Y-67476000D01*
X133132995Y-67476000D02*
X133085376Y-67380761D01*
X133085376Y-67380761D02*
X133085376Y-67333142D01*
X133085376Y-67333142D02*
X133132995Y-67237904D01*
X133132995Y-67237904D02*
X133228233Y-67190285D01*
X133228233Y-67190285D02*
X133371090Y-67190285D01*
X133371090Y-67190285D02*
X133466328Y-67142666D01*
X133466328Y-67142666D02*
X133513947Y-67047428D01*
X133513947Y-67047428D02*
X133513947Y-66999809D01*
X133513947Y-66999809D02*
X133466328Y-66904571D01*
X133466328Y-66904571D02*
X133371090Y-66856952D01*
X133371090Y-66856952D02*
X133228233Y-66856952D01*
X133228233Y-66856952D02*
X133132995Y-66904571D01*
X132228233Y-67523619D02*
X132228233Y-66999809D01*
X132228233Y-66999809D02*
X132275852Y-66904571D01*
X132275852Y-66904571D02*
X132371090Y-66856952D01*
X132371090Y-66856952D02*
X132561566Y-66856952D01*
X132561566Y-66856952D02*
X132656804Y-66904571D01*
X132228233Y-67476000D02*
X132323471Y-67523619D01*
X132323471Y-67523619D02*
X132561566Y-67523619D01*
X132561566Y-67523619D02*
X132656804Y-67476000D01*
X132656804Y-67476000D02*
X132704423Y-67380761D01*
X132704423Y-67380761D02*
X132704423Y-67285523D01*
X132704423Y-67285523D02*
X132656804Y-67190285D01*
X132656804Y-67190285D02*
X132561566Y-67142666D01*
X132561566Y-67142666D02*
X132323471Y-67142666D01*
X132323471Y-67142666D02*
X132228233Y-67095047D01*
X131609185Y-67523619D02*
X131704423Y-67476000D01*
X131704423Y-67476000D02*
X131752042Y-67428380D01*
X131752042Y-67428380D02*
X131799661Y-67333142D01*
X131799661Y-67333142D02*
X131799661Y-67047428D01*
X131799661Y-67047428D02*
X131752042Y-66952190D01*
X131752042Y-66952190D02*
X131704423Y-66904571D01*
X131704423Y-66904571D02*
X131609185Y-66856952D01*
X131609185Y-66856952D02*
X131466328Y-66856952D01*
X131466328Y-66856952D02*
X131371090Y-66904571D01*
X131371090Y-66904571D02*
X131323471Y-66952190D01*
X131323471Y-66952190D02*
X131275852Y-67047428D01*
X131275852Y-67047428D02*
X131275852Y-67333142D01*
X131275852Y-67333142D02*
X131323471Y-67428380D01*
X131323471Y-67428380D02*
X131371090Y-67476000D01*
X131371090Y-67476000D02*
X131466328Y-67523619D01*
X131466328Y-67523619D02*
X131609185Y-67523619D01*
X136747842Y-59027278D02*
X136819271Y-58991564D01*
X136819271Y-58991564D02*
X136926413Y-58991564D01*
X136926413Y-58991564D02*
X137033556Y-59027278D01*
X137033556Y-59027278D02*
X137104985Y-59098707D01*
X137104985Y-59098707D02*
X137140699Y-59170135D01*
X137140699Y-59170135D02*
X137176413Y-59312992D01*
X137176413Y-59312992D02*
X137176413Y-59420135D01*
X137176413Y-59420135D02*
X137140699Y-59562992D01*
X137140699Y-59562992D02*
X137104985Y-59634421D01*
X137104985Y-59634421D02*
X137033556Y-59705850D01*
X137033556Y-59705850D02*
X136926413Y-59741564D01*
X136926413Y-59741564D02*
X136854985Y-59741564D01*
X136854985Y-59741564D02*
X136747842Y-59705850D01*
X136747842Y-59705850D02*
X136712128Y-59670135D01*
X136712128Y-59670135D02*
X136712128Y-59420135D01*
X136712128Y-59420135D02*
X136854985Y-59420135D01*
X136390699Y-59741564D02*
X136390699Y-58991564D01*
X136390699Y-58991564D02*
X136104985Y-58991564D01*
X136104985Y-58991564D02*
X136033556Y-59027278D01*
X136033556Y-59027278D02*
X135997842Y-59062992D01*
X135997842Y-59062992D02*
X135962128Y-59134421D01*
X135962128Y-59134421D02*
X135962128Y-59241564D01*
X135962128Y-59241564D02*
X135997842Y-59312992D01*
X135997842Y-59312992D02*
X136033556Y-59348707D01*
X136033556Y-59348707D02*
X136104985Y-59384421D01*
X136104985Y-59384421D02*
X136390699Y-59384421D01*
X135640699Y-59741564D02*
X135640699Y-58991564D01*
X135140699Y-58991564D02*
X134997842Y-58991564D01*
X134997842Y-58991564D02*
X134926413Y-59027278D01*
X134926413Y-59027278D02*
X134854985Y-59098707D01*
X134854985Y-59098707D02*
X134819270Y-59241564D01*
X134819270Y-59241564D02*
X134819270Y-59491564D01*
X134819270Y-59491564D02*
X134854985Y-59634421D01*
X134854985Y-59634421D02*
X134926413Y-59705850D01*
X134926413Y-59705850D02*
X134997842Y-59741564D01*
X134997842Y-59741564D02*
X135140699Y-59741564D01*
X135140699Y-59741564D02*
X135212128Y-59705850D01*
X135212128Y-59705850D02*
X135283556Y-59634421D01*
X135283556Y-59634421D02*
X135319270Y-59491564D01*
X135319270Y-59491564D02*
X135319270Y-59241564D01*
X135319270Y-59241564D02*
X135283556Y-59098707D01*
X135283556Y-59098707D02*
X135212128Y-59027278D01*
X135212128Y-59027278D02*
X135140699Y-58991564D01*
X134104985Y-59741564D02*
X134533556Y-59741564D01*
X134319271Y-59741564D02*
X134319271Y-58991564D01*
X134319271Y-58991564D02*
X134390699Y-59098707D01*
X134390699Y-59098707D02*
X134462128Y-59170135D01*
X134462128Y-59170135D02*
X134533556Y-59205850D01*
X132952156Y-65166850D02*
X132845014Y-65202564D01*
X132845014Y-65202564D02*
X132666442Y-65202564D01*
X132666442Y-65202564D02*
X132595014Y-65166850D01*
X132595014Y-65166850D02*
X132559299Y-65131135D01*
X132559299Y-65131135D02*
X132523585Y-65059707D01*
X132523585Y-65059707D02*
X132523585Y-64988278D01*
X132523585Y-64988278D02*
X132559299Y-64916850D01*
X132559299Y-64916850D02*
X132595014Y-64881135D01*
X132595014Y-64881135D02*
X132666442Y-64845421D01*
X132666442Y-64845421D02*
X132809299Y-64809707D01*
X132809299Y-64809707D02*
X132880728Y-64773992D01*
X132880728Y-64773992D02*
X132916442Y-64738278D01*
X132916442Y-64738278D02*
X132952156Y-64666850D01*
X132952156Y-64666850D02*
X132952156Y-64595421D01*
X132952156Y-64595421D02*
X132916442Y-64523992D01*
X132916442Y-64523992D02*
X132880728Y-64488278D01*
X132880728Y-64488278D02*
X132809299Y-64452564D01*
X132809299Y-64452564D02*
X132630728Y-64452564D01*
X132630728Y-64452564D02*
X132523585Y-64488278D01*
X131773585Y-65131135D02*
X131809299Y-65166850D01*
X131809299Y-65166850D02*
X131916442Y-65202564D01*
X131916442Y-65202564D02*
X131987870Y-65202564D01*
X131987870Y-65202564D02*
X132095013Y-65166850D01*
X132095013Y-65166850D02*
X132166442Y-65095421D01*
X132166442Y-65095421D02*
X132202156Y-65023992D01*
X132202156Y-65023992D02*
X132237870Y-64881135D01*
X132237870Y-64881135D02*
X132237870Y-64773992D01*
X132237870Y-64773992D02*
X132202156Y-64631135D01*
X132202156Y-64631135D02*
X132166442Y-64559707D01*
X132166442Y-64559707D02*
X132095013Y-64488278D01*
X132095013Y-64488278D02*
X131987870Y-64452564D01*
X131987870Y-64452564D02*
X131916442Y-64452564D01*
X131916442Y-64452564D02*
X131809299Y-64488278D01*
X131809299Y-64488278D02*
X131773585Y-64523992D01*
X131095013Y-65202564D02*
X131452156Y-65202564D01*
X131452156Y-65202564D02*
X131452156Y-64452564D01*
X130141528Y-64488278D02*
X130212957Y-64452564D01*
X130212957Y-64452564D02*
X130320099Y-64452564D01*
X130320099Y-64452564D02*
X130427242Y-64488278D01*
X130427242Y-64488278D02*
X130498671Y-64559707D01*
X130498671Y-64559707D02*
X130534385Y-64631135D01*
X130534385Y-64631135D02*
X130570099Y-64773992D01*
X130570099Y-64773992D02*
X130570099Y-64881135D01*
X130570099Y-64881135D02*
X130534385Y-65023992D01*
X130534385Y-65023992D02*
X130498671Y-65095421D01*
X130498671Y-65095421D02*
X130427242Y-65166850D01*
X130427242Y-65166850D02*
X130320099Y-65202564D01*
X130320099Y-65202564D02*
X130248671Y-65202564D01*
X130248671Y-65202564D02*
X130141528Y-65166850D01*
X130141528Y-65166850D02*
X130105814Y-65131135D01*
X130105814Y-65131135D02*
X130105814Y-64881135D01*
X130105814Y-64881135D02*
X130248671Y-64881135D01*
X129784385Y-65202564D02*
X129784385Y-64452564D01*
X129784385Y-64452564D02*
X129355814Y-65202564D01*
X129355814Y-65202564D02*
X129355814Y-64452564D01*
X128998671Y-65202564D02*
X128998671Y-64452564D01*
X128998671Y-64452564D02*
X128820100Y-64452564D01*
X128820100Y-64452564D02*
X128712957Y-64488278D01*
X128712957Y-64488278D02*
X128641528Y-64559707D01*
X128641528Y-64559707D02*
X128605814Y-64631135D01*
X128605814Y-64631135D02*
X128570100Y-64773992D01*
X128570100Y-64773992D02*
X128570100Y-64881135D01*
X128570100Y-64881135D02*
X128605814Y-65023992D01*
X128605814Y-65023992D02*
X128641528Y-65095421D01*
X128641528Y-65095421D02*
X128712957Y-65166850D01*
X128712957Y-65166850D02*
X128820100Y-65202564D01*
X128820100Y-65202564D02*
X128998671Y-65202564D01*
X130671699Y-58991564D02*
X130421699Y-59741564D01*
X130421699Y-59741564D02*
X130171699Y-58991564D01*
X129493128Y-59670135D02*
X129528842Y-59705850D01*
X129528842Y-59705850D02*
X129635985Y-59741564D01*
X129635985Y-59741564D02*
X129707413Y-59741564D01*
X129707413Y-59741564D02*
X129814556Y-59705850D01*
X129814556Y-59705850D02*
X129885985Y-59634421D01*
X129885985Y-59634421D02*
X129921699Y-59562992D01*
X129921699Y-59562992D02*
X129957413Y-59420135D01*
X129957413Y-59420135D02*
X129957413Y-59312992D01*
X129957413Y-59312992D02*
X129921699Y-59170135D01*
X129921699Y-59170135D02*
X129885985Y-59098707D01*
X129885985Y-59098707D02*
X129814556Y-59027278D01*
X129814556Y-59027278D02*
X129707413Y-58991564D01*
X129707413Y-58991564D02*
X129635985Y-58991564D01*
X129635985Y-58991564D02*
X129528842Y-59027278D01*
X129528842Y-59027278D02*
X129493128Y-59062992D01*
X128743128Y-59670135D02*
X128778842Y-59705850D01*
X128778842Y-59705850D02*
X128885985Y-59741564D01*
X128885985Y-59741564D02*
X128957413Y-59741564D01*
X128957413Y-59741564D02*
X129064556Y-59705850D01*
X129064556Y-59705850D02*
X129135985Y-59634421D01*
X129135985Y-59634421D02*
X129171699Y-59562992D01*
X129171699Y-59562992D02*
X129207413Y-59420135D01*
X129207413Y-59420135D02*
X129207413Y-59312992D01*
X129207413Y-59312992D02*
X129171699Y-59170135D01*
X129171699Y-59170135D02*
X129135985Y-59098707D01*
X129135985Y-59098707D02*
X129064556Y-59027278D01*
X129064556Y-59027278D02*
X128957413Y-58991564D01*
X128957413Y-58991564D02*
X128885985Y-58991564D01*
X128885985Y-58991564D02*
X128778842Y-59027278D01*
X128778842Y-59027278D02*
X128743128Y-59062992D01*
X136620842Y-64462878D02*
X136692271Y-64427164D01*
X136692271Y-64427164D02*
X136799413Y-64427164D01*
X136799413Y-64427164D02*
X136906556Y-64462878D01*
X136906556Y-64462878D02*
X136977985Y-64534307D01*
X136977985Y-64534307D02*
X137013699Y-64605735D01*
X137013699Y-64605735D02*
X137049413Y-64748592D01*
X137049413Y-64748592D02*
X137049413Y-64855735D01*
X137049413Y-64855735D02*
X137013699Y-64998592D01*
X137013699Y-64998592D02*
X136977985Y-65070021D01*
X136977985Y-65070021D02*
X136906556Y-65141450D01*
X136906556Y-65141450D02*
X136799413Y-65177164D01*
X136799413Y-65177164D02*
X136727985Y-65177164D01*
X136727985Y-65177164D02*
X136620842Y-65141450D01*
X136620842Y-65141450D02*
X136585128Y-65105735D01*
X136585128Y-65105735D02*
X136585128Y-64855735D01*
X136585128Y-64855735D02*
X136727985Y-64855735D01*
X136263699Y-65177164D02*
X136263699Y-64427164D01*
X136263699Y-64427164D02*
X135977985Y-64427164D01*
X135977985Y-64427164D02*
X135906556Y-64462878D01*
X135906556Y-64462878D02*
X135870842Y-64498592D01*
X135870842Y-64498592D02*
X135835128Y-64570021D01*
X135835128Y-64570021D02*
X135835128Y-64677164D01*
X135835128Y-64677164D02*
X135870842Y-64748592D01*
X135870842Y-64748592D02*
X135906556Y-64784307D01*
X135906556Y-64784307D02*
X135977985Y-64820021D01*
X135977985Y-64820021D02*
X136263699Y-64820021D01*
X135513699Y-65177164D02*
X135513699Y-64427164D01*
X135013699Y-64427164D02*
X134870842Y-64427164D01*
X134870842Y-64427164D02*
X134799413Y-64462878D01*
X134799413Y-64462878D02*
X134727985Y-64534307D01*
X134727985Y-64534307D02*
X134692270Y-64677164D01*
X134692270Y-64677164D02*
X134692270Y-64927164D01*
X134692270Y-64927164D02*
X134727985Y-65070021D01*
X134727985Y-65070021D02*
X134799413Y-65141450D01*
X134799413Y-65141450D02*
X134870842Y-65177164D01*
X134870842Y-65177164D02*
X135013699Y-65177164D01*
X135013699Y-65177164D02*
X135085128Y-65141450D01*
X135085128Y-65141450D02*
X135156556Y-65070021D01*
X135156556Y-65070021D02*
X135192270Y-64927164D01*
X135192270Y-64927164D02*
X135192270Y-64677164D01*
X135192270Y-64677164D02*
X135156556Y-64534307D01*
X135156556Y-64534307D02*
X135085128Y-64462878D01*
X135085128Y-64462878D02*
X135013699Y-64427164D01*
X134406556Y-64498592D02*
X134370842Y-64462878D01*
X134370842Y-64462878D02*
X134299414Y-64427164D01*
X134299414Y-64427164D02*
X134120842Y-64427164D01*
X134120842Y-64427164D02*
X134049414Y-64462878D01*
X134049414Y-64462878D02*
X134013699Y-64498592D01*
X134013699Y-64498592D02*
X133977985Y-64570021D01*
X133977985Y-64570021D02*
X133977985Y-64641450D01*
X133977985Y-64641450D02*
X134013699Y-64748592D01*
X134013699Y-64748592D02*
X134442271Y-65177164D01*
X134442271Y-65177164D02*
X133977985Y-65177164D01*
X133503413Y-59705850D02*
X133396271Y-59741564D01*
X133396271Y-59741564D02*
X133217699Y-59741564D01*
X133217699Y-59741564D02*
X133146271Y-59705850D01*
X133146271Y-59705850D02*
X133110556Y-59670135D01*
X133110556Y-59670135D02*
X133074842Y-59598707D01*
X133074842Y-59598707D02*
X133074842Y-59527278D01*
X133074842Y-59527278D02*
X133110556Y-59455850D01*
X133110556Y-59455850D02*
X133146271Y-59420135D01*
X133146271Y-59420135D02*
X133217699Y-59384421D01*
X133217699Y-59384421D02*
X133360556Y-59348707D01*
X133360556Y-59348707D02*
X133431985Y-59312992D01*
X133431985Y-59312992D02*
X133467699Y-59277278D01*
X133467699Y-59277278D02*
X133503413Y-59205850D01*
X133503413Y-59205850D02*
X133503413Y-59134421D01*
X133503413Y-59134421D02*
X133467699Y-59062992D01*
X133467699Y-59062992D02*
X133431985Y-59027278D01*
X133431985Y-59027278D02*
X133360556Y-58991564D01*
X133360556Y-58991564D02*
X133181985Y-58991564D01*
X133181985Y-58991564D02*
X133074842Y-59027278D01*
X132753413Y-59741564D02*
X132753413Y-58991564D01*
X132753413Y-58991564D02*
X132574842Y-58991564D01*
X132574842Y-58991564D02*
X132467699Y-59027278D01*
X132467699Y-59027278D02*
X132396270Y-59098707D01*
X132396270Y-59098707D02*
X132360556Y-59170135D01*
X132360556Y-59170135D02*
X132324842Y-59312992D01*
X132324842Y-59312992D02*
X132324842Y-59420135D01*
X132324842Y-59420135D02*
X132360556Y-59562992D01*
X132360556Y-59562992D02*
X132396270Y-59634421D01*
X132396270Y-59634421D02*
X132467699Y-59705850D01*
X132467699Y-59705850D02*
X132574842Y-59741564D01*
X132574842Y-59741564D02*
X132753413Y-59741564D01*
X132039127Y-59527278D02*
X131681985Y-59527278D01*
X132110556Y-59741564D02*
X131860556Y-58991564D01*
X131860556Y-58991564D02*
X131610556Y-59741564D01*
%TO.C,U1*%
X119627671Y-117973095D02*
X119070449Y-118492713D01*
X119608868Y-118511515D02*
X119089251Y-117954293D01*
X105529549Y-131256539D02*
X104972327Y-131776157D01*
X105510746Y-131794959D02*
X104991129Y-131237737D01*
X99521060Y-123722589D02*
X99578384Y-123721222D01*
X99578384Y-123721222D02*
X99691431Y-123667893D01*
X99691431Y-123667893D02*
X99747153Y-123615931D01*
X99747153Y-123615931D02*
X99801273Y-123513375D01*
X99801273Y-123513375D02*
X99798068Y-123412186D01*
X99798068Y-123412186D02*
X99767002Y-123336978D01*
X99767002Y-123336978D02*
X99677009Y-123212543D01*
X99677009Y-123212543D02*
X99588618Y-123138703D01*
X99588618Y-123138703D02*
X99442903Y-123066230D01*
X99442903Y-123066230D02*
X99356115Y-123042984D01*
X99356115Y-123042984D02*
X99241466Y-123045719D01*
X99241466Y-123045719D02*
X99128419Y-123099048D01*
X99128419Y-123099048D02*
X99072697Y-123151010D01*
X99072697Y-123151010D02*
X99018577Y-123253566D01*
X99018577Y-123253566D02*
X99020180Y-123304160D01*
X98998386Y-124314167D02*
X98898779Y-123886166D01*
X99332719Y-124002397D02*
X98713985Y-123485513D01*
X98713985Y-123485513D02*
X98491097Y-123693361D01*
X98491097Y-123693361D02*
X98464838Y-123769936D01*
X98464838Y-123769936D02*
X98466440Y-123820530D01*
X98466440Y-123820530D02*
X98497506Y-123895738D01*
X98497506Y-123895738D02*
X98585897Y-123969579D01*
X98585897Y-123969579D02*
X98672685Y-123992825D01*
X98672685Y-123992825D02*
X98730010Y-123991457D01*
X98730010Y-123991457D02*
X98815195Y-123964109D01*
X98815195Y-123964109D02*
X99038084Y-123756262D01*
X98949352Y-124464070D02*
X98503574Y-124879764D01*
X97783844Y-124457062D02*
X97726519Y-124458429D01*
X97726519Y-124458429D02*
X97641333Y-124485778D01*
X97641333Y-124485778D02*
X97502028Y-124615682D01*
X97502028Y-124615682D02*
X97475769Y-124692257D01*
X97475769Y-124692257D02*
X97477372Y-124742852D01*
X97477372Y-124742852D02*
X97508438Y-124818060D01*
X97508438Y-124818060D02*
X97567365Y-124867287D01*
X97567365Y-124867287D02*
X97683616Y-124915146D01*
X97683616Y-124915146D02*
X98371512Y-124898737D01*
X98371512Y-124898737D02*
X98009318Y-125236489D01*
X97031872Y-125054110D02*
X96976150Y-125106071D01*
X96976150Y-125106071D02*
X96949891Y-125182647D01*
X96949891Y-125182647D02*
X96951493Y-125233241D01*
X96951493Y-125233241D02*
X96982559Y-125308449D01*
X96982559Y-125308449D02*
X97072552Y-125432884D01*
X97072552Y-125432884D02*
X97219870Y-125555951D01*
X97219870Y-125555951D02*
X97365585Y-125628424D01*
X97365585Y-125628424D02*
X97452373Y-125651670D01*
X97452373Y-125651670D02*
X97509698Y-125650303D01*
X97509698Y-125650303D02*
X97594884Y-125622955D01*
X97594884Y-125622955D02*
X97650606Y-125570993D01*
X97650606Y-125570993D02*
X97676865Y-125494418D01*
X97676865Y-125494418D02*
X97675262Y-125443823D01*
X97675262Y-125443823D02*
X97644196Y-125368615D01*
X97644196Y-125368615D02*
X97554203Y-125244181D01*
X97554203Y-125244181D02*
X97406886Y-125121113D01*
X97406886Y-125121113D02*
X97261170Y-125048640D01*
X97261170Y-125048640D02*
X97174382Y-125025394D01*
X97174382Y-125025394D02*
X97117058Y-125026761D01*
X97117058Y-125026761D02*
X97031872Y-125054110D01*
X96645299Y-125414595D02*
X96283105Y-125752346D01*
X96283105Y-125752346D02*
X96713841Y-125767388D01*
X96713841Y-125767388D02*
X96630258Y-125845331D01*
X96630258Y-125845331D02*
X96603999Y-125921906D01*
X96603999Y-125921906D02*
X96605601Y-125972500D01*
X96605601Y-125972500D02*
X96636667Y-126047708D01*
X96636667Y-126047708D02*
X96783985Y-126170775D01*
X96783985Y-126170775D02*
X96870773Y-126194021D01*
X96870773Y-126194021D02*
X96928098Y-126192654D01*
X96928098Y-126192654D02*
X97013283Y-126165306D01*
X97013283Y-126165306D02*
X97180450Y-126009420D01*
X97180450Y-126009420D02*
X97206709Y-125932845D01*
X97206709Y-125932845D02*
X97205106Y-125882251D01*
X96122626Y-126006173D02*
X96065301Y-126007540D01*
X96065301Y-126007540D02*
X95980115Y-126034888D01*
X95980115Y-126034888D02*
X95840810Y-126164793D01*
X95840810Y-126164793D02*
X95814551Y-126241368D01*
X95814551Y-126241368D02*
X95816154Y-126291963D01*
X95816154Y-126291963D02*
X95847220Y-126367170D01*
X95847220Y-126367170D02*
X95906147Y-126416397D01*
X95906147Y-126416397D02*
X96022398Y-126464257D01*
X96022398Y-126464257D02*
X96710294Y-126447848D01*
X96710294Y-126447848D02*
X96348100Y-126785600D01*
%TO.C,SW1*%
X100850532Y-140242400D02*
X100707675Y-140290019D01*
X100707675Y-140290019D02*
X100469580Y-140290019D01*
X100469580Y-140290019D02*
X100374342Y-140242400D01*
X100374342Y-140242400D02*
X100326723Y-140194780D01*
X100326723Y-140194780D02*
X100279104Y-140099542D01*
X100279104Y-140099542D02*
X100279104Y-140004304D01*
X100279104Y-140004304D02*
X100326723Y-139909066D01*
X100326723Y-139909066D02*
X100374342Y-139861447D01*
X100374342Y-139861447D02*
X100469580Y-139813828D01*
X100469580Y-139813828D02*
X100660056Y-139766209D01*
X100660056Y-139766209D02*
X100755294Y-139718590D01*
X100755294Y-139718590D02*
X100802913Y-139670971D01*
X100802913Y-139670971D02*
X100850532Y-139575733D01*
X100850532Y-139575733D02*
X100850532Y-139480495D01*
X100850532Y-139480495D02*
X100802913Y-139385257D01*
X100802913Y-139385257D02*
X100755294Y-139337638D01*
X100755294Y-139337638D02*
X100660056Y-139290019D01*
X100660056Y-139290019D02*
X100421961Y-139290019D01*
X100421961Y-139290019D02*
X100279104Y-139337638D01*
X99945770Y-139290019D02*
X99707675Y-140290019D01*
X99707675Y-140290019D02*
X99517199Y-139575733D01*
X99517199Y-139575733D02*
X99326723Y-140290019D01*
X99326723Y-140290019D02*
X99088628Y-139290019D01*
X98183866Y-140290019D02*
X98755294Y-140290019D01*
X98469580Y-140290019D02*
X98469580Y-139290019D01*
X98469580Y-139290019D02*
X98564818Y-139432876D01*
X98564818Y-139432876D02*
X98660056Y-139528114D01*
X98660056Y-139528114D02*
X98755294Y-139575733D01*
%TO.C,G\u002A\u002A\u002A*%
D11*
X126637936Y-97326931D02*
X126408221Y-97647026D01*
X126248700Y-97787755D01*
X126104593Y-97817356D01*
X126227980Y-97546209D01*
X126457535Y-97297051D01*
X126635326Y-97242187D01*
X126637936Y-97326931D01*
G36*
X126637936Y-97326931D02*
G01*
X126408221Y-97647026D01*
X126248700Y-97787755D01*
X126104593Y-97817356D01*
X126227980Y-97546209D01*
X126457535Y-97297051D01*
X126635326Y-97242187D01*
X126637936Y-97326931D01*
G37*
X132436894Y-99451652D02*
X132486335Y-99504979D01*
X132506982Y-99643711D01*
X132302797Y-99893626D01*
X131780429Y-100387859D01*
X131128839Y-101031963D01*
X130723119Y-101525722D01*
X130607288Y-101699467D01*
X130466597Y-101812764D01*
X130329481Y-101734587D01*
X130287955Y-101689514D01*
X130267484Y-101549928D01*
X130470491Y-101294950D01*
X130990287Y-100791395D01*
X131106815Y-100679612D01*
X131688251Y-100079770D01*
X132040390Y-99646324D01*
X132157801Y-99472199D01*
X132296757Y-99368836D01*
X132436894Y-99451652D01*
G36*
X132436894Y-99451652D02*
G01*
X132486335Y-99504979D01*
X132506982Y-99643711D01*
X132302797Y-99893626D01*
X131780429Y-100387859D01*
X131128839Y-101031963D01*
X130723119Y-101525722D01*
X130607288Y-101699467D01*
X130466597Y-101812764D01*
X130329481Y-101734587D01*
X130287955Y-101689514D01*
X130267484Y-101549928D01*
X130470491Y-101294950D01*
X130990287Y-100791395D01*
X131106815Y-100679612D01*
X131688251Y-100079770D01*
X132040390Y-99646324D01*
X132157801Y-99472199D01*
X132296757Y-99368836D01*
X132436894Y-99451652D01*
G37*
X127233822Y-94249775D02*
X127176595Y-94519785D01*
X126920489Y-94995768D01*
X126640868Y-95391835D01*
X126438214Y-95608838D01*
X126029723Y-96046251D01*
X125294815Y-96600140D01*
X125208463Y-96651354D01*
X124897621Y-96718322D01*
X124865194Y-96467612D01*
X124967757Y-96247109D01*
X125292781Y-96247109D01*
X125590553Y-96060070D01*
X125761543Y-95915415D01*
X126257908Y-95428532D01*
X126628741Y-94982413D01*
X126730429Y-94742995D01*
X126725795Y-94739121D01*
X126493571Y-94849855D01*
X125964406Y-95340639D01*
X125609197Y-95719125D01*
X125313743Y-96105080D01*
X125292781Y-96247109D01*
X124967757Y-96247109D01*
X125095419Y-95972644D01*
X125572529Y-95306838D01*
X125933843Y-94956142D01*
X126464702Y-94565867D01*
X126955678Y-94290579D01*
X127229333Y-94244091D01*
X127233822Y-94249775D01*
G36*
X127233822Y-94249775D02*
G01*
X127176595Y-94519785D01*
X126920489Y-94995768D01*
X126640868Y-95391835D01*
X126438214Y-95608838D01*
X126029723Y-96046251D01*
X125294815Y-96600140D01*
X125208463Y-96651354D01*
X124897621Y-96718322D01*
X124865194Y-96467612D01*
X124967757Y-96247109D01*
X125292781Y-96247109D01*
X125590553Y-96060070D01*
X125761543Y-95915415D01*
X126257908Y-95428532D01*
X126628741Y-94982413D01*
X126730429Y-94742995D01*
X126725795Y-94739121D01*
X126493571Y-94849855D01*
X125964406Y-95340639D01*
X125609197Y-95719125D01*
X125313743Y-96105080D01*
X125292781Y-96247109D01*
X124967757Y-96247109D01*
X125095419Y-95972644D01*
X125572529Y-95306838D01*
X125933843Y-94956142D01*
X126464702Y-94565867D01*
X126955678Y-94290579D01*
X127229333Y-94244091D01*
X127233822Y-94249775D01*
G37*
X127774934Y-94798340D02*
X127910786Y-94965520D01*
X127950281Y-95231879D01*
X127862826Y-95538127D01*
X127559764Y-95980194D01*
X127025123Y-96579432D01*
X126454629Y-97106801D01*
X126013198Y-97396595D01*
X125998692Y-97401488D01*
X125746356Y-97400414D01*
X125559413Y-97261984D01*
X125531990Y-97208086D01*
X125541059Y-96946614D01*
X125790489Y-96596911D01*
X126010180Y-96357868D01*
X126080168Y-96328185D01*
X125925206Y-96641470D01*
X125835386Y-96851759D01*
X125893417Y-97044410D01*
X126219667Y-96918858D01*
X126720193Y-96524892D01*
X127301050Y-95912299D01*
X127461960Y-95680812D01*
X127544336Y-95392689D01*
X127422139Y-95286086D01*
X127122912Y-95434818D01*
X126957772Y-95537617D01*
X127078110Y-95309293D01*
X127223866Y-95113367D01*
X127498099Y-94831257D01*
X127573316Y-94789628D01*
X127774934Y-94798340D01*
G36*
X127774934Y-94798340D02*
G01*
X127910786Y-94965520D01*
X127950281Y-95231879D01*
X127862826Y-95538127D01*
X127559764Y-95980194D01*
X127025123Y-96579432D01*
X126454629Y-97106801D01*
X126013198Y-97396595D01*
X125998692Y-97401488D01*
X125746356Y-97400414D01*
X125559413Y-97261984D01*
X125531990Y-97208086D01*
X125541059Y-96946614D01*
X125790489Y-96596911D01*
X126010180Y-96357868D01*
X126080168Y-96328185D01*
X125925206Y-96641470D01*
X125835386Y-96851759D01*
X125893417Y-97044410D01*
X126219667Y-96918858D01*
X126720193Y-96524892D01*
X127301050Y-95912299D01*
X127461960Y-95680812D01*
X127544336Y-95392689D01*
X127422139Y-95286086D01*
X127122912Y-95434818D01*
X126957772Y-95537617D01*
X127078110Y-95309293D01*
X127223866Y-95113367D01*
X127498099Y-94831257D01*
X127573316Y-94789628D01*
X127774934Y-94798340D01*
G37*
X130148640Y-97198047D02*
X130344360Y-97359118D01*
X130452519Y-97476460D01*
X130534211Y-97648110D01*
X130468487Y-97826652D01*
X130246912Y-98073958D01*
X130130646Y-98188353D01*
X129919110Y-98347495D01*
X129942118Y-98154245D01*
X129958259Y-98100270D01*
X129956840Y-97977155D01*
X129753672Y-98128513D01*
X129252836Y-98619021D01*
X129016144Y-98859255D01*
X128589311Y-99341299D01*
X128469160Y-99599141D01*
X128455340Y-99649582D01*
X128364651Y-99649863D01*
X128216153Y-99543451D01*
X128139181Y-99459802D01*
X128076477Y-99331575D01*
X128127004Y-99267778D01*
X128172355Y-99248874D01*
X128545283Y-98957900D01*
X129119344Y-98415753D01*
X129535791Y-97991319D01*
X129746485Y-97740111D01*
X129634046Y-97766347D01*
X129397502Y-97881522D01*
X129314237Y-97822106D01*
X129636540Y-97449544D01*
X129779856Y-97312814D01*
X129980806Y-97180014D01*
X130148640Y-97198047D01*
G36*
X130148640Y-97198047D02*
G01*
X130344360Y-97359118D01*
X130452519Y-97476460D01*
X130534211Y-97648110D01*
X130468487Y-97826652D01*
X130246912Y-98073958D01*
X130130646Y-98188353D01*
X129919110Y-98347495D01*
X129942118Y-98154245D01*
X129958259Y-98100270D01*
X129956840Y-97977155D01*
X129753672Y-98128513D01*
X129252836Y-98619021D01*
X129016144Y-98859255D01*
X128589311Y-99341299D01*
X128469160Y-99599141D01*
X128455340Y-99649582D01*
X128364651Y-99649863D01*
X128216153Y-99543451D01*
X128139181Y-99459802D01*
X128076477Y-99331575D01*
X128127004Y-99267778D01*
X128172355Y-99248874D01*
X128545283Y-98957900D01*
X129119344Y-98415753D01*
X129535791Y-97991319D01*
X129746485Y-97740111D01*
X129634046Y-97766347D01*
X129397502Y-97881522D01*
X129314237Y-97822106D01*
X129636540Y-97449544D01*
X129779856Y-97312814D01*
X129980806Y-97180014D01*
X130148640Y-97198047D01*
G37*
X135616295Y-102685574D02*
X135760970Y-102863544D01*
X135702750Y-103099653D01*
X135444236Y-103354202D01*
X135179824Y-103555322D01*
X134890768Y-103820335D01*
X134468208Y-104207747D01*
X133876970Y-104883535D01*
X133784051Y-105007382D01*
X133598676Y-105210451D01*
X133459960Y-105232507D01*
X133296115Y-105100344D01*
X133228592Y-105013013D01*
X133189643Y-104605050D01*
X133221549Y-104538195D01*
X133567135Y-104538195D01*
X133682898Y-104554615D01*
X134101062Y-104228603D01*
X134711059Y-103640626D01*
X135086243Y-103188714D01*
X135105016Y-103000482D01*
X135095307Y-102999246D01*
X134809410Y-103150705D01*
X134254512Y-103664007D01*
X134168568Y-103751211D01*
X133735211Y-104247632D01*
X133567135Y-104538195D01*
X133221549Y-104538195D01*
X133447711Y-104064301D01*
X133988823Y-103424556D01*
X134006116Y-103407304D01*
X134600896Y-102884029D01*
X135074819Y-102638287D01*
X135491246Y-102636860D01*
X135616295Y-102685574D01*
G36*
X135616295Y-102685574D02*
G01*
X135760970Y-102863544D01*
X135702750Y-103099653D01*
X135444236Y-103354202D01*
X135179824Y-103555322D01*
X134890768Y-103820335D01*
X134468208Y-104207747D01*
X133876970Y-104883535D01*
X133784051Y-105007382D01*
X133598676Y-105210451D01*
X133459960Y-105232507D01*
X133296115Y-105100344D01*
X133228592Y-105013013D01*
X133189643Y-104605050D01*
X133221549Y-104538195D01*
X133567135Y-104538195D01*
X133682898Y-104554615D01*
X134101062Y-104228603D01*
X134711059Y-103640626D01*
X135086243Y-103188714D01*
X135105016Y-103000482D01*
X135095307Y-102999246D01*
X134809410Y-103150705D01*
X134254512Y-103664007D01*
X134168568Y-103751211D01*
X133735211Y-104247632D01*
X133567135Y-104538195D01*
X133221549Y-104538195D01*
X133447711Y-104064301D01*
X133988823Y-103424556D01*
X134006116Y-103407304D01*
X134600896Y-102884029D01*
X135074819Y-102638287D01*
X135491246Y-102636860D01*
X135616295Y-102685574D01*
G37*
X136266493Y-103540143D02*
X136156960Y-103764389D01*
X136156630Y-103764977D01*
X135845990Y-104236048D01*
X135463063Y-104756223D01*
X135369186Y-104883746D01*
X134870742Y-105518074D01*
X134495183Y-105949032D01*
X134430822Y-106010208D01*
X134269430Y-106092547D01*
X134321022Y-105914342D01*
X134566999Y-105572982D01*
X134762313Y-105305659D01*
X134834842Y-105042581D01*
X134693998Y-105051531D01*
X134298167Y-105304150D01*
X134033171Y-105508400D01*
X133814384Y-105618613D01*
X133797868Y-105584119D01*
X133935456Y-105346197D01*
X134403260Y-104907510D01*
X134525940Y-104808447D01*
X135017471Y-104808447D01*
X135248605Y-104685678D01*
X135328188Y-104621348D01*
X135534974Y-104349807D01*
X135525313Y-104300613D01*
X135292160Y-104478536D01*
X135192501Y-104580391D01*
X135017471Y-104808447D01*
X134525940Y-104808447D01*
X135230985Y-104239131D01*
X135846387Y-103764569D01*
X136188562Y-103527082D01*
X136266493Y-103540143D01*
G36*
X136266493Y-103540143D02*
G01*
X136156960Y-103764389D01*
X136156630Y-103764977D01*
X135845990Y-104236048D01*
X135463063Y-104756223D01*
X135369186Y-104883746D01*
X134870742Y-105518074D01*
X134495183Y-105949032D01*
X134430822Y-106010208D01*
X134269430Y-106092547D01*
X134321022Y-105914342D01*
X134566999Y-105572982D01*
X134762313Y-105305659D01*
X134834842Y-105042581D01*
X134693998Y-105051531D01*
X134298167Y-105304150D01*
X134033171Y-105508400D01*
X133814384Y-105618613D01*
X133797868Y-105584119D01*
X133935456Y-105346197D01*
X134403260Y-104907510D01*
X134525940Y-104808447D01*
X135017471Y-104808447D01*
X135248605Y-104685678D01*
X135328188Y-104621348D01*
X135534974Y-104349807D01*
X135525313Y-104300613D01*
X135292160Y-104478536D01*
X135192501Y-104580391D01*
X135017471Y-104808447D01*
X134525940Y-104808447D01*
X135230985Y-104239131D01*
X135846387Y-103764569D01*
X136188562Y-103527082D01*
X136266493Y-103540143D01*
G37*
X134652041Y-101691656D02*
X134795242Y-101867284D01*
X134777740Y-102181093D01*
X134740009Y-102277963D01*
X134372678Y-102830642D01*
X133790854Y-103456922D01*
X133143298Y-103991983D01*
X132853060Y-104173950D01*
X132555893Y-104259732D01*
X132332748Y-104136977D01*
X132297055Y-104100019D01*
X132198870Y-103921208D01*
X132281351Y-103704194D01*
X132574979Y-103349943D01*
X133015597Y-102921639D01*
X133319691Y-102775768D01*
X133373459Y-103001579D01*
X133353953Y-103088007D01*
X133287637Y-103225029D01*
X133137914Y-103237124D01*
X132985529Y-103265421D01*
X132733565Y-103452520D01*
X132600279Y-103718631D01*
X132600121Y-103719972D01*
X132742778Y-103835122D01*
X133161100Y-103613020D01*
X133734594Y-103117519D01*
X133803501Y-103047729D01*
X134262660Y-102499340D01*
X134349680Y-102204006D01*
X134044128Y-102220919D01*
X133814515Y-102277793D01*
X133818351Y-102150126D01*
X134181084Y-101811740D01*
X134401574Y-101687285D01*
X134652041Y-101691656D01*
G36*
X134652041Y-101691656D02*
G01*
X134795242Y-101867284D01*
X134777740Y-102181093D01*
X134740009Y-102277963D01*
X134372678Y-102830642D01*
X133790854Y-103456922D01*
X133143298Y-103991983D01*
X132853060Y-104173950D01*
X132555893Y-104259732D01*
X132332748Y-104136977D01*
X132297055Y-104100019D01*
X132198870Y-103921208D01*
X132281351Y-103704194D01*
X132574979Y-103349943D01*
X133015597Y-102921639D01*
X133319691Y-102775768D01*
X133373459Y-103001579D01*
X133353953Y-103088007D01*
X133287637Y-103225029D01*
X133137914Y-103237124D01*
X132985529Y-103265421D01*
X132733565Y-103452520D01*
X132600279Y-103718631D01*
X132600121Y-103719972D01*
X132742778Y-103835122D01*
X133161100Y-103613020D01*
X133734594Y-103117519D01*
X133803501Y-103047729D01*
X134262660Y-102499340D01*
X134349680Y-102204006D01*
X134044128Y-102220919D01*
X133814515Y-102277793D01*
X133818351Y-102150126D01*
X134181084Y-101811740D01*
X134401574Y-101687285D01*
X134652041Y-101691656D01*
G37*
X133930973Y-101025960D02*
X134248761Y-101224415D01*
X133213949Y-102204768D01*
X132669612Y-102730515D01*
X132306662Y-103121153D01*
X132228118Y-103290738D01*
X132227160Y-103316928D01*
X132121789Y-103342465D01*
X131909668Y-103314774D01*
X131825399Y-103296774D01*
X131609290Y-103258296D01*
X131504478Y-103252069D01*
X131486556Y-103259192D01*
X131467845Y-103140717D01*
X131618546Y-102836650D01*
X131849323Y-102533219D01*
X132061778Y-102346083D01*
X131995105Y-102522142D01*
X131949838Y-102610131D01*
X131898543Y-102878302D01*
X132050364Y-102921212D01*
X132347656Y-102708406D01*
X132532312Y-102483184D01*
X132453647Y-102377908D01*
X132362838Y-102326720D01*
X132517680Y-102089369D01*
X132702667Y-101946845D01*
X132910592Y-101920963D01*
X133031612Y-101930865D01*
X133322187Y-101733875D01*
X133397060Y-101653047D01*
X133528264Y-101401378D01*
X133416500Y-101303012D01*
X133097222Y-101409129D01*
X133045618Y-101436956D01*
X132925052Y-101469115D01*
X133194078Y-101206643D01*
X133452188Y-101004191D01*
X133690152Y-100933703D01*
X133930973Y-101025960D01*
G36*
X133930973Y-101025960D02*
G01*
X134248761Y-101224415D01*
X133213949Y-102204768D01*
X132669612Y-102730515D01*
X132306662Y-103121153D01*
X132228118Y-103290738D01*
X132227160Y-103316928D01*
X132121789Y-103342465D01*
X131909668Y-103314774D01*
X131825399Y-103296774D01*
X131609290Y-103258296D01*
X131504478Y-103252069D01*
X131486556Y-103259192D01*
X131467845Y-103140717D01*
X131618546Y-102836650D01*
X131849323Y-102533219D01*
X132061778Y-102346083D01*
X131995105Y-102522142D01*
X131949838Y-102610131D01*
X131898543Y-102878302D01*
X132050364Y-102921212D01*
X132347656Y-102708406D01*
X132532312Y-102483184D01*
X132453647Y-102377908D01*
X132362838Y-102326720D01*
X132517680Y-102089369D01*
X132702667Y-101946845D01*
X132910592Y-101920963D01*
X133031612Y-101930865D01*
X133322187Y-101733875D01*
X133397060Y-101653047D01*
X133528264Y-101401378D01*
X133416500Y-101303012D01*
X133097222Y-101409129D01*
X133045618Y-101436956D01*
X132925052Y-101469115D01*
X133194078Y-101206643D01*
X133452188Y-101004191D01*
X133690152Y-100933703D01*
X133930973Y-101025960D01*
G37*
X126043371Y-93522011D02*
X125573175Y-94173404D01*
X125139342Y-94726358D01*
X125809706Y-94215255D01*
X125830574Y-94199415D01*
X126336710Y-93857828D01*
X126633754Y-93732911D01*
X126639134Y-93734022D01*
X126661581Y-93818171D01*
X126435033Y-94080144D01*
X125877321Y-94615856D01*
X125720638Y-94764325D01*
X125145843Y-95344475D01*
X124892242Y-95670207D01*
X124855083Y-95750377D01*
X124630747Y-96056905D01*
X124499870Y-96130657D01*
X124386456Y-96048627D01*
X124393881Y-95888457D01*
X124523073Y-95688846D01*
X124679866Y-95556490D01*
X125114239Y-95192119D01*
X125397380Y-94943819D01*
X125587291Y-94729688D01*
X125440305Y-94786663D01*
X124986447Y-95129465D01*
X124724923Y-95340926D01*
X124330336Y-95619444D01*
X124325913Y-95509374D01*
X124696756Y-95004276D01*
X125179582Y-94389514D01*
X124556674Y-95063755D01*
X124207605Y-95431261D01*
X123945808Y-95643816D01*
X123808844Y-95613153D01*
X123770524Y-95544572D01*
X123845724Y-95375300D01*
X124153223Y-95027532D01*
X124778668Y-94393567D01*
X125302856Y-93884967D01*
X125883084Y-93384756D01*
X126138297Y-93261449D01*
X126043371Y-93522011D01*
G36*
X126043371Y-93522011D02*
G01*
X125573175Y-94173404D01*
X125139342Y-94726358D01*
X125809706Y-94215255D01*
X125830574Y-94199415D01*
X126336710Y-93857828D01*
X126633754Y-93732911D01*
X126639134Y-93734022D01*
X126661581Y-93818171D01*
X126435033Y-94080144D01*
X125877321Y-94615856D01*
X125720638Y-94764325D01*
X125145843Y-95344475D01*
X124892242Y-95670207D01*
X124855083Y-95750377D01*
X124630747Y-96056905D01*
X124499870Y-96130657D01*
X124386456Y-96048627D01*
X124393881Y-95888457D01*
X124523073Y-95688846D01*
X124679866Y-95556490D01*
X125114239Y-95192119D01*
X125397380Y-94943819D01*
X125587291Y-94729688D01*
X125440305Y-94786663D01*
X124986447Y-95129465D01*
X124724923Y-95340926D01*
X124330336Y-95619444D01*
X124325913Y-95509374D01*
X124696756Y-95004276D01*
X125179582Y-94389514D01*
X124556674Y-95063755D01*
X124207605Y-95431261D01*
X123945808Y-95643816D01*
X123808844Y-95613153D01*
X123770524Y-95544572D01*
X123845724Y-95375300D01*
X124153223Y-95027532D01*
X124778668Y-94393567D01*
X125302856Y-93884967D01*
X125883084Y-93384756D01*
X126138297Y-93261449D01*
X126043371Y-93522011D01*
G37*
X133648824Y-99579926D02*
X133872682Y-99708058D01*
X134033191Y-99884552D01*
X134096031Y-100074601D01*
X134026888Y-100243402D01*
X133925586Y-100325707D01*
X133743137Y-100358773D01*
X133633025Y-100380063D01*
X133293463Y-100657883D01*
X132900133Y-101040238D01*
X132654877Y-101278653D01*
X132322835Y-101615248D01*
X131800700Y-102187957D01*
X131620130Y-102481780D01*
X131584732Y-102596225D01*
X131411241Y-102859048D01*
X131307945Y-102912969D01*
X131133706Y-102887083D01*
X130973149Y-102774956D01*
X130875883Y-102615763D01*
X130891520Y-102448673D01*
X131017432Y-102313723D01*
X131354018Y-102080749D01*
X131716410Y-101829874D01*
X131927295Y-101541593D01*
X131977725Y-101199785D01*
X131993591Y-100994220D01*
X132015297Y-100938515D01*
X132405478Y-100938515D01*
X132497706Y-101020749D01*
X132727473Y-100867578D01*
X132860624Y-100724265D01*
X133218874Y-100275254D01*
X133292452Y-100153139D01*
X133279368Y-99987093D01*
X133031790Y-100072257D01*
X132672201Y-100384218D01*
X132670088Y-100386574D01*
X132459901Y-100700561D01*
X132405478Y-100938515D01*
X132015297Y-100938515D01*
X132175882Y-100526403D01*
X132504613Y-100073639D01*
X132912909Y-99717742D01*
X133333899Y-99540533D01*
X133395929Y-99534960D01*
X133648824Y-99579926D01*
G36*
X133648824Y-99579926D02*
G01*
X133872682Y-99708058D01*
X134033191Y-99884552D01*
X134096031Y-100074601D01*
X134026888Y-100243402D01*
X133925586Y-100325707D01*
X133743137Y-100358773D01*
X133633025Y-100380063D01*
X133293463Y-100657883D01*
X132900133Y-101040238D01*
X132654877Y-101278653D01*
X132322835Y-101615248D01*
X131800700Y-102187957D01*
X131620130Y-102481780D01*
X131584732Y-102596225D01*
X131411241Y-102859048D01*
X131307945Y-102912969D01*
X131133706Y-102887083D01*
X130973149Y-102774956D01*
X130875883Y-102615763D01*
X130891520Y-102448673D01*
X131017432Y-102313723D01*
X131354018Y-102080749D01*
X131716410Y-101829874D01*
X131927295Y-101541593D01*
X131977725Y-101199785D01*
X131993591Y-100994220D01*
X132015297Y-100938515D01*
X132405478Y-100938515D01*
X132497706Y-101020749D01*
X132727473Y-100867578D01*
X132860624Y-100724265D01*
X133218874Y-100275254D01*
X133292452Y-100153139D01*
X133279368Y-99987093D01*
X133031790Y-100072257D01*
X132672201Y-100384218D01*
X132670088Y-100386574D01*
X132459901Y-100700561D01*
X132405478Y-100938515D01*
X132015297Y-100938515D01*
X132175882Y-100526403D01*
X132504613Y-100073639D01*
X132912909Y-99717742D01*
X133333899Y-99540533D01*
X133395929Y-99534960D01*
X133648824Y-99579926D01*
G37*
X137804405Y-103791687D02*
X138033175Y-103921239D01*
X138154277Y-104093448D01*
X138116805Y-104283115D01*
X138004703Y-104412131D01*
X137843691Y-104459327D01*
X137838488Y-104454932D01*
X137685670Y-104507329D01*
X137367341Y-104781221D01*
X137321251Y-104820877D01*
X136658602Y-105469412D01*
X136211901Y-105926120D01*
X136168526Y-105973468D01*
X135766840Y-106411954D01*
X135617142Y-106623125D01*
X135625105Y-106641781D01*
X135486299Y-106866221D01*
X135478049Y-106873751D01*
X135346033Y-106890552D01*
X135179983Y-106792026D01*
X135010398Y-106615905D01*
X134867782Y-106399919D01*
X134782636Y-106181800D01*
X134783186Y-106146301D01*
X135171826Y-106146301D01*
X135265473Y-106159184D01*
X135593167Y-106027120D01*
X135943723Y-105748665D01*
X136189623Y-105439105D01*
X136203353Y-105213724D01*
X136049422Y-105141707D01*
X135789866Y-105275594D01*
X135432709Y-105692925D01*
X135256392Y-105951193D01*
X135171826Y-106146301D01*
X134783186Y-106146301D01*
X134785462Y-105999278D01*
X134848303Y-105890525D01*
X135194774Y-105481724D01*
X135640677Y-105045481D01*
X135942517Y-104821304D01*
X136574513Y-104821304D01*
X136781920Y-104809127D01*
X137132560Y-104546441D01*
X137350750Y-104299025D01*
X137454365Y-104070001D01*
X137430341Y-104057311D01*
X137182662Y-104126386D01*
X136852887Y-104334145D01*
X136622019Y-104571526D01*
X136618609Y-104577654D01*
X136574513Y-104821304D01*
X135942517Y-104821304D01*
X135968235Y-104802203D01*
X136110598Y-104706421D01*
X136467127Y-104351633D01*
X136701671Y-104115098D01*
X137136127Y-103797670D01*
X137227482Y-103761340D01*
X137518873Y-103729988D01*
X137804405Y-103791687D01*
G36*
X137804405Y-103791687D02*
G01*
X138033175Y-103921239D01*
X138154277Y-104093448D01*
X138116805Y-104283115D01*
X138004703Y-104412131D01*
X137843691Y-104459327D01*
X137838488Y-104454932D01*
X137685670Y-104507329D01*
X137367341Y-104781221D01*
X137321251Y-104820877D01*
X136658602Y-105469412D01*
X136211901Y-105926120D01*
X136168526Y-105973468D01*
X135766840Y-106411954D01*
X135617142Y-106623125D01*
X135625105Y-106641781D01*
X135486299Y-106866221D01*
X135478049Y-106873751D01*
X135346033Y-106890552D01*
X135179983Y-106792026D01*
X135010398Y-106615905D01*
X134867782Y-106399919D01*
X134782636Y-106181800D01*
X134783186Y-106146301D01*
X135171826Y-106146301D01*
X135265473Y-106159184D01*
X135593167Y-106027120D01*
X135943723Y-105748665D01*
X136189623Y-105439105D01*
X136203353Y-105213724D01*
X136049422Y-105141707D01*
X135789866Y-105275594D01*
X135432709Y-105692925D01*
X135256392Y-105951193D01*
X135171826Y-106146301D01*
X134783186Y-106146301D01*
X134785462Y-105999278D01*
X134848303Y-105890525D01*
X135194774Y-105481724D01*
X135640677Y-105045481D01*
X135942517Y-104821304D01*
X136574513Y-104821304D01*
X136781920Y-104809127D01*
X137132560Y-104546441D01*
X137350750Y-104299025D01*
X137454365Y-104070001D01*
X137430341Y-104057311D01*
X137182662Y-104126386D01*
X136852887Y-104334145D01*
X136622019Y-104571526D01*
X136618609Y-104577654D01*
X136574513Y-104821304D01*
X135942517Y-104821304D01*
X135968235Y-104802203D01*
X136110598Y-104706421D01*
X136467127Y-104351633D01*
X136701671Y-104115098D01*
X137136127Y-103797670D01*
X137227482Y-103761340D01*
X137518873Y-103729988D01*
X137804405Y-103791687D01*
G37*
X128956199Y-96118808D02*
X128859285Y-96417968D01*
X128813716Y-96490721D01*
X128670516Y-96686198D01*
X128478844Y-96841799D01*
X128144897Y-97021018D01*
X127574872Y-97287343D01*
X127189874Y-97509287D01*
X126782725Y-97895429D01*
X126751840Y-97934963D01*
X126530737Y-98344871D01*
X126509468Y-98658726D01*
X126699402Y-98758762D01*
X126884383Y-98665037D01*
X127138034Y-98454092D01*
X127646148Y-98454092D01*
X127678620Y-98556259D01*
X127929876Y-98370436D01*
X128073621Y-98203592D01*
X128156981Y-97965597D01*
X128081348Y-97956786D01*
X127853352Y-98135926D01*
X127646148Y-98454092D01*
X127138034Y-98454092D01*
X127300463Y-98319010D01*
X127702095Y-97897953D01*
X127892607Y-97593870D01*
X127916557Y-97549992D01*
X128063051Y-97504914D01*
X128294719Y-97528518D01*
X128358719Y-97540686D01*
X128682798Y-97511326D01*
X128961853Y-97338459D01*
X129036313Y-97257420D01*
X129153141Y-97018152D01*
X129034552Y-96926377D01*
X128719348Y-97031254D01*
X128667743Y-97059081D01*
X128547177Y-97091241D01*
X128816203Y-96828768D01*
X129076858Y-96624799D01*
X129313820Y-96556150D01*
X129554697Y-96649278D01*
X129874086Y-96848928D01*
X128916007Y-97748129D01*
X128615786Y-98033493D01*
X128111224Y-98551784D01*
X128081213Y-98582611D01*
X127860170Y-98901312D01*
X127834819Y-98958388D01*
X127724454Y-99054528D01*
X127576741Y-98975735D01*
X127539145Y-98949593D01*
X127219935Y-98908777D01*
X126772690Y-98994014D01*
X126285121Y-99055186D01*
X126084671Y-98793804D01*
X126278666Y-98199956D01*
X126328750Y-98109841D01*
X126744982Y-97563539D01*
X127261566Y-97119395D01*
X127776233Y-96868345D01*
X128066008Y-96762589D01*
X128359208Y-96584044D01*
X128480763Y-96428396D01*
X128343967Y-96371519D01*
X128216089Y-96330103D01*
X128386297Y-96141403D01*
X128578512Y-96014709D01*
X128840625Y-95971534D01*
X128956199Y-96118808D01*
G36*
X128956199Y-96118808D02*
G01*
X128859285Y-96417968D01*
X128813716Y-96490721D01*
X128670516Y-96686198D01*
X128478844Y-96841799D01*
X128144897Y-97021018D01*
X127574872Y-97287343D01*
X127189874Y-97509287D01*
X126782725Y-97895429D01*
X126751840Y-97934963D01*
X126530737Y-98344871D01*
X126509468Y-98658726D01*
X126699402Y-98758762D01*
X126884383Y-98665037D01*
X127138034Y-98454092D01*
X127646148Y-98454092D01*
X127678620Y-98556259D01*
X127929876Y-98370436D01*
X128073621Y-98203592D01*
X128156981Y-97965597D01*
X128081348Y-97956786D01*
X127853352Y-98135926D01*
X127646148Y-98454092D01*
X127138034Y-98454092D01*
X127300463Y-98319010D01*
X127702095Y-97897953D01*
X127892607Y-97593870D01*
X127916557Y-97549992D01*
X128063051Y-97504914D01*
X128294719Y-97528518D01*
X128358719Y-97540686D01*
X128682798Y-97511326D01*
X128961853Y-97338459D01*
X129036313Y-97257420D01*
X129153141Y-97018152D01*
X129034552Y-96926377D01*
X128719348Y-97031254D01*
X128667743Y-97059081D01*
X128547177Y-97091241D01*
X128816203Y-96828768D01*
X129076858Y-96624799D01*
X129313820Y-96556150D01*
X129554697Y-96649278D01*
X129874086Y-96848928D01*
X128916007Y-97748129D01*
X128615786Y-98033493D01*
X128111224Y-98551784D01*
X128081213Y-98582611D01*
X127860170Y-98901312D01*
X127834819Y-98958388D01*
X127724454Y-99054528D01*
X127576741Y-98975735D01*
X127539145Y-98949593D01*
X127219935Y-98908777D01*
X126772690Y-98994014D01*
X126285121Y-99055186D01*
X126084671Y-98793804D01*
X126278666Y-98199956D01*
X126328750Y-98109841D01*
X126744982Y-97563539D01*
X127261566Y-97119395D01*
X127776233Y-96868345D01*
X128066008Y-96762589D01*
X128359208Y-96584044D01*
X128480763Y-96428396D01*
X128343967Y-96371519D01*
X128216089Y-96330103D01*
X128386297Y-96141403D01*
X128578512Y-96014709D01*
X128840625Y-95971534D01*
X128956199Y-96118808D01*
G37*
X130879276Y-98241372D02*
X130573502Y-98706362D01*
X130125479Y-99335411D01*
X130114174Y-99351282D01*
X129776377Y-99825124D01*
X129453435Y-100318825D01*
X129360387Y-100526019D01*
X129452921Y-100563748D01*
X129644710Y-100540741D01*
X129939975Y-100331497D01*
X130216246Y-100066817D01*
X130333063Y-99925428D01*
X130680696Y-99925428D01*
X130750812Y-99980485D01*
X131072965Y-99717475D01*
X131305411Y-99454150D01*
X131400413Y-99213417D01*
X131306553Y-99215317D01*
X130997559Y-99475954D01*
X130881266Y-99612033D01*
X130680696Y-99925428D01*
X130333063Y-99925428D01*
X130614503Y-99584788D01*
X130701125Y-99464613D01*
X130994623Y-99136406D01*
X131344779Y-98933913D01*
X131661009Y-98864424D01*
X131903890Y-98935922D01*
X132015201Y-99112087D01*
X131940850Y-99354730D01*
X131872317Y-99440804D01*
X131716537Y-99529541D01*
X131549477Y-99623956D01*
X131249397Y-99893906D01*
X131145646Y-99987242D01*
X130661472Y-100474901D01*
X130249774Y-100932136D01*
X130063371Y-101204146D01*
X130007697Y-101289213D01*
X129890833Y-101264430D01*
X129783284Y-101149652D01*
X129801629Y-100979119D01*
X130030709Y-100737351D01*
X130051634Y-100718884D01*
X130254739Y-100508521D01*
X130110542Y-100536812D01*
X129601107Y-100806653D01*
X129164210Y-101005969D01*
X128770205Y-100973556D01*
X128686167Y-100853287D01*
X128739572Y-100658966D01*
X129034255Y-100339580D01*
X129101040Y-100273964D01*
X129376024Y-99942353D01*
X129349671Y-99756971D01*
X129199558Y-99724034D01*
X128910013Y-99915996D01*
X128903244Y-99922727D01*
X128627993Y-100124917D01*
X128516132Y-100100753D01*
X128663005Y-99868550D01*
X128735514Y-99795380D01*
X129116396Y-99459391D01*
X129650775Y-99459391D01*
X129709489Y-99450661D01*
X130004482Y-99214414D01*
X130138427Y-99075593D01*
X130281765Y-98893014D01*
X130230472Y-98915253D01*
X129928058Y-99137990D01*
X129766173Y-99282229D01*
X129650775Y-99459391D01*
X129116396Y-99459391D01*
X129161631Y-99419488D01*
X129737666Y-98951991D01*
X130322559Y-98502190D01*
X130775249Y-98179385D01*
X130954675Y-98092872D01*
X130879276Y-98241372D01*
G36*
X130879276Y-98241372D02*
G01*
X130573502Y-98706362D01*
X130125479Y-99335411D01*
X130114174Y-99351282D01*
X129776377Y-99825124D01*
X129453435Y-100318825D01*
X129360387Y-100526019D01*
X129452921Y-100563748D01*
X129644710Y-100540741D01*
X129939975Y-100331497D01*
X130216246Y-100066817D01*
X130333063Y-99925428D01*
X130680696Y-99925428D01*
X130750812Y-99980485D01*
X131072965Y-99717475D01*
X131305411Y-99454150D01*
X131400413Y-99213417D01*
X131306553Y-99215317D01*
X130997559Y-99475954D01*
X130881266Y-99612033D01*
X130680696Y-99925428D01*
X130333063Y-99925428D01*
X130614503Y-99584788D01*
X130701125Y-99464613D01*
X130994623Y-99136406D01*
X131344779Y-98933913D01*
X131661009Y-98864424D01*
X131903890Y-98935922D01*
X132015201Y-99112087D01*
X131940850Y-99354730D01*
X131872317Y-99440804D01*
X131716537Y-99529541D01*
X131549477Y-99623956D01*
X131249397Y-99893906D01*
X131145646Y-99987242D01*
X130661472Y-100474901D01*
X130249774Y-100932136D01*
X130063371Y-101204146D01*
X130007697Y-101289213D01*
X129890833Y-101264430D01*
X129783284Y-101149652D01*
X129801629Y-100979119D01*
X130030709Y-100737351D01*
X130051634Y-100718884D01*
X130254739Y-100508521D01*
X130110542Y-100536812D01*
X129601107Y-100806653D01*
X129164210Y-101005969D01*
X128770205Y-100973556D01*
X128686167Y-100853287D01*
X128739572Y-100658966D01*
X129034255Y-100339580D01*
X129101040Y-100273964D01*
X129376024Y-99942353D01*
X129349671Y-99756971D01*
X129199558Y-99724034D01*
X128910013Y-99915996D01*
X128903244Y-99922727D01*
X128627993Y-100124917D01*
X128516132Y-100100753D01*
X128663005Y-99868550D01*
X128735514Y-99795380D01*
X129116396Y-99459391D01*
X129650775Y-99459391D01*
X129709489Y-99450661D01*
X130004482Y-99214414D01*
X130138427Y-99075593D01*
X130281765Y-98893014D01*
X130230472Y-98915253D01*
X129928058Y-99137990D01*
X129766173Y-99282229D01*
X129650775Y-99459391D01*
X129116396Y-99459391D01*
X129161631Y-99419488D01*
X129737666Y-98951991D01*
X130322559Y-98502190D01*
X130775249Y-98179385D01*
X130954675Y-98092872D01*
X130879276Y-98241372D01*
G37*
D12*
%TO.C,X5*%
X94145100Y-134797800D02*
X87033100Y-134797800D01*
X86779100Y-134797800D02*
X86906100Y-144195800D01*
X94830900Y-137210800D02*
X94322900Y-137210800D01*
X94449900Y-137210800D02*
X94449900Y-141528800D01*
X94830900Y-141528800D02*
X94830900Y-137210800D01*
X94322900Y-141528800D02*
X94830900Y-141528800D01*
X94272100Y-144195800D02*
X94145100Y-134797800D01*
X87160100Y-144195800D02*
X94272100Y-144195800D01*
X92644295Y-135686800D02*
G75*
G03*
X92644295Y-135686800I-277195J0D01*
G01*
%TO.C,X1*%
X161064437Y-63383732D02*
X156035493Y-68412676D01*
X156035493Y-68412676D02*
X162734764Y-75147868D01*
X163058054Y-64515244D02*
X162698843Y-64874455D01*
X162788646Y-64784652D02*
X165841933Y-67837939D01*
X166111341Y-67568532D02*
X163058054Y-64515244D01*
X165752131Y-67927742D02*
X166111341Y-67568532D01*
X167763708Y-70118924D02*
X161064437Y-63383732D01*
X162734764Y-75147868D02*
X167763708Y-70118924D01*
X160489016Y-65107941D02*
G75*
G03*
X160489016Y-65107941I-143000J0D01*
G01*
%TO.C,G\u002A\u002A\u002A*%
D11*
X138436870Y-94540666D02*
X138506247Y-94598436D01*
X138603730Y-94708843D01*
X138763088Y-94901029D01*
X138934228Y-94746693D01*
X139000425Y-94688496D01*
X139074513Y-94634082D01*
X139122075Y-94623012D01*
X139160629Y-94647620D01*
X139185191Y-94686166D01*
X139173611Y-94744756D01*
X139110739Y-94835670D01*
X139005583Y-94968456D01*
X139307248Y-95012617D01*
X139339294Y-95017426D01*
X139508723Y-95050456D01*
X139605302Y-95090550D01*
X139633633Y-95145053D01*
X139598314Y-95221312D01*
X139503948Y-95326669D01*
X139348164Y-95482453D01*
X139768524Y-95863409D01*
X139701281Y-95948139D01*
X139695746Y-95955103D01*
X139692426Y-95959280D01*
X139657167Y-95997265D01*
X139622668Y-96006074D01*
X139575346Y-95978770D01*
X139501626Y-95908419D01*
X139387928Y-95788084D01*
X139220925Y-95609692D01*
X139071040Y-95759577D01*
X139009754Y-95817940D01*
X138930496Y-95883823D01*
X138884314Y-95909462D01*
X138863229Y-95907598D01*
X138833752Y-95888731D01*
X138810843Y-95837186D01*
X138789052Y-95738006D01*
X138762934Y-95576240D01*
X138758707Y-95548759D01*
X138735946Y-95411562D01*
X138716655Y-95311725D01*
X138704631Y-95269253D01*
X138703111Y-95268408D01*
X138665092Y-95288615D01*
X138599710Y-95346699D01*
X138597538Y-95348852D01*
X138515000Y-95411805D01*
X138443524Y-95437883D01*
X138389163Y-95422324D01*
X138373134Y-95365309D01*
X138412094Y-95276463D01*
X138503692Y-95166401D01*
X138520019Y-95150074D01*
X138894432Y-95150074D01*
X138908731Y-95293963D01*
X138924301Y-95432696D01*
X138945998Y-95522514D01*
X138982822Y-95544548D01*
X139046179Y-95504189D01*
X139147473Y-95406830D01*
X139228420Y-95325055D01*
X139282539Y-95257308D01*
X139275603Y-95218664D01*
X139202253Y-95195254D01*
X139057120Y-95173204D01*
X138894432Y-95150074D01*
X138520019Y-95150074D01*
X138641302Y-95028790D01*
X138448233Y-94855208D01*
X138395233Y-94806666D01*
X138311426Y-94720390D01*
X138274047Y-94658855D01*
X138271985Y-94606371D01*
X138293571Y-94556177D01*
X138366590Y-94523886D01*
X138380009Y-94523373D01*
X138436870Y-94540666D01*
G36*
X138436870Y-94540666D02*
G01*
X138506247Y-94598436D01*
X138603730Y-94708843D01*
X138763088Y-94901029D01*
X138934228Y-94746693D01*
X139000425Y-94688496D01*
X139074513Y-94634082D01*
X139122075Y-94623012D01*
X139160629Y-94647620D01*
X139185191Y-94686166D01*
X139173611Y-94744756D01*
X139110739Y-94835670D01*
X139005583Y-94968456D01*
X139307248Y-95012617D01*
X139339294Y-95017426D01*
X139508723Y-95050456D01*
X139605302Y-95090550D01*
X139633633Y-95145053D01*
X139598314Y-95221312D01*
X139503948Y-95326669D01*
X139348164Y-95482453D01*
X139768524Y-95863409D01*
X139701281Y-95948139D01*
X139695746Y-95955103D01*
X139692426Y-95959280D01*
X139657167Y-95997265D01*
X139622668Y-96006074D01*
X139575346Y-95978770D01*
X139501626Y-95908419D01*
X139387928Y-95788084D01*
X139220925Y-95609692D01*
X139071040Y-95759577D01*
X139009754Y-95817940D01*
X138930496Y-95883823D01*
X138884314Y-95909462D01*
X138863229Y-95907598D01*
X138833752Y-95888731D01*
X138810843Y-95837186D01*
X138789052Y-95738006D01*
X138762934Y-95576240D01*
X138758707Y-95548759D01*
X138735946Y-95411562D01*
X138716655Y-95311725D01*
X138704631Y-95269253D01*
X138703111Y-95268408D01*
X138665092Y-95288615D01*
X138599710Y-95346699D01*
X138597538Y-95348852D01*
X138515000Y-95411805D01*
X138443524Y-95437883D01*
X138389163Y-95422324D01*
X138373134Y-95365309D01*
X138412094Y-95276463D01*
X138503692Y-95166401D01*
X138520019Y-95150074D01*
X138894432Y-95150074D01*
X138908731Y-95293963D01*
X138924301Y-95432696D01*
X138945998Y-95522514D01*
X138982822Y-95544548D01*
X139046179Y-95504189D01*
X139147473Y-95406830D01*
X139228420Y-95325055D01*
X139282539Y-95257308D01*
X139275603Y-95218664D01*
X139202253Y-95195254D01*
X139057120Y-95173204D01*
X138894432Y-95150074D01*
X138520019Y-95150074D01*
X138641302Y-95028790D01*
X138448233Y-94855208D01*
X138395233Y-94806666D01*
X138311426Y-94720390D01*
X138274047Y-94658855D01*
X138271985Y-94606371D01*
X138293571Y-94556177D01*
X138366590Y-94523886D01*
X138380009Y-94523373D01*
X138436870Y-94540666D01*
G37*
X137095936Y-88483163D02*
X137680983Y-88550155D01*
X138254377Y-88677194D01*
X138799216Y-88859969D01*
X139298600Y-89094169D01*
X139527823Y-89221970D01*
X139723559Y-89337754D01*
X139892780Y-89448513D01*
X140051789Y-89566353D01*
X140216890Y-89703384D01*
X140404388Y-89871718D01*
X140630586Y-90083462D01*
X140656962Y-90108428D01*
X140849658Y-90291976D01*
X140998287Y-90437440D01*
X141114702Y-90558257D01*
X141210755Y-90667868D01*
X141298300Y-90779709D01*
X141389186Y-90907219D01*
X141495269Y-91063836D01*
X141563305Y-91165587D01*
X141670510Y-91327918D01*
X141741816Y-91441419D01*
X141782554Y-91516689D01*
X141798060Y-91564322D01*
X141793666Y-91594917D01*
X141774707Y-91619071D01*
X141769763Y-91623313D01*
X141693239Y-91657507D01*
X141550441Y-91698386D01*
X141351344Y-91744230D01*
X141291856Y-91756128D01*
X141105922Y-91793318D01*
X140982664Y-91815458D01*
X140847953Y-91839656D01*
X140824149Y-91843931D01*
X140668399Y-91869414D01*
X140594511Y-91881504D01*
X140516000Y-91894350D01*
X140422678Y-91908297D01*
X140236185Y-91936169D01*
X140191448Y-91942855D01*
X140140234Y-91949797D01*
X139923688Y-91979155D01*
X139860469Y-91987726D01*
X139673318Y-92010312D01*
X139623747Y-92016294D01*
X139533036Y-92027242D01*
X139475176Y-92033222D01*
X139299873Y-92051340D01*
X139219124Y-92059686D01*
X139169206Y-92063920D01*
X139117947Y-92068269D01*
X139071711Y-92071379D01*
X138908205Y-92082383D01*
X138673581Y-92094558D01*
X138426940Y-92104499D01*
X138181147Y-92111916D01*
X137949066Y-92116513D01*
X137743562Y-92117998D01*
X137577501Y-92116076D01*
X137463747Y-92110453D01*
X137415163Y-92100838D01*
X137411419Y-92093308D01*
X137402411Y-92024871D01*
X137398905Y-91904787D01*
X137400545Y-91815386D01*
X139257340Y-91815386D01*
X139257340Y-91843017D01*
X139284972Y-91843018D01*
X139284972Y-91815386D01*
X139257340Y-91815386D01*
X137400545Y-91815386D01*
X137401685Y-91753249D01*
X137402261Y-91736190D01*
X137400202Y-91551095D01*
X137388858Y-91408999D01*
X138322536Y-91408999D01*
X138332665Y-91487597D01*
X138349291Y-91552620D01*
X138380231Y-91580956D01*
X138446428Y-91563383D01*
X138458838Y-91558552D01*
X138517352Y-91517020D01*
X138518711Y-91448858D01*
X138517366Y-91443270D01*
X138507656Y-91426689D01*
X139809533Y-91426689D01*
X139825095Y-91447669D01*
X139882099Y-91446528D01*
X139930371Y-91415990D01*
X139934828Y-91381975D01*
X139870958Y-91372749D01*
X139827907Y-91383150D01*
X139809533Y-91426689D01*
X138507656Y-91426689D01*
X138483019Y-91384618D01*
X138404948Y-91373072D01*
X138349897Y-91379253D01*
X138322536Y-91408999D01*
X137388858Y-91408999D01*
X137385740Y-91369949D01*
X137383991Y-91359746D01*
X140427547Y-91359746D01*
X140461315Y-91406913D01*
X140530644Y-91436617D01*
X140537289Y-91437590D01*
X140596554Y-91429348D01*
X140597460Y-91426913D01*
X140885971Y-91426913D01*
X140891675Y-91430075D01*
X140942865Y-91428544D01*
X140957886Y-91422158D01*
X140958312Y-91388727D01*
X140949230Y-91381769D01*
X140923781Y-91384605D01*
X140901418Y-91387097D01*
X140895482Y-91393666D01*
X140885971Y-91426913D01*
X140597460Y-91426913D01*
X140620159Y-91365878D01*
X140621338Y-91357581D01*
X140614748Y-91303713D01*
X140565806Y-91290375D01*
X140459761Y-91312676D01*
X140443363Y-91319636D01*
X140427547Y-91359746D01*
X137383991Y-91359746D01*
X137376836Y-91318017D01*
X140031024Y-91318017D01*
X140031024Y-91345650D01*
X140058655Y-91345649D01*
X140058655Y-91318018D01*
X140031024Y-91318017D01*
X137376836Y-91318017D01*
X137361696Y-91229707D01*
X137345341Y-91172875D01*
X139283323Y-91172875D01*
X139291104Y-91189370D01*
X139342480Y-91206962D01*
X139378958Y-91188522D01*
X139384711Y-91148681D01*
X139331735Y-91127360D01*
X139300988Y-91131951D01*
X139283323Y-91172875D01*
X137345341Y-91172875D01*
X137338022Y-91147442D01*
X137302637Y-91063603D01*
X137248518Y-90982061D01*
X137173952Y-90896874D01*
X139797120Y-90896874D01*
X139820696Y-90957908D01*
X139883814Y-91020622D01*
X139958121Y-91024063D01*
X140003648Y-90995350D01*
X140043720Y-90924656D01*
X140029120Y-90853885D01*
X139969286Y-90807126D01*
X139873656Y-90808468D01*
X139870762Y-90809352D01*
X139804509Y-90843357D01*
X139797120Y-90896874D01*
X137173952Y-90896874D01*
X137162895Y-90884242D01*
X137033000Y-90751571D01*
X136910279Y-90630999D01*
X136809880Y-90541798D01*
X136725155Y-90483780D01*
X136636281Y-90443570D01*
X136523436Y-90407796D01*
X136413231Y-90381698D01*
X136217151Y-90351800D01*
X136090106Y-90343650D01*
X136033712Y-90340033D01*
X135981585Y-90343215D01*
X135811771Y-90353584D01*
X135455527Y-90431298D01*
X135172029Y-90548493D01*
X135116658Y-90571384D01*
X134808627Y-90766294D01*
X134544894Y-91008476D01*
X134455577Y-91130725D01*
X134338923Y-91290386D01*
X134305647Y-91347844D01*
X134231531Y-91464442D01*
X134165357Y-91528303D01*
X134086550Y-91546599D01*
X133974533Y-91526503D01*
X133808731Y-91475184D01*
X133603794Y-91403193D01*
X133470230Y-91342126D01*
X133407803Y-91291169D01*
X133413569Y-91248637D01*
X133423101Y-91217858D01*
X133435362Y-91121613D01*
X133445918Y-90978067D01*
X133453205Y-90804719D01*
X133457527Y-90682970D01*
X133467281Y-90498602D01*
X133479211Y-90343304D01*
X133482441Y-90316874D01*
X133628516Y-90316874D01*
X133634319Y-90364729D01*
X133641726Y-90370531D01*
X133689581Y-90364728D01*
X133695383Y-90357322D01*
X133691197Y-90322798D01*
X137272474Y-90322798D01*
X137293867Y-90341253D01*
X137364579Y-90360782D01*
X137423954Y-90364386D01*
X137456684Y-90351397D01*
X137435289Y-90332942D01*
X137364579Y-90313413D01*
X137305203Y-90309810D01*
X137272474Y-90322798D01*
X133691197Y-90322798D01*
X133689581Y-90309467D01*
X133682174Y-90303664D01*
X133634319Y-90309466D01*
X133628516Y-90316874D01*
X133482441Y-90316874D01*
X133491640Y-90241613D01*
X133493504Y-90234916D01*
X137682850Y-90234916D01*
X137683779Y-90303073D01*
X137718295Y-90343842D01*
X137796532Y-90321384D01*
X137803384Y-90317707D01*
X137861398Y-90262597D01*
X138124583Y-90262597D01*
X138193525Y-90281834D01*
X138229381Y-90284848D01*
X138229273Y-90263165D01*
X138218703Y-90254470D01*
X138213106Y-90253287D01*
X138435781Y-90253287D01*
X138478125Y-90302854D01*
X138555585Y-90333592D01*
X138565042Y-90334970D01*
X138629895Y-90329879D01*
X138646683Y-90280106D01*
X138616250Y-90219637D01*
X138542028Y-90186434D01*
X138457933Y-90197986D01*
X138444541Y-90207095D01*
X138435781Y-90253287D01*
X138213106Y-90253287D01*
X138152078Y-90240387D01*
X138137804Y-90244534D01*
X138128069Y-90247363D01*
X138124583Y-90262597D01*
X137861398Y-90262597D01*
X137865835Y-90258382D01*
X137858000Y-90202107D01*
X137781703Y-90167772D01*
X137757356Y-90164552D01*
X137701034Y-90174653D01*
X137682850Y-90234916D01*
X133493504Y-90234916D01*
X133528199Y-90110234D01*
X133643725Y-89880381D01*
X133822179Y-89642047D01*
X133913805Y-89549598D01*
X134145502Y-89549598D01*
X134173133Y-89549598D01*
X134173133Y-89543065D01*
X134519590Y-89543065D01*
X134519856Y-89555530D01*
X134520759Y-89598149D01*
X134588001Y-89632523D01*
X134714685Y-89643807D01*
X134749119Y-89641086D01*
X137517734Y-89641086D01*
X137530368Y-89673940D01*
X137546990Y-89686574D01*
X137567210Y-89673940D01*
X137566467Y-89666584D01*
X137530368Y-89637098D01*
X137517734Y-89641086D01*
X134749119Y-89641086D01*
X134894183Y-89629623D01*
X134907242Y-89627819D01*
X135061909Y-89600897D01*
X135156841Y-89573659D01*
X135187687Y-89549318D01*
X135150096Y-89531088D01*
X135039713Y-89522181D01*
X135013198Y-89521243D01*
X134914931Y-89510787D01*
X134861491Y-89493742D01*
X134830840Y-89475697D01*
X134733790Y-89459258D01*
X134625876Y-89469778D01*
X134548638Y-89505671D01*
X134519590Y-89543065D01*
X134173133Y-89543065D01*
X134173133Y-89521966D01*
X134145502Y-89521967D01*
X134145502Y-89549598D01*
X133913805Y-89549598D01*
X134014830Y-89447665D01*
X134395368Y-89447665D01*
X134408002Y-89480520D01*
X134424624Y-89493154D01*
X134444844Y-89480519D01*
X134444101Y-89473163D01*
X134408002Y-89443677D01*
X134395368Y-89447665D01*
X134014830Y-89447665D01*
X134056643Y-89405476D01*
X134108603Y-89360181D01*
X135027444Y-89360181D01*
X135033085Y-89380173D01*
X135098791Y-89397625D01*
X135107545Y-89399456D01*
X135146525Y-89400069D01*
X135119092Y-89363508D01*
X135089535Y-89341920D01*
X135043527Y-89342362D01*
X135027444Y-89360181D01*
X134108603Y-89360181D01*
X134117724Y-89352230D01*
X134272891Y-89226087D01*
X134413980Y-89120682D01*
X138463058Y-89120682D01*
X138493888Y-89169962D01*
X138594559Y-89186575D01*
X138626101Y-89184586D01*
X138692732Y-89153556D01*
X138692475Y-89097815D01*
X138622289Y-89034086D01*
X138557714Y-89013375D01*
X138494585Y-89052218D01*
X138463058Y-89120682D01*
X134413980Y-89120682D01*
X134432054Y-89107179D01*
X134499134Y-89061166D01*
X137803524Y-89061166D01*
X137860444Y-89084467D01*
X137878949Y-89079964D01*
X137905747Y-89035885D01*
X137887947Y-88981520D01*
X137871339Y-88974238D01*
X137820499Y-88996968D01*
X137810290Y-89008780D01*
X137803524Y-89061166D01*
X134499134Y-89061166D01*
X134582396Y-89004053D01*
X134711099Y-88925256D01*
X134762406Y-88900257D01*
X136111948Y-88900257D01*
X136115936Y-88912890D01*
X136148790Y-88900257D01*
X136161424Y-88883635D01*
X136148790Y-88863415D01*
X136141433Y-88864157D01*
X136111948Y-88900257D01*
X134762406Y-88900257D01*
X134805346Y-88879335D01*
X134852322Y-88874840D01*
X134883814Y-88875873D01*
X134943105Y-88834890D01*
X134951090Y-88827890D01*
X135030278Y-88781577D01*
X135156416Y-88725543D01*
X135306132Y-88670378D01*
X135401760Y-88639778D01*
X135522025Y-88609095D01*
X135587698Y-88607742D01*
X135609665Y-88634428D01*
X135629647Y-88687671D01*
X135675745Y-88685645D01*
X135733907Y-88618033D01*
X135735714Y-88615162D01*
X135815197Y-88559383D01*
X135933072Y-88527231D01*
X136190238Y-88527231D01*
X136190238Y-88554862D01*
X136217869Y-88554862D01*
X136217869Y-88527231D01*
X136190238Y-88527231D01*
X135933072Y-88527231D01*
X135969902Y-88517185D01*
X136198129Y-88488785D01*
X136498172Y-88474401D01*
X136868329Y-88474245D01*
X137095936Y-88483163D01*
G36*
X137095936Y-88483163D02*
G01*
X137680983Y-88550155D01*
X138254377Y-88677194D01*
X138799216Y-88859969D01*
X139298600Y-89094169D01*
X139527823Y-89221970D01*
X139723559Y-89337754D01*
X139892780Y-89448513D01*
X140051789Y-89566353D01*
X140216890Y-89703384D01*
X140404388Y-89871718D01*
X140630586Y-90083462D01*
X140656962Y-90108428D01*
X140849658Y-90291976D01*
X140998287Y-90437440D01*
X141114702Y-90558257D01*
X141210755Y-90667868D01*
X141298300Y-90779709D01*
X141389186Y-90907219D01*
X141495269Y-91063836D01*
X141563305Y-91165587D01*
X141670510Y-91327918D01*
X141741816Y-91441419D01*
X141782554Y-91516689D01*
X141798060Y-91564322D01*
X141793666Y-91594917D01*
X141774707Y-91619071D01*
X141769763Y-91623313D01*
X141693239Y-91657507D01*
X141550441Y-91698386D01*
X141351344Y-91744230D01*
X141291856Y-91756128D01*
X141105922Y-91793318D01*
X140982664Y-91815458D01*
X140847953Y-91839656D01*
X140824149Y-91843931D01*
X140668399Y-91869414D01*
X140594511Y-91881504D01*
X140516000Y-91894350D01*
X140422678Y-91908297D01*
X140236185Y-91936169D01*
X140191448Y-91942855D01*
X140140234Y-91949797D01*
X139923688Y-91979155D01*
X139860469Y-91987726D01*
X139673318Y-92010312D01*
X139623747Y-92016294D01*
X139533036Y-92027242D01*
X139475176Y-92033222D01*
X139299873Y-92051340D01*
X139219124Y-92059686D01*
X139169206Y-92063920D01*
X139117947Y-92068269D01*
X139071711Y-92071379D01*
X138908205Y-92082383D01*
X138673581Y-92094558D01*
X138426940Y-92104499D01*
X138181147Y-92111916D01*
X137949066Y-92116513D01*
X137743562Y-92117998D01*
X137577501Y-92116076D01*
X137463747Y-92110453D01*
X137415163Y-92100838D01*
X137411419Y-92093308D01*
X137402411Y-92024871D01*
X137398905Y-91904787D01*
X137400545Y-91815386D01*
X139257340Y-91815386D01*
X139257340Y-91843017D01*
X139284972Y-91843018D01*
X139284972Y-91815386D01*
X139257340Y-91815386D01*
X137400545Y-91815386D01*
X137401685Y-91753249D01*
X137402261Y-91736190D01*
X137400202Y-91551095D01*
X137388858Y-91408999D01*
X138322536Y-91408999D01*
X138332665Y-91487597D01*
X138349291Y-91552620D01*
X138380231Y-91580956D01*
X138446428Y-91563383D01*
X138458838Y-91558552D01*
X138517352Y-91517020D01*
X138518711Y-91448858D01*
X138517366Y-91443270D01*
X138507656Y-91426689D01*
X139809533Y-91426689D01*
X139825095Y-91447669D01*
X139882099Y-91446528D01*
X139930371Y-91415990D01*
X139934828Y-91381975D01*
X139870958Y-91372749D01*
X139827907Y-91383150D01*
X139809533Y-91426689D01*
X138507656Y-91426689D01*
X138483019Y-91384618D01*
X138404948Y-91373072D01*
X138349897Y-91379253D01*
X138322536Y-91408999D01*
X137388858Y-91408999D01*
X137385740Y-91369949D01*
X137383991Y-91359746D01*
X140427547Y-91359746D01*
X140461315Y-91406913D01*
X140530644Y-91436617D01*
X140537289Y-91437590D01*
X140596554Y-91429348D01*
X140597460Y-91426913D01*
X140885971Y-91426913D01*
X140891675Y-91430075D01*
X140942865Y-91428544D01*
X140957886Y-91422158D01*
X140958312Y-91388727D01*
X140949230Y-91381769D01*
X140923781Y-91384605D01*
X140901418Y-91387097D01*
X140895482Y-91393666D01*
X140885971Y-91426913D01*
X140597460Y-91426913D01*
X140620159Y-91365878D01*
X140621338Y-91357581D01*
X140614748Y-91303713D01*
X140565806Y-91290375D01*
X140459761Y-91312676D01*
X140443363Y-91319636D01*
X140427547Y-91359746D01*
X137383991Y-91359746D01*
X137376836Y-91318017D01*
X140031024Y-91318017D01*
X140031024Y-91345650D01*
X140058655Y-91345649D01*
X140058655Y-91318018D01*
X140031024Y-91318017D01*
X137376836Y-91318017D01*
X137361696Y-91229707D01*
X137345341Y-91172875D01*
X139283323Y-91172875D01*
X139291104Y-91189370D01*
X139342480Y-91206962D01*
X139378958Y-91188522D01*
X139384711Y-91148681D01*
X139331735Y-91127360D01*
X139300988Y-91131951D01*
X139283323Y-91172875D01*
X137345341Y-91172875D01*
X137338022Y-91147442D01*
X137302637Y-91063603D01*
X137248518Y-90982061D01*
X137173952Y-90896874D01*
X139797120Y-90896874D01*
X139820696Y-90957908D01*
X139883814Y-91020622D01*
X139958121Y-91024063D01*
X140003648Y-90995350D01*
X140043720Y-90924656D01*
X140029120Y-90853885D01*
X139969286Y-90807126D01*
X139873656Y-90808468D01*
X139870762Y-90809352D01*
X139804509Y-90843357D01*
X139797120Y-90896874D01*
X137173952Y-90896874D01*
X137162895Y-90884242D01*
X137033000Y-90751571D01*
X136910279Y-90630999D01*
X136809880Y-90541798D01*
X136725155Y-90483780D01*
X136636281Y-90443570D01*
X136523436Y-90407796D01*
X136413231Y-90381698D01*
X136217151Y-90351800D01*
X136090106Y-90343650D01*
X136033712Y-90340033D01*
X135981585Y-90343215D01*
X135811771Y-90353584D01*
X135455527Y-90431298D01*
X135172029Y-90548493D01*
X135116658Y-90571384D01*
X134808627Y-90766294D01*
X134544894Y-91008476D01*
X134455577Y-91130725D01*
X134338923Y-91290386D01*
X134305647Y-91347844D01*
X134231531Y-91464442D01*
X134165357Y-91528303D01*
X134086550Y-91546599D01*
X133974533Y-91526503D01*
X133808731Y-91475184D01*
X133603794Y-91403193D01*
X133470230Y-91342126D01*
X133407803Y-91291169D01*
X133413569Y-91248637D01*
X133423101Y-91217858D01*
X133435362Y-91121613D01*
X133445918Y-90978067D01*
X133453205Y-90804719D01*
X133457527Y-90682970D01*
X133467281Y-90498602D01*
X133479211Y-90343304D01*
X133482441Y-90316874D01*
X133628516Y-90316874D01*
X133634319Y-90364729D01*
X133641726Y-90370531D01*
X133689581Y-90364728D01*
X133695383Y-90357322D01*
X133691197Y-90322798D01*
X137272474Y-90322798D01*
X137293867Y-90341253D01*
X137364579Y-90360782D01*
X137423954Y-90364386D01*
X137456684Y-90351397D01*
X137435289Y-90332942D01*
X137364579Y-90313413D01*
X137305203Y-90309810D01*
X137272474Y-90322798D01*
X133691197Y-90322798D01*
X133689581Y-90309467D01*
X133682174Y-90303664D01*
X133634319Y-90309466D01*
X133628516Y-90316874D01*
X133482441Y-90316874D01*
X133491640Y-90241613D01*
X133493504Y-90234916D01*
X137682850Y-90234916D01*
X137683779Y-90303073D01*
X137718295Y-90343842D01*
X137796532Y-90321384D01*
X137803384Y-90317707D01*
X137861398Y-90262597D01*
X138124583Y-90262597D01*
X138193525Y-90281834D01*
X138229381Y-90284848D01*
X138229273Y-90263165D01*
X138218703Y-90254470D01*
X138213106Y-90253287D01*
X138435781Y-90253287D01*
X138478125Y-90302854D01*
X138555585Y-90333592D01*
X138565042Y-90334970D01*
X138629895Y-90329879D01*
X138646683Y-90280106D01*
X138616250Y-90219637D01*
X138542028Y-90186434D01*
X138457933Y-90197986D01*
X138444541Y-90207095D01*
X138435781Y-90253287D01*
X138213106Y-90253287D01*
X138152078Y-90240387D01*
X138137804Y-90244534D01*
X138128069Y-90247363D01*
X138124583Y-90262597D01*
X137861398Y-90262597D01*
X137865835Y-90258382D01*
X137858000Y-90202107D01*
X137781703Y-90167772D01*
X137757356Y-90164552D01*
X137701034Y-90174653D01*
X137682850Y-90234916D01*
X133493504Y-90234916D01*
X133528199Y-90110234D01*
X133643725Y-89880381D01*
X133822179Y-89642047D01*
X133913805Y-89549598D01*
X134145502Y-89549598D01*
X134173133Y-89549598D01*
X134173133Y-89543065D01*
X134519590Y-89543065D01*
X134519856Y-89555530D01*
X134520759Y-89598149D01*
X134588001Y-89632523D01*
X134714685Y-89643807D01*
X134749119Y-89641086D01*
X137517734Y-89641086D01*
X137530368Y-89673940D01*
X137546990Y-89686574D01*
X137567210Y-89673940D01*
X137566467Y-89666584D01*
X137530368Y-89637098D01*
X137517734Y-89641086D01*
X134749119Y-89641086D01*
X134894183Y-89629623D01*
X134907242Y-89627819D01*
X135061909Y-89600897D01*
X135156841Y-89573659D01*
X135187687Y-89549318D01*
X135150096Y-89531088D01*
X135039713Y-89522181D01*
X135013198Y-89521243D01*
X134914931Y-89510787D01*
X134861491Y-89493742D01*
X134830840Y-89475697D01*
X134733790Y-89459258D01*
X134625876Y-89469778D01*
X134548638Y-89505671D01*
X134519590Y-89543065D01*
X134173133Y-89543065D01*
X134173133Y-89521966D01*
X134145502Y-89521967D01*
X134145502Y-89549598D01*
X133913805Y-89549598D01*
X134014830Y-89447665D01*
X134395368Y-89447665D01*
X134408002Y-89480520D01*
X134424624Y-89493154D01*
X134444844Y-89480519D01*
X134444101Y-89473163D01*
X134408002Y-89443677D01*
X134395368Y-89447665D01*
X134014830Y-89447665D01*
X134056643Y-89405476D01*
X134108603Y-89360181D01*
X135027444Y-89360181D01*
X135033085Y-89380173D01*
X135098791Y-89397625D01*
X135107545Y-89399456D01*
X135146525Y-89400069D01*
X135119092Y-89363508D01*
X135089535Y-89341920D01*
X135043527Y-89342362D01*
X135027444Y-89360181D01*
X134108603Y-89360181D01*
X134117724Y-89352230D01*
X134272891Y-89226087D01*
X134413980Y-89120682D01*
X138463058Y-89120682D01*
X138493888Y-89169962D01*
X138594559Y-89186575D01*
X138626101Y-89184586D01*
X138692732Y-89153556D01*
X138692475Y-89097815D01*
X138622289Y-89034086D01*
X138557714Y-89013375D01*
X138494585Y-89052218D01*
X138463058Y-89120682D01*
X134413980Y-89120682D01*
X134432054Y-89107179D01*
X134499134Y-89061166D01*
X137803524Y-89061166D01*
X137860444Y-89084467D01*
X137878949Y-89079964D01*
X137905747Y-89035885D01*
X137887947Y-88981520D01*
X137871339Y-88974238D01*
X137820499Y-88996968D01*
X137810290Y-89008780D01*
X137803524Y-89061166D01*
X134499134Y-89061166D01*
X134582396Y-89004053D01*
X134711099Y-88925256D01*
X134762406Y-88900257D01*
X136111948Y-88900257D01*
X136115936Y-88912890D01*
X136148790Y-88900257D01*
X136161424Y-88883635D01*
X136148790Y-88863415D01*
X136141433Y-88864157D01*
X136111948Y-88900257D01*
X134762406Y-88900257D01*
X134805346Y-88879335D01*
X134852322Y-88874840D01*
X134883814Y-88875873D01*
X134943105Y-88834890D01*
X134951090Y-88827890D01*
X135030278Y-88781577D01*
X135156416Y-88725543D01*
X135306132Y-88670378D01*
X135401760Y-88639778D01*
X135522025Y-88609095D01*
X135587698Y-88607742D01*
X135609665Y-88634428D01*
X135629647Y-88687671D01*
X135675745Y-88685645D01*
X135733907Y-88618033D01*
X135735714Y-88615162D01*
X135815197Y-88559383D01*
X135933072Y-88527231D01*
X136190238Y-88527231D01*
X136190238Y-88554862D01*
X136217869Y-88554862D01*
X136217869Y-88527231D01*
X136190238Y-88527231D01*
X135933072Y-88527231D01*
X135969902Y-88517185D01*
X136198129Y-88488785D01*
X136498172Y-88474401D01*
X136868329Y-88474245D01*
X137095936Y-88483163D01*
G37*
X133716968Y-92194331D02*
X134027986Y-92305063D01*
X134089547Y-92531265D01*
X134093072Y-92544039D01*
X134204499Y-92830876D01*
X134365426Y-93062276D01*
X134582551Y-93247975D01*
X134762380Y-93353490D01*
X135081620Y-93473098D01*
X135414814Y-93517488D01*
X135758909Y-93487065D01*
X136110851Y-93382232D01*
X136467590Y-93203395D01*
X136574819Y-93127885D01*
X140007998Y-93127885D01*
X140011986Y-93140519D01*
X140044840Y-93127885D01*
X140057474Y-93111263D01*
X140050673Y-93100378D01*
X142156056Y-93100378D01*
X142160285Y-93143331D01*
X142163760Y-93145370D01*
X142200101Y-93127885D01*
X142206550Y-93119187D01*
X142198470Y-93070992D01*
X142186307Y-93063167D01*
X142158654Y-93086437D01*
X142156056Y-93100378D01*
X140050673Y-93100378D01*
X140044840Y-93091043D01*
X140037483Y-93091786D01*
X140007998Y-93127885D01*
X136574819Y-93127885D01*
X136826071Y-92950956D01*
X136857855Y-92925458D01*
X136959286Y-92851150D01*
X137044050Y-92813112D01*
X137143653Y-92801531D01*
X137289603Y-92806594D01*
X137500836Y-92814795D01*
X137829182Y-92818186D01*
X138193523Y-92813828D01*
X138571055Y-92802456D01*
X138938966Y-92784805D01*
X139274447Y-92761610D01*
X139554691Y-92733606D01*
X139580269Y-92730633D01*
X139707192Y-92722046D01*
X139790875Y-92726994D01*
X139814332Y-92744751D01*
X139800920Y-92835196D01*
X139844934Y-92927133D01*
X139890842Y-92934239D01*
X139946098Y-92893156D01*
X139987873Y-92826217D01*
X139994917Y-92757464D01*
X139993148Y-92743311D01*
X140009463Y-92716472D01*
X140061799Y-92692168D01*
X140160555Y-92667491D01*
X140316131Y-92639533D01*
X140427510Y-92622464D01*
X140827114Y-92622464D01*
X140837024Y-92644543D01*
X140894509Y-92642702D01*
X140916674Y-92633983D01*
X140894510Y-92618332D01*
X140873706Y-92614587D01*
X140830708Y-92618332D01*
X140827114Y-92622464D01*
X140427510Y-92622464D01*
X140538929Y-92605389D01*
X140791029Y-92565052D01*
X140811197Y-92561438D01*
X141108655Y-92561438D01*
X141108655Y-92589070D01*
X141136286Y-92589069D01*
X141136286Y-92561438D01*
X141108655Y-92561438D01*
X140811197Y-92561438D01*
X141078962Y-92513457D01*
X141360501Y-92458256D01*
X141600073Y-92406131D01*
X141635258Y-92397914D01*
X141818461Y-92355602D01*
X141970587Y-92321236D01*
X142076643Y-92298163D01*
X142121636Y-92289728D01*
X142131811Y-92297103D01*
X142164388Y-92362052D01*
X142207019Y-92481669D01*
X142255500Y-92640874D01*
X142305617Y-92824588D01*
X142353165Y-93017732D01*
X142393934Y-93205227D01*
X142419259Y-93347042D01*
X142423714Y-93371992D01*
X142449584Y-93580751D01*
X142473101Y-93986857D01*
X142469851Y-94214944D01*
X142467124Y-94406344D01*
X142433056Y-94817264D01*
X142409887Y-94962321D01*
X142372296Y-95197667D01*
X142318738Y-95401782D01*
X142286247Y-95525605D01*
X142254963Y-95612265D01*
X142249070Y-95626852D01*
X142183123Y-95790097D01*
X142095530Y-95990179D01*
X142007750Y-96176813D01*
X142004625Y-96183456D01*
X141995398Y-96202245D01*
X141916645Y-96359107D01*
X141849261Y-96480030D01*
X141779826Y-96583164D01*
X141708326Y-96670318D01*
X141694924Y-96686653D01*
X141642601Y-96742750D01*
X141581134Y-96808648D01*
X141425039Y-96967293D01*
X141368713Y-97024013D01*
X141250489Y-97140784D01*
X141217515Y-97170644D01*
X141144566Y-97236708D01*
X141047152Y-97310401D01*
X141041913Y-97314364D01*
X140933502Y-97376338D01*
X140810303Y-97425210D01*
X140663286Y-97463564D01*
X140557603Y-97481436D01*
X140483422Y-97493982D01*
X140420664Y-97501075D01*
X140261680Y-97519046D01*
X140031948Y-97537828D01*
X139989032Y-97541338D01*
X139656447Y-97563442D01*
X139254897Y-97587938D01*
X139197287Y-97591578D01*
X138917748Y-97616306D01*
X138869741Y-97620553D01*
X138753059Y-97638731D01*
X138608351Y-97661275D01*
X138594196Y-97663480D01*
X138348368Y-97725818D01*
X138284176Y-97749301D01*
X138109977Y-97813029D01*
X137856741Y-97930569D01*
X137838344Y-97939806D01*
X137837712Y-97940124D01*
X137746875Y-97986494D01*
X137695126Y-98012911D01*
X137674296Y-98024441D01*
X137581035Y-98076069D01*
X137481335Y-98140266D01*
X137381923Y-98216172D01*
X137345239Y-98248015D01*
X137280131Y-98304534D01*
X137268698Y-98314459D01*
X137153144Y-98421985D01*
X137127556Y-98445796D01*
X136944394Y-98620853D01*
X136941208Y-98623892D01*
X136935229Y-98629595D01*
X136798207Y-98760309D01*
X136643337Y-98906064D01*
X136513132Y-99026474D01*
X136418078Y-99111855D01*
X136368659Y-99152526D01*
X136362148Y-99155488D01*
X136288411Y-99158192D01*
X136161205Y-99142182D01*
X135998240Y-99111453D01*
X135817223Y-99069997D01*
X135635864Y-99021811D01*
X135471872Y-98970885D01*
X135342956Y-98921215D01*
X135238316Y-98873880D01*
X135571943Y-98540254D01*
X135634978Y-98476390D01*
X135811459Y-98282722D01*
X135927156Y-98123097D01*
X135984539Y-97989107D01*
X135986079Y-97872344D01*
X135934245Y-97764400D01*
X135831508Y-97656868D01*
X135816066Y-97643659D01*
X135732218Y-97585431D01*
X135654794Y-97574717D01*
X135545254Y-97604460D01*
X135518854Y-97614286D01*
X135443213Y-97651614D01*
X135355438Y-97710427D01*
X135244740Y-97799160D01*
X135100329Y-97926253D01*
X134911415Y-98100140D01*
X134439008Y-98540296D01*
X134317021Y-98468862D01*
X134252183Y-98429991D01*
X134125676Y-98351910D01*
X133992860Y-98268023D01*
X133905827Y-98209386D01*
X133773955Y-98111293D01*
X133673704Y-98026031D01*
X133556723Y-97913444D01*
X133890262Y-97562750D01*
X137184974Y-97562750D01*
X137212605Y-97562750D01*
X137212605Y-97535118D01*
X137184974Y-97535119D01*
X137184974Y-97562750D01*
X133890262Y-97562750D01*
X133928385Y-97522666D01*
X133968559Y-97479855D01*
X136549447Y-97479855D01*
X136577079Y-97479855D01*
X136577079Y-97466039D01*
X137327736Y-97466039D01*
X137331725Y-97478673D01*
X137364578Y-97466039D01*
X137377213Y-97449417D01*
X137370334Y-97438408D01*
X138515893Y-97438408D01*
X138519882Y-97451041D01*
X138552736Y-97438408D01*
X138560522Y-97428164D01*
X139069699Y-97428164D01*
X139091551Y-97479855D01*
X139113735Y-97495804D01*
X139160630Y-97493671D01*
X139168665Y-97476284D01*
X139146814Y-97424592D01*
X139124630Y-97408643D01*
X139077735Y-97410776D01*
X139069699Y-97428164D01*
X138560522Y-97428164D01*
X138565370Y-97421786D01*
X138552736Y-97401566D01*
X138545379Y-97402308D01*
X138515893Y-97438408D01*
X137370334Y-97438408D01*
X137364579Y-97429197D01*
X137357221Y-97429940D01*
X137341277Y-97449462D01*
X137327736Y-97466039D01*
X136577079Y-97466039D01*
X136577079Y-97452224D01*
X136549448Y-97452224D01*
X136549447Y-97479855D01*
X133968559Y-97479855D01*
X134066036Y-97375979D01*
X134092560Y-97346166D01*
X135739632Y-97346166D01*
X135748227Y-97381163D01*
X135773145Y-97409987D01*
X135832800Y-97423691D01*
X135948882Y-97431079D01*
X136071524Y-97430586D01*
X136140196Y-97409037D01*
X136140164Y-97396961D01*
X137157342Y-97396961D01*
X137157342Y-97421330D01*
X137157342Y-97424591D01*
X137184974Y-97424592D01*
X137184973Y-97396961D01*
X137157342Y-97396961D01*
X136140164Y-97396961D01*
X136140068Y-97360924D01*
X136074979Y-97281702D01*
X136003403Y-97224359D01*
X135896751Y-97182797D01*
X135843020Y-97187900D01*
X135805871Y-97191429D01*
X135747814Y-97246979D01*
X135742463Y-97311850D01*
X135739632Y-97346166D01*
X134092560Y-97346166D01*
X134168480Y-97260830D01*
X135170031Y-97260830D01*
X135240286Y-97281275D01*
X135378896Y-97286591D01*
X135435497Y-97284181D01*
X135524306Y-97271989D01*
X135559317Y-97253683D01*
X135557347Y-97249446D01*
X135509249Y-97232460D01*
X135418140Y-97219613D01*
X135312625Y-97212937D01*
X135221315Y-97214463D01*
X135172816Y-97226225D01*
X135172506Y-97226537D01*
X135170031Y-97260830D01*
X134168480Y-97260830D01*
X134182918Y-97244601D01*
X134256122Y-97151236D01*
X139540280Y-97151236D01*
X139586100Y-97148942D01*
X139586419Y-97148869D01*
X139640419Y-97170107D01*
X139702968Y-97236201D01*
X139743224Y-97281957D01*
X139789945Y-97295825D01*
X139808147Y-97249587D01*
X139787105Y-97153753D01*
X139783514Y-97129238D01*
X140032205Y-97129238D01*
X140044839Y-97162092D01*
X140061461Y-97174726D01*
X140081681Y-97162092D01*
X140080939Y-97154735D01*
X140044839Y-97125251D01*
X140032205Y-97129238D01*
X139783514Y-97129238D01*
X139777800Y-97090230D01*
X139821566Y-96994794D01*
X139838438Y-96970107D01*
X139805761Y-96976041D01*
X139788341Y-96985226D01*
X139713839Y-97024513D01*
X139679140Y-97045077D01*
X139650164Y-97062251D01*
X139562409Y-97121585D01*
X139540280Y-97151236D01*
X134256122Y-97151236D01*
X134259432Y-97147015D01*
X134304138Y-97072148D01*
X134316826Y-97034776D01*
X135500150Y-97034776D01*
X135500567Y-97063022D01*
X135536497Y-97128305D01*
X135555722Y-97145525D01*
X135575767Y-97145154D01*
X135571138Y-97080621D01*
X135553400Y-97012214D01*
X135525199Y-96988873D01*
X135500150Y-97034776D01*
X134316826Y-97034776D01*
X134325604Y-97008923D01*
X134332446Y-96918715D01*
X134309514Y-96844025D01*
X136601896Y-96844025D01*
X136638493Y-96896383D01*
X136700857Y-96928517D01*
X136767455Y-96919796D01*
X136793984Y-96902168D01*
X136799087Y-96888683D01*
X137424520Y-96888683D01*
X137437467Y-96978925D01*
X137489406Y-97051081D01*
X137555846Y-97084472D01*
X137593091Y-97058215D01*
X137599827Y-96962467D01*
X137598659Y-96954855D01*
X139588919Y-96954855D01*
X139588919Y-96982487D01*
X139616550Y-96982487D01*
X139616550Y-96954856D01*
X139588919Y-96954855D01*
X137598659Y-96954855D01*
X137595583Y-96934818D01*
X137574438Y-96894367D01*
X139650989Y-96894367D01*
X139657997Y-96941040D01*
X139676475Y-96948973D01*
X139728707Y-96925593D01*
X139744468Y-96901880D01*
X139727077Y-96871961D01*
X139948129Y-96871961D01*
X139948129Y-96899592D01*
X139975761Y-96899593D01*
X139975761Y-96885817D01*
X140967994Y-96885817D01*
X140973758Y-96930485D01*
X140979337Y-96932466D01*
X140998128Y-96899593D01*
X141000631Y-96885736D01*
X140994866Y-96841068D01*
X140989288Y-96839087D01*
X140970497Y-96871961D01*
X140970101Y-96874155D01*
X140967994Y-96885817D01*
X139975761Y-96885817D01*
X139975761Y-96871961D01*
X139948129Y-96871961D01*
X139727077Y-96871961D01*
X139713874Y-96870071D01*
X139656367Y-96887407D01*
X139650989Y-96894367D01*
X137574438Y-96894367D01*
X137557883Y-96862698D01*
X137501264Y-96819974D01*
X137449798Y-96828189D01*
X137430147Y-96875217D01*
X137424520Y-96888683D01*
X136799087Y-96888683D01*
X136807961Y-96865230D01*
X136756386Y-96813146D01*
X136688526Y-96778492D01*
X136624008Y-96782353D01*
X136612596Y-96792074D01*
X136601896Y-96844025D01*
X134309514Y-96844025D01*
X134291701Y-96786009D01*
X134196821Y-96689697D01*
X134061607Y-96641336D01*
X133899864Y-96652480D01*
X133897302Y-96653158D01*
X133824835Y-96678047D01*
X133752356Y-96718621D01*
X133666501Y-96785204D01*
X133553901Y-96888126D01*
X133401188Y-97037711D01*
X133054056Y-97383144D01*
X132936482Y-97279666D01*
X132899999Y-97242709D01*
X132812409Y-97135885D01*
X132708909Y-96993989D01*
X132604903Y-96837561D01*
X132390898Y-96498935D01*
X132454698Y-96434963D01*
X136131305Y-96434963D01*
X136148791Y-96471303D01*
X136157488Y-96477752D01*
X136205684Y-96469672D01*
X136213508Y-96457508D01*
X136190238Y-96429856D01*
X136176297Y-96427258D01*
X136133344Y-96431487D01*
X136131305Y-96434963D01*
X132454698Y-96434963D01*
X132732973Y-96155936D01*
X136728062Y-96155936D01*
X136733168Y-96215299D01*
X136767273Y-96257860D01*
X136808564Y-96253634D01*
X136812562Y-96248932D01*
X136827330Y-96190955D01*
X136827141Y-96189727D01*
X136983338Y-96189727D01*
X136997379Y-96214631D01*
X137031611Y-96229741D01*
X137112511Y-96233051D01*
X137155151Y-96227313D01*
X137166558Y-96219481D01*
X137102989Y-96207893D01*
X137037282Y-96197624D01*
X136987858Y-96189471D01*
X136983338Y-96189727D01*
X136827141Y-96189727D01*
X136817175Y-96125063D01*
X136787644Y-96093672D01*
X136781353Y-96095707D01*
X136771156Y-96099005D01*
X136731212Y-96147286D01*
X136728062Y-96155936D01*
X132732973Y-96155936D01*
X132846204Y-96042399D01*
X132969996Y-95917531D01*
X133112290Y-95770213D01*
X133212242Y-95659627D01*
X133278392Y-95575528D01*
X133319277Y-95507672D01*
X133343436Y-95445810D01*
X133359788Y-95329351D01*
X133339794Y-95237147D01*
X135309680Y-95237147D01*
X135338642Y-95380243D01*
X135428259Y-95530782D01*
X135564697Y-95630225D01*
X135735270Y-95670240D01*
X135809254Y-95659553D01*
X136856312Y-95659553D01*
X136896345Y-95688410D01*
X136912450Y-95687308D01*
X136957428Y-95655987D01*
X136936289Y-95600909D01*
X136914321Y-95584792D01*
X136868842Y-95585463D01*
X136856390Y-95603619D01*
X136856312Y-95659553D01*
X135809254Y-95659553D01*
X135927287Y-95642503D01*
X136037015Y-95596967D01*
X136100121Y-95551602D01*
X137440055Y-95551602D01*
X137442969Y-95582590D01*
X137467198Y-95840245D01*
X137542971Y-96088031D01*
X137707280Y-96372510D01*
X137915913Y-96596721D01*
X138165680Y-96754526D01*
X138456013Y-96845566D01*
X138786343Y-96869484D01*
X138837987Y-96867533D01*
X139115420Y-96833413D01*
X139365477Y-96753323D01*
X139622298Y-96616948D01*
X139727826Y-96547348D01*
X139802663Y-96483587D01*
X140305808Y-96483587D01*
X140344157Y-96477532D01*
X140409222Y-96435107D01*
X140473081Y-96377135D01*
X140493516Y-96346961D01*
X141219180Y-96346961D01*
X141246813Y-96346961D01*
X141246812Y-96319330D01*
X141219181Y-96319330D01*
X141219180Y-96346961D01*
X140493516Y-96346961D01*
X140508358Y-96325045D01*
X140510664Y-96310275D01*
X140484885Y-96308747D01*
X140411278Y-96368212D01*
X140385834Y-96392161D01*
X140325432Y-96454196D01*
X140305808Y-96483587D01*
X139802663Y-96483587D01*
X140028190Y-96291439D01*
X140091672Y-96212375D01*
X141114435Y-96212375D01*
X141136285Y-96264067D01*
X141158470Y-96280016D01*
X141205365Y-96277883D01*
X141213400Y-96260495D01*
X141191549Y-96208803D01*
X141169365Y-96192854D01*
X141156670Y-96193431D01*
X141122470Y-96194988D01*
X141114435Y-96212375D01*
X140091672Y-96212375D01*
X140270217Y-95990006D01*
X140352051Y-95835164D01*
X140858080Y-95835164D01*
X140875417Y-95892671D01*
X140882377Y-95898049D01*
X140929049Y-95891041D01*
X140936983Y-95872563D01*
X140920642Y-95836056D01*
X141520841Y-95836056D01*
X141545902Y-95895215D01*
X141637722Y-95914725D01*
X141697048Y-95931618D01*
X141774633Y-96002814D01*
X141780342Y-96011062D01*
X141832999Y-96062584D01*
X141878144Y-96047208D01*
X141897268Y-96020512D01*
X141905164Y-95942494D01*
X141866884Y-95874688D01*
X141796717Y-95850128D01*
X141796080Y-95849906D01*
X141749176Y-95845551D01*
X141697426Y-95808640D01*
X141692917Y-95800514D01*
X141636776Y-95769382D01*
X141566101Y-95776809D01*
X141523591Y-95820004D01*
X141520841Y-95836056D01*
X140920642Y-95836056D01*
X140913603Y-95820331D01*
X140889890Y-95804570D01*
X140859970Y-95821962D01*
X140858080Y-95835164D01*
X140352051Y-95835164D01*
X140393589Y-95756568D01*
X140570875Y-95756568D01*
X140577503Y-95785432D01*
X140641566Y-95775266D01*
X140655833Y-95771762D01*
X140707941Y-95744702D01*
X140700935Y-95694172D01*
X140683543Y-95663699D01*
X140645353Y-95633146D01*
X140621619Y-95650019D01*
X140585985Y-95714240D01*
X140570875Y-95756568D01*
X140393589Y-95756568D01*
X140449196Y-95651351D01*
X140535078Y-95367520D01*
X141315369Y-95367520D01*
X141320673Y-95419632D01*
X141343224Y-95466753D01*
X141372101Y-95492762D01*
X141410971Y-95464383D01*
X141437990Y-95424763D01*
X141429599Y-95369869D01*
X141362687Y-95351728D01*
X141315369Y-95367520D01*
X140535078Y-95367520D01*
X140560419Y-95283772D01*
X140599177Y-94895567D01*
X140599171Y-94885268D01*
X140588253Y-94780556D01*
X141386152Y-94780556D01*
X141398786Y-94813410D01*
X141415408Y-94826044D01*
X141435628Y-94813410D01*
X141434885Y-94806053D01*
X141398785Y-94776568D01*
X141386152Y-94780556D01*
X140588253Y-94780556D01*
X140564126Y-94549171D01*
X140480086Y-94291688D01*
X141865340Y-94291688D01*
X141882019Y-94317087D01*
X141953605Y-94341059D01*
X142025146Y-94367767D01*
X142085951Y-94416337D01*
X142106715Y-94465424D01*
X142073027Y-94496292D01*
X142050813Y-94496358D01*
X142002379Y-94456951D01*
X141985261Y-94434441D01*
X141918456Y-94411963D01*
X141895611Y-94419273D01*
X141901816Y-94454148D01*
X141965805Y-94526363D01*
X141988941Y-94549314D01*
X142051480Y-94609039D01*
X142078565Y-94630999D01*
X142082652Y-94623691D01*
X142111103Y-94566507D01*
X142156720Y-94472056D01*
X142175964Y-94434602D01*
X142238378Y-94338471D01*
X142293531Y-94284156D01*
X142317756Y-94271174D01*
X142332415Y-94258111D01*
X142276801Y-94268400D01*
X142209932Y-94263068D01*
X142126427Y-94214736D01*
X142107139Y-94196459D01*
X142055524Y-94172059D01*
X142014707Y-94213487D01*
X141983438Y-94252161D01*
X141933404Y-94273603D01*
X141924647Y-94272220D01*
X141866255Y-94290678D01*
X141865340Y-94291688D01*
X140480086Y-94291688D01*
X140466114Y-94248882D01*
X140312225Y-93990284D01*
X140109548Y-93779265D01*
X139997362Y-93706936D01*
X142120402Y-93706936D01*
X142137291Y-93807080D01*
X142151038Y-93846461D01*
X142168499Y-93885808D01*
X142193355Y-93941822D01*
X142224418Y-93969511D01*
X142240618Y-93925394D01*
X142254788Y-93883387D01*
X142314545Y-93819716D01*
X142340512Y-93801859D01*
X142394829Y-93718332D01*
X142380555Y-93623684D01*
X142298743Y-93536738D01*
X142275249Y-93521687D01*
X142209453Y-93494283D01*
X142189049Y-93522325D01*
X142183722Y-93554530D01*
X142153926Y-93606709D01*
X142141335Y-93628755D01*
X142136709Y-93634284D01*
X142120402Y-93706936D01*
X139997362Y-93706936D01*
X139865173Y-93621711D01*
X139586189Y-93523506D01*
X139279685Y-93490536D01*
X138952752Y-93528688D01*
X138679037Y-93621362D01*
X138388403Y-93781417D01*
X138115586Y-93991457D01*
X137878144Y-94237845D01*
X137693632Y-94506938D01*
X137632450Y-94629062D01*
X137524479Y-94927160D01*
X137459747Y-95240957D01*
X137440055Y-95551602D01*
X136100121Y-95551602D01*
X136179898Y-95494252D01*
X136307134Y-95339140D01*
X136408502Y-95158804D01*
X137019184Y-95158804D01*
X137019185Y-95186436D01*
X137046815Y-95186436D01*
X137046816Y-95158804D01*
X137019184Y-95158804D01*
X136408502Y-95158804D01*
X136430879Y-95118994D01*
X136554697Y-94850547D01*
X136641430Y-94619683D01*
X136681390Y-94444349D01*
X136675268Y-94321412D01*
X136623758Y-94247742D01*
X136619229Y-94244780D01*
X136581586Y-94229372D01*
X136530355Y-94229191D01*
X136454067Y-94247748D01*
X136341249Y-94288558D01*
X136180432Y-94355134D01*
X135960144Y-94450987D01*
X135725309Y-94561886D01*
X135541826Y-94671500D01*
X135481101Y-94725983D01*
X135417278Y-94783249D01*
X135342909Y-94907716D01*
X135314636Y-95034527D01*
X135309963Y-95055487D01*
X135309680Y-95237147D01*
X133339794Y-95237147D01*
X133327970Y-95182621D01*
X133310243Y-95157174D01*
X133397820Y-95157174D01*
X133403523Y-95160334D01*
X133454714Y-95158804D01*
X133469735Y-95152418D01*
X133470159Y-95118988D01*
X133461078Y-95112029D01*
X133413266Y-95117356D01*
X133407329Y-95123927D01*
X133397820Y-95157174D01*
X133310243Y-95157174D01*
X133245422Y-95064125D01*
X133154666Y-95008462D01*
X133124815Y-94990154D01*
X132978820Y-94977004D01*
X132953116Y-94981487D01*
X132891608Y-95000845D01*
X132824068Y-95039129D01*
X132738190Y-95105428D01*
X132621667Y-95208824D01*
X132462192Y-95358403D01*
X132299904Y-95509289D01*
X132170203Y-95621328D01*
X132087764Y-95680131D01*
X132049705Y-95687997D01*
X132048886Y-95687077D01*
X132025580Y-95634961D01*
X131987377Y-95524004D01*
X131939386Y-95369879D01*
X131886721Y-95188264D01*
X131857764Y-95082828D01*
X131815194Y-94910120D01*
X133565239Y-94910120D01*
X133565239Y-94937752D01*
X133592871Y-94937751D01*
X133592871Y-94910120D01*
X133565239Y-94910120D01*
X131815194Y-94910120D01*
X131812062Y-94897415D01*
X131789587Y-94764358D01*
X131788347Y-94669010D01*
X131806353Y-94596719D01*
X131807052Y-94595044D01*
X131840123Y-94540851D01*
X132688600Y-94540851D01*
X132697315Y-94607798D01*
X132748957Y-94638410D01*
X132780704Y-94634500D01*
X132811776Y-94597866D01*
X132775438Y-94534792D01*
X132735689Y-94508524D01*
X132695997Y-94520976D01*
X132688600Y-94540851D01*
X131840123Y-94540851D01*
X131857425Y-94512499D01*
X131956209Y-94391518D01*
X132107038Y-94227947D01*
X132189949Y-94143510D01*
X133247111Y-94143510D01*
X133275108Y-94205516D01*
X133302047Y-94242817D01*
X133302740Y-94288410D01*
X133296938Y-94295818D01*
X133302739Y-94343673D01*
X133315237Y-94355579D01*
X133335928Y-94360331D01*
X133361383Y-94325274D01*
X133406179Y-94235106D01*
X133432765Y-94172675D01*
X133432232Y-94121112D01*
X133381699Y-94093797D01*
X133354825Y-94087723D01*
X133279573Y-94098072D01*
X133247111Y-94143510D01*
X132189949Y-94143510D01*
X132313547Y-94017637D01*
X132332568Y-93998279D01*
X133648134Y-93998279D01*
X133648134Y-94025910D01*
X133675765Y-94025910D01*
X133675766Y-93998279D01*
X133648134Y-93998279D01*
X132332568Y-93998279D01*
X132478822Y-93849433D01*
X132714582Y-93591019D01*
X132819948Y-93457425D01*
X133953616Y-93457425D01*
X133953616Y-93569163D01*
X133954527Y-93586328D01*
X133984555Y-93697999D01*
X134043851Y-93811523D01*
X134101402Y-93888032D01*
X134139866Y-93913330D01*
X134169540Y-93889431D01*
X134186569Y-93865075D01*
X134236782Y-93800701D01*
X134252246Y-93745819D01*
X134245479Y-93653829D01*
X134223659Y-93579613D01*
X134180000Y-93535508D01*
X134088003Y-93500199D01*
X133953616Y-93457425D01*
X132819948Y-93457425D01*
X132829237Y-93445648D01*
X134173133Y-93445648D01*
X134200765Y-93445647D01*
X134200765Y-93418016D01*
X134173134Y-93418016D01*
X134173133Y-93445648D01*
X132829237Y-93445648D01*
X132901654Y-93353829D01*
X133049344Y-93122521D01*
X133166962Y-92881754D01*
X133263813Y-92616185D01*
X133349205Y-92310472D01*
X133405950Y-92083601D01*
X133716968Y-92194331D01*
G36*
X133716968Y-92194331D02*
G01*
X134027986Y-92305063D01*
X134089547Y-92531265D01*
X134093072Y-92544039D01*
X134204499Y-92830876D01*
X134365426Y-93062276D01*
X134582551Y-93247975D01*
X134762380Y-93353490D01*
X135081620Y-93473098D01*
X135414814Y-93517488D01*
X135758909Y-93487065D01*
X136110851Y-93382232D01*
X136467590Y-93203395D01*
X136574819Y-93127885D01*
X140007998Y-93127885D01*
X140011986Y-93140519D01*
X140044840Y-93127885D01*
X140057474Y-93111263D01*
X140050673Y-93100378D01*
X142156056Y-93100378D01*
X142160285Y-93143331D01*
X142163760Y-93145370D01*
X142200101Y-93127885D01*
X142206550Y-93119187D01*
X142198470Y-93070992D01*
X142186307Y-93063167D01*
X142158654Y-93086437D01*
X142156056Y-93100378D01*
X140050673Y-93100378D01*
X140044840Y-93091043D01*
X140037483Y-93091786D01*
X140007998Y-93127885D01*
X136574819Y-93127885D01*
X136826071Y-92950956D01*
X136857855Y-92925458D01*
X136959286Y-92851150D01*
X137044050Y-92813112D01*
X137143653Y-92801531D01*
X137289603Y-92806594D01*
X137500836Y-92814795D01*
X137829182Y-92818186D01*
X138193523Y-92813828D01*
X138571055Y-92802456D01*
X138938966Y-92784805D01*
X139274447Y-92761610D01*
X139554691Y-92733606D01*
X139580269Y-92730633D01*
X139707192Y-92722046D01*
X139790875Y-92726994D01*
X139814332Y-92744751D01*
X139800920Y-92835196D01*
X139844934Y-92927133D01*
X139890842Y-92934239D01*
X139946098Y-92893156D01*
X139987873Y-92826217D01*
X139994917Y-92757464D01*
X139993148Y-92743311D01*
X140009463Y-92716472D01*
X140061799Y-92692168D01*
X140160555Y-92667491D01*
X140316131Y-92639533D01*
X140427510Y-92622464D01*
X140827114Y-92622464D01*
X140837024Y-92644543D01*
X140894509Y-92642702D01*
X140916674Y-92633983D01*
X140894510Y-92618332D01*
X140873706Y-92614587D01*
X140830708Y-92618332D01*
X140827114Y-92622464D01*
X140427510Y-92622464D01*
X140538929Y-92605389D01*
X140791029Y-92565052D01*
X140811197Y-92561438D01*
X141108655Y-92561438D01*
X141108655Y-92589070D01*
X141136286Y-92589069D01*
X141136286Y-92561438D01*
X141108655Y-92561438D01*
X140811197Y-92561438D01*
X141078962Y-92513457D01*
X141360501Y-92458256D01*
X141600073Y-92406131D01*
X141635258Y-92397914D01*
X141818461Y-92355602D01*
X141970587Y-92321236D01*
X142076643Y-92298163D01*
X142121636Y-92289728D01*
X142131811Y-92297103D01*
X142164388Y-92362052D01*
X142207019Y-92481669D01*
X142255500Y-92640874D01*
X142305617Y-92824588D01*
X142353165Y-93017732D01*
X142393934Y-93205227D01*
X142419259Y-93347042D01*
X142423714Y-93371992D01*
X142449584Y-93580751D01*
X142473101Y-93986857D01*
X142469851Y-94214944D01*
X142467124Y-94406344D01*
X142433056Y-94817264D01*
X142409887Y-94962321D01*
X142372296Y-95197667D01*
X142318738Y-95401782D01*
X142286247Y-95525605D01*
X142254963Y-95612265D01*
X142249070Y-95626852D01*
X142183123Y-95790097D01*
X142095530Y-95990179D01*
X142007750Y-96176813D01*
X142004625Y-96183456D01*
X141995398Y-96202245D01*
X141916645Y-96359107D01*
X141849261Y-96480030D01*
X141779826Y-96583164D01*
X141708326Y-96670318D01*
X141694924Y-96686653D01*
X141642601Y-96742750D01*
X141581134Y-96808648D01*
X141425039Y-96967293D01*
X141368713Y-97024013D01*
X141250489Y-97140784D01*
X141217515Y-97170644D01*
X141144566Y-97236708D01*
X141047152Y-97310401D01*
X141041913Y-97314364D01*
X140933502Y-97376338D01*
X140810303Y-97425210D01*
X140663286Y-97463564D01*
X140557603Y-97481436D01*
X140483422Y-97493982D01*
X140420664Y-97501075D01*
X140261680Y-97519046D01*
X140031948Y-97537828D01*
X139989032Y-97541338D01*
X139656447Y-97563442D01*
X139254897Y-97587938D01*
X139197287Y-97591578D01*
X138917748Y-97616306D01*
X138869741Y-97620553D01*
X138753059Y-97638731D01*
X138608351Y-97661275D01*
X138594196Y-97663480D01*
X138348368Y-97725818D01*
X138284176Y-97749301D01*
X138109977Y-97813029D01*
X137856741Y-97930569D01*
X137838344Y-97939806D01*
X137837712Y-97940124D01*
X137746875Y-97986494D01*
X137695126Y-98012911D01*
X137674296Y-98024441D01*
X137581035Y-98076069D01*
X137481335Y-98140266D01*
X137381923Y-98216172D01*
X137345239Y-98248015D01*
X137280131Y-98304534D01*
X137268698Y-98314459D01*
X137153144Y-98421985D01*
X137127556Y-98445796D01*
X136944394Y-98620853D01*
X136941208Y-98623892D01*
X136935229Y-98629595D01*
X136798207Y-98760309D01*
X136643337Y-98906064D01*
X136513132Y-99026474D01*
X136418078Y-99111855D01*
X136368659Y-99152526D01*
X136362148Y-99155488D01*
X136288411Y-99158192D01*
X136161205Y-99142182D01*
X135998240Y-99111453D01*
X135817223Y-99069997D01*
X135635864Y-99021811D01*
X135471872Y-98970885D01*
X135342956Y-98921215D01*
X135238316Y-98873880D01*
X135571943Y-98540254D01*
X135634978Y-98476390D01*
X135811459Y-98282722D01*
X135927156Y-98123097D01*
X135984539Y-97989107D01*
X135986079Y-97872344D01*
X135934245Y-97764400D01*
X135831508Y-97656868D01*
X135816066Y-97643659D01*
X135732218Y-97585431D01*
X135654794Y-97574717D01*
X135545254Y-97604460D01*
X135518854Y-97614286D01*
X135443213Y-97651614D01*
X135355438Y-97710427D01*
X135244740Y-97799160D01*
X135100329Y-97926253D01*
X134911415Y-98100140D01*
X134439008Y-98540296D01*
X134317021Y-98468862D01*
X134252183Y-98429991D01*
X134125676Y-98351910D01*
X133992860Y-98268023D01*
X133905827Y-98209386D01*
X133773955Y-98111293D01*
X133673704Y-98026031D01*
X133556723Y-97913444D01*
X133890262Y-97562750D01*
X137184974Y-97562750D01*
X137212605Y-97562750D01*
X137212605Y-97535118D01*
X137184974Y-97535119D01*
X137184974Y-97562750D01*
X133890262Y-97562750D01*
X133928385Y-97522666D01*
X133968559Y-97479855D01*
X136549447Y-97479855D01*
X136577079Y-97479855D01*
X136577079Y-97466039D01*
X137327736Y-97466039D01*
X137331725Y-97478673D01*
X137364578Y-97466039D01*
X137377213Y-97449417D01*
X137370334Y-97438408D01*
X138515893Y-97438408D01*
X138519882Y-97451041D01*
X138552736Y-97438408D01*
X138560522Y-97428164D01*
X139069699Y-97428164D01*
X139091551Y-97479855D01*
X139113735Y-97495804D01*
X139160630Y-97493671D01*
X139168665Y-97476284D01*
X139146814Y-97424592D01*
X139124630Y-97408643D01*
X139077735Y-97410776D01*
X139069699Y-97428164D01*
X138560522Y-97428164D01*
X138565370Y-97421786D01*
X138552736Y-97401566D01*
X138545379Y-97402308D01*
X138515893Y-97438408D01*
X137370334Y-97438408D01*
X137364579Y-97429197D01*
X137357221Y-97429940D01*
X137341277Y-97449462D01*
X137327736Y-97466039D01*
X136577079Y-97466039D01*
X136577079Y-97452224D01*
X136549448Y-97452224D01*
X136549447Y-97479855D01*
X133968559Y-97479855D01*
X134066036Y-97375979D01*
X134092560Y-97346166D01*
X135739632Y-97346166D01*
X135748227Y-97381163D01*
X135773145Y-97409987D01*
X135832800Y-97423691D01*
X135948882Y-97431079D01*
X136071524Y-97430586D01*
X136140196Y-97409037D01*
X136140164Y-97396961D01*
X137157342Y-97396961D01*
X137157342Y-97421330D01*
X137157342Y-97424591D01*
X137184974Y-97424592D01*
X137184973Y-97396961D01*
X137157342Y-97396961D01*
X136140164Y-97396961D01*
X136140068Y-97360924D01*
X136074979Y-97281702D01*
X136003403Y-97224359D01*
X135896751Y-97182797D01*
X135843020Y-97187900D01*
X135805871Y-97191429D01*
X135747814Y-97246979D01*
X135742463Y-97311850D01*
X135739632Y-97346166D01*
X134092560Y-97346166D01*
X134168480Y-97260830D01*
X135170031Y-97260830D01*
X135240286Y-97281275D01*
X135378896Y-97286591D01*
X135435497Y-97284181D01*
X135524306Y-97271989D01*
X135559317Y-97253683D01*
X135557347Y-97249446D01*
X135509249Y-97232460D01*
X135418140Y-97219613D01*
X135312625Y-97212937D01*
X135221315Y-97214463D01*
X135172816Y-97226225D01*
X135172506Y-97226537D01*
X135170031Y-97260830D01*
X134168480Y-97260830D01*
X134182918Y-97244601D01*
X134256122Y-97151236D01*
X139540280Y-97151236D01*
X139586100Y-97148942D01*
X139586419Y-97148869D01*
X139640419Y-97170107D01*
X139702968Y-97236201D01*
X139743224Y-97281957D01*
X139789945Y-97295825D01*
X139808147Y-97249587D01*
X139787105Y-97153753D01*
X139783514Y-97129238D01*
X140032205Y-97129238D01*
X140044839Y-97162092D01*
X140061461Y-97174726D01*
X140081681Y-97162092D01*
X140080939Y-97154735D01*
X140044839Y-97125251D01*
X140032205Y-97129238D01*
X139783514Y-97129238D01*
X139777800Y-97090230D01*
X139821566Y-96994794D01*
X139838438Y-96970107D01*
X139805761Y-96976041D01*
X139788341Y-96985226D01*
X139713839Y-97024513D01*
X139679140Y-97045077D01*
X139650164Y-97062251D01*
X139562409Y-97121585D01*
X139540280Y-97151236D01*
X134256122Y-97151236D01*
X134259432Y-97147015D01*
X134304138Y-97072148D01*
X134316826Y-97034776D01*
X135500150Y-97034776D01*
X135500567Y-97063022D01*
X135536497Y-97128305D01*
X135555722Y-97145525D01*
X135575767Y-97145154D01*
X135571138Y-97080621D01*
X135553400Y-97012214D01*
X135525199Y-96988873D01*
X135500150Y-97034776D01*
X134316826Y-97034776D01*
X134325604Y-97008923D01*
X134332446Y-96918715D01*
X134309514Y-96844025D01*
X136601896Y-96844025D01*
X136638493Y-96896383D01*
X136700857Y-96928517D01*
X136767455Y-96919796D01*
X136793984Y-96902168D01*
X136799087Y-96888683D01*
X137424520Y-96888683D01*
X137437467Y-96978925D01*
X137489406Y-97051081D01*
X137555846Y-97084472D01*
X137593091Y-97058215D01*
X137599827Y-96962467D01*
X137598659Y-96954855D01*
X139588919Y-96954855D01*
X139588919Y-96982487D01*
X139616550Y-96982487D01*
X139616550Y-96954856D01*
X139588919Y-96954855D01*
X137598659Y-96954855D01*
X137595583Y-96934818D01*
X137574438Y-96894367D01*
X139650989Y-96894367D01*
X139657997Y-96941040D01*
X139676475Y-96948973D01*
X139728707Y-96925593D01*
X139744468Y-96901880D01*
X139727077Y-96871961D01*
X139948129Y-96871961D01*
X139948129Y-96899592D01*
X139975761Y-96899593D01*
X139975761Y-96885817D01*
X140967994Y-96885817D01*
X140973758Y-96930485D01*
X140979337Y-96932466D01*
X140998128Y-96899593D01*
X141000631Y-96885736D01*
X140994866Y-96841068D01*
X140989288Y-96839087D01*
X140970497Y-96871961D01*
X140970101Y-96874155D01*
X140967994Y-96885817D01*
X139975761Y-96885817D01*
X139975761Y-96871961D01*
X139948129Y-96871961D01*
X139727077Y-96871961D01*
X139713874Y-96870071D01*
X139656367Y-96887407D01*
X139650989Y-96894367D01*
X137574438Y-96894367D01*
X137557883Y-96862698D01*
X137501264Y-96819974D01*
X137449798Y-96828189D01*
X137430147Y-96875217D01*
X137424520Y-96888683D01*
X136799087Y-96888683D01*
X136807961Y-96865230D01*
X136756386Y-96813146D01*
X136688526Y-96778492D01*
X136624008Y-96782353D01*
X136612596Y-96792074D01*
X136601896Y-96844025D01*
X134309514Y-96844025D01*
X134291701Y-96786009D01*
X134196821Y-96689697D01*
X134061607Y-96641336D01*
X133899864Y-96652480D01*
X133897302Y-96653158D01*
X133824835Y-96678047D01*
X133752356Y-96718621D01*
X133666501Y-96785204D01*
X133553901Y-96888126D01*
X133401188Y-97037711D01*
X133054056Y-97383144D01*
X132936482Y-97279666D01*
X132899999Y-97242709D01*
X132812409Y-97135885D01*
X132708909Y-96993989D01*
X132604903Y-96837561D01*
X132390898Y-96498935D01*
X132454698Y-96434963D01*
X136131305Y-96434963D01*
X136148791Y-96471303D01*
X136157488Y-96477752D01*
X136205684Y-96469672D01*
X136213508Y-96457508D01*
X136190238Y-96429856D01*
X136176297Y-96427258D01*
X136133344Y-96431487D01*
X136131305Y-96434963D01*
X132454698Y-96434963D01*
X132732973Y-96155936D01*
X136728062Y-96155936D01*
X136733168Y-96215299D01*
X136767273Y-96257860D01*
X136808564Y-96253634D01*
X136812562Y-96248932D01*
X136827330Y-96190955D01*
X136827141Y-96189727D01*
X136983338Y-96189727D01*
X136997379Y-96214631D01*
X137031611Y-96229741D01*
X137112511Y-96233051D01*
X137155151Y-96227313D01*
X137166558Y-96219481D01*
X137102989Y-96207893D01*
X137037282Y-96197624D01*
X136987858Y-96189471D01*
X136983338Y-96189727D01*
X136827141Y-96189727D01*
X136817175Y-96125063D01*
X136787644Y-96093672D01*
X136781353Y-96095707D01*
X136771156Y-96099005D01*
X136731212Y-96147286D01*
X136728062Y-96155936D01*
X132732973Y-96155936D01*
X132846204Y-96042399D01*
X132969996Y-95917531D01*
X133112290Y-95770213D01*
X133212242Y-95659627D01*
X133278392Y-95575528D01*
X133319277Y-95507672D01*
X133343436Y-95445810D01*
X133359788Y-95329351D01*
X133339794Y-95237147D01*
X135309680Y-95237147D01*
X135338642Y-95380243D01*
X135428259Y-95530782D01*
X135564697Y-95630225D01*
X135735270Y-95670240D01*
X135809254Y-95659553D01*
X136856312Y-95659553D01*
X136896345Y-95688410D01*
X136912450Y-95687308D01*
X136957428Y-95655987D01*
X136936289Y-95600909D01*
X136914321Y-95584792D01*
X136868842Y-95585463D01*
X136856390Y-95603619D01*
X136856312Y-95659553D01*
X135809254Y-95659553D01*
X135927287Y-95642503D01*
X136037015Y-95596967D01*
X136100121Y-95551602D01*
X137440055Y-95551602D01*
X137442969Y-95582590D01*
X137467198Y-95840245D01*
X137542971Y-96088031D01*
X137707280Y-96372510D01*
X137915913Y-96596721D01*
X138165680Y-96754526D01*
X138456013Y-96845566D01*
X138786343Y-96869484D01*
X138837987Y-96867533D01*
X139115420Y-96833413D01*
X139365477Y-96753323D01*
X139622298Y-96616948D01*
X139727826Y-96547348D01*
X139802663Y-96483587D01*
X140305808Y-96483587D01*
X140344157Y-96477532D01*
X140409222Y-96435107D01*
X140473081Y-96377135D01*
X140493516Y-96346961D01*
X141219180Y-96346961D01*
X141246813Y-96346961D01*
X141246812Y-96319330D01*
X141219181Y-96319330D01*
X141219180Y-96346961D01*
X140493516Y-96346961D01*
X140508358Y-96325045D01*
X140510664Y-96310275D01*
X140484885Y-96308747D01*
X140411278Y-96368212D01*
X140385834Y-96392161D01*
X140325432Y-96454196D01*
X140305808Y-96483587D01*
X139802663Y-96483587D01*
X140028190Y-96291439D01*
X140091672Y-96212375D01*
X141114435Y-96212375D01*
X141136285Y-96264067D01*
X141158470Y-96280016D01*
X141205365Y-96277883D01*
X141213400Y-96260495D01*
X141191549Y-96208803D01*
X141169365Y-96192854D01*
X141156670Y-96193431D01*
X141122470Y-96194988D01*
X141114435Y-96212375D01*
X140091672Y-96212375D01*
X140270217Y-95990006D01*
X140352051Y-95835164D01*
X140858080Y-95835164D01*
X140875417Y-95892671D01*
X140882377Y-95898049D01*
X140929049Y-95891041D01*
X140936983Y-95872563D01*
X140920642Y-95836056D01*
X141520841Y-95836056D01*
X141545902Y-95895215D01*
X141637722Y-95914725D01*
X141697048Y-95931618D01*
X141774633Y-96002814D01*
X141780342Y-96011062D01*
X141832999Y-96062584D01*
X141878144Y-96047208D01*
X141897268Y-96020512D01*
X141905164Y-95942494D01*
X141866884Y-95874688D01*
X141796717Y-95850128D01*
X141796080Y-95849906D01*
X141749176Y-95845551D01*
X141697426Y-95808640D01*
X141692917Y-95800514D01*
X141636776Y-95769382D01*
X141566101Y-95776809D01*
X141523591Y-95820004D01*
X141520841Y-95836056D01*
X140920642Y-95836056D01*
X140913603Y-95820331D01*
X140889890Y-95804570D01*
X140859970Y-95821962D01*
X140858080Y-95835164D01*
X140352051Y-95835164D01*
X140393589Y-95756568D01*
X140570875Y-95756568D01*
X140577503Y-95785432D01*
X140641566Y-95775266D01*
X140655833Y-95771762D01*
X140707941Y-95744702D01*
X140700935Y-95694172D01*
X140683543Y-95663699D01*
X140645353Y-95633146D01*
X140621619Y-95650019D01*
X140585985Y-95714240D01*
X140570875Y-95756568D01*
X140393589Y-95756568D01*
X140449196Y-95651351D01*
X140535078Y-95367520D01*
X141315369Y-95367520D01*
X141320673Y-95419632D01*
X141343224Y-95466753D01*
X141372101Y-95492762D01*
X141410971Y-95464383D01*
X141437990Y-95424763D01*
X141429599Y-95369869D01*
X141362687Y-95351728D01*
X141315369Y-95367520D01*
X140535078Y-95367520D01*
X140560419Y-95283772D01*
X140599177Y-94895567D01*
X140599171Y-94885268D01*
X140588253Y-94780556D01*
X141386152Y-94780556D01*
X141398786Y-94813410D01*
X141415408Y-94826044D01*
X141435628Y-94813410D01*
X141434885Y-94806053D01*
X141398785Y-94776568D01*
X141386152Y-94780556D01*
X140588253Y-94780556D01*
X140564126Y-94549171D01*
X140480086Y-94291688D01*
X141865340Y-94291688D01*
X141882019Y-94317087D01*
X141953605Y-94341059D01*
X142025146Y-94367767D01*
X142085951Y-94416337D01*
X142106715Y-94465424D01*
X142073027Y-94496292D01*
X142050813Y-94496358D01*
X142002379Y-94456951D01*
X141985261Y-94434441D01*
X141918456Y-94411963D01*
X141895611Y-94419273D01*
X141901816Y-94454148D01*
X141965805Y-94526363D01*
X141988941Y-94549314D01*
X142051480Y-94609039D01*
X142078565Y-94630999D01*
X142082652Y-94623691D01*
X142111103Y-94566507D01*
X142156720Y-94472056D01*
X142175964Y-94434602D01*
X142238378Y-94338471D01*
X142293531Y-94284156D01*
X142317756Y-94271174D01*
X142332415Y-94258111D01*
X142276801Y-94268400D01*
X142209932Y-94263068D01*
X142126427Y-94214736D01*
X142107139Y-94196459D01*
X142055524Y-94172059D01*
X142014707Y-94213487D01*
X141983438Y-94252161D01*
X141933404Y-94273603D01*
X141924647Y-94272220D01*
X141866255Y-94290678D01*
X141865340Y-94291688D01*
X140480086Y-94291688D01*
X140466114Y-94248882D01*
X140312225Y-93990284D01*
X140109548Y-93779265D01*
X139997362Y-93706936D01*
X142120402Y-93706936D01*
X142137291Y-93807080D01*
X142151038Y-93846461D01*
X142168499Y-93885808D01*
X142193355Y-93941822D01*
X142224418Y-93969511D01*
X142240618Y-93925394D01*
X142254788Y-93883387D01*
X142314545Y-93819716D01*
X142340512Y-93801859D01*
X142394829Y-93718332D01*
X142380555Y-93623684D01*
X142298743Y-93536738D01*
X142275249Y-93521687D01*
X142209453Y-93494283D01*
X142189049Y-93522325D01*
X142183722Y-93554530D01*
X142153926Y-93606709D01*
X142141335Y-93628755D01*
X142136709Y-93634284D01*
X142120402Y-93706936D01*
X139997362Y-93706936D01*
X139865173Y-93621711D01*
X139586189Y-93523506D01*
X139279685Y-93490536D01*
X138952752Y-93528688D01*
X138679037Y-93621362D01*
X138388403Y-93781417D01*
X138115586Y-93991457D01*
X137878144Y-94237845D01*
X137693632Y-94506938D01*
X137632450Y-94629062D01*
X137524479Y-94927160D01*
X137459747Y-95240957D01*
X137440055Y-95551602D01*
X136100121Y-95551602D01*
X136179898Y-95494252D01*
X136307134Y-95339140D01*
X136408502Y-95158804D01*
X137019184Y-95158804D01*
X137019185Y-95186436D01*
X137046815Y-95186436D01*
X137046816Y-95158804D01*
X137019184Y-95158804D01*
X136408502Y-95158804D01*
X136430879Y-95118994D01*
X136554697Y-94850547D01*
X136641430Y-94619683D01*
X136681390Y-94444349D01*
X136675268Y-94321412D01*
X136623758Y-94247742D01*
X136619229Y-94244780D01*
X136581586Y-94229372D01*
X136530355Y-94229191D01*
X136454067Y-94247748D01*
X136341249Y-94288558D01*
X136180432Y-94355134D01*
X135960144Y-94450987D01*
X135725309Y-94561886D01*
X135541826Y-94671500D01*
X135481101Y-94725983D01*
X135417278Y-94783249D01*
X135342909Y-94907716D01*
X135314636Y-95034527D01*
X135309963Y-95055487D01*
X135309680Y-95237147D01*
X133339794Y-95237147D01*
X133327970Y-95182621D01*
X133310243Y-95157174D01*
X133397820Y-95157174D01*
X133403523Y-95160334D01*
X133454714Y-95158804D01*
X133469735Y-95152418D01*
X133470159Y-95118988D01*
X133461078Y-95112029D01*
X133413266Y-95117356D01*
X133407329Y-95123927D01*
X133397820Y-95157174D01*
X133310243Y-95157174D01*
X133245422Y-95064125D01*
X133154666Y-95008462D01*
X133124815Y-94990154D01*
X132978820Y-94977004D01*
X132953116Y-94981487D01*
X132891608Y-95000845D01*
X132824068Y-95039129D01*
X132738190Y-95105428D01*
X132621667Y-95208824D01*
X132462192Y-95358403D01*
X132299904Y-95509289D01*
X132170203Y-95621328D01*
X132087764Y-95680131D01*
X132049705Y-95687997D01*
X132048886Y-95687077D01*
X132025580Y-95634961D01*
X131987377Y-95524004D01*
X131939386Y-95369879D01*
X131886721Y-95188264D01*
X131857764Y-95082828D01*
X131815194Y-94910120D01*
X133565239Y-94910120D01*
X133565239Y-94937752D01*
X133592871Y-94937751D01*
X133592871Y-94910120D01*
X133565239Y-94910120D01*
X131815194Y-94910120D01*
X131812062Y-94897415D01*
X131789587Y-94764358D01*
X131788347Y-94669010D01*
X131806353Y-94596719D01*
X131807052Y-94595044D01*
X131840123Y-94540851D01*
X132688600Y-94540851D01*
X132697315Y-94607798D01*
X132748957Y-94638410D01*
X132780704Y-94634500D01*
X132811776Y-94597866D01*
X132775438Y-94534792D01*
X132735689Y-94508524D01*
X132695997Y-94520976D01*
X132688600Y-94540851D01*
X131840123Y-94540851D01*
X131857425Y-94512499D01*
X131956209Y-94391518D01*
X132107038Y-94227947D01*
X132189949Y-94143510D01*
X133247111Y-94143510D01*
X133275108Y-94205516D01*
X133302047Y-94242817D01*
X133302740Y-94288410D01*
X133296938Y-94295818D01*
X133302739Y-94343673D01*
X133315237Y-94355579D01*
X133335928Y-94360331D01*
X133361383Y-94325274D01*
X133406179Y-94235106D01*
X133432765Y-94172675D01*
X133432232Y-94121112D01*
X133381699Y-94093797D01*
X133354825Y-94087723D01*
X133279573Y-94098072D01*
X133247111Y-94143510D01*
X132189949Y-94143510D01*
X132313547Y-94017637D01*
X132332568Y-93998279D01*
X133648134Y-93998279D01*
X133648134Y-94025910D01*
X133675765Y-94025910D01*
X133675766Y-93998279D01*
X133648134Y-93998279D01*
X132332568Y-93998279D01*
X132478822Y-93849433D01*
X132714582Y-93591019D01*
X132819948Y-93457425D01*
X133953616Y-93457425D01*
X133953616Y-93569163D01*
X133954527Y-93586328D01*
X133984555Y-93697999D01*
X134043851Y-93811523D01*
X134101402Y-93888032D01*
X134139866Y-93913330D01*
X134169540Y-93889431D01*
X134186569Y-93865075D01*
X134236782Y-93800701D01*
X134252246Y-93745819D01*
X134245479Y-93653829D01*
X134223659Y-93579613D01*
X134180000Y-93535508D01*
X134088003Y-93500199D01*
X133953616Y-93457425D01*
X132819948Y-93457425D01*
X132829237Y-93445648D01*
X134173133Y-93445648D01*
X134200765Y-93445647D01*
X134200765Y-93418016D01*
X134173134Y-93418016D01*
X134173133Y-93445648D01*
X132829237Y-93445648D01*
X132901654Y-93353829D01*
X133049344Y-93122521D01*
X133166962Y-92881754D01*
X133263813Y-92616185D01*
X133349205Y-92310472D01*
X133405950Y-92083601D01*
X133716968Y-92194331D01*
G37*
D12*
%TO.C,X4*%
X122470628Y-99228187D02*
X117441685Y-104257130D01*
X117441685Y-104257130D02*
X126870954Y-113686399D01*
X126062731Y-101922263D02*
X125703520Y-102281474D01*
X125793323Y-102191671D02*
X128846610Y-105244958D01*
X129116018Y-104975551D02*
X126062731Y-101922263D01*
X128756808Y-105334761D02*
X129116018Y-104975551D01*
X131810095Y-108567653D02*
X122470628Y-99228187D01*
X126870954Y-113686399D02*
X131899897Y-108657456D01*
X123138223Y-102407197D02*
G75*
G03*
X123138223Y-102407197I-254503J0D01*
G01*
%TO.C,X3*%
X171872400Y-93654500D02*
X164760400Y-93654500D01*
X164608000Y-93654500D02*
X164658800Y-103814500D01*
X172558200Y-96575500D02*
X172050200Y-96575500D01*
X172177200Y-96575500D02*
X172177200Y-100893500D01*
X172558200Y-100893500D02*
X172558200Y-96575500D01*
X172050200Y-100893500D02*
X172558200Y-100893500D01*
X171923200Y-103814500D02*
X171872400Y-93654500D01*
X164811200Y-103814500D02*
X171923200Y-103814500D01*
X170237400Y-94670500D02*
G75*
G03*
X170237400Y-94670500I-270000J0D01*
G01*
%TO.C,X2*%
X127639700Y-58454800D02*
X127639700Y-65566800D01*
X127639700Y-65566800D02*
X137672700Y-65617600D01*
X130179700Y-57819800D02*
X130179700Y-58327800D01*
X130179700Y-58200800D02*
X134497700Y-58200800D01*
X134497700Y-57819800D02*
X130179700Y-57819800D01*
X134497700Y-58327800D02*
X134497700Y-57819800D01*
X137672700Y-58505600D02*
X127639700Y-58454800D01*
X137672700Y-65617600D02*
X137672700Y-58505600D01*
D13*
%TO.C,U1*%
X111668218Y-113148709D02*
G75*
G03*
X100563352Y-123483654I-2079263J-8899383D01*
G01*
X107231322Y-130692826D02*
G75*
G03*
X118239181Y-120400485I2024542J8867443D01*
G01*
X98511165Y-125417860D02*
X100573582Y-123494625D01*
X99796732Y-126796462D02*
X98511165Y-125417860D01*
X103888722Y-131184584D02*
X105174289Y-132563186D01*
X105174289Y-132563186D02*
X107192825Y-130680870D01*
X113825711Y-111136814D02*
X111668218Y-113148709D01*
X115111278Y-112515416D02*
X113825711Y-111136814D01*
X119203268Y-116903538D02*
X120488835Y-118282140D01*
X120488835Y-118282140D02*
X118228952Y-120389515D01*
%TO.C,G\u002A\u002A\u002A*%
D11*
X145412215Y-68630756D02*
X145479470Y-68666753D01*
X145548037Y-68741203D01*
X145593052Y-68811996D01*
X145632041Y-68959338D01*
X145613947Y-69121314D01*
X145538908Y-69289661D01*
X145464880Y-69386635D01*
X145332998Y-69496296D01*
X145182633Y-69568338D01*
X145028972Y-69596156D01*
X144887203Y-69573143D01*
X144819410Y-69538051D01*
X144725778Y-69442066D01*
X144676404Y-69316073D01*
X144672585Y-69171394D01*
X144715618Y-69019355D01*
X144806800Y-68871280D01*
X144839433Y-68833528D01*
X144989882Y-68707200D01*
X145156649Y-68633346D01*
X145328677Y-68617346D01*
X145412215Y-68630756D01*
G36*
X145412215Y-68630756D02*
G01*
X145479470Y-68666753D01*
X145548037Y-68741203D01*
X145593052Y-68811996D01*
X145632041Y-68959338D01*
X145613947Y-69121314D01*
X145538908Y-69289661D01*
X145464880Y-69386635D01*
X145332998Y-69496296D01*
X145182633Y-69568338D01*
X145028972Y-69596156D01*
X144887203Y-69573143D01*
X144819410Y-69538051D01*
X144725778Y-69442066D01*
X144676404Y-69316073D01*
X144672585Y-69171394D01*
X144715618Y-69019355D01*
X144806800Y-68871280D01*
X144839433Y-68833528D01*
X144989882Y-68707200D01*
X145156649Y-68633346D01*
X145328677Y-68617346D01*
X145412215Y-68630756D01*
G37*
X143914832Y-67134244D02*
X144007366Y-67187313D01*
X144042614Y-67227823D01*
X144105347Y-67357126D01*
X144118096Y-67500538D01*
X144085815Y-67647367D01*
X144013456Y-67786921D01*
X143905970Y-67908507D01*
X143768313Y-68001436D01*
X143605435Y-68055013D01*
X143551032Y-68062421D01*
X143441779Y-68066578D01*
X143361217Y-68056099D01*
X143281909Y-68009604D01*
X143201339Y-67910885D01*
X143150972Y-67783363D01*
X143147940Y-67768112D01*
X143151585Y-67619896D01*
X143206494Y-67465033D01*
X143305476Y-67318125D01*
X143441338Y-67193775D01*
X143514170Y-67154059D01*
X143647038Y-67117859D01*
X143787657Y-67111173D01*
X143914832Y-67134244D01*
G36*
X143914832Y-67134244D02*
G01*
X144007366Y-67187313D01*
X144042614Y-67227823D01*
X144105347Y-67357126D01*
X144118096Y-67500538D01*
X144085815Y-67647367D01*
X144013456Y-67786921D01*
X143905970Y-67908507D01*
X143768313Y-68001436D01*
X143605435Y-68055013D01*
X143551032Y-68062421D01*
X143441779Y-68066578D01*
X143361217Y-68056099D01*
X143281909Y-68009604D01*
X143201339Y-67910885D01*
X143150972Y-67783363D01*
X143147940Y-67768112D01*
X143151585Y-67619896D01*
X143206494Y-67465033D01*
X143305476Y-67318125D01*
X143441338Y-67193775D01*
X143514170Y-67154059D01*
X143647038Y-67117859D01*
X143787657Y-67111173D01*
X143914832Y-67134244D01*
G37*
X145926757Y-66096178D02*
X146132875Y-66114452D01*
X146321714Y-66145125D01*
X146341582Y-66149470D01*
X146454308Y-66177366D01*
X146594883Y-66215838D01*
X146750583Y-66260969D01*
X146908681Y-66308842D01*
X147056455Y-66355542D01*
X147181177Y-66397153D01*
X147270123Y-66429757D01*
X147310567Y-66449440D01*
X147308773Y-66456729D01*
X147269817Y-66486119D01*
X147196252Y-66525913D01*
X147195479Y-66526290D01*
X147076184Y-66603904D01*
X146970787Y-66705200D01*
X146949731Y-66731348D01*
X146909557Y-66793128D01*
X146887809Y-66860156D01*
X146879963Y-66951787D01*
X146881500Y-67087377D01*
X146882348Y-67136573D01*
X146871286Y-67305230D01*
X146832171Y-67430753D01*
X146758771Y-67526837D01*
X146644847Y-67607180D01*
X146593953Y-67636739D01*
X146522291Y-67689506D01*
X146492949Y-67745235D01*
X146499918Y-67822495D01*
X146537190Y-67939853D01*
X146594465Y-68180555D01*
X146601437Y-68437934D01*
X146553570Y-68682206D01*
X146530371Y-68747261D01*
X146495534Y-68818944D01*
X146445357Y-68890795D01*
X146369466Y-68977188D01*
X146257489Y-69092496D01*
X146015600Y-69336341D01*
X146070504Y-69480260D01*
X146121554Y-69639078D01*
X146146881Y-69829453D01*
X146138709Y-69879022D01*
X146118747Y-70000091D01*
X146034674Y-70162794D01*
X145892183Y-70329365D01*
X145763743Y-70450087D01*
X145621076Y-70560082D01*
X145467187Y-70650093D01*
X145445893Y-70662586D01*
X145429581Y-70689142D01*
X145447764Y-70732552D01*
X145504057Y-70808322D01*
X145534473Y-70848801D01*
X145630062Y-71024263D01*
X145665131Y-71202338D01*
X145646632Y-71341050D01*
X145640127Y-71389827D01*
X145555494Y-71593529D01*
X145509633Y-71666130D01*
X145419562Y-71781103D01*
X145309833Y-71902678D01*
X145194593Y-72016289D01*
X145087984Y-72107370D01*
X145004149Y-72161354D01*
X144941915Y-72183941D01*
X144768231Y-72205140D01*
X144577646Y-72178953D01*
X144386482Y-72106821D01*
X144360205Y-72089386D01*
X144288627Y-72028729D01*
X144195830Y-71940296D01*
X144095218Y-71836528D01*
X143987923Y-71717112D01*
X143906482Y-71612195D01*
X143846497Y-71511807D01*
X143794607Y-71396388D01*
X143783488Y-71369599D01*
X143711058Y-71224715D01*
X143617670Y-71086635D01*
X143496305Y-70948028D01*
X143339948Y-70801564D01*
X143141580Y-70639912D01*
X142894184Y-70455738D01*
X142882674Y-70447431D01*
X142754066Y-70353894D01*
X142643597Y-70271213D01*
X142543415Y-70192396D01*
X142445661Y-70110447D01*
X142342479Y-70018373D01*
X142226013Y-69909181D01*
X142088409Y-69775876D01*
X141921809Y-69611464D01*
X141718357Y-69408952D01*
X141614755Y-69305525D01*
X141431317Y-69121521D01*
X141285467Y-68973416D01*
X141171963Y-68855451D01*
X141085569Y-68761865D01*
X141048055Y-68718282D01*
X142710776Y-68718282D01*
X142728212Y-69001973D01*
X142787885Y-69274179D01*
X142888468Y-69503377D01*
X142928416Y-69568913D01*
X143020281Y-69693266D01*
X143124098Y-69788559D01*
X143262037Y-69876965D01*
X143288121Y-69891231D01*
X143510131Y-69978654D01*
X143775098Y-70032259D01*
X144072135Y-70049721D01*
X144354045Y-70048463D01*
X143579803Y-69274908D01*
X143537624Y-69232954D01*
X144348445Y-69232954D01*
X144354855Y-69412050D01*
X144364405Y-69453376D01*
X144439652Y-69633487D01*
X144557672Y-69769016D01*
X144713841Y-69857146D01*
X144903536Y-69895057D01*
X145122135Y-69879932D01*
X145190097Y-69866932D01*
X145263064Y-69848168D01*
X145324838Y-69820537D01*
X145389727Y-69775324D01*
X145472040Y-69703812D01*
X145586085Y-69597284D01*
X145618778Y-69566401D01*
X145724143Y-69464456D01*
X145794965Y-69388495D01*
X145841349Y-69325266D01*
X145873400Y-69261520D01*
X145901223Y-69184003D01*
X145930368Y-69075895D01*
X145948422Y-68871011D01*
X145915730Y-68692005D01*
X145838713Y-68542883D01*
X145723789Y-68427653D01*
X145577377Y-68350319D01*
X145405897Y-68314886D01*
X145215768Y-68325363D01*
X145013409Y-68385753D01*
X144805238Y-68500064D01*
X144768831Y-68526205D01*
X144664746Y-68623459D01*
X144610154Y-68674469D01*
X144482756Y-68850675D01*
X144393299Y-69041333D01*
X144348445Y-69232954D01*
X143537624Y-69232954D01*
X143433337Y-69129224D01*
X143259590Y-68958172D01*
X143103025Y-68805981D01*
X142969143Y-68677903D01*
X142863445Y-68579188D01*
X142791429Y-68515088D01*
X142758598Y-68490855D01*
X142751625Y-68490314D01*
X142728332Y-68514927D01*
X142715208Y-68588574D01*
X142710776Y-68718282D01*
X141048055Y-68718282D01*
X141021043Y-68686900D01*
X140973149Y-68624792D01*
X140936646Y-68569786D01*
X140906295Y-68516117D01*
X140821947Y-68339428D01*
X140741724Y-68095890D01*
X140718040Y-67877105D01*
X140738119Y-67757502D01*
X142831621Y-67757502D01*
X142842253Y-67919424D01*
X142902751Y-68080547D01*
X142934182Y-68137235D01*
X142975421Y-68207031D01*
X142997839Y-68238648D01*
X143053058Y-68274558D01*
X143162911Y-68335303D01*
X143254724Y-68373763D01*
X143257951Y-68374710D01*
X143385171Y-68389389D01*
X143541339Y-68376251D01*
X143701270Y-68339231D01*
X143839781Y-68282271D01*
X143853334Y-68274596D01*
X143979432Y-68185475D01*
X144109103Y-68067816D01*
X144228013Y-67937198D01*
X144321824Y-67809197D01*
X144376200Y-67699392D01*
X144377669Y-67694627D01*
X144407653Y-67551324D01*
X144419631Y-67393469D01*
X144413100Y-67246057D01*
X144387559Y-67134079D01*
X144376144Y-67108241D01*
X144276336Y-66966995D01*
X144135329Y-66866601D01*
X143961942Y-66810153D01*
X143764997Y-66800744D01*
X143553312Y-66841468D01*
X143488796Y-66862921D01*
X143414897Y-66895906D01*
X143345145Y-66942559D01*
X143263838Y-67013909D01*
X143155267Y-67120986D01*
X143037865Y-67245243D01*
X142941523Y-67368304D01*
X142880583Y-67483790D01*
X142846723Y-67608067D01*
X142831621Y-67757502D01*
X140738119Y-67757502D01*
X140751098Y-67680189D01*
X140841099Y-67502260D01*
X140988243Y-67340432D01*
X141086139Y-67261923D01*
X141186057Y-67207226D01*
X141298569Y-67176710D01*
X141322362Y-67173101D01*
X141477140Y-67171335D01*
X141655052Y-67196160D01*
X141829583Y-67242525D01*
X141974220Y-67305381D01*
X142044771Y-67340727D01*
X142088408Y-67341836D01*
X142119036Y-67305380D01*
X142120667Y-67302447D01*
X142234470Y-67104580D01*
X142331046Y-66955543D01*
X142418846Y-66846258D01*
X142506320Y-66767643D01*
X142601921Y-66710621D01*
X142714098Y-66666112D01*
X142912471Y-66624814D01*
X143124144Y-66636173D01*
X143352947Y-66703498D01*
X143523902Y-66771201D01*
X143687774Y-66608095D01*
X143812114Y-66495740D01*
X143941365Y-66413356D01*
X144070130Y-66374897D01*
X144213590Y-66373591D01*
X144224723Y-66374887D01*
X144331348Y-66400005D01*
X144461753Y-66445665D01*
X144594610Y-66502807D01*
X144708593Y-66562367D01*
X144782376Y-66615284D01*
X144784346Y-66617238D01*
X144810084Y-66635255D01*
X144834120Y-66624465D01*
X144865736Y-66575181D01*
X144914218Y-66477718D01*
X144992285Y-66355044D01*
X145140687Y-66222685D01*
X145335021Y-66131126D01*
X145383852Y-66118290D01*
X145534331Y-66097842D01*
X145721270Y-66090556D01*
X145926757Y-66096178D01*
G36*
X145926757Y-66096178D02*
G01*
X146132875Y-66114452D01*
X146321714Y-66145125D01*
X146341582Y-66149470D01*
X146454308Y-66177366D01*
X146594883Y-66215838D01*
X146750583Y-66260969D01*
X146908681Y-66308842D01*
X147056455Y-66355542D01*
X147181177Y-66397153D01*
X147270123Y-66429757D01*
X147310567Y-66449440D01*
X147308773Y-66456729D01*
X147269817Y-66486119D01*
X147196252Y-66525913D01*
X147195479Y-66526290D01*
X147076184Y-66603904D01*
X146970787Y-66705200D01*
X146949731Y-66731348D01*
X146909557Y-66793128D01*
X146887809Y-66860156D01*
X146879963Y-66951787D01*
X146881500Y-67087377D01*
X146882348Y-67136573D01*
X146871286Y-67305230D01*
X146832171Y-67430753D01*
X146758771Y-67526837D01*
X146644847Y-67607180D01*
X146593953Y-67636739D01*
X146522291Y-67689506D01*
X146492949Y-67745235D01*
X146499918Y-67822495D01*
X146537190Y-67939853D01*
X146594465Y-68180555D01*
X146601437Y-68437934D01*
X146553570Y-68682206D01*
X146530371Y-68747261D01*
X146495534Y-68818944D01*
X146445357Y-68890795D01*
X146369466Y-68977188D01*
X146257489Y-69092496D01*
X146015600Y-69336341D01*
X146070504Y-69480260D01*
X146121554Y-69639078D01*
X146146881Y-69829453D01*
X146138709Y-69879022D01*
X146118747Y-70000091D01*
X146034674Y-70162794D01*
X145892183Y-70329365D01*
X145763743Y-70450087D01*
X145621076Y-70560082D01*
X145467187Y-70650093D01*
X145445893Y-70662586D01*
X145429581Y-70689142D01*
X145447764Y-70732552D01*
X145504057Y-70808322D01*
X145534473Y-70848801D01*
X145630062Y-71024263D01*
X145665131Y-71202338D01*
X145646632Y-71341050D01*
X145640127Y-71389827D01*
X145555494Y-71593529D01*
X145509633Y-71666130D01*
X145419562Y-71781103D01*
X145309833Y-71902678D01*
X145194593Y-72016289D01*
X145087984Y-72107370D01*
X145004149Y-72161354D01*
X144941915Y-72183941D01*
X144768231Y-72205140D01*
X144577646Y-72178953D01*
X144386482Y-72106821D01*
X144360205Y-72089386D01*
X144288627Y-72028729D01*
X144195830Y-71940296D01*
X144095218Y-71836528D01*
X143987923Y-71717112D01*
X143906482Y-71612195D01*
X143846497Y-71511807D01*
X143794607Y-71396388D01*
X143783488Y-71369599D01*
X143711058Y-71224715D01*
X143617670Y-71086635D01*
X143496305Y-70948028D01*
X143339948Y-70801564D01*
X143141580Y-70639912D01*
X142894184Y-70455738D01*
X142882674Y-70447431D01*
X142754066Y-70353894D01*
X142643597Y-70271213D01*
X142543415Y-70192396D01*
X142445661Y-70110447D01*
X142342479Y-70018373D01*
X142226013Y-69909181D01*
X142088409Y-69775876D01*
X141921809Y-69611464D01*
X141718357Y-69408952D01*
X141614755Y-69305525D01*
X141431317Y-69121521D01*
X141285467Y-68973416D01*
X141171963Y-68855451D01*
X141085569Y-68761865D01*
X141048055Y-68718282D01*
X142710776Y-68718282D01*
X142728212Y-69001973D01*
X142787885Y-69274179D01*
X142888468Y-69503377D01*
X142928416Y-69568913D01*
X143020281Y-69693266D01*
X143124098Y-69788559D01*
X143262037Y-69876965D01*
X143288121Y-69891231D01*
X143510131Y-69978654D01*
X143775098Y-70032259D01*
X144072135Y-70049721D01*
X144354045Y-70048463D01*
X143579803Y-69274908D01*
X143537624Y-69232954D01*
X144348445Y-69232954D01*
X144354855Y-69412050D01*
X144364405Y-69453376D01*
X144439652Y-69633487D01*
X144557672Y-69769016D01*
X144713841Y-69857146D01*
X144903536Y-69895057D01*
X145122135Y-69879932D01*
X145190097Y-69866932D01*
X145263064Y-69848168D01*
X145324838Y-69820537D01*
X145389727Y-69775324D01*
X145472040Y-69703812D01*
X145586085Y-69597284D01*
X145618778Y-69566401D01*
X145724143Y-69464456D01*
X145794965Y-69388495D01*
X145841349Y-69325266D01*
X145873400Y-69261520D01*
X145901223Y-69184003D01*
X145930368Y-69075895D01*
X145948422Y-68871011D01*
X145915730Y-68692005D01*
X145838713Y-68542883D01*
X145723789Y-68427653D01*
X145577377Y-68350319D01*
X145405897Y-68314886D01*
X145215768Y-68325363D01*
X145013409Y-68385753D01*
X144805238Y-68500064D01*
X144768831Y-68526205D01*
X144664746Y-68623459D01*
X144610154Y-68674469D01*
X144482756Y-68850675D01*
X144393299Y-69041333D01*
X144348445Y-69232954D01*
X143537624Y-69232954D01*
X143433337Y-69129224D01*
X143259590Y-68958172D01*
X143103025Y-68805981D01*
X142969143Y-68677903D01*
X142863445Y-68579188D01*
X142791429Y-68515088D01*
X142758598Y-68490855D01*
X142751625Y-68490314D01*
X142728332Y-68514927D01*
X142715208Y-68588574D01*
X142710776Y-68718282D01*
X141048055Y-68718282D01*
X141021043Y-68686900D01*
X140973149Y-68624792D01*
X140936646Y-68569786D01*
X140906295Y-68516117D01*
X140821947Y-68339428D01*
X140741724Y-68095890D01*
X140718040Y-67877105D01*
X140738119Y-67757502D01*
X142831621Y-67757502D01*
X142842253Y-67919424D01*
X142902751Y-68080547D01*
X142934182Y-68137235D01*
X142975421Y-68207031D01*
X142997839Y-68238648D01*
X143053058Y-68274558D01*
X143162911Y-68335303D01*
X143254724Y-68373763D01*
X143257951Y-68374710D01*
X143385171Y-68389389D01*
X143541339Y-68376251D01*
X143701270Y-68339231D01*
X143839781Y-68282271D01*
X143853334Y-68274596D01*
X143979432Y-68185475D01*
X144109103Y-68067816D01*
X144228013Y-67937198D01*
X144321824Y-67809197D01*
X144376200Y-67699392D01*
X144377669Y-67694627D01*
X144407653Y-67551324D01*
X144419631Y-67393469D01*
X144413100Y-67246057D01*
X144387559Y-67134079D01*
X144376144Y-67108241D01*
X144276336Y-66966995D01*
X144135329Y-66866601D01*
X143961942Y-66810153D01*
X143764997Y-66800744D01*
X143553312Y-66841468D01*
X143488796Y-66862921D01*
X143414897Y-66895906D01*
X143345145Y-66942559D01*
X143263838Y-67013909D01*
X143155267Y-67120986D01*
X143037865Y-67245243D01*
X142941523Y-67368304D01*
X142880583Y-67483790D01*
X142846723Y-67608067D01*
X142831621Y-67757502D01*
X140738119Y-67757502D01*
X140751098Y-67680189D01*
X140841099Y-67502260D01*
X140988243Y-67340432D01*
X141086139Y-67261923D01*
X141186057Y-67207226D01*
X141298569Y-67176710D01*
X141322362Y-67173101D01*
X141477140Y-67171335D01*
X141655052Y-67196160D01*
X141829583Y-67242525D01*
X141974220Y-67305381D01*
X142044771Y-67340727D01*
X142088408Y-67341836D01*
X142119036Y-67305380D01*
X142120667Y-67302447D01*
X142234470Y-67104580D01*
X142331046Y-66955543D01*
X142418846Y-66846258D01*
X142506320Y-66767643D01*
X142601921Y-66710621D01*
X142714098Y-66666112D01*
X142912471Y-66624814D01*
X143124144Y-66636173D01*
X143352947Y-66703498D01*
X143523902Y-66771201D01*
X143687774Y-66608095D01*
X143812114Y-66495740D01*
X143941365Y-66413356D01*
X144070130Y-66374897D01*
X144213590Y-66373591D01*
X144224723Y-66374887D01*
X144331348Y-66400005D01*
X144461753Y-66445665D01*
X144594610Y-66502807D01*
X144708593Y-66562367D01*
X144782376Y-66615284D01*
X144784346Y-66617238D01*
X144810084Y-66635255D01*
X144834120Y-66624465D01*
X144865736Y-66575181D01*
X144914218Y-66477718D01*
X144992285Y-66355044D01*
X145140687Y-66222685D01*
X145335021Y-66131126D01*
X145383852Y-66118290D01*
X145534331Y-66097842D01*
X145721270Y-66090556D01*
X145926757Y-66096178D01*
G37*
D13*
%TO.C,SW1*%
X102967200Y-142957400D02*
X102967200Y-143747400D01*
X102367200Y-144757400D02*
X96667200Y-144757400D01*
X101117200Y-141907400D02*
X99417200Y-141907400D01*
X98117200Y-141907400D02*
X97917200Y-141907400D01*
X96067200Y-143747400D02*
X96067200Y-142957400D01*
%TD*%
M02*
