%TF.GenerationSoftware,KiCad,Pcbnew,7.0.11*%
%TF.CreationDate,2024-07-23T21:54:52-05:00*%
%TF.ProjectId,Project Narsil Sword,50726f6a-6563-4742-904e-617273696c20,rev?*%
%TF.SameCoordinates,Original*%
%TF.FileFunction,Legend,Top*%
%TF.FilePolarity,Positive*%
%FSLAX46Y46*%
G04 Gerber Fmt 4.6, Leading zero omitted, Abs format (unit mm)*
G04 Created by KiCad (PCBNEW 7.0.11) date 2024-07-23 21:54:52*
%MOMM*%
%LPD*%
G01*
G04 APERTURE LIST*
%ADD10C,0.150000*%
G04 APERTURE END LIST*
D10*
X198840000Y-28960000D02*
G75*
G03*
X191312318Y-28960000I-3763841J0D01*
G01*
X191312318Y-28960000D02*
G75*
G03*
X198840000Y-28960000I3763841J0D01*
G01*
X122560000Y-39500000D02*
X122510000Y-54390000D01*
X137730000Y-39600000D02*
X122560000Y-39500000D01*
X137620000Y-47230000D02*
X137730000Y-39600000D01*
X152890000Y-47470000D02*
X137620000Y-47230000D01*
X152690000Y-54930000D02*
X152890000Y-47470000D01*
X161290000Y-54990000D02*
X152690000Y-54930000D01*
X161330000Y-47570000D02*
X161290000Y-54990000D01*
X168800000Y-47610000D02*
X161330000Y-47570000D01*
X168860000Y-39650000D02*
X168800000Y-47610000D01*
X176710000Y-39500000D02*
X168860000Y-39650000D01*
X176630000Y-24690000D02*
X176710000Y-39500000D01*
X199230000Y-24790000D02*
X176630000Y-24690000D01*
X199130000Y-47480000D02*
X199230000Y-24790000D01*
X183670000Y-47300000D02*
X199130000Y-47480000D01*
X183800000Y-54740000D02*
X183670000Y-47300000D01*
X176290000Y-54670000D02*
X183800000Y-54740000D01*
X176320000Y-62450000D02*
X176290000Y-54670000D01*
X168360000Y-62440000D02*
X176320000Y-62450000D01*
X168280000Y-70030000D02*
X168360000Y-62440000D01*
X176320000Y-70090000D02*
X168280000Y-70030000D01*
X176200000Y-85030000D02*
X176320000Y-70090000D01*
X183840000Y-84960000D02*
X176200000Y-85030000D01*
X183760000Y-100030000D02*
X183840000Y-84960000D01*
X168400000Y-99910000D02*
X183760000Y-100030000D01*
X168340000Y-92580000D02*
X168400000Y-99910000D01*
X160920000Y-92580000D02*
X168340000Y-92580000D01*
X161100000Y-84850000D02*
X160920000Y-92580000D01*
X152870000Y-84760000D02*
X161100000Y-84850000D01*
X153070000Y-93190000D02*
X152870000Y-84760000D01*
X146110000Y-93090000D02*
X153070000Y-93190000D01*
X146110000Y-100420000D02*
X146110000Y-93090000D01*
X138000000Y-100320000D02*
X146110000Y-100420000D01*
X137770000Y-107920000D02*
X138000000Y-100320000D01*
X130340000Y-107750000D02*
X137770000Y-107920000D01*
X130370000Y-115310000D02*
X130340000Y-107750000D01*
X122670000Y-115380000D02*
X130370000Y-115310000D01*
X122610000Y-122970000D02*
X122670000Y-115380000D01*
X115020000Y-123000000D02*
X122610000Y-122970000D01*
X114950000Y-130290000D02*
X115020000Y-123000000D01*
X106930000Y-130310000D02*
X114950000Y-130290000D01*
X106880000Y-137550000D02*
X106930000Y-130310000D01*
X98880000Y-137530000D02*
X106880000Y-137550000D01*
X98970000Y-144860000D02*
X98880000Y-137530000D01*
X91030000Y-144680000D02*
X98970000Y-144860000D01*
X91030000Y-152370000D02*
X91030000Y-144680000D01*
X68410000Y-152340000D02*
X91030000Y-152370000D01*
X68550000Y-129510000D02*
X68410000Y-152340000D01*
X75840000Y-129570000D02*
X68550000Y-129510000D01*
X75900000Y-122450000D02*
X75840000Y-129570000D01*
X83820000Y-122540000D02*
X75900000Y-122450000D01*
X83730000Y-114710000D02*
X83820000Y-122540000D01*
X91120000Y-114490000D02*
X83730000Y-114710000D01*
X91040000Y-107270000D02*
X91120000Y-114490000D01*
X99170000Y-107310000D02*
X91040000Y-107270000D01*
X99230000Y-99570000D02*
X99170000Y-107310000D01*
X106700000Y-99550000D02*
X99230000Y-99570000D01*
X106740000Y-92370000D02*
X106700000Y-99550000D01*
X114680000Y-92340000D02*
X106740000Y-92370000D01*
X114680000Y-84640000D02*
X114680000Y-92340000D01*
X122180000Y-84660000D02*
X114680000Y-84640000D01*
X122180000Y-77190000D02*
X122180000Y-84660000D01*
X129920000Y-77250000D02*
X122180000Y-77190000D01*
X129950000Y-69460000D02*
X129920000Y-77250000D01*
X137780000Y-69390000D02*
X129950000Y-69460000D01*
X137860000Y-62280000D02*
X137780000Y-69390000D01*
X130240000Y-62250000D02*
X137860000Y-62280000D01*
X130480000Y-54420000D02*
X130240000Y-62250000D01*
X122510000Y-54390000D02*
X130480000Y-54420000D01*
M02*
