%TF.GenerationSoftware,KiCad,Pcbnew,(6.0.1)*%
%TF.CreationDate,2022-06-11T11:37:23-05:00*%
%TF.ProjectId,Project Narsil Sword,50726f6a-6563-4742-904e-617273696c20,rev?*%
%TF.SameCoordinates,Original*%
%TF.FileFunction,Copper,L1,Top*%
%TF.FilePolarity,Positive*%
%FSLAX46Y46*%
G04 Gerber Fmt 4.6, Leading zero omitted, Abs format (unit mm)*
G04 Created by KiCad (PCBNEW (6.0.1)) date 2022-06-11 11:37:23*
%MOMM*%
%LPD*%
G01*
G04 APERTURE LIST*
G04 Aperture macros list*
%AMHorizOval*
0 Thick line with rounded ends*
0 $1 width*
0 $2 $3 position (X,Y) of the first rounded end (center of the circle)*
0 $4 $5 position (X,Y) of the second rounded end (center of the circle)*
0 Add line between two ends*
20,1,$1,$2,$3,$4,$5,0*
0 Add two circle primitives to create the rounded ends*
1,1,$1,$2,$3*
1,1,$1,$4,$5*%
%AMRotRect*
0 Rectangle, with rotation*
0 The origin of the aperture is its center*
0 $1 length*
0 $2 width*
0 $3 Rotation angle, in degrees counterclockwise*
0 Add horizontal line*
21,1,$1,$2,0,0,$3*%
G04 Aperture macros list end*
%TA.AperFunction,ComponentPad*%
%ADD10R,1.727200X1.727200*%
%TD*%
%TA.AperFunction,ComponentPad*%
%ADD11O,1.727200X1.727200*%
%TD*%
%TA.AperFunction,ComponentPad*%
%ADD12C,1.727200*%
%TD*%
%TA.AperFunction,ComponentPad*%
%ADD13RotRect,1.727200X1.727200X225.000000*%
%TD*%
%TA.AperFunction,ComponentPad*%
%ADD14HorizOval,1.727200X0.000000X0.000000X0.000000X0.000000X0*%
%TD*%
%TA.AperFunction,ComponentPad*%
%ADD15C,6.000000*%
%TD*%
G04 APERTURE END LIST*
D10*
%TO.P,X3,2,GND*%
%TO.N,GND*%
X167001000Y-96330700D03*
D11*
%TO.P,X3,1,VCC*%
%TO.N,VCC*%
X169541000Y-96330700D03*
%TO.P,X3,4,SCL*%
%TO.N,unconnected-(X3-Pad4)*%
X167001000Y-98870700D03*
%TO.P,X3,3,SDA*%
%TO.N,unconnected-(X3-Pad3)*%
X169541000Y-98870700D03*
D12*
%TO.P,X3,6,GPIO2*%
%TO.N,unconnected-(X3-Pad6)*%
X167001000Y-101410700D03*
%TO.P,X3,5,GPIO1*%
%TO.N,unconnected-(X3-Pad5)*%
X169541000Y-101410700D03*
%TD*%
D10*
%TO.P,X5,2,GND*%
%TO.N,GND*%
X90505600Y-132673400D03*
D11*
%TO.P,X5,1,VCC*%
%TO.N,VCC*%
X93045600Y-132673400D03*
%TO.P,X5,4,SCL*%
%TO.N,unconnected-(X5-Pad4)*%
X90505600Y-135213400D03*
%TO.P,X5,3,SDA*%
%TO.N,unconnected-(X5-Pad3)*%
X93045600Y-135213400D03*
D12*
%TO.P,X5,6,GPIO2*%
%TO.N,unconnected-(X5-Pad6)*%
X90505600Y-137753400D03*
%TO.P,X5,5,GPIO1*%
%TO.N,unconnected-(X5-Pad5)*%
X93045600Y-137753400D03*
%TD*%
D13*
%TO.P,X1,2,GND*%
%TO.N,GND*%
X151207936Y-76663188D03*
D14*
%TO.P,X1,1,VCC*%
%TO.N,VCC*%
X153003987Y-74867136D03*
%TO.P,X1,4,SCL*%
%TO.N,unconnected-(X1-Pad4)*%
X153003987Y-78459239D03*
%TO.P,X1,3,SDA*%
%TO.N,unconnected-(X1-Pad3)*%
X154800039Y-76663188D03*
D12*
%TO.P,X1,6,GPIO2*%
%TO.N,unconnected-(X1-Pad6)*%
X154800039Y-80255290D03*
%TO.P,X1,5,GPIO1*%
%TO.N,unconnected-(X1-Pad5)*%
X156596090Y-78459239D03*
%TD*%
%TO.P,X2,5,GPIO1*%
%TO.N,unconnected-(X2-Pad5)*%
X135014900Y-60837000D03*
%TO.P,X2,6,GPIO2*%
%TO.N,unconnected-(X2-Pad6)*%
X135014900Y-63377000D03*
D11*
%TO.P,X2,3,SDA*%
%TO.N,unconnected-(X2-Pad3)*%
X132474900Y-60837000D03*
%TO.P,X2,4,SCL*%
%TO.N,unconnected-(X2-Pad4)*%
X132474900Y-63377000D03*
%TO.P,X2,1,VCC*%
%TO.N,VCC*%
X129934900Y-60837000D03*
D10*
%TO.P,X2,2,GND*%
%TO.N,GND*%
X129934900Y-63377000D03*
%TD*%
%TO.P,X4,2,GND*%
%TO.N,GND*%
X119470100Y-110011400D03*
D11*
%TO.P,X4,1,VCC*%
%TO.N,VCC*%
X119470100Y-107471400D03*
%TO.P,X4,4,SCL*%
%TO.N,unconnected-(X4-Pad4)*%
X122010100Y-110011400D03*
%TO.P,X4,3,SDA*%
%TO.N,unconnected-(X4-Pad3)*%
X122010100Y-107471400D03*
D12*
%TO.P,X4,6,GPIO2*%
%TO.N,unconnected-(X4-Pad6)*%
X124550100Y-110011400D03*
%TO.P,X4,5,GPIO1*%
%TO.N,unconnected-(X4-Pad5)*%
X124550100Y-107471400D03*
%TD*%
D15*
%TO.P,REF\u002A\u002A,1*%
%TO.N,N/C*%
X181457600Y-49530000D03*
%TD*%
%TA.AperFunction,Conductor*%
%TO.N,GND*%
G36*
X182701719Y-45744800D02*
G01*
X182716805Y-45746595D01*
X182736954Y-45748993D01*
X182745801Y-45747510D01*
X182745810Y-45747510D01*
X182753780Y-45746174D01*
X182777852Y-45744483D01*
X183020878Y-45750749D01*
X183036382Y-45752110D01*
X183064070Y-45756277D01*
X183303530Y-45792316D01*
X183318735Y-45795577D01*
X183578874Y-45868408D01*
X183593566Y-45873519D01*
X183657523Y-45900302D01*
X183842752Y-45977871D01*
X183856709Y-45984758D01*
X184091121Y-46119031D01*
X184104123Y-46127587D01*
X184320187Y-46289732D01*
X184332034Y-46299824D01*
X184353393Y-46320427D01*
X184526470Y-46487379D01*
X184536968Y-46498839D01*
X184706807Y-46708946D01*
X184715818Y-46721623D01*
X184858446Y-46951047D01*
X184865830Y-46964746D01*
X184964830Y-47179133D01*
X184979084Y-47210001D01*
X184984724Y-47224508D01*
X185066875Y-47481853D01*
X185070684Y-47496943D01*
X185120485Y-47762466D01*
X185122403Y-47777911D01*
X185136971Y-48013341D01*
X185135778Y-48039093D01*
X185135765Y-48040170D01*
X185134383Y-48049044D01*
X185136843Y-48067853D01*
X185138308Y-48079056D01*
X185139371Y-48095988D01*
X185138345Y-48312670D01*
X185136289Y-48746786D01*
X185115964Y-48814811D01*
X185062089Y-48861049D01*
X184991768Y-48870820D01*
X184927328Y-48841022D01*
X184888583Y-48778800D01*
X184799817Y-48447519D01*
X184798961Y-48444326D01*
X184667173Y-48101006D01*
X184640697Y-48049044D01*
X184501719Y-47776284D01*
X184501715Y-47776277D01*
X184500220Y-47773343D01*
X184493157Y-47762466D01*
X184301734Y-47467700D01*
X184299932Y-47464925D01*
X184068502Y-47179133D01*
X183808467Y-46919098D01*
X183522675Y-46687668D01*
X183419126Y-46620423D01*
X183217027Y-46489178D01*
X183217024Y-46489176D01*
X183214258Y-46487380D01*
X183211324Y-46485885D01*
X183211317Y-46485881D01*
X182889534Y-46321925D01*
X182886594Y-46320427D01*
X182543274Y-46188639D01*
X182188059Y-46093459D01*
X181995042Y-46062888D01*
X181828089Y-46036445D01*
X181828081Y-46036444D01*
X181824841Y-46035931D01*
X181457600Y-46016685D01*
X181090359Y-46035931D01*
X181087119Y-46036444D01*
X181087111Y-46036445D01*
X180920158Y-46062888D01*
X180727141Y-46093459D01*
X180371926Y-46188639D01*
X180028606Y-46320427D01*
X180025666Y-46321925D01*
X179703884Y-46485881D01*
X179703877Y-46485885D01*
X179700943Y-46487380D01*
X179698177Y-46489176D01*
X179698174Y-46489178D01*
X179494082Y-46621716D01*
X179392525Y-46687668D01*
X179106733Y-46919098D01*
X178846698Y-47179133D01*
X178615268Y-47464925D01*
X178613466Y-47467700D01*
X178422044Y-47762466D01*
X178414980Y-47773343D01*
X178413485Y-47776277D01*
X178413481Y-47776284D01*
X178274503Y-48049044D01*
X178248027Y-48101006D01*
X178116239Y-48444326D01*
X178021059Y-48799541D01*
X177963531Y-49162759D01*
X177944285Y-49530000D01*
X177963531Y-49897241D01*
X178021059Y-50260459D01*
X178116239Y-50615674D01*
X178248027Y-50958994D01*
X178414980Y-51286657D01*
X178615268Y-51595075D01*
X178846698Y-51880867D01*
X179106733Y-52140902D01*
X179392525Y-52372332D01*
X179700942Y-52572620D01*
X179703876Y-52574115D01*
X179703883Y-52574119D01*
X180025666Y-52738075D01*
X180028606Y-52739573D01*
X180371926Y-52871361D01*
X180727141Y-52966541D01*
X180920158Y-52997112D01*
X181087111Y-53023555D01*
X181087119Y-53023556D01*
X181090359Y-53024069D01*
X181457600Y-53043315D01*
X181824841Y-53024069D01*
X181828081Y-53023556D01*
X181828089Y-53023555D01*
X181995042Y-52997112D01*
X182188059Y-52966541D01*
X182543274Y-52871361D01*
X182886594Y-52739573D01*
X182889534Y-52738075D01*
X183211317Y-52574119D01*
X183211324Y-52574115D01*
X183214258Y-52572620D01*
X183522675Y-52372332D01*
X183808467Y-52140902D01*
X184068502Y-51880867D01*
X184299932Y-51595075D01*
X184500220Y-51286657D01*
X184667173Y-50958994D01*
X184798961Y-50615674D01*
X184881028Y-50309398D01*
X184917980Y-50248775D01*
X184981841Y-50217754D01*
X185052335Y-50226182D01*
X185107082Y-50271385D01*
X185128734Y-50342605D01*
X185067424Y-63291900D01*
X185067393Y-63298397D01*
X185047068Y-63366422D01*
X184993193Y-63412660D01*
X184941394Y-63423800D01*
X173973909Y-63423800D01*
X173970890Y-63423764D01*
X173913014Y-63422377D01*
X173913013Y-63422377D01*
X173904038Y-63422162D01*
X173895365Y-63424474D01*
X173895358Y-63424475D01*
X173870012Y-63431232D01*
X173855420Y-63434211D01*
X173829446Y-63437931D01*
X173829441Y-63437933D01*
X173820555Y-63439205D01*
X173812383Y-63442920D01*
X173812378Y-63442922D01*
X173802390Y-63447463D01*
X173782697Y-63454510D01*
X173763433Y-63459645D01*
X173755753Y-63464301D01*
X173733320Y-63477901D01*
X173720148Y-63484857D01*
X173696266Y-63495715D01*
X173696263Y-63495717D01*
X173688090Y-63499433D01*
X173681288Y-63505294D01*
X173672983Y-63512450D01*
X173656058Y-63524741D01*
X173646676Y-63530429D01*
X173646674Y-63530431D01*
X173639000Y-63535083D01*
X173632942Y-63541701D01*
X173624737Y-63550664D01*
X173563986Y-63587403D01*
X173494246Y-63585499D01*
X173506277Y-63599509D01*
X173516066Y-63669828D01*
X173505810Y-63704188D01*
X173503588Y-63708996D01*
X173498707Y-63716527D01*
X173496136Y-63725124D01*
X173496135Y-63725126D01*
X173492993Y-63735633D01*
X173485356Y-63755107D01*
X173480516Y-63764954D01*
X173480514Y-63764959D01*
X173476558Y-63773009D01*
X173475020Y-63781846D01*
X173475019Y-63781849D01*
X173470519Y-63807708D01*
X173467103Y-63822202D01*
X173457013Y-63855941D01*
X173456958Y-63864917D01*
X173456958Y-63864918D01*
X173456569Y-63928518D01*
X173456551Y-63929997D01*
X173441869Y-64752196D01*
X173367162Y-68935856D01*
X173366201Y-68989650D01*
X173344986Y-69057402D01*
X173290509Y-69102930D01*
X173240221Y-69113400D01*
X168283702Y-69113400D01*
X168282932Y-69113398D01*
X168282078Y-69113393D01*
X168205348Y-69112924D01*
X168196719Y-69115390D01*
X168196714Y-69115391D01*
X168176952Y-69121039D01*
X168160191Y-69124617D01*
X168139848Y-69127530D01*
X168139838Y-69127533D01*
X168130955Y-69128805D01*
X168107605Y-69139421D01*
X168090093Y-69145864D01*
X168077200Y-69149549D01*
X168065435Y-69152912D01*
X168040452Y-69168674D01*
X168025386Y-69176804D01*
X167998490Y-69189033D01*
X167979061Y-69205774D01*
X167964053Y-69216879D01*
X167948761Y-69226527D01*
X167948759Y-69226528D01*
X167942367Y-69230561D01*
X167941785Y-69229638D01*
X167884570Y-69255152D01*
X167846314Y-69249303D01*
X167854773Y-69308132D01*
X167844112Y-69343744D01*
X167833487Y-69366372D01*
X167825176Y-69381335D01*
X167809107Y-69406127D01*
X167806535Y-69414727D01*
X167801761Y-69430690D01*
X167795099Y-69448136D01*
X167784201Y-69471348D01*
X167779658Y-69500528D01*
X167775874Y-69517249D01*
X167769986Y-69536936D01*
X167769985Y-69536939D01*
X167767413Y-69545541D01*
X167767358Y-69554516D01*
X167767358Y-69554517D01*
X167767203Y-69579946D01*
X167767170Y-69580728D01*
X167767000Y-69581823D01*
X167767000Y-69612698D01*
X167766998Y-69613468D01*
X167766524Y-69691052D01*
X167766908Y-69692396D01*
X167767000Y-69693741D01*
X167767000Y-74905600D01*
X167746998Y-74973721D01*
X167693342Y-75020214D01*
X167641000Y-75031600D01*
X162441702Y-75031600D01*
X162440932Y-75031598D01*
X162440078Y-75031593D01*
X162363348Y-75031124D01*
X162354719Y-75033590D01*
X162354714Y-75033591D01*
X162334952Y-75039239D01*
X162318191Y-75042817D01*
X162297848Y-75045730D01*
X162297838Y-75045733D01*
X162288955Y-75047005D01*
X162265605Y-75057621D01*
X162248093Y-75064064D01*
X162235200Y-75067749D01*
X162223435Y-75071112D01*
X162198452Y-75086874D01*
X162183386Y-75095004D01*
X162156490Y-75107233D01*
X162137061Y-75123974D01*
X162122053Y-75135079D01*
X162100369Y-75148760D01*
X162089396Y-75161185D01*
X162080819Y-75170896D01*
X162068626Y-75182941D01*
X162056385Y-75193489D01*
X162046253Y-75202219D01*
X162041374Y-75209747D01*
X162041371Y-75209750D01*
X162032304Y-75223739D01*
X162021014Y-75238613D01*
X162004044Y-75257828D01*
X161991488Y-75284571D01*
X161983176Y-75299535D01*
X161967107Y-75324327D01*
X161964535Y-75332927D01*
X161959761Y-75348890D01*
X161953099Y-75366336D01*
X161942201Y-75389548D01*
X161940820Y-75398421D01*
X161937658Y-75418728D01*
X161933874Y-75435449D01*
X161927986Y-75455136D01*
X161927985Y-75455139D01*
X161925413Y-75463741D01*
X161925358Y-75472716D01*
X161925358Y-75472717D01*
X161925203Y-75498146D01*
X161925170Y-75498928D01*
X161925000Y-75500023D01*
X161925000Y-75530898D01*
X161924998Y-75531668D01*
X161924524Y-75609252D01*
X161924908Y-75610596D01*
X161925000Y-75611941D01*
X161925000Y-80229898D01*
X161924998Y-80230668D01*
X161924524Y-80308252D01*
X161926990Y-80316881D01*
X161926991Y-80316886D01*
X161932639Y-80336648D01*
X161936217Y-80353409D01*
X161939130Y-80373752D01*
X161939133Y-80373762D01*
X161940405Y-80382645D01*
X161951021Y-80405995D01*
X161957464Y-80423507D01*
X161964512Y-80448165D01*
X161980274Y-80473148D01*
X161988404Y-80488214D01*
X162000633Y-80515110D01*
X162017374Y-80534539D01*
X162028479Y-80549547D01*
X162042160Y-80571231D01*
X162048888Y-80577173D01*
X162064296Y-80590781D01*
X162076341Y-80602974D01*
X162086827Y-80615143D01*
X162095619Y-80625347D01*
X162103147Y-80630226D01*
X162103150Y-80630229D01*
X162117139Y-80639296D01*
X162132013Y-80650586D01*
X162151228Y-80667556D01*
X162159354Y-80671371D01*
X162159355Y-80671372D01*
X162165021Y-80674032D01*
X162177966Y-80680110D01*
X162192935Y-80688424D01*
X162217727Y-80704493D01*
X162226327Y-80707065D01*
X162242290Y-80711839D01*
X162259736Y-80718501D01*
X162282948Y-80729399D01*
X162312130Y-80733943D01*
X162328849Y-80737726D01*
X162348536Y-80743614D01*
X162348539Y-80743615D01*
X162357141Y-80746187D01*
X162366116Y-80746242D01*
X162366117Y-80746242D01*
X162372810Y-80746283D01*
X162391556Y-80746397D01*
X162392328Y-80746430D01*
X162393423Y-80746600D01*
X162424298Y-80746600D01*
X162425068Y-80746602D01*
X162498716Y-80747052D01*
X162498717Y-80747052D01*
X162502652Y-80747076D01*
X162503996Y-80746692D01*
X162505341Y-80746600D01*
X167691800Y-80746600D01*
X167759921Y-80766602D01*
X167806414Y-80820258D01*
X167817800Y-80872600D01*
X167817800Y-91837698D01*
X167817798Y-91838468D01*
X167817324Y-91916052D01*
X167819790Y-91924681D01*
X167819791Y-91924686D01*
X167825439Y-91944448D01*
X167829017Y-91961209D01*
X167831930Y-91981552D01*
X167831933Y-91981562D01*
X167833205Y-91990445D01*
X167843821Y-92013795D01*
X167850264Y-92031307D01*
X167857312Y-92055965D01*
X167873074Y-92080948D01*
X167881204Y-92096014D01*
X167893433Y-92122910D01*
X167910174Y-92142339D01*
X167921279Y-92157347D01*
X167934960Y-92179031D01*
X167941688Y-92184973D01*
X167957096Y-92198581D01*
X167969140Y-92210773D01*
X167988419Y-92233147D01*
X167995947Y-92238026D01*
X167995950Y-92238029D01*
X168009939Y-92247096D01*
X168024813Y-92258386D01*
X168044028Y-92275356D01*
X168052154Y-92279171D01*
X168052155Y-92279172D01*
X168057821Y-92281832D01*
X168070766Y-92287910D01*
X168085735Y-92296224D01*
X168110527Y-92312293D01*
X168119127Y-92314865D01*
X168135090Y-92319639D01*
X168152536Y-92326301D01*
X168175748Y-92337199D01*
X168204930Y-92341743D01*
X168221649Y-92345526D01*
X168241336Y-92351414D01*
X168241339Y-92351415D01*
X168249941Y-92353987D01*
X168258916Y-92354042D01*
X168258917Y-92354042D01*
X168265610Y-92354083D01*
X168284356Y-92354197D01*
X168285128Y-92354230D01*
X168286223Y-92354400D01*
X168317098Y-92354400D01*
X168317868Y-92354402D01*
X168391516Y-92354852D01*
X168391517Y-92354852D01*
X168395452Y-92354876D01*
X168396796Y-92354492D01*
X168398141Y-92354400D01*
X173432200Y-92354400D01*
X173500321Y-92374402D01*
X173546814Y-92428058D01*
X173558200Y-92480400D01*
X173558200Y-104116900D01*
X173538198Y-104185021D01*
X173484542Y-104231514D01*
X173432459Y-104242900D01*
X169374674Y-104251232D01*
X162028531Y-104266317D01*
X161960370Y-104246455D01*
X161913767Y-104192895D01*
X161902274Y-104139788D01*
X161913882Y-101377062D01*
X165624609Y-101377062D01*
X165624906Y-101382214D01*
X165624906Y-101382218D01*
X165630618Y-101481278D01*
X165637597Y-101602314D01*
X165638734Y-101607360D01*
X165638735Y-101607366D01*
X165659984Y-101701652D01*
X165687200Y-101822420D01*
X165689142Y-101827202D01*
X165689143Y-101827206D01*
X165725822Y-101917535D01*
X165772086Y-102031469D01*
X165889975Y-102223847D01*
X166037702Y-102394387D01*
X166211299Y-102538510D01*
X166215751Y-102541112D01*
X166215756Y-102541115D01*
X166305091Y-102593318D01*
X166406103Y-102652345D01*
X166616884Y-102732834D01*
X166621952Y-102733865D01*
X166621955Y-102733866D01*
X166730404Y-102755930D01*
X166837981Y-102777817D01*
X166843156Y-102778007D01*
X166843158Y-102778007D01*
X167058292Y-102785896D01*
X167058296Y-102785896D01*
X167063456Y-102786085D01*
X167068576Y-102785429D01*
X167068578Y-102785429D01*
X167137985Y-102776538D01*
X167287253Y-102757416D01*
X167292202Y-102755931D01*
X167292208Y-102755930D01*
X167498413Y-102694065D01*
X167498412Y-102694065D01*
X167503363Y-102692580D01*
X167598419Y-102646012D01*
X167701331Y-102595597D01*
X167701336Y-102595594D01*
X167705982Y-102593318D01*
X167710192Y-102590315D01*
X167710197Y-102590312D01*
X167885455Y-102465301D01*
X167885459Y-102465297D01*
X167889667Y-102462296D01*
X168049487Y-102303033D01*
X168170370Y-102134807D01*
X168226364Y-102091159D01*
X168297068Y-102084713D01*
X168360032Y-102117516D01*
X168380125Y-102142499D01*
X168427275Y-102219443D01*
X168427279Y-102219448D01*
X168429975Y-102223847D01*
X168577702Y-102394387D01*
X168751299Y-102538510D01*
X168755751Y-102541112D01*
X168755756Y-102541115D01*
X168845091Y-102593318D01*
X168946103Y-102652345D01*
X169156884Y-102732834D01*
X169161952Y-102733865D01*
X169161955Y-102733866D01*
X169270404Y-102755930D01*
X169377981Y-102777817D01*
X169383156Y-102778007D01*
X169383158Y-102778007D01*
X169598292Y-102785896D01*
X169598296Y-102785896D01*
X169603456Y-102786085D01*
X169608576Y-102785429D01*
X169608578Y-102785429D01*
X169677985Y-102776538D01*
X169827253Y-102757416D01*
X169832202Y-102755931D01*
X169832208Y-102755930D01*
X170038413Y-102694065D01*
X170038412Y-102694065D01*
X170043363Y-102692580D01*
X170138419Y-102646012D01*
X170241331Y-102595597D01*
X170241336Y-102595594D01*
X170245982Y-102593318D01*
X170250192Y-102590315D01*
X170250197Y-102590312D01*
X170425455Y-102465301D01*
X170425459Y-102465297D01*
X170429667Y-102462296D01*
X170589487Y-102303033D01*
X170721150Y-102119805D01*
X170821118Y-101917535D01*
X170886708Y-101701652D01*
X170916158Y-101477956D01*
X170917802Y-101410700D01*
X170899315Y-101185832D01*
X170844349Y-100967004D01*
X170754380Y-100760091D01*
X170706282Y-100685743D01*
X170634634Y-100574991D01*
X170634632Y-100574988D01*
X170631826Y-100570651D01*
X170479977Y-100403771D01*
X170475926Y-100400572D01*
X170475922Y-100400568D01*
X170306966Y-100267134D01*
X170306962Y-100267132D01*
X170302911Y-100263932D01*
X170279535Y-100251028D01*
X170229564Y-100200596D01*
X170214792Y-100131153D01*
X170239908Y-100064747D01*
X170267259Y-100038141D01*
X170425455Y-99925301D01*
X170425459Y-99925297D01*
X170429667Y-99922296D01*
X170589487Y-99763033D01*
X170721150Y-99579805D01*
X170821118Y-99377535D01*
X170886708Y-99161652D01*
X170887679Y-99154277D01*
X170915721Y-98941278D01*
X170915722Y-98941272D01*
X170916158Y-98937956D01*
X170916852Y-98909565D01*
X170917720Y-98874064D01*
X170917720Y-98874060D01*
X170917802Y-98870700D01*
X170899315Y-98645832D01*
X170844349Y-98427004D01*
X170754380Y-98220091D01*
X170706282Y-98145743D01*
X170634634Y-98034991D01*
X170634632Y-98034988D01*
X170631826Y-98030651D01*
X170479977Y-97863771D01*
X170475926Y-97860572D01*
X170475922Y-97860568D01*
X170306966Y-97727134D01*
X170306962Y-97727132D01*
X170302911Y-97723932D01*
X170279535Y-97711028D01*
X170229564Y-97660596D01*
X170214792Y-97591153D01*
X170239908Y-97524747D01*
X170267259Y-97498141D01*
X170268506Y-97497252D01*
X170303354Y-97472395D01*
X170425455Y-97385301D01*
X170425459Y-97385297D01*
X170429667Y-97382296D01*
X170589487Y-97223033D01*
X170721150Y-97039805D01*
X170821118Y-96837535D01*
X170886708Y-96621652D01*
X170916158Y-96397956D01*
X170917802Y-96330700D01*
X170899315Y-96105832D01*
X170844349Y-95887004D01*
X170754380Y-95680091D01*
X170631826Y-95490651D01*
X170479977Y-95323771D01*
X170475926Y-95320572D01*
X170475922Y-95320568D01*
X170306966Y-95187134D01*
X170306962Y-95187132D01*
X170302911Y-95183932D01*
X170105383Y-95074891D01*
X169892698Y-94999576D01*
X169842297Y-94990598D01*
X169675657Y-94960914D01*
X169675653Y-94960914D01*
X169670569Y-94960008D01*
X169596239Y-94959100D01*
X169450129Y-94957315D01*
X169450127Y-94957315D01*
X169444959Y-94957252D01*
X169221929Y-94991380D01*
X169007468Y-95061477D01*
X168807335Y-95165660D01*
X168803202Y-95168763D01*
X168803199Y-95168765D01*
X168778734Y-95187134D01*
X168626905Y-95301130D01*
X168563028Y-95367974D01*
X168501505Y-95403403D01*
X168430593Y-95399946D01*
X168372806Y-95358700D01*
X168353953Y-95325152D01*
X168317924Y-95229046D01*
X168309386Y-95213451D01*
X168232885Y-95111376D01*
X168220324Y-95098815D01*
X168118249Y-95022314D01*
X168102654Y-95013776D01*
X167982206Y-94968622D01*
X167966951Y-94964995D01*
X167916086Y-94959469D01*
X167909272Y-94959100D01*
X167273115Y-94959100D01*
X167257876Y-94963575D01*
X167256671Y-94964965D01*
X167255000Y-94972648D01*
X167255000Y-96458700D01*
X167234998Y-96526821D01*
X167181342Y-96573314D01*
X167129000Y-96584700D01*
X165647516Y-96584700D01*
X165632277Y-96589175D01*
X165631072Y-96590565D01*
X165629401Y-96598248D01*
X165629401Y-97238969D01*
X165629771Y-97245790D01*
X165635295Y-97296652D01*
X165638921Y-97311904D01*
X165684076Y-97432354D01*
X165692614Y-97447949D01*
X165769115Y-97550024D01*
X165781676Y-97562585D01*
X165883751Y-97639086D01*
X165899348Y-97647625D01*
X165994821Y-97683416D01*
X166051586Y-97726057D01*
X166076286Y-97792619D01*
X166061079Y-97861968D01*
X166041686Y-97888449D01*
X165931024Y-98004250D01*
X165803878Y-98190640D01*
X165801704Y-98195324D01*
X165801702Y-98195327D01*
X165711354Y-98389966D01*
X165708881Y-98395293D01*
X165648585Y-98612713D01*
X165624609Y-98837062D01*
X165624906Y-98842214D01*
X165624906Y-98842218D01*
X165630618Y-98941278D01*
X165637597Y-99062314D01*
X165638734Y-99067360D01*
X165638735Y-99067366D01*
X165665603Y-99186587D01*
X165687200Y-99282420D01*
X165689142Y-99287202D01*
X165689143Y-99287206D01*
X165725822Y-99377535D01*
X165772086Y-99491469D01*
X165889975Y-99683847D01*
X166037702Y-99854387D01*
X166211299Y-99998510D01*
X166215751Y-100001112D01*
X166215756Y-100001115D01*
X166265069Y-100029931D01*
X166313792Y-100081570D01*
X166326863Y-100151353D01*
X166300131Y-100217125D01*
X166269595Y-100244483D01*
X166267335Y-100245660D01*
X166086905Y-100381130D01*
X165931024Y-100544250D01*
X165803878Y-100730640D01*
X165801704Y-100735324D01*
X165801702Y-100735327D01*
X165730402Y-100888931D01*
X165708881Y-100935293D01*
X165648585Y-101152713D01*
X165624609Y-101377062D01*
X161913882Y-101377062D01*
X161922540Y-99316315D01*
X161924965Y-98739097D01*
X161924978Y-98737781D01*
X161924993Y-98736810D01*
X161926070Y-98664630D01*
X161921426Y-98647822D01*
X161917813Y-98634743D01*
X161914462Y-98618529D01*
X161911431Y-98596718D01*
X161910196Y-98587826D01*
X161900280Y-98565772D01*
X161893753Y-98547667D01*
X161889708Y-98533026D01*
X161889707Y-98533023D01*
X161887316Y-98524371D01*
X161882508Y-98516599D01*
X161871007Y-98498011D01*
X161863240Y-98483389D01*
X161855811Y-98466865D01*
X161854207Y-98463298D01*
X161854206Y-98463297D01*
X161850525Y-98455109D01*
X161834828Y-98436735D01*
X161823477Y-98421185D01*
X161815481Y-98408260D01*
X161815477Y-98408255D01*
X161810756Y-98400625D01*
X161787695Y-98379894D01*
X161776140Y-98368043D01*
X161761836Y-98351301D01*
X161761835Y-98351300D01*
X161756003Y-98344474D01*
X161748490Y-98339559D01*
X161748487Y-98339557D01*
X161735775Y-98331242D01*
X161720510Y-98319498D01*
X161709219Y-98309347D01*
X161709218Y-98309346D01*
X161702540Y-98303343D01*
X161694447Y-98299456D01*
X161694444Y-98299454D01*
X161674598Y-98289922D01*
X161660177Y-98281789D01*
X161641744Y-98269732D01*
X161634229Y-98264816D01*
X161625641Y-98262208D01*
X161625638Y-98262207D01*
X161611103Y-98257794D01*
X161593158Y-98250807D01*
X161571370Y-98240342D01*
X161540758Y-98235299D01*
X161524653Y-98231544D01*
X161494991Y-98222537D01*
X161486012Y-98222444D01*
X161486010Y-98222444D01*
X161461173Y-98222188D01*
X161461194Y-98220125D01*
X161461069Y-98220147D01*
X161461051Y-98222168D01*
X161448505Y-98222057D01*
X161448321Y-98222055D01*
X161425565Y-98221820D01*
X161349485Y-98221036D01*
X161349082Y-98221150D01*
X161348624Y-98221178D01*
X160555490Y-98214190D01*
X156284090Y-98176556D01*
X156216148Y-98155955D01*
X156170130Y-98101891D01*
X156159200Y-98050561D01*
X156159200Y-96058585D01*
X165629400Y-96058585D01*
X165633875Y-96073824D01*
X165635265Y-96075029D01*
X165642948Y-96076700D01*
X166728885Y-96076700D01*
X166744124Y-96072225D01*
X166745329Y-96070835D01*
X166747000Y-96063152D01*
X166747000Y-94977216D01*
X166742525Y-94961977D01*
X166741135Y-94960772D01*
X166733452Y-94959101D01*
X166092731Y-94959101D01*
X166085910Y-94959471D01*
X166035048Y-94964995D01*
X166019796Y-94968621D01*
X165899346Y-95013776D01*
X165883751Y-95022314D01*
X165781676Y-95098815D01*
X165769115Y-95111376D01*
X165692614Y-95213451D01*
X165684076Y-95229046D01*
X165638922Y-95349494D01*
X165635295Y-95364749D01*
X165629769Y-95415614D01*
X165629400Y-95422428D01*
X165629400Y-96058585D01*
X156159200Y-96058585D01*
X156159200Y-92844193D01*
X156159208Y-92842799D01*
X156159916Y-92778840D01*
X156159916Y-92778838D01*
X156160015Y-92769866D01*
X156151609Y-92739894D01*
X156148206Y-92723758D01*
X156143795Y-92692955D01*
X156133837Y-92671053D01*
X156127219Y-92652929D01*
X156123143Y-92638396D01*
X156120720Y-92629757D01*
X156112359Y-92616359D01*
X156104248Y-92603360D01*
X156096443Y-92588809D01*
X156087282Y-92568660D01*
X156087281Y-92568658D01*
X156083567Y-92560490D01*
X156067854Y-92542254D01*
X156056419Y-92526719D01*
X156048435Y-92513924D01*
X156048434Y-92513923D01*
X156043682Y-92506308D01*
X156036983Y-92500332D01*
X156036980Y-92500329D01*
X156020465Y-92485597D01*
X156008886Y-92473818D01*
X155994441Y-92457054D01*
X155988581Y-92450253D01*
X155968379Y-92437159D01*
X155953048Y-92425461D01*
X155941791Y-92415419D01*
X155941789Y-92415417D01*
X155935092Y-92409444D01*
X155906989Y-92396079D01*
X155892585Y-92388032D01*
X155866473Y-92371107D01*
X155857873Y-92368535D01*
X155857871Y-92368534D01*
X155843422Y-92364213D01*
X155825413Y-92357285D01*
X155803680Y-92346950D01*
X155772961Y-92342011D01*
X155756859Y-92338326D01*
X155752622Y-92337058D01*
X155735661Y-92331985D01*
X155735657Y-92331984D01*
X155727059Y-92329413D01*
X155718084Y-92329358D01*
X155718083Y-92329358D01*
X155693321Y-92329207D01*
X155693334Y-92327053D01*
X155693309Y-92327057D01*
X155693299Y-92329203D01*
X155693297Y-92329203D01*
X155693291Y-92329202D01*
X155689393Y-92329183D01*
X155689241Y-92329137D01*
X155689241Y-92329182D01*
X155582560Y-92328530D01*
X155582557Y-92328530D01*
X155581548Y-92328524D01*
X155581220Y-92328618D01*
X155580810Y-92328645D01*
X151804557Y-92309951D01*
X150532386Y-92303654D01*
X150531827Y-92303649D01*
X150452894Y-92302834D01*
X150444256Y-92305263D01*
X150444252Y-92305264D01*
X150424680Y-92310769D01*
X150407823Y-92314288D01*
X150378795Y-92318298D01*
X150370604Y-92321973D01*
X150370605Y-92321973D01*
X150355187Y-92328891D01*
X150337720Y-92335227D01*
X150321452Y-92339802D01*
X150321449Y-92339803D01*
X150312814Y-92342232D01*
X150305206Y-92346988D01*
X150305203Y-92346989D01*
X150287974Y-92357759D01*
X150272778Y-92365869D01*
X150246034Y-92377869D01*
X150226345Y-92394665D01*
X150211365Y-92405643D01*
X150200221Y-92412609D01*
X150189421Y-92419360D01*
X150183453Y-92426061D01*
X150183451Y-92426062D01*
X150169932Y-92441240D01*
X150157619Y-92453293D01*
X150145208Y-92463881D01*
X150135328Y-92472309D01*
X150125682Y-92487032D01*
X150121150Y-92493948D01*
X150109848Y-92508697D01*
X150092637Y-92528020D01*
X150085314Y-92543448D01*
X150080074Y-92554488D01*
X150071637Y-92569513D01*
X150060499Y-92586512D01*
X150055578Y-92594023D01*
X150052964Y-92602610D01*
X150052963Y-92602611D01*
X150048043Y-92618770D01*
X150041333Y-92636103D01*
X150034087Y-92651368D01*
X150034086Y-92651371D01*
X150030238Y-92659478D01*
X150028820Y-92668340D01*
X150025607Y-92688417D01*
X150021727Y-92705205D01*
X150013195Y-92733229D01*
X150012814Y-92767696D01*
X150012770Y-92768642D01*
X150012572Y-92769879D01*
X150012558Y-92773226D01*
X150012440Y-92801275D01*
X150012434Y-92801991D01*
X150011585Y-92878734D01*
X150012005Y-92880232D01*
X150012100Y-92881724D01*
X150002846Y-95074891D01*
X149989700Y-98190640D01*
X149989681Y-98195055D01*
X149969392Y-98263090D01*
X149915540Y-98309356D01*
X149863109Y-98320522D01*
X149087663Y-98316997D01*
X144935627Y-98298124D01*
X144837348Y-98297524D01*
X144810340Y-98305243D01*
X144793019Y-98308899D01*
X144775971Y-98311262D01*
X144765196Y-98312755D01*
X144740482Y-98323856D01*
X144723486Y-98330065D01*
X144706068Y-98335044D01*
X144706065Y-98335045D01*
X144697435Y-98337512D01*
X144689847Y-98342300D01*
X144689846Y-98342300D01*
X144673678Y-98352501D01*
X144658080Y-98360872D01*
X144632458Y-98372381D01*
X144625632Y-98378209D01*
X144611861Y-98389966D01*
X144597282Y-98400702D01*
X144581963Y-98410368D01*
X144581961Y-98410370D01*
X144574369Y-98415160D01*
X144568431Y-98421884D01*
X144568426Y-98421888D01*
X144555778Y-98436211D01*
X144543151Y-98448629D01*
X144521791Y-98466865D01*
X144506951Y-98489532D01*
X144495983Y-98503915D01*
X144478044Y-98524228D01*
X144467039Y-98547667D01*
X144466107Y-98549653D01*
X144457471Y-98565117D01*
X144447009Y-98581097D01*
X144447007Y-98581101D01*
X144442090Y-98588612D01*
X144439479Y-98597202D01*
X144439476Y-98597207D01*
X144434209Y-98614531D01*
X144427714Y-98631424D01*
X144420950Y-98645832D01*
X144416201Y-98655948D01*
X144414821Y-98664813D01*
X144414820Y-98664815D01*
X144411880Y-98683700D01*
X144407934Y-98700959D01*
X144399763Y-98727835D01*
X144399667Y-98736807D01*
X144399667Y-98736810D01*
X144399393Y-98762600D01*
X144399313Y-98764412D01*
X144399000Y-98766423D01*
X144399000Y-98798776D01*
X144398993Y-98800118D01*
X144398213Y-98873340D01*
X144398850Y-98875606D01*
X144399000Y-98877891D01*
X144399000Y-103912400D01*
X144378998Y-103980521D01*
X144325342Y-104027014D01*
X144273000Y-104038400D01*
X138972102Y-104038400D01*
X138971332Y-104038398D01*
X138970478Y-104038393D01*
X138893748Y-104037924D01*
X138885119Y-104040390D01*
X138885114Y-104040391D01*
X138865352Y-104046039D01*
X138848591Y-104049617D01*
X138828248Y-104052530D01*
X138828238Y-104052533D01*
X138819355Y-104053805D01*
X138796005Y-104064421D01*
X138778493Y-104070864D01*
X138774190Y-104072094D01*
X138753835Y-104077912D01*
X138728852Y-104093674D01*
X138713786Y-104101804D01*
X138686890Y-104114033D01*
X138667461Y-104130774D01*
X138652453Y-104141879D01*
X138630769Y-104155560D01*
X138624827Y-104162288D01*
X138611219Y-104177696D01*
X138599027Y-104189740D01*
X138576653Y-104209019D01*
X138571774Y-104216547D01*
X138571771Y-104216550D01*
X138562704Y-104230539D01*
X138551414Y-104245413D01*
X138534444Y-104264628D01*
X138521890Y-104291366D01*
X138513576Y-104306335D01*
X138497507Y-104331127D01*
X138494935Y-104339727D01*
X138490161Y-104355690D01*
X138483499Y-104373136D01*
X138472601Y-104396348D01*
X138471220Y-104405221D01*
X138468058Y-104425528D01*
X138464274Y-104442249D01*
X138458386Y-104461936D01*
X138458385Y-104461939D01*
X138455813Y-104470541D01*
X138455758Y-104479516D01*
X138455758Y-104479517D01*
X138455603Y-104504946D01*
X138455570Y-104505728D01*
X138455400Y-104506823D01*
X138455400Y-104537698D01*
X138455398Y-104538468D01*
X138454924Y-104616052D01*
X138455308Y-104617396D01*
X138455400Y-104618741D01*
X138455400Y-109754400D01*
X138435398Y-109822521D01*
X138381742Y-109869014D01*
X138329400Y-109880400D01*
X133257102Y-109880400D01*
X133256332Y-109880398D01*
X133255478Y-109880393D01*
X133178748Y-109879924D01*
X133170119Y-109882390D01*
X133170114Y-109882391D01*
X133150352Y-109888039D01*
X133133591Y-109891617D01*
X133113248Y-109894530D01*
X133113238Y-109894533D01*
X133104355Y-109895805D01*
X133081005Y-109906421D01*
X133063493Y-109912864D01*
X133050600Y-109916549D01*
X133038835Y-109919912D01*
X133013852Y-109935674D01*
X132998786Y-109943804D01*
X132971890Y-109956033D01*
X132952461Y-109972774D01*
X132937453Y-109983879D01*
X132915769Y-109997560D01*
X132904592Y-110010216D01*
X132896219Y-110019696D01*
X132884027Y-110031740D01*
X132861653Y-110051019D01*
X132856774Y-110058547D01*
X132856771Y-110058550D01*
X132847704Y-110072539D01*
X132836414Y-110087413D01*
X132819444Y-110106628D01*
X132806890Y-110133366D01*
X132798576Y-110148335D01*
X132782507Y-110173127D01*
X132779935Y-110181727D01*
X132775161Y-110197690D01*
X132768499Y-110215136D01*
X132757601Y-110238348D01*
X132756220Y-110247221D01*
X132753058Y-110267528D01*
X132749274Y-110284249D01*
X132743386Y-110303936D01*
X132743385Y-110303939D01*
X132740813Y-110312541D01*
X132740758Y-110321516D01*
X132740758Y-110321517D01*
X132740603Y-110346946D01*
X132740570Y-110347728D01*
X132740400Y-110348823D01*
X132740400Y-110379698D01*
X132740398Y-110380468D01*
X132739924Y-110458052D01*
X132740308Y-110459396D01*
X132740400Y-110460741D01*
X132740400Y-115494800D01*
X132720398Y-115562921D01*
X132666742Y-115609414D01*
X132614400Y-115620800D01*
X127362840Y-115620800D01*
X127361525Y-115620793D01*
X127288150Y-115620027D01*
X127258380Y-115628396D01*
X127242151Y-115631823D01*
X127220440Y-115634932D01*
X127220437Y-115634933D01*
X127211555Y-115636205D01*
X127189471Y-115646246D01*
X127171424Y-115652841D01*
X127156710Y-115656978D01*
X127156706Y-115656980D01*
X127148065Y-115659409D01*
X127140455Y-115664165D01*
X127140452Y-115664166D01*
X127121846Y-115675793D01*
X127107226Y-115683640D01*
X127087262Y-115692717D01*
X127087259Y-115692719D01*
X127079090Y-115696433D01*
X127072290Y-115702292D01*
X127072287Y-115702294D01*
X127060711Y-115712268D01*
X127045240Y-115723665D01*
X127032274Y-115731768D01*
X127032272Y-115731769D01*
X127024664Y-115736524D01*
X127018696Y-115743223D01*
X127004104Y-115759602D01*
X126992271Y-115771240D01*
X126975656Y-115785556D01*
X126975652Y-115785560D01*
X126968853Y-115791419D01*
X126963970Y-115798953D01*
X126955656Y-115811779D01*
X126944007Y-115827058D01*
X126938815Y-115832886D01*
X126927868Y-115845174D01*
X126924018Y-115853284D01*
X126924016Y-115853286D01*
X126914610Y-115873098D01*
X126906525Y-115887580D01*
X126889707Y-115913527D01*
X126887133Y-115922134D01*
X126882756Y-115936769D01*
X126875862Y-115954706D01*
X126865455Y-115976625D01*
X126864036Y-115985488D01*
X126860567Y-116007149D01*
X126856869Y-116023329D01*
X126848013Y-116052941D01*
X126847806Y-116086837D01*
X126845694Y-116086824D01*
X126845728Y-116087015D01*
X126847776Y-116087024D01*
X126847706Y-116103182D01*
X126847124Y-116198452D01*
X126847255Y-116198911D01*
X126847289Y-116199428D01*
X126845439Y-116626799D01*
X126824933Y-121364097D01*
X126824926Y-121365608D01*
X126804629Y-121433642D01*
X126750773Y-121479902D01*
X126699502Y-121491062D01*
X121812605Y-121513275D01*
X121811930Y-121513230D01*
X121811285Y-121513047D01*
X121809341Y-121513061D01*
X121809340Y-121513061D01*
X121799350Y-121513133D01*
X121724008Y-121513677D01*
X121711124Y-121513736D01*
X121704477Y-121513766D01*
X121704473Y-121513766D01*
X121703414Y-121513771D01*
X121703041Y-121513826D01*
X121702964Y-121513829D01*
X121682939Y-121513974D01*
X121674748Y-121514033D01*
X121674747Y-121514033D01*
X121665775Y-121514098D01*
X121657180Y-121516679D01*
X121640169Y-121521787D01*
X121622362Y-121525755D01*
X121604796Y-121528352D01*
X121604795Y-121528352D01*
X121595917Y-121529665D01*
X121587762Y-121533418D01*
X121587761Y-121533418D01*
X121570078Y-121541555D01*
X121553641Y-121547770D01*
X121535006Y-121553366D01*
X121526408Y-121555948D01*
X121518882Y-121560838D01*
X121503992Y-121570513D01*
X121488019Y-121579316D01*
X121463728Y-121590494D01*
X121456956Y-121596383D01*
X121442265Y-121609158D01*
X121428236Y-121619734D01*
X121417598Y-121626646D01*
X121404388Y-121635229D01*
X121398537Y-121642035D01*
X121386962Y-121655499D01*
X121374098Y-121668436D01*
X121353923Y-121685980D01*
X121338559Y-121709921D01*
X121328065Y-121724007D01*
X121309525Y-121745572D01*
X121305819Y-121753746D01*
X121305817Y-121753750D01*
X121298485Y-121769924D01*
X121289772Y-121785946D01*
X121275333Y-121808447D01*
X121272801Y-121817056D01*
X121272800Y-121817058D01*
X121267308Y-121835731D01*
X121261188Y-121852198D01*
X121249444Y-121878105D01*
X121248182Y-121886991D01*
X121245684Y-121904574D01*
X121241815Y-121922407D01*
X121234273Y-121948049D01*
X121234259Y-121957026D01*
X121234219Y-121983026D01*
X121234123Y-121985948D01*
X121233718Y-121988799D01*
X121233783Y-121993665D01*
X121234146Y-122020859D01*
X121234157Y-122022675D01*
X121234046Y-122093563D01*
X121234949Y-122096670D01*
X121235199Y-122099908D01*
X121240454Y-122494042D01*
X121301660Y-127084458D01*
X121301879Y-127100920D01*
X121282787Y-127169302D01*
X121229756Y-127216506D01*
X121175890Y-127228600D01*
X115705098Y-127228600D01*
X115702740Y-127228578D01*
X115686013Y-127228265D01*
X115633762Y-127227287D01*
X115625104Y-127229644D01*
X115625103Y-127229644D01*
X115617245Y-127231783D01*
X115601391Y-127236099D01*
X115586164Y-127239249D01*
X115552955Y-127244005D01*
X115533267Y-127252956D01*
X115514220Y-127259828D01*
X115502016Y-127263150D01*
X115502013Y-127263151D01*
X115493356Y-127265508D01*
X115485708Y-127270200D01*
X115485705Y-127270201D01*
X115464764Y-127283048D01*
X115451030Y-127290347D01*
X115428662Y-127300517D01*
X115428660Y-127300518D01*
X115420490Y-127304233D01*
X115413691Y-127310091D01*
X115413690Y-127310092D01*
X115404109Y-127318348D01*
X115387747Y-127330296D01*
X115369322Y-127341599D01*
X115363295Y-127348252D01*
X115363294Y-127348253D01*
X115346803Y-127366458D01*
X115335673Y-127377315D01*
X115310253Y-127399219D01*
X115305371Y-127406752D01*
X115305366Y-127406757D01*
X115298489Y-127417367D01*
X115286140Y-127433426D01*
X115271630Y-127449444D01*
X115267711Y-127457525D01*
X115267710Y-127457526D01*
X115256990Y-127479628D01*
X115249355Y-127493173D01*
X115231107Y-127521327D01*
X115225006Y-127541727D01*
X115224913Y-127542038D01*
X115217567Y-127560915D01*
X115212049Y-127572292D01*
X115212046Y-127572302D01*
X115208131Y-127580374D01*
X115206639Y-127589222D01*
X115206638Y-127589225D01*
X115202553Y-127613453D01*
X115199024Y-127628605D01*
X115197620Y-127633301D01*
X115189413Y-127660741D01*
X115189358Y-127669717D01*
X115189358Y-127669718D01*
X115188942Y-127737774D01*
X115188934Y-127738592D01*
X115120731Y-133149388D01*
X115099872Y-133217251D01*
X115045635Y-133263064D01*
X114994741Y-133273800D01*
X110041502Y-133273800D01*
X110040732Y-133273798D01*
X110039878Y-133273793D01*
X109963148Y-133273324D01*
X109954519Y-133275790D01*
X109954514Y-133275791D01*
X109934752Y-133281439D01*
X109917991Y-133285017D01*
X109897648Y-133287930D01*
X109897638Y-133287933D01*
X109888755Y-133289205D01*
X109865405Y-133299821D01*
X109847893Y-133306264D01*
X109835000Y-133309949D01*
X109823235Y-133313312D01*
X109798252Y-133329074D01*
X109783186Y-133337204D01*
X109756290Y-133349433D01*
X109736861Y-133366174D01*
X109721853Y-133377279D01*
X109700169Y-133390960D01*
X109694227Y-133397688D01*
X109680619Y-133413096D01*
X109668427Y-133425140D01*
X109646053Y-133444419D01*
X109641174Y-133451947D01*
X109641171Y-133451950D01*
X109632104Y-133465939D01*
X109620814Y-133480813D01*
X109603844Y-133500028D01*
X109591290Y-133526766D01*
X109582976Y-133541735D01*
X109566907Y-133566527D01*
X109562379Y-133581669D01*
X109559561Y-133591090D01*
X109552899Y-133608536D01*
X109542001Y-133631748D01*
X109538056Y-133657087D01*
X109537458Y-133660928D01*
X109533674Y-133677649D01*
X109527786Y-133697336D01*
X109527785Y-133697339D01*
X109525213Y-133705941D01*
X109525158Y-133714916D01*
X109525158Y-133714917D01*
X109525003Y-133740346D01*
X109524970Y-133741128D01*
X109524800Y-133742223D01*
X109524800Y-133773098D01*
X109524798Y-133773868D01*
X109524324Y-133851452D01*
X109524708Y-133852796D01*
X109524800Y-133854141D01*
X109524800Y-138735800D01*
X109504798Y-138803921D01*
X109451142Y-138850414D01*
X109398800Y-138861800D01*
X104097902Y-138861800D01*
X104097132Y-138861798D01*
X104096278Y-138861793D01*
X104019548Y-138861324D01*
X104010919Y-138863790D01*
X104010914Y-138863791D01*
X103991152Y-138869439D01*
X103974391Y-138873017D01*
X103954048Y-138875930D01*
X103954038Y-138875933D01*
X103945155Y-138877205D01*
X103921805Y-138887821D01*
X103904293Y-138894264D01*
X103891400Y-138897949D01*
X103879635Y-138901312D01*
X103854652Y-138917074D01*
X103839586Y-138925204D01*
X103812690Y-138937433D01*
X103793261Y-138954174D01*
X103778253Y-138965279D01*
X103756569Y-138978960D01*
X103750627Y-138985688D01*
X103737019Y-139001096D01*
X103724827Y-139013140D01*
X103702453Y-139032419D01*
X103697574Y-139039947D01*
X103697571Y-139039950D01*
X103688504Y-139053939D01*
X103677214Y-139068813D01*
X103660244Y-139088028D01*
X103656429Y-139096154D01*
X103656428Y-139096155D01*
X103654260Y-139100773D01*
X103647690Y-139114766D01*
X103639376Y-139129735D01*
X103623307Y-139154527D01*
X103620735Y-139163127D01*
X103615961Y-139179090D01*
X103609299Y-139196536D01*
X103598401Y-139219748D01*
X103597020Y-139228621D01*
X103593858Y-139248928D01*
X103590074Y-139265649D01*
X103584186Y-139285336D01*
X103584185Y-139285339D01*
X103581613Y-139293941D01*
X103581558Y-139302916D01*
X103581558Y-139302917D01*
X103581403Y-139328346D01*
X103581370Y-139329128D01*
X103581200Y-139330223D01*
X103581200Y-139361098D01*
X103581198Y-139361868D01*
X103580724Y-139439452D01*
X103581108Y-139440796D01*
X103581200Y-139442141D01*
X103581200Y-144654888D01*
X103561198Y-144723009D01*
X103507542Y-144769502D01*
X103455377Y-144780888D01*
X86616709Y-144804505D01*
X86548560Y-144784598D01*
X86501992Y-144731008D01*
X86490534Y-144677806D01*
X86499670Y-143031064D01*
X96153907Y-143031064D01*
X96183025Y-143223599D01*
X96185228Y-143229585D01*
X96185229Y-143229591D01*
X96248060Y-143400360D01*
X96248062Y-143400365D01*
X96250263Y-143406346D01*
X96352874Y-143571840D01*
X96486666Y-143713322D01*
X96646175Y-143825011D01*
X96652038Y-143827548D01*
X96819025Y-143899810D01*
X96819029Y-143899811D01*
X96824884Y-143902345D01*
X96831131Y-143903650D01*
X96831134Y-143903651D01*
X97010757Y-143941176D01*
X97010762Y-143941177D01*
X97015493Y-143942165D01*
X97021885Y-143942500D01*
X97164863Y-143942500D01*
X97234151Y-143935462D01*
X97303578Y-143928410D01*
X97303579Y-143928410D01*
X97309927Y-143927765D01*
X97391043Y-143902345D01*
X97489651Y-143871444D01*
X97489656Y-143871442D01*
X97495741Y-143869535D01*
X97582675Y-143821346D01*
X97660471Y-143778223D01*
X97660474Y-143778221D01*
X97666050Y-143775130D01*
X97670891Y-143770981D01*
X97670895Y-143770978D01*
X97809055Y-143652560D01*
X97813898Y-143648409D01*
X97933246Y-143494547D01*
X97973979Y-143411768D01*
X98016400Y-143325556D01*
X98019218Y-143319829D01*
X98020828Y-143313649D01*
X98066692Y-143137575D01*
X98066692Y-143137572D01*
X98068302Y-143131393D01*
X98073560Y-143031064D01*
X99153907Y-143031064D01*
X99183025Y-143223599D01*
X99185228Y-143229585D01*
X99185229Y-143229591D01*
X99248060Y-143400360D01*
X99248062Y-143400365D01*
X99250263Y-143406346D01*
X99352874Y-143571840D01*
X99486666Y-143713322D01*
X99646175Y-143825011D01*
X99652038Y-143827548D01*
X99819025Y-143899810D01*
X99819029Y-143899811D01*
X99824884Y-143902345D01*
X99831131Y-143903650D01*
X99831134Y-143903651D01*
X100010757Y-143941176D01*
X100010762Y-143941177D01*
X100015493Y-143942165D01*
X100021885Y-143942500D01*
X100164863Y-143942500D01*
X100234151Y-143935462D01*
X100303578Y-143928410D01*
X100303579Y-143928410D01*
X100309927Y-143927765D01*
X100391043Y-143902345D01*
X100489651Y-143871444D01*
X100489656Y-143871442D01*
X100495741Y-143869535D01*
X100582675Y-143821346D01*
X100660471Y-143778223D01*
X100660474Y-143778221D01*
X100666050Y-143775130D01*
X100670891Y-143770981D01*
X100670895Y-143770978D01*
X100809055Y-143652560D01*
X100813898Y-143648409D01*
X100933246Y-143494547D01*
X100973979Y-143411768D01*
X101016400Y-143325556D01*
X101019218Y-143319829D01*
X101020828Y-143313649D01*
X101066692Y-143137575D01*
X101066692Y-143137572D01*
X101068302Y-143131393D01*
X101078493Y-142936936D01*
X101049375Y-142744401D01*
X101047172Y-142738415D01*
X101047171Y-142738409D01*
X100984340Y-142567640D01*
X100984338Y-142567635D01*
X100982137Y-142561654D01*
X100879526Y-142396160D01*
X100745734Y-142254678D01*
X100586225Y-142142989D01*
X100538213Y-142122212D01*
X100413375Y-142068190D01*
X100413371Y-142068189D01*
X100407516Y-142065655D01*
X100401269Y-142064350D01*
X100401266Y-142064349D01*
X100221643Y-142026824D01*
X100221638Y-142026823D01*
X100216907Y-142025835D01*
X100210515Y-142025500D01*
X100067537Y-142025500D01*
X99998249Y-142032538D01*
X99928822Y-142039590D01*
X99928821Y-142039590D01*
X99922473Y-142040235D01*
X99866139Y-142057889D01*
X99742749Y-142096556D01*
X99742744Y-142096558D01*
X99736659Y-142098465D01*
X99660913Y-142140452D01*
X99571929Y-142189777D01*
X99571926Y-142189779D01*
X99566350Y-142192870D01*
X99561509Y-142197019D01*
X99561505Y-142197022D01*
X99498511Y-142251015D01*
X99418502Y-142319591D01*
X99299154Y-142473453D01*
X99296338Y-142479176D01*
X99296336Y-142479179D01*
X99252808Y-142567640D01*
X99213182Y-142648171D01*
X99211573Y-142654349D01*
X99211572Y-142654351D01*
X99189677Y-142738409D01*
X99164098Y-142836607D01*
X99153907Y-143031064D01*
X98073560Y-143031064D01*
X98078493Y-142936936D01*
X98049375Y-142744401D01*
X98047172Y-142738415D01*
X98047171Y-142738409D01*
X97984340Y-142567640D01*
X97984338Y-142567635D01*
X97982137Y-142561654D01*
X97879526Y-142396160D01*
X97745734Y-142254678D01*
X97586225Y-142142989D01*
X97538213Y-142122212D01*
X97413375Y-142068190D01*
X97413371Y-142068189D01*
X97407516Y-142065655D01*
X97401269Y-142064350D01*
X97401266Y-142064349D01*
X97221643Y-142026824D01*
X97221638Y-142026823D01*
X97216907Y-142025835D01*
X97210515Y-142025500D01*
X97067537Y-142025500D01*
X96998249Y-142032538D01*
X96928822Y-142039590D01*
X96928821Y-142039590D01*
X96922473Y-142040235D01*
X96866139Y-142057889D01*
X96742749Y-142096556D01*
X96742744Y-142096558D01*
X96736659Y-142098465D01*
X96660913Y-142140452D01*
X96571929Y-142189777D01*
X96571926Y-142189779D01*
X96566350Y-142192870D01*
X96561509Y-142197019D01*
X96561505Y-142197022D01*
X96498511Y-142251015D01*
X96418502Y-142319591D01*
X96299154Y-142473453D01*
X96296338Y-142479176D01*
X96296336Y-142479179D01*
X96252808Y-142567640D01*
X96213182Y-142648171D01*
X96211573Y-142654349D01*
X96211572Y-142654351D01*
X96189677Y-142738409D01*
X96164098Y-142836607D01*
X96153907Y-143031064D01*
X86499670Y-143031064D01*
X86529136Y-137719762D01*
X89129209Y-137719762D01*
X89129506Y-137724914D01*
X89129506Y-137724918D01*
X89135218Y-137823978D01*
X89142197Y-137945014D01*
X89143334Y-137950060D01*
X89143335Y-137950066D01*
X89164584Y-138044352D01*
X89191800Y-138165120D01*
X89193742Y-138169902D01*
X89193743Y-138169906D01*
X89230422Y-138260235D01*
X89276686Y-138374169D01*
X89394575Y-138566547D01*
X89542302Y-138737087D01*
X89715899Y-138881210D01*
X89720351Y-138883812D01*
X89720356Y-138883815D01*
X89906245Y-138992440D01*
X89910703Y-138995045D01*
X90121484Y-139075534D01*
X90126552Y-139076565D01*
X90126555Y-139076566D01*
X90222839Y-139096155D01*
X90342581Y-139120517D01*
X90347756Y-139120707D01*
X90347758Y-139120707D01*
X90562892Y-139128596D01*
X90562896Y-139128596D01*
X90568056Y-139128785D01*
X90573176Y-139128129D01*
X90573178Y-139128129D01*
X90677546Y-139114759D01*
X90791853Y-139100116D01*
X90796802Y-139098631D01*
X90796808Y-139098630D01*
X91003013Y-139036765D01*
X91003012Y-139036765D01*
X91007963Y-139035280D01*
X91109193Y-138985688D01*
X91205931Y-138938297D01*
X91205936Y-138938294D01*
X91210582Y-138936018D01*
X91214792Y-138933015D01*
X91214797Y-138933012D01*
X91390055Y-138808001D01*
X91390059Y-138807997D01*
X91394267Y-138804996D01*
X91554087Y-138645733D01*
X91674970Y-138477507D01*
X91730964Y-138433859D01*
X91801668Y-138427413D01*
X91864632Y-138460216D01*
X91884725Y-138485199D01*
X91931875Y-138562143D01*
X91931879Y-138562148D01*
X91934575Y-138566547D01*
X92082302Y-138737087D01*
X92255899Y-138881210D01*
X92260351Y-138883812D01*
X92260356Y-138883815D01*
X92446245Y-138992440D01*
X92450703Y-138995045D01*
X92661484Y-139075534D01*
X92666552Y-139076565D01*
X92666555Y-139076566D01*
X92762839Y-139096155D01*
X92882581Y-139120517D01*
X92887756Y-139120707D01*
X92887758Y-139120707D01*
X93102892Y-139128596D01*
X93102896Y-139128596D01*
X93108056Y-139128785D01*
X93113176Y-139128129D01*
X93113178Y-139128129D01*
X93217546Y-139114759D01*
X93331853Y-139100116D01*
X93336802Y-139098631D01*
X93336808Y-139098630D01*
X93543013Y-139036765D01*
X93543012Y-139036765D01*
X93547963Y-139035280D01*
X93649193Y-138985688D01*
X93745931Y-138938297D01*
X93745936Y-138938294D01*
X93750582Y-138936018D01*
X93754792Y-138933015D01*
X93754797Y-138933012D01*
X93930055Y-138808001D01*
X93930059Y-138807997D01*
X93934267Y-138804996D01*
X94094087Y-138645733D01*
X94225750Y-138462505D01*
X94325718Y-138260235D01*
X94391308Y-138044352D01*
X94420758Y-137820656D01*
X94422402Y-137753400D01*
X94403915Y-137528532D01*
X94348949Y-137309704D01*
X94258980Y-137102791D01*
X94210882Y-137028443D01*
X94139234Y-136917691D01*
X94139232Y-136917688D01*
X94136426Y-136913351D01*
X93984577Y-136746471D01*
X93980526Y-136743272D01*
X93980522Y-136743268D01*
X93811566Y-136609834D01*
X93811562Y-136609832D01*
X93807511Y-136606632D01*
X93784135Y-136593728D01*
X93734164Y-136543296D01*
X93719392Y-136473853D01*
X93744508Y-136407447D01*
X93771859Y-136380841D01*
X93930055Y-136268001D01*
X93930059Y-136267997D01*
X93934267Y-136264996D01*
X94094087Y-136105733D01*
X94225750Y-135922505D01*
X94325718Y-135720235D01*
X94391308Y-135504352D01*
X94420758Y-135280656D01*
X94422402Y-135213400D01*
X94403915Y-134988532D01*
X94348949Y-134769704D01*
X94258980Y-134562791D01*
X94210882Y-134488443D01*
X94139234Y-134377691D01*
X94139232Y-134377688D01*
X94136426Y-134373351D01*
X93984577Y-134206471D01*
X93980526Y-134203272D01*
X93980522Y-134203268D01*
X93811566Y-134069834D01*
X93811562Y-134069832D01*
X93807511Y-134066632D01*
X93784135Y-134053728D01*
X93734164Y-134003296D01*
X93719392Y-133933853D01*
X93744508Y-133867447D01*
X93771859Y-133840841D01*
X93773106Y-133839952D01*
X93807954Y-133815095D01*
X93930055Y-133728001D01*
X93930059Y-133727997D01*
X93934267Y-133724996D01*
X94094087Y-133565733D01*
X94225750Y-133382505D01*
X94279475Y-133273800D01*
X98018600Y-133273800D01*
X103606600Y-133273800D01*
X103531386Y-127407124D01*
X103550513Y-127338754D01*
X103603569Y-127291577D01*
X103657916Y-127279511D01*
X109550200Y-127304800D01*
X109550135Y-127290347D01*
X109525256Y-121767168D01*
X109544951Y-121698957D01*
X109598397Y-121652223D01*
X109651255Y-121640600D01*
X115138200Y-121640600D01*
X115062000Y-115697000D01*
X115056653Y-115696975D01*
X109568314Y-115671683D01*
X109568312Y-115671683D01*
X109550200Y-115671600D01*
X109550200Y-121541307D01*
X109530198Y-121609428D01*
X109476542Y-121655921D01*
X109425851Y-121667296D01*
X106705617Y-121702933D01*
X103708200Y-121742200D01*
X103708025Y-121754887D01*
X103708025Y-121754889D01*
X103697713Y-122504225D01*
X103633516Y-127169302D01*
X103633013Y-127205825D01*
X103612076Y-127273664D01*
X103557785Y-127319414D01*
X103506446Y-127330090D01*
X101017572Y-127318620D01*
X98036714Y-127304883D01*
X98036712Y-127304883D01*
X98018600Y-127304800D01*
X98018600Y-133273800D01*
X94279475Y-133273800D01*
X94325718Y-133180235D01*
X94391308Y-132964352D01*
X94420758Y-132740656D01*
X94422402Y-132673400D01*
X94403915Y-132448532D01*
X94348949Y-132229704D01*
X94258980Y-132022791D01*
X94136426Y-131833351D01*
X93984577Y-131666471D01*
X93980526Y-131663272D01*
X93980522Y-131663268D01*
X93811566Y-131529834D01*
X93811562Y-131529832D01*
X93807511Y-131526632D01*
X93609983Y-131417591D01*
X93397298Y-131342276D01*
X93346897Y-131333298D01*
X93180257Y-131303614D01*
X93180253Y-131303614D01*
X93175169Y-131302708D01*
X93100839Y-131301800D01*
X92954729Y-131300015D01*
X92954727Y-131300015D01*
X92949559Y-131299952D01*
X92726529Y-131334080D01*
X92512068Y-131404177D01*
X92311935Y-131508360D01*
X92307802Y-131511463D01*
X92307799Y-131511465D01*
X92283334Y-131529834D01*
X92131505Y-131643830D01*
X92067628Y-131710674D01*
X92006105Y-131746103D01*
X91935193Y-131742646D01*
X91877406Y-131701400D01*
X91858553Y-131667852D01*
X91822524Y-131571746D01*
X91813986Y-131556151D01*
X91737485Y-131454076D01*
X91724924Y-131441515D01*
X91622849Y-131365014D01*
X91607254Y-131356476D01*
X91486806Y-131311322D01*
X91471551Y-131307695D01*
X91420686Y-131302169D01*
X91413872Y-131301800D01*
X90777715Y-131301800D01*
X90762476Y-131306275D01*
X90761271Y-131307665D01*
X90759600Y-131315348D01*
X90759600Y-132801400D01*
X90739598Y-132869521D01*
X90685942Y-132916014D01*
X90633600Y-132927400D01*
X89152116Y-132927400D01*
X89136877Y-132931875D01*
X89135672Y-132933265D01*
X89134001Y-132940948D01*
X89134001Y-133581669D01*
X89134371Y-133588490D01*
X89139895Y-133639352D01*
X89143521Y-133654604D01*
X89188676Y-133775054D01*
X89197214Y-133790649D01*
X89273715Y-133892724D01*
X89286276Y-133905285D01*
X89388351Y-133981786D01*
X89403948Y-133990325D01*
X89499421Y-134026116D01*
X89556186Y-134068757D01*
X89580886Y-134135319D01*
X89565679Y-134204668D01*
X89546286Y-134231149D01*
X89435624Y-134346950D01*
X89308478Y-134533340D01*
X89306304Y-134538024D01*
X89306302Y-134538027D01*
X89235002Y-134691631D01*
X89213481Y-134737993D01*
X89153185Y-134955413D01*
X89129209Y-135179762D01*
X89129506Y-135184914D01*
X89129506Y-135184918D01*
X89135218Y-135283978D01*
X89142197Y-135405014D01*
X89143334Y-135410060D01*
X89143335Y-135410066D01*
X89164584Y-135504352D01*
X89191800Y-135625120D01*
X89193742Y-135629902D01*
X89193743Y-135629906D01*
X89230422Y-135720235D01*
X89276686Y-135834169D01*
X89394575Y-136026547D01*
X89542302Y-136197087D01*
X89715899Y-136341210D01*
X89720351Y-136343812D01*
X89720356Y-136343815D01*
X89769669Y-136372631D01*
X89818392Y-136424270D01*
X89831463Y-136494053D01*
X89804731Y-136559825D01*
X89774195Y-136587183D01*
X89771935Y-136588360D01*
X89591505Y-136723830D01*
X89435624Y-136886950D01*
X89308478Y-137073340D01*
X89306304Y-137078024D01*
X89306302Y-137078027D01*
X89235002Y-137231631D01*
X89213481Y-137277993D01*
X89153185Y-137495413D01*
X89129209Y-137719762D01*
X86529136Y-137719762D01*
X86558643Y-132401285D01*
X89134000Y-132401285D01*
X89138475Y-132416524D01*
X89139865Y-132417729D01*
X89147548Y-132419400D01*
X90233485Y-132419400D01*
X90248724Y-132414925D01*
X90249929Y-132413535D01*
X90251600Y-132405852D01*
X90251600Y-131319916D01*
X90247125Y-131304677D01*
X90245735Y-131303472D01*
X90238052Y-131301801D01*
X89597331Y-131301801D01*
X89590510Y-131302171D01*
X89539648Y-131307695D01*
X89524396Y-131311321D01*
X89403946Y-131356476D01*
X89388351Y-131365014D01*
X89286276Y-131441515D01*
X89273715Y-131454076D01*
X89197214Y-131556151D01*
X89188676Y-131571746D01*
X89143522Y-131692194D01*
X89139895Y-131707449D01*
X89134369Y-131758314D01*
X89134000Y-131765128D01*
X89134000Y-132401285D01*
X86558643Y-132401285D01*
X86585095Y-127633301D01*
X86605475Y-127565292D01*
X86659387Y-127519098D01*
X86711093Y-127508000D01*
X91686465Y-127508000D01*
X91688370Y-127508014D01*
X91759068Y-127509083D01*
X91767719Y-127506695D01*
X91767724Y-127506694D01*
X91790307Y-127500459D01*
X91805974Y-127497188D01*
X91829156Y-127493868D01*
X91838045Y-127492595D01*
X91858773Y-127483171D01*
X91877387Y-127476418D01*
X91890680Y-127472748D01*
X91890687Y-127472745D01*
X91899336Y-127470357D01*
X91926895Y-127453314D01*
X91941016Y-127445777D01*
X91970510Y-127432367D01*
X91987758Y-127417506D01*
X92003723Y-127405802D01*
X92023097Y-127393821D01*
X92044768Y-127369724D01*
X92056207Y-127358526D01*
X92073947Y-127343240D01*
X92080747Y-127337381D01*
X92088785Y-127324981D01*
X92093131Y-127318275D01*
X92105174Y-127302556D01*
X92114396Y-127292301D01*
X92120400Y-127285625D01*
X92134440Y-127256410D01*
X92142262Y-127242475D01*
X92159893Y-127215273D01*
X92166417Y-127193459D01*
X92173565Y-127174991D01*
X92179538Y-127162560D01*
X92183427Y-127154467D01*
X92188699Y-127122503D01*
X92192302Y-127106903D01*
X92194092Y-127100920D01*
X92201587Y-127075859D01*
X92202113Y-126989758D01*
X92242615Y-122494042D01*
X92247144Y-121991363D01*
X92267759Y-121923425D01*
X92321831Y-121877417D01*
X92372596Y-121866499D01*
X97631652Y-121843830D01*
X97633994Y-121843842D01*
X97662239Y-121844252D01*
X97694007Y-121844713D01*
X97694008Y-121844713D01*
X97702977Y-121844843D01*
X97711621Y-121842451D01*
X97711628Y-121842450D01*
X97735341Y-121835887D01*
X97750533Y-121832676D01*
X97783767Y-121827770D01*
X97803382Y-121818749D01*
X97822419Y-121811789D01*
X97843221Y-121806032D01*
X97850848Y-121801309D01*
X97850852Y-121801307D01*
X97871766Y-121788355D01*
X97885449Y-121781007D01*
X97915971Y-121766971D01*
X97932261Y-121752812D01*
X97948580Y-121740788D01*
X97959302Y-121734148D01*
X97959303Y-121734147D01*
X97966935Y-121729421D01*
X97989376Y-121704438D01*
X98000455Y-121693539D01*
X98019025Y-121677398D01*
X98025798Y-121671511D01*
X98031626Y-121662435D01*
X98037461Y-121653346D01*
X98049751Y-121637224D01*
X98058175Y-121627846D01*
X98058179Y-121627841D01*
X98064173Y-121621167D01*
X98078700Y-121590890D01*
X98086271Y-121577325D01*
X98099568Y-121556616D01*
X98099569Y-121556613D01*
X98104417Y-121549063D01*
X98106951Y-121540454D01*
X98106954Y-121540448D01*
X98110514Y-121528354D01*
X98117784Y-121509430D01*
X98123237Y-121498066D01*
X98127121Y-121489971D01*
X98132565Y-121456838D01*
X98136026Y-121441685D01*
X98142975Y-121418080D01*
X98145510Y-121409470D01*
X98145648Y-121332457D01*
X98145652Y-121331685D01*
X98146702Y-121206732D01*
X98191075Y-115926417D01*
X98211649Y-115858468D01*
X98265694Y-115812428D01*
X98317645Y-115801478D01*
X103240094Y-115823955D01*
X103240554Y-115823959D01*
X103295503Y-115824541D01*
X103309392Y-115824688D01*
X103309393Y-115824688D01*
X103318371Y-115824783D01*
X103346777Y-115816802D01*
X103363564Y-115813298D01*
X103383902Y-115810480D01*
X103392794Y-115809248D01*
X103400981Y-115805571D01*
X103400987Y-115805569D01*
X103416213Y-115798730D01*
X103433751Y-115792367D01*
X103449822Y-115787851D01*
X103449824Y-115787850D01*
X103458462Y-115785423D01*
X103483488Y-115769790D01*
X103498617Y-115761716D01*
X103517343Y-115753305D01*
X103517349Y-115753301D01*
X103525533Y-115749625D01*
X103545053Y-115732960D01*
X103560107Y-115721927D01*
X103574259Y-115713086D01*
X103574260Y-115713085D01*
X103581875Y-115708328D01*
X103587848Y-115701626D01*
X103587850Y-115701624D01*
X103601510Y-115686296D01*
X103613767Y-115674297D01*
X103629371Y-115660976D01*
X103629375Y-115660971D01*
X103636202Y-115655143D01*
X103650257Y-115633674D01*
X103661610Y-115618857D01*
X103672714Y-115606397D01*
X103672716Y-115606394D01*
X103678688Y-115599693D01*
X103682537Y-115591589D01*
X103682540Y-115591585D01*
X103691351Y-115573034D01*
X103699743Y-115558085D01*
X103715905Y-115533398D01*
X103723371Y-115508842D01*
X103726113Y-115501759D01*
X115163784Y-115501759D01*
X115169089Y-115501782D01*
X118011215Y-115513980D01*
X121081984Y-115527159D01*
X121081839Y-115494800D01*
X121075150Y-114010028D01*
X121062795Y-111267244D01*
X121082490Y-111199035D01*
X121135936Y-111152301D01*
X121206164Y-111141881D01*
X121252365Y-111157890D01*
X121410745Y-111250440D01*
X121415203Y-111253045D01*
X121625984Y-111333534D01*
X121631052Y-111334565D01*
X121631055Y-111334566D01*
X121739504Y-111356630D01*
X121847081Y-111378517D01*
X121852256Y-111378707D01*
X121852258Y-111378707D01*
X122067392Y-111386596D01*
X122067396Y-111386596D01*
X122072556Y-111386785D01*
X122077676Y-111386129D01*
X122077678Y-111386129D01*
X122147085Y-111377238D01*
X122296353Y-111358116D01*
X122301302Y-111356631D01*
X122301308Y-111356630D01*
X122507513Y-111294765D01*
X122507512Y-111294765D01*
X122512463Y-111293280D01*
X122607519Y-111246712D01*
X122710431Y-111196297D01*
X122710436Y-111196294D01*
X122715082Y-111194018D01*
X122719292Y-111191015D01*
X122719297Y-111191012D01*
X122894555Y-111066001D01*
X122894559Y-111065997D01*
X122898767Y-111062996D01*
X123058587Y-110903733D01*
X123179470Y-110735507D01*
X123235464Y-110691859D01*
X123306168Y-110685413D01*
X123369132Y-110718216D01*
X123389225Y-110743199D01*
X123436375Y-110820143D01*
X123436383Y-110820153D01*
X123439075Y-110824547D01*
X123586802Y-110995087D01*
X123760399Y-111139210D01*
X123764851Y-111141812D01*
X123764856Y-111141815D01*
X123950745Y-111250440D01*
X123955203Y-111253045D01*
X124165984Y-111333534D01*
X124171052Y-111334565D01*
X124171055Y-111334566D01*
X124279504Y-111356630D01*
X124387081Y-111378517D01*
X124392256Y-111378707D01*
X124392258Y-111378707D01*
X124607392Y-111386596D01*
X124607396Y-111386596D01*
X124612556Y-111386785D01*
X124617676Y-111386129D01*
X124617678Y-111386129D01*
X124687085Y-111377238D01*
X124836353Y-111358116D01*
X124841302Y-111356631D01*
X124841308Y-111356630D01*
X125047513Y-111294765D01*
X125047512Y-111294765D01*
X125052463Y-111293280D01*
X125147519Y-111246712D01*
X125250431Y-111196297D01*
X125250436Y-111196294D01*
X125255082Y-111194018D01*
X125259292Y-111191015D01*
X125259297Y-111191012D01*
X125434555Y-111066001D01*
X125434559Y-111065997D01*
X125438767Y-111062996D01*
X125598587Y-110903733D01*
X125730250Y-110720505D01*
X125787992Y-110603673D01*
X125827924Y-110522877D01*
X125827925Y-110522875D01*
X125830218Y-110518235D01*
X125895808Y-110302352D01*
X125896483Y-110297226D01*
X125924821Y-110081978D01*
X125924822Y-110081972D01*
X125925258Y-110078656D01*
X125925647Y-110062732D01*
X125926820Y-110014764D01*
X125926820Y-110014760D01*
X125926902Y-110011400D01*
X125921411Y-109944612D01*
X125935764Y-109875082D01*
X125985429Y-109824349D01*
X126047528Y-109808289D01*
X126610863Y-109810706D01*
X126949384Y-109812159D01*
X126949317Y-109797151D01*
X126923985Y-104173578D01*
X126943680Y-104105367D01*
X126997126Y-104058633D01*
X127050525Y-104047011D01*
X132816784Y-104071759D01*
X132816703Y-104053805D01*
X132791466Y-98451074D01*
X132791466Y-98451073D01*
X132791384Y-98432959D01*
X132777565Y-98433140D01*
X132176560Y-98441013D01*
X126974784Y-98509159D01*
X126974609Y-98521846D01*
X126974609Y-98521848D01*
X126902024Y-103796363D01*
X126898584Y-104046359D01*
X126894852Y-104046308D01*
X126894299Y-104086473D01*
X126855097Y-104145665D01*
X126790117Y-104174266D01*
X126775554Y-104175303D01*
X123255847Y-104221413D01*
X121107384Y-104249559D01*
X121107209Y-104262246D01*
X121107209Y-104262248D01*
X121077622Y-106412264D01*
X121056685Y-106480103D01*
X121042728Y-106497581D01*
X120943695Y-106601213D01*
X120940124Y-106604950D01*
X120937212Y-106609219D01*
X120937206Y-106609227D01*
X120843603Y-106746443D01*
X120788692Y-106791446D01*
X120718167Y-106799617D01*
X120654420Y-106768363D01*
X120633723Y-106743879D01*
X120563734Y-106635691D01*
X120563732Y-106635688D01*
X120560926Y-106631351D01*
X120409077Y-106464471D01*
X120405026Y-106461272D01*
X120405022Y-106461268D01*
X120236066Y-106327834D01*
X120236062Y-106327832D01*
X120232011Y-106324632D01*
X120034483Y-106215591D01*
X119821798Y-106140276D01*
X119771397Y-106131298D01*
X119604757Y-106101614D01*
X119604753Y-106101614D01*
X119599669Y-106100708D01*
X119527674Y-106099829D01*
X119379229Y-106098015D01*
X119379227Y-106098015D01*
X119374059Y-106097952D01*
X119151029Y-106132080D01*
X118936568Y-106202177D01*
X118736435Y-106306360D01*
X118732302Y-106309463D01*
X118732299Y-106309465D01*
X118707834Y-106327834D01*
X118556005Y-106441830D01*
X118400124Y-106604950D01*
X118272978Y-106791340D01*
X118270804Y-106796024D01*
X118270802Y-106796027D01*
X118199502Y-106949631D01*
X118177981Y-106995993D01*
X118117685Y-107213413D01*
X118093709Y-107437762D01*
X118106697Y-107663014D01*
X118107834Y-107668060D01*
X118107835Y-107668066D01*
X118139195Y-107807221D01*
X118156300Y-107883120D01*
X118241186Y-108092169D01*
X118359075Y-108284547D01*
X118362455Y-108288449D01*
X118430834Y-108367387D01*
X118504513Y-108452445D01*
X118504514Y-108452446D01*
X118506802Y-108455087D01*
X118506257Y-108455559D01*
X118538950Y-108513976D01*
X118534625Y-108584840D01*
X118492673Y-108642117D01*
X118460346Y-108660024D01*
X118368446Y-108694476D01*
X118352851Y-108703014D01*
X118250776Y-108779515D01*
X118238215Y-108792076D01*
X118161714Y-108894151D01*
X118153176Y-108909746D01*
X118108022Y-109030194D01*
X118104395Y-109045449D01*
X118098869Y-109096314D01*
X118098500Y-109103128D01*
X118098500Y-109802751D01*
X118078498Y-109870872D01*
X118024842Y-109917365D01*
X117974151Y-109928740D01*
X117398250Y-109936285D01*
X115239984Y-109964559D01*
X115239809Y-109977246D01*
X115239809Y-109977248D01*
X115165146Y-115402761D01*
X115163784Y-115501759D01*
X103726113Y-115501759D01*
X103730107Y-115491442D01*
X103737269Y-115476364D01*
X103737272Y-115476355D01*
X103741121Y-115468251D01*
X103742542Y-115459388D01*
X103742543Y-115459384D01*
X103745794Y-115439108D01*
X103749653Y-115422403D01*
X103755625Y-115402761D01*
X103755625Y-115402760D01*
X103758235Y-115394176D01*
X103758603Y-115359752D01*
X103758639Y-115358965D01*
X103758817Y-115357855D01*
X103758956Y-115326819D01*
X103758961Y-115326126D01*
X103759746Y-115252659D01*
X103759789Y-115248671D01*
X103759406Y-115247307D01*
X103759319Y-115245945D01*
X103768562Y-113184682D01*
X103781565Y-110285233D01*
X103801872Y-110217205D01*
X103855735Y-110170953D01*
X103907563Y-110159800D01*
X109110937Y-110159800D01*
X109112775Y-110159813D01*
X109183741Y-110160848D01*
X109214810Y-110152253D01*
X109230540Y-110148964D01*
X109262445Y-110144395D01*
X109283333Y-110134898D01*
X109301879Y-110128164D01*
X109315336Y-110124441D01*
X109315339Y-110124440D01*
X109323987Y-110122047D01*
X109351394Y-110105078D01*
X109365564Y-110097510D01*
X109386739Y-110087883D01*
X109386744Y-110087880D01*
X109394910Y-110084167D01*
X109401707Y-110078310D01*
X109401709Y-110078309D01*
X109412283Y-110069197D01*
X109428205Y-110057520D01*
X109440070Y-110050174D01*
X109440073Y-110050172D01*
X109447707Y-110045445D01*
X109469255Y-110021459D01*
X109480730Y-110010220D01*
X109505147Y-109989181D01*
X109517623Y-109969933D01*
X109529625Y-109954259D01*
X109538956Y-109943873D01*
X109538957Y-109943871D01*
X109544953Y-109937197D01*
X109558899Y-109908137D01*
X109566762Y-109894121D01*
X109579412Y-109874604D01*
X109579413Y-109874603D01*
X109584293Y-109867073D01*
X109590866Y-109845095D01*
X109597984Y-109826689D01*
X109599985Y-109822521D01*
X109607910Y-109806006D01*
X109613139Y-109774199D01*
X109616752Y-109758539D01*
X109623415Y-109736260D01*
X109623415Y-109736258D01*
X109625987Y-109727659D01*
X109626535Y-109638023D01*
X109626775Y-109609801D01*
X109663539Y-105271499D01*
X109671854Y-104290331D01*
X109692432Y-104222383D01*
X109746480Y-104176347D01*
X109797849Y-104165400D01*
X114807711Y-104165400D01*
X114896361Y-104165543D01*
X114896364Y-104165543D01*
X114905342Y-104165557D01*
X114932328Y-104157712D01*
X114949628Y-104153978D01*
X114960679Y-104152396D01*
X114968556Y-104151268D01*
X114968557Y-104151268D01*
X114977445Y-104149995D01*
X114985619Y-104146279D01*
X114985621Y-104146278D01*
X115002094Y-104138788D01*
X115019076Y-104132496D01*
X115036456Y-104127444D01*
X115036457Y-104127444D01*
X115045073Y-104124939D01*
X115052640Y-104120117D01*
X115052642Y-104120116D01*
X115068765Y-104109841D01*
X115084321Y-104101401D01*
X115109910Y-104089767D01*
X115130424Y-104072091D01*
X115144957Y-104061287D01*
X115160214Y-104051565D01*
X115160216Y-104051563D01*
X115167788Y-104046738D01*
X115173701Y-104039982D01*
X115173703Y-104039980D01*
X115186291Y-104025596D01*
X115198859Y-104013124D01*
X115213347Y-104000640D01*
X115220147Y-103994781D01*
X115225030Y-103987248D01*
X115225032Y-103987245D01*
X115234874Y-103972061D01*
X115245790Y-103957612D01*
X115257706Y-103943997D01*
X115257710Y-103943991D01*
X115263621Y-103937237D01*
X115275449Y-103911746D01*
X115284006Y-103896258D01*
X115299293Y-103872673D01*
X115301865Y-103864074D01*
X115301867Y-103864069D01*
X115307053Y-103846729D01*
X115313473Y-103829802D01*
X115321091Y-103813384D01*
X115321092Y-103813382D01*
X115324870Y-103805239D01*
X115329068Y-103777455D01*
X115332936Y-103760181D01*
X115338416Y-103741855D01*
X115340987Y-103733259D01*
X115341200Y-103698487D01*
X115341271Y-103696689D01*
X115341573Y-103694688D01*
X115341427Y-103662345D01*
X115341428Y-103661016D01*
X115341837Y-103594094D01*
X115341876Y-103587748D01*
X115341231Y-103585491D01*
X115341071Y-103583215D01*
X115341064Y-103581541D01*
X115318864Y-98653168D01*
X115338559Y-98584957D01*
X115392005Y-98538223D01*
X115444863Y-98526600D01*
X120793698Y-98526600D01*
X120794469Y-98526602D01*
X120872052Y-98527076D01*
X120880681Y-98524610D01*
X120880686Y-98524609D01*
X120900448Y-98518961D01*
X120917209Y-98515383D01*
X120937552Y-98512470D01*
X120937562Y-98512467D01*
X120946445Y-98511195D01*
X120969795Y-98500579D01*
X120987307Y-98494136D01*
X121003337Y-98489554D01*
X121011965Y-98487088D01*
X121036948Y-98471326D01*
X121052014Y-98463196D01*
X121078910Y-98450967D01*
X121098339Y-98434226D01*
X121113347Y-98423121D01*
X121127439Y-98414230D01*
X121135031Y-98409440D01*
X121154582Y-98387303D01*
X121166774Y-98375259D01*
X121182349Y-98361839D01*
X121182350Y-98361837D01*
X121189147Y-98355981D01*
X121194026Y-98348453D01*
X121194029Y-98348450D01*
X121203096Y-98334461D01*
X121214386Y-98319587D01*
X121221508Y-98311523D01*
X121231356Y-98300372D01*
X121236263Y-98289922D01*
X121240081Y-98281789D01*
X121243910Y-98273634D01*
X121252224Y-98258665D01*
X121268293Y-98233873D01*
X121275639Y-98209309D01*
X121282301Y-98191864D01*
X121289383Y-98176779D01*
X121293199Y-98168652D01*
X121295549Y-98153559D01*
X132638984Y-98153559D01*
X138557184Y-98178959D01*
X138557081Y-98155955D01*
X138545094Y-95494991D01*
X138531901Y-92566214D01*
X138551596Y-92498004D01*
X138605042Y-92451270D01*
X138658441Y-92439648D01*
X141931732Y-92453696D01*
X144322984Y-92463959D01*
X144322906Y-92446676D01*
X144297666Y-86843274D01*
X144297666Y-86843273D01*
X144297584Y-86825159D01*
X144283765Y-86825340D01*
X143752640Y-86832298D01*
X138480984Y-86901359D01*
X138405103Y-92415419D01*
X138405051Y-92419193D01*
X138384114Y-92487032D01*
X138329823Y-92532782D01*
X138280714Y-92543448D01*
X136639132Y-92564954D01*
X132715184Y-92616359D01*
X132715009Y-92629046D01*
X132715009Y-92629048D01*
X132639233Y-98135445D01*
X132638984Y-98153559D01*
X121295549Y-98153559D01*
X121297743Y-98139470D01*
X121301526Y-98122751D01*
X121307414Y-98103064D01*
X121307415Y-98103061D01*
X121309987Y-98094459D01*
X121310197Y-98060044D01*
X121310230Y-98059272D01*
X121310400Y-98058177D01*
X121310400Y-98027302D01*
X121310402Y-98026532D01*
X121310852Y-97952884D01*
X121310852Y-97952883D01*
X121310876Y-97948948D01*
X121310492Y-97947604D01*
X121310400Y-97946259D01*
X121310400Y-92683600D01*
X121330402Y-92615479D01*
X121384058Y-92568986D01*
X121436400Y-92557600D01*
X126408576Y-92557600D01*
X126409909Y-92557607D01*
X126483181Y-92558382D01*
X126491825Y-92555953D01*
X126491827Y-92555953D01*
X126512990Y-92550007D01*
X126529207Y-92546583D01*
X126532344Y-92546134D01*
X126559845Y-92542195D01*
X126581896Y-92532169D01*
X126599951Y-92525572D01*
X126623271Y-92519019D01*
X126649524Y-92502618D01*
X126664133Y-92494778D01*
X126684135Y-92485684D01*
X126684136Y-92485684D01*
X126692310Y-92481967D01*
X126710659Y-92466157D01*
X126726142Y-92454753D01*
X126746683Y-92441921D01*
X126767278Y-92418810D01*
X126779100Y-92407184D01*
X126802547Y-92386981D01*
X126815720Y-92366658D01*
X126827383Y-92351363D01*
X126831281Y-92346989D01*
X126843494Y-92333284D01*
X126856773Y-92305326D01*
X126864856Y-92290849D01*
X126876809Y-92272408D01*
X126881693Y-92264873D01*
X126888631Y-92241673D01*
X126895533Y-92223719D01*
X126902073Y-92209951D01*
X126902074Y-92209948D01*
X126905924Y-92201842D01*
X126910822Y-92171281D01*
X126914517Y-92155119D01*
X126920814Y-92134063D01*
X126920814Y-92134061D01*
X126923387Y-92125459D01*
X126923594Y-92091594D01*
X126925659Y-92091607D01*
X126925632Y-92091453D01*
X126923618Y-92091444D01*
X126923680Y-92077558D01*
X126923681Y-92077351D01*
X126924268Y-91981268D01*
X126924268Y-91981267D01*
X126924276Y-91979948D01*
X126924152Y-91979516D01*
X126924120Y-91979024D01*
X126946389Y-86990724D01*
X126966695Y-86922693D01*
X127020558Y-86876440D01*
X127071845Y-86865287D01*
X132328932Y-86842627D01*
X132330244Y-86842628D01*
X132351049Y-86842755D01*
X132403652Y-86843076D01*
X132433368Y-86834583D01*
X132449589Y-86831084D01*
X132470100Y-86828056D01*
X132480167Y-86826570D01*
X132488321Y-86822820D01*
X132488324Y-86822819D01*
X132502213Y-86816431D01*
X132520236Y-86809756D01*
X132534930Y-86805556D01*
X132534931Y-86805555D01*
X132543565Y-86803088D01*
X132551154Y-86798300D01*
X132551156Y-86798299D01*
X132569704Y-86786596D01*
X132584291Y-86778685D01*
X132604215Y-86769522D01*
X132612371Y-86765771D01*
X132630692Y-86749847D01*
X132646109Y-86738388D01*
X132659038Y-86730231D01*
X132659039Y-86730230D01*
X132666631Y-86725440D01*
X132672571Y-86718715D01*
X132672575Y-86718711D01*
X132687092Y-86702273D01*
X132698871Y-86690587D01*
X132722198Y-86670311D01*
X132735316Y-86649881D01*
X132746891Y-86634563D01*
X132762956Y-86616372D01*
X132766769Y-86608250D01*
X132766774Y-86608243D01*
X132776092Y-86588395D01*
X132784121Y-86573867D01*
X132795968Y-86555416D01*
X132795969Y-86555414D01*
X132800817Y-86547863D01*
X132807673Y-86524573D01*
X132814489Y-86506610D01*
X132820983Y-86492780D01*
X132820983Y-86492779D01*
X132824799Y-86484652D01*
X132826180Y-86475784D01*
X132826181Y-86475780D01*
X132829553Y-86454119D01*
X132833182Y-86437921D01*
X132839375Y-86416883D01*
X132839375Y-86416880D01*
X132841910Y-86408270D01*
X132841971Y-86374364D01*
X132844026Y-86374368D01*
X132843993Y-86374177D01*
X132842000Y-86374177D01*
X132842000Y-86358093D01*
X132842171Y-86262757D01*
X132842037Y-86262294D01*
X132842000Y-86261773D01*
X132842000Y-80999600D01*
X132862002Y-80931479D01*
X132915658Y-80884986D01*
X132968000Y-80873600D01*
X138015878Y-80873600D01*
X138017988Y-80873618D01*
X138078865Y-80874638D01*
X138078867Y-80874638D01*
X138087839Y-80874788D01*
X138096491Y-80872415D01*
X138096495Y-80872414D01*
X138119595Y-80866077D01*
X138135064Y-80862861D01*
X138137852Y-80862462D01*
X138167645Y-80858195D01*
X138187899Y-80848986D01*
X138206713Y-80842177D01*
X138228170Y-80836291D01*
X138256196Y-80819022D01*
X138270141Y-80811594D01*
X138291937Y-80801683D01*
X138300110Y-80797967D01*
X138306907Y-80792111D01*
X138306909Y-80792109D01*
X138316957Y-80783450D01*
X138333114Y-80771627D01*
X138344411Y-80764666D01*
X138352055Y-80759956D01*
X138374119Y-80735502D01*
X138385401Y-80724475D01*
X138410347Y-80702981D01*
X138422448Y-80684312D01*
X138434628Y-80668440D01*
X138440467Y-80661968D01*
X138449534Y-80651919D01*
X138463842Y-80622269D01*
X138471587Y-80608498D01*
X138484609Y-80588409D01*
X138484611Y-80588405D01*
X138489493Y-80580873D01*
X138492377Y-80571231D01*
X138495869Y-80559556D01*
X138503105Y-80540903D01*
X138508875Y-80528946D01*
X138512775Y-80520864D01*
X138518185Y-80488393D01*
X138521755Y-80472997D01*
X138528615Y-80450061D01*
X138528616Y-80450057D01*
X138531187Y-80441459D01*
X138531404Y-80405981D01*
X138531679Y-80360986D01*
X138531684Y-80360416D01*
X138570921Y-76672076D01*
X149474670Y-76672076D01*
X149492754Y-76798344D01*
X149497744Y-76815407D01*
X149550983Y-76932504D01*
X149559206Y-76945858D01*
X149591272Y-76985739D01*
X149595816Y-76990803D01*
X150045656Y-77440642D01*
X150059594Y-77448253D01*
X150061430Y-77448121D01*
X150068042Y-77443872D01*
X150835914Y-76676000D01*
X150843528Y-76662056D01*
X150843397Y-76660223D01*
X150839146Y-76653608D01*
X150071276Y-75885738D01*
X150057332Y-75878124D01*
X150055499Y-75878255D01*
X150048884Y-75882506D01*
X149595828Y-76335562D01*
X149591266Y-76340646D01*
X149559205Y-76380519D01*
X149550984Y-76393870D01*
X149497744Y-76510969D01*
X149492754Y-76528032D01*
X149474670Y-76654300D01*
X149474670Y-76672076D01*
X138570921Y-76672076D01*
X138582290Y-75603412D01*
X138582306Y-75602360D01*
X138583561Y-75536276D01*
X138583561Y-75536273D01*
X138583731Y-75527300D01*
X138580344Y-75514846D01*
X150422871Y-75514846D01*
X150423003Y-75516682D01*
X150427252Y-75523294D01*
X151478051Y-76574093D01*
X151512077Y-76636405D01*
X151507012Y-76707220D01*
X151478051Y-76752283D01*
X150430486Y-77799848D01*
X150422872Y-77813792D01*
X150423003Y-77815625D01*
X150427254Y-77822240D01*
X150880310Y-78275296D01*
X150885394Y-78279858D01*
X150925267Y-78311919D01*
X150938618Y-78320140D01*
X151055717Y-78373380D01*
X151072780Y-78378370D01*
X151199048Y-78396454D01*
X151216824Y-78396454D01*
X151343092Y-78378370D01*
X151360155Y-78373380D01*
X151450472Y-78332317D01*
X151520763Y-78322331D01*
X151585294Y-78351932D01*
X151623577Y-78411722D01*
X151628413Y-78439762D01*
X151640584Y-78650853D01*
X151641721Y-78655899D01*
X151641722Y-78655905D01*
X151662971Y-78750191D01*
X151690187Y-78870959D01*
X151692129Y-78875741D01*
X151692130Y-78875745D01*
X151728809Y-78966074D01*
X151775073Y-79080008D01*
X151892962Y-79272386D01*
X152040689Y-79442926D01*
X152214286Y-79587049D01*
X152218738Y-79589651D01*
X152218743Y-79589654D01*
X152308078Y-79641857D01*
X152409090Y-79700884D01*
X152619871Y-79781373D01*
X152624939Y-79782404D01*
X152624942Y-79782405D01*
X152684372Y-79794496D01*
X152840968Y-79826356D01*
X152846143Y-79826546D01*
X152846145Y-79826546D01*
X153061279Y-79834435D01*
X153061283Y-79834435D01*
X153066443Y-79834624D01*
X153071563Y-79833968D01*
X153071565Y-79833968D01*
X153140972Y-79825077D01*
X153290240Y-79805955D01*
X153295192Y-79804469D01*
X153295203Y-79804467D01*
X153301169Y-79802677D01*
X153372165Y-79802261D01*
X153432114Y-79840295D01*
X153461984Y-79904702D01*
X153458792Y-79957032D01*
X153447624Y-79997303D01*
X153423648Y-80221652D01*
X153423945Y-80226804D01*
X153423945Y-80226808D01*
X153429592Y-80324744D01*
X153436636Y-80446904D01*
X153437773Y-80451950D01*
X153437774Y-80451956D01*
X153459856Y-80549941D01*
X153486239Y-80667010D01*
X153488181Y-80671792D01*
X153488182Y-80671796D01*
X153553065Y-80831583D01*
X153571125Y-80876059D01*
X153689014Y-81068437D01*
X153836741Y-81238977D01*
X154010338Y-81383100D01*
X154014790Y-81385702D01*
X154014795Y-81385705D01*
X154104130Y-81437908D01*
X154205142Y-81496935D01*
X154415923Y-81577424D01*
X154420991Y-81578455D01*
X154420994Y-81578456D01*
X154529443Y-81600520D01*
X154637020Y-81622407D01*
X154642195Y-81622597D01*
X154642197Y-81622597D01*
X154857331Y-81630486D01*
X154857335Y-81630486D01*
X154862495Y-81630675D01*
X154867615Y-81630019D01*
X154867617Y-81630019D01*
X154937024Y-81621128D01*
X155086292Y-81602006D01*
X155091241Y-81600521D01*
X155091247Y-81600520D01*
X155297452Y-81538655D01*
X155297451Y-81538655D01*
X155302402Y-81537170D01*
X155397458Y-81490602D01*
X155500370Y-81440187D01*
X155500375Y-81440184D01*
X155505021Y-81437908D01*
X155509231Y-81434905D01*
X155509236Y-81434902D01*
X155684494Y-81309891D01*
X155684498Y-81309887D01*
X155688706Y-81306886D01*
X155848526Y-81147623D01*
X155980189Y-80964395D01*
X156080157Y-80762125D01*
X156135225Y-80580873D01*
X156144245Y-80551186D01*
X156144245Y-80551185D01*
X156145747Y-80546242D01*
X156153363Y-80488393D01*
X156174760Y-80325868D01*
X156174761Y-80325862D01*
X156175197Y-80322546D01*
X156176841Y-80255290D01*
X156158354Y-80030422D01*
X156151326Y-80002440D01*
X156138284Y-79950519D01*
X156141088Y-79879578D01*
X156181801Y-79821415D01*
X156247496Y-79794496D01*
X156285607Y-79796354D01*
X156433071Y-79826356D01*
X156438246Y-79826546D01*
X156438248Y-79826546D01*
X156653382Y-79834435D01*
X156653386Y-79834435D01*
X156658546Y-79834624D01*
X156663666Y-79833968D01*
X156663668Y-79833968D01*
X156733075Y-79825077D01*
X156882343Y-79805955D01*
X156887292Y-79804470D01*
X156887298Y-79804469D01*
X157093503Y-79742604D01*
X157093502Y-79742604D01*
X157098453Y-79741119D01*
X157193509Y-79694551D01*
X157296421Y-79644136D01*
X157296426Y-79644133D01*
X157301072Y-79641857D01*
X157305282Y-79638854D01*
X157305287Y-79638851D01*
X157480545Y-79513840D01*
X157480549Y-79513836D01*
X157484757Y-79510835D01*
X157644577Y-79351572D01*
X157776240Y-79168344D01*
X157865818Y-78987096D01*
X157873914Y-78970716D01*
X157873915Y-78970714D01*
X157876208Y-78966074D01*
X157941798Y-78750191D01*
X157954876Y-78650853D01*
X157970811Y-78529817D01*
X157970812Y-78529811D01*
X157971248Y-78526495D01*
X157972892Y-78459239D01*
X157954405Y-78234371D01*
X157899439Y-78015543D01*
X157809470Y-77808630D01*
X157686916Y-77619190D01*
X157535067Y-77452310D01*
X157531016Y-77449111D01*
X157531012Y-77449107D01*
X157362056Y-77315673D01*
X157362052Y-77315671D01*
X157358001Y-77312471D01*
X157160473Y-77203430D01*
X156947788Y-77128115D01*
X156901777Y-77119919D01*
X156730747Y-77089453D01*
X156730743Y-77089453D01*
X156725659Y-77088547D01*
X156653664Y-77087668D01*
X156505219Y-77085854D01*
X156505217Y-77085854D01*
X156500049Y-77085791D01*
X156284306Y-77118804D01*
X156213943Y-77109336D01*
X156159869Y-77063330D01*
X156139252Y-76995393D01*
X156143731Y-76964269D01*
X156143151Y-76964144D01*
X156144245Y-76959084D01*
X156145747Y-76954140D01*
X156147433Y-76941335D01*
X156174760Y-76733766D01*
X156174761Y-76733760D01*
X156175197Y-76730444D01*
X156176841Y-76663188D01*
X156158354Y-76438320D01*
X156103388Y-76219492D01*
X156013419Y-76012579D01*
X155960281Y-75930440D01*
X155893673Y-75827479D01*
X155893671Y-75827476D01*
X155890865Y-75823139D01*
X155739016Y-75656259D01*
X155734965Y-75653060D01*
X155734961Y-75653056D01*
X155566005Y-75519622D01*
X155566001Y-75519620D01*
X155561950Y-75516420D01*
X155364422Y-75407379D01*
X155151737Y-75332064D01*
X155105726Y-75323868D01*
X154934696Y-75293402D01*
X154934692Y-75293402D01*
X154929608Y-75292496D01*
X154857613Y-75291617D01*
X154709168Y-75289803D01*
X154709166Y-75289803D01*
X154703998Y-75289740D01*
X154550129Y-75313285D01*
X154488254Y-75322753D01*
X154417891Y-75313285D01*
X154363817Y-75267279D01*
X154343200Y-75199342D01*
X154347678Y-75168217D01*
X154347099Y-75168092D01*
X154348193Y-75163032D01*
X154349695Y-75158088D01*
X154355156Y-75116609D01*
X154378708Y-74937714D01*
X154378709Y-74937708D01*
X154379145Y-74934392D01*
X154380297Y-74887284D01*
X154380707Y-74870500D01*
X154380707Y-74870496D01*
X154380789Y-74867136D01*
X154362302Y-74642268D01*
X154307336Y-74423440D01*
X154217367Y-74216527D01*
X154094813Y-74027087D01*
X153942964Y-73860207D01*
X153938913Y-73857008D01*
X153938909Y-73857004D01*
X153769953Y-73723570D01*
X153769949Y-73723568D01*
X153765898Y-73720368D01*
X153568370Y-73611327D01*
X153355685Y-73536012D01*
X153305284Y-73527034D01*
X153138644Y-73497350D01*
X153138640Y-73497350D01*
X153133556Y-73496444D01*
X153061561Y-73495565D01*
X152913116Y-73493751D01*
X152913114Y-73493751D01*
X152907946Y-73493688D01*
X152684916Y-73527816D01*
X152470455Y-73597913D01*
X152270322Y-73702096D01*
X152266189Y-73705199D01*
X152266186Y-73705201D01*
X152241721Y-73723570D01*
X152089892Y-73837566D01*
X151934011Y-74000686D01*
X151806865Y-74187076D01*
X151804691Y-74191760D01*
X151804689Y-74191763D01*
X151795213Y-74212179D01*
X151711868Y-74391729D01*
X151651572Y-74609149D01*
X151627596Y-74833498D01*
X151627893Y-74838650D01*
X151627893Y-74838654D01*
X151629860Y-74872763D01*
X151613812Y-74941922D01*
X151562922Y-74991427D01*
X151493346Y-75005559D01*
X151451919Y-74994717D01*
X151360155Y-74952995D01*
X151343092Y-74948006D01*
X151216824Y-74929922D01*
X151199048Y-74929922D01*
X151072780Y-74948006D01*
X151055717Y-74952996D01*
X150938620Y-75006235D01*
X150925266Y-75014458D01*
X150885385Y-75046524D01*
X150880321Y-75051068D01*
X150430482Y-75500908D01*
X150422871Y-75514846D01*
X138580344Y-75514846D01*
X138575789Y-75498094D01*
X138572467Y-75481578D01*
X138569678Y-75460506D01*
X138569677Y-75460503D01*
X138568499Y-75451603D01*
X138558426Y-75428808D01*
X138552091Y-75410944D01*
X138547905Y-75395549D01*
X138547903Y-75395545D01*
X138545548Y-75386884D01*
X138529734Y-75361090D01*
X138521912Y-75346174D01*
X138513313Y-75326716D01*
X138513311Y-75326713D01*
X138509684Y-75318505D01*
X138493615Y-75299449D01*
X138482524Y-75284086D01*
X138474183Y-75270481D01*
X138469491Y-75262828D01*
X138462842Y-75256802D01*
X138462838Y-75256797D01*
X138447071Y-75242507D01*
X138435364Y-75230374D01*
X138421667Y-75214131D01*
X138421666Y-75214130D01*
X138415876Y-75207264D01*
X138395104Y-75193484D01*
X138380145Y-75181850D01*
X138368327Y-75171138D01*
X138368324Y-75171136D01*
X138361672Y-75165107D01*
X138336646Y-75152962D01*
X138334460Y-75151901D01*
X138319815Y-75143540D01*
X138302099Y-75131787D01*
X138302096Y-75131786D01*
X138294617Y-75126824D01*
X138286047Y-75124161D01*
X138286040Y-75124158D01*
X138270816Y-75119428D01*
X138253192Y-75112460D01*
X138238837Y-75105494D01*
X138238836Y-75105494D01*
X138230759Y-75101574D01*
X138200934Y-75096536D01*
X138184534Y-75092622D01*
X138164229Y-75086313D01*
X138164227Y-75086313D01*
X138155654Y-75083649D01*
X138146679Y-75083499D01*
X138146675Y-75083498D01*
X138121491Y-75083076D01*
X138121138Y-75083057D01*
X138120514Y-75082952D01*
X138118734Y-75082929D01*
X138118732Y-75082929D01*
X138113508Y-75082862D01*
X138092533Y-75082592D01*
X138010161Y-75081212D01*
X138009268Y-75081457D01*
X138008367Y-75081508D01*
X132794044Y-75014370D01*
X132726186Y-74993492D01*
X132680388Y-74939242D01*
X132669671Y-74887284D01*
X132714349Y-69749348D01*
X132714402Y-69748679D01*
X132714587Y-69748059D01*
X132715124Y-69660123D01*
X132715298Y-69640141D01*
X132715251Y-69639784D01*
X132715249Y-69639730D01*
X132715421Y-69611522D01*
X132715476Y-69602548D01*
X132713010Y-69593919D01*
X132713009Y-69593914D01*
X132708121Y-69576811D01*
X132704392Y-69558965D01*
X132702024Y-69541343D01*
X132700829Y-69532444D01*
X132689295Y-69506478D01*
X132683296Y-69489953D01*
X132677955Y-69471266D01*
X132677955Y-69471265D01*
X132675488Y-69462635D01*
X132661206Y-69440000D01*
X132652622Y-69423924D01*
X132641755Y-69399460D01*
X132623397Y-69377776D01*
X132613001Y-69363598D01*
X132602630Y-69347161D01*
X132597840Y-69339569D01*
X132577779Y-69321852D01*
X132565029Y-69308832D01*
X132553534Y-69295255D01*
X132553533Y-69295254D01*
X132547731Y-69288401D01*
X132540239Y-69283452D01*
X132540238Y-69283451D01*
X132524024Y-69272740D01*
X132510066Y-69262050D01*
X132495500Y-69249186D01*
X132488772Y-69243244D01*
X132480649Y-69239430D01*
X132480647Y-69239429D01*
X132464552Y-69231873D01*
X132448649Y-69222949D01*
X132433808Y-69213145D01*
X132433807Y-69213144D01*
X132426316Y-69208196D01*
X132399168Y-69199819D01*
X132382769Y-69193475D01*
X132365180Y-69185217D01*
X132365178Y-69185217D01*
X132357052Y-69181401D01*
X132348185Y-69180020D01*
X132348184Y-69180020D01*
X132330605Y-69177283D01*
X132312844Y-69173182D01*
X132295854Y-69167940D01*
X132295850Y-69167939D01*
X132287270Y-69165292D01*
X132278293Y-69165159D01*
X132278292Y-69165159D01*
X132273580Y-69165089D01*
X132252306Y-69164774D01*
X132249408Y-69164641D01*
X132246577Y-69164200D01*
X132214463Y-69164200D01*
X132212597Y-69164186D01*
X132150168Y-69163261D01*
X132150163Y-69163261D01*
X132141772Y-69163137D01*
X132138669Y-69163995D01*
X132135449Y-69164200D01*
X127079070Y-69164200D01*
X127010949Y-69144198D01*
X126964456Y-69090542D01*
X126953072Y-69037433D01*
X126953130Y-69028026D01*
X126981991Y-64285269D01*
X128563301Y-64285269D01*
X128563671Y-64292090D01*
X128569195Y-64342952D01*
X128572821Y-64358204D01*
X128617976Y-64478654D01*
X128626514Y-64494249D01*
X128703015Y-64596324D01*
X128715576Y-64608885D01*
X128817651Y-64685386D01*
X128833246Y-64693924D01*
X128953694Y-64739078D01*
X128968949Y-64742705D01*
X129019814Y-64748231D01*
X129026628Y-64748600D01*
X129662785Y-64748600D01*
X129678024Y-64744125D01*
X129679229Y-64742735D01*
X129680900Y-64735052D01*
X129680900Y-63649115D01*
X129676425Y-63633876D01*
X129675035Y-63632671D01*
X129667352Y-63631000D01*
X128581416Y-63631000D01*
X128566177Y-63635475D01*
X128564972Y-63636865D01*
X128563301Y-63644548D01*
X128563301Y-64285269D01*
X126981991Y-64285269D01*
X127003179Y-60803362D01*
X128558509Y-60803362D01*
X128558806Y-60808514D01*
X128558806Y-60808518D01*
X128564518Y-60907578D01*
X128571497Y-61028614D01*
X128572634Y-61033660D01*
X128572635Y-61033666D01*
X128593884Y-61127952D01*
X128621100Y-61248720D01*
X128623042Y-61253502D01*
X128623043Y-61253506D01*
X128659722Y-61343835D01*
X128705986Y-61457769D01*
X128823875Y-61650147D01*
X128827255Y-61654049D01*
X128895634Y-61732987D01*
X128969313Y-61818045D01*
X128969314Y-61818046D01*
X128971602Y-61820687D01*
X128971057Y-61821159D01*
X129003750Y-61879576D01*
X128999425Y-61950440D01*
X128957473Y-62007717D01*
X128925146Y-62025624D01*
X128833246Y-62060076D01*
X128817651Y-62068614D01*
X128715576Y-62145115D01*
X128703015Y-62157676D01*
X128626514Y-62259751D01*
X128617976Y-62275346D01*
X128572822Y-62395794D01*
X128569195Y-62411049D01*
X128563669Y-62461914D01*
X128563300Y-62468728D01*
X128563300Y-63104885D01*
X128567775Y-63120124D01*
X128569165Y-63121329D01*
X128576848Y-63123000D01*
X130062900Y-63123000D01*
X130131021Y-63143002D01*
X130177514Y-63196658D01*
X130188900Y-63249000D01*
X130188900Y-64730484D01*
X130193375Y-64745723D01*
X130194765Y-64746928D01*
X130202448Y-64748599D01*
X130843169Y-64748599D01*
X130849990Y-64748229D01*
X130900852Y-64742705D01*
X130916104Y-64739079D01*
X131036554Y-64693924D01*
X131052149Y-64685386D01*
X131154224Y-64608885D01*
X131166785Y-64596324D01*
X131243286Y-64494249D01*
X131251824Y-64478654D01*
X131286741Y-64385515D01*
X131329383Y-64328750D01*
X131395945Y-64304051D01*
X131465294Y-64319259D01*
X131499960Y-64347247D01*
X131511602Y-64360687D01*
X131685199Y-64504810D01*
X131689651Y-64507412D01*
X131689656Y-64507415D01*
X131778991Y-64559618D01*
X131880003Y-64618645D01*
X132090784Y-64699134D01*
X132095852Y-64700165D01*
X132095855Y-64700166D01*
X132204304Y-64722230D01*
X132311881Y-64744117D01*
X132317056Y-64744307D01*
X132317058Y-64744307D01*
X132532192Y-64752196D01*
X132532196Y-64752196D01*
X132537356Y-64752385D01*
X132542476Y-64751729D01*
X132542478Y-64751729D01*
X132612920Y-64742705D01*
X132761153Y-64723716D01*
X132766102Y-64722231D01*
X132766108Y-64722230D01*
X132972313Y-64660365D01*
X132972312Y-64660365D01*
X132977263Y-64658880D01*
X133104956Y-64596324D01*
X133175231Y-64561897D01*
X133175236Y-64561894D01*
X133179882Y-64559618D01*
X133184092Y-64556615D01*
X133184097Y-64556612D01*
X133359355Y-64431601D01*
X133359359Y-64431597D01*
X133363567Y-64428596D01*
X133523387Y-64269333D01*
X133644270Y-64101107D01*
X133700264Y-64057459D01*
X133770968Y-64051013D01*
X133833932Y-64083816D01*
X133854025Y-64108799D01*
X133901175Y-64185743D01*
X133901183Y-64185753D01*
X133903875Y-64190147D01*
X134051602Y-64360687D01*
X134225199Y-64504810D01*
X134229651Y-64507412D01*
X134229656Y-64507415D01*
X134318991Y-64559618D01*
X134420003Y-64618645D01*
X134630784Y-64699134D01*
X134635852Y-64700165D01*
X134635855Y-64700166D01*
X134744304Y-64722230D01*
X134851881Y-64744117D01*
X134857056Y-64744307D01*
X134857058Y-64744307D01*
X135072192Y-64752196D01*
X135072196Y-64752196D01*
X135077356Y-64752385D01*
X135082476Y-64751729D01*
X135082478Y-64751729D01*
X135152920Y-64742705D01*
X135301153Y-64723716D01*
X135306102Y-64722231D01*
X135306108Y-64722230D01*
X135512313Y-64660365D01*
X135512312Y-64660365D01*
X135517263Y-64658880D01*
X135644956Y-64596324D01*
X135715231Y-64561897D01*
X135715236Y-64561894D01*
X135719882Y-64559618D01*
X135724092Y-64556615D01*
X135724097Y-64556612D01*
X135899355Y-64431601D01*
X135899359Y-64431597D01*
X135903567Y-64428596D01*
X136063387Y-64269333D01*
X136195050Y-64086105D01*
X136295018Y-63883835D01*
X136360608Y-63667952D01*
X136370537Y-63592535D01*
X136389621Y-63447578D01*
X136389622Y-63447572D01*
X136390058Y-63444256D01*
X136390159Y-63440112D01*
X136391620Y-63380364D01*
X136391620Y-63380360D01*
X136391702Y-63377000D01*
X136373215Y-63152132D01*
X136318249Y-62933304D01*
X136228280Y-62726391D01*
X136180182Y-62652043D01*
X136108534Y-62541291D01*
X136108532Y-62541288D01*
X136105726Y-62536951D01*
X135953877Y-62370071D01*
X135949826Y-62366872D01*
X135949822Y-62366868D01*
X135780866Y-62233434D01*
X135780862Y-62233432D01*
X135776811Y-62230232D01*
X135753435Y-62217328D01*
X135703464Y-62166896D01*
X135688692Y-62097453D01*
X135713808Y-62031047D01*
X135741159Y-62004441D01*
X135899355Y-61891601D01*
X135899359Y-61891597D01*
X135903567Y-61888596D01*
X136063387Y-61729333D01*
X136195050Y-61546105D01*
X136295018Y-61343835D01*
X136360608Y-61127952D01*
X136390058Y-60904256D01*
X136391702Y-60837000D01*
X136373215Y-60612132D01*
X136318249Y-60393304D01*
X136228280Y-60186391D01*
X136180182Y-60112043D01*
X136108534Y-60001291D01*
X136108532Y-60001288D01*
X136105726Y-59996951D01*
X135953877Y-59830071D01*
X135949826Y-59826872D01*
X135949822Y-59826868D01*
X135780866Y-59693434D01*
X135780862Y-59693432D01*
X135776811Y-59690232D01*
X135579283Y-59581191D01*
X135366598Y-59505876D01*
X135316197Y-59496898D01*
X135149557Y-59467214D01*
X135149553Y-59467214D01*
X135144469Y-59466308D01*
X135072474Y-59465429D01*
X134924029Y-59463615D01*
X134924027Y-59463615D01*
X134918859Y-59463552D01*
X134695829Y-59497680D01*
X134481368Y-59567777D01*
X134281235Y-59671960D01*
X134277102Y-59675063D01*
X134277099Y-59675065D01*
X134252634Y-59693434D01*
X134100805Y-59807430D01*
X133944924Y-59970550D01*
X133942012Y-59974819D01*
X133942006Y-59974827D01*
X133848403Y-60112043D01*
X133793492Y-60157046D01*
X133722967Y-60165217D01*
X133659220Y-60133963D01*
X133638523Y-60109479D01*
X133568534Y-60001291D01*
X133568532Y-60001288D01*
X133565726Y-59996951D01*
X133413877Y-59830071D01*
X133409826Y-59826872D01*
X133409822Y-59826868D01*
X133240866Y-59693434D01*
X133240862Y-59693432D01*
X133236811Y-59690232D01*
X133039283Y-59581191D01*
X132826598Y-59505876D01*
X132776197Y-59496898D01*
X132609557Y-59467214D01*
X132609553Y-59467214D01*
X132604469Y-59466308D01*
X132532474Y-59465429D01*
X132384029Y-59463615D01*
X132384027Y-59463615D01*
X132378859Y-59463552D01*
X132155829Y-59497680D01*
X131941368Y-59567777D01*
X131741235Y-59671960D01*
X131737102Y-59675063D01*
X131737099Y-59675065D01*
X131712634Y-59693434D01*
X131560805Y-59807430D01*
X131404924Y-59970550D01*
X131402012Y-59974819D01*
X131402006Y-59974827D01*
X131308403Y-60112043D01*
X131253492Y-60157046D01*
X131182967Y-60165217D01*
X131119220Y-60133963D01*
X131098523Y-60109479D01*
X131028534Y-60001291D01*
X131028532Y-60001288D01*
X131025726Y-59996951D01*
X130873877Y-59830071D01*
X130869826Y-59826872D01*
X130869822Y-59826868D01*
X130700866Y-59693434D01*
X130700862Y-59693432D01*
X130696811Y-59690232D01*
X130499283Y-59581191D01*
X130286598Y-59505876D01*
X130236197Y-59496898D01*
X130069557Y-59467214D01*
X130069553Y-59467214D01*
X130064469Y-59466308D01*
X129992474Y-59465429D01*
X129844029Y-59463615D01*
X129844027Y-59463615D01*
X129838859Y-59463552D01*
X129615829Y-59497680D01*
X129401368Y-59567777D01*
X129201235Y-59671960D01*
X129197102Y-59675063D01*
X129197099Y-59675065D01*
X129172634Y-59693434D01*
X129020805Y-59807430D01*
X128864924Y-59970550D01*
X128737778Y-60156940D01*
X128735604Y-60161624D01*
X128735602Y-60161627D01*
X128664302Y-60315231D01*
X128642781Y-60361593D01*
X128582485Y-60579013D01*
X128558509Y-60803362D01*
X127003179Y-60803362D01*
X127021572Y-57780687D01*
X127041989Y-57712690D01*
X127095926Y-57666524D01*
X127147060Y-57655455D01*
X127872551Y-57652518D01*
X138424979Y-57609796D01*
X138493180Y-57629522D01*
X138539890Y-57682989D01*
X138551484Y-57736881D01*
X138506316Y-62976327D01*
X138505282Y-63058342D01*
X138507693Y-63066989D01*
X138513032Y-63086142D01*
X138516537Y-63103191D01*
X138519186Y-63122900D01*
X138519187Y-63122904D01*
X138520382Y-63131793D01*
X138524025Y-63139993D01*
X138524026Y-63139996D01*
X138531066Y-63155841D01*
X138537292Y-63173165D01*
X138544358Y-63198512D01*
X138549098Y-63206133D01*
X138549098Y-63206134D01*
X138559596Y-63223016D01*
X138567745Y-63238396D01*
X138571587Y-63247042D01*
X138579465Y-63264773D01*
X138585262Y-63271619D01*
X138585265Y-63271624D01*
X138596472Y-63284859D01*
X138607311Y-63299741D01*
X138621204Y-63322081D01*
X138639378Y-63338343D01*
X138642710Y-63341325D01*
X138654848Y-63353799D01*
X138673498Y-63375824D01*
X138695462Y-63390331D01*
X138710035Y-63401567D01*
X138729643Y-63419113D01*
X138739910Y-63424015D01*
X138755686Y-63431548D01*
X138770832Y-63440112D01*
X138787425Y-63451071D01*
X138787428Y-63451073D01*
X138794919Y-63456020D01*
X138803501Y-63458667D01*
X138803500Y-63458667D01*
X138820058Y-63463775D01*
X138837207Y-63470472D01*
X138846571Y-63474943D01*
X138860957Y-63481812D01*
X138869819Y-63483251D01*
X138889447Y-63486438D01*
X138906386Y-63490405D01*
X138933968Y-63498914D01*
X138963693Y-63499352D01*
X138968549Y-63499424D01*
X138969796Y-63499485D01*
X138971318Y-63499732D01*
X138987655Y-63499838D01*
X139003329Y-63499941D01*
X139004361Y-63499952D01*
X139074364Y-63500983D01*
X139074366Y-63500983D01*
X139079466Y-63501058D01*
X139081244Y-63500566D01*
X139083019Y-63500459D01*
X142730493Y-63524195D01*
X150090421Y-63572090D01*
X150158409Y-63592535D01*
X150204552Y-63646492D01*
X150215600Y-63698087D01*
X150215600Y-68572275D01*
X150215583Y-68574357D01*
X150214592Y-68634329D01*
X150214426Y-68644352D01*
X150216802Y-68653005D01*
X150223125Y-68676033D01*
X150226349Y-68691532D01*
X150231005Y-68724045D01*
X150240246Y-68744369D01*
X150247045Y-68763151D01*
X150252955Y-68784674D01*
X150257666Y-68792316D01*
X150270192Y-68812635D01*
X150277628Y-68826589D01*
X150291233Y-68856510D01*
X150297091Y-68863308D01*
X150297092Y-68863310D01*
X150305801Y-68873417D01*
X150317605Y-68889545D01*
X150329316Y-68908542D01*
X150353390Y-68930253D01*
X150353710Y-68930542D01*
X150364777Y-68941862D01*
X150386219Y-68966747D01*
X150404955Y-68978890D01*
X150420796Y-68991045D01*
X150437375Y-69005998D01*
X150466962Y-69020267D01*
X150480760Y-69028026D01*
X150500794Y-69041011D01*
X150500797Y-69041012D01*
X150508327Y-69045893D01*
X150516922Y-69048463D01*
X150516923Y-69048464D01*
X150529713Y-69052289D01*
X150548344Y-69059515D01*
X150568444Y-69069209D01*
X150590783Y-69072926D01*
X150600844Y-69074600D01*
X150616265Y-69078174D01*
X150635866Y-69084036D01*
X150647741Y-69087587D01*
X150656716Y-69087642D01*
X150656717Y-69087642D01*
X150708844Y-69087960D01*
X150728836Y-69088082D01*
X150729296Y-69088086D01*
X152964622Y-69111371D01*
X155523449Y-69138026D01*
X155526333Y-69138242D01*
X155529137Y-69139053D01*
X155564024Y-69138950D01*
X155600754Y-69138843D01*
X155602433Y-69138849D01*
X155616584Y-69138996D01*
X155631584Y-69139152D01*
X155634112Y-69138817D01*
X155636628Y-69138737D01*
X155674651Y-69138625D01*
X155683263Y-69136079D01*
X155683264Y-69136079D01*
X155697026Y-69132011D01*
X155716183Y-69127935D01*
X155730407Y-69126049D01*
X155739307Y-69124869D01*
X155747516Y-69121239D01*
X155747524Y-69121237D01*
X155768433Y-69111992D01*
X155783663Y-69106400D01*
X155805583Y-69099920D01*
X155805588Y-69099918D01*
X155814196Y-69097373D01*
X155821745Y-69092514D01*
X155821747Y-69092513D01*
X155833810Y-69084748D01*
X155851056Y-69075458D01*
X155864181Y-69069655D01*
X155864184Y-69069653D01*
X155872392Y-69066024D01*
X155879252Y-69060236D01*
X155886866Y-69055478D01*
X155888244Y-69057683D01*
X155940716Y-69034552D01*
X155990487Y-69042380D01*
X155983656Y-68994868D01*
X156013180Y-68930253D01*
X156016709Y-68926183D01*
X156031888Y-68908679D01*
X156041611Y-68887474D01*
X156051132Y-68870361D01*
X156059062Y-68858401D01*
X156059063Y-68858399D01*
X156064026Y-68850914D01*
X156073466Y-68820506D01*
X156079267Y-68805347D01*
X156088796Y-68784566D01*
X156088798Y-68784560D01*
X156092537Y-68776405D01*
X156095918Y-68753316D01*
X156100249Y-68734234D01*
X156107170Y-68711942D01*
X156107742Y-68677293D01*
X156108018Y-68670786D01*
X156108031Y-68670597D01*
X156108737Y-68665778D01*
X156108467Y-68635940D01*
X156108479Y-68632718D01*
X156109426Y-68575419D01*
X156109426Y-68575417D01*
X156109574Y-68566448D01*
X156108142Y-68561234D01*
X156107737Y-68555226D01*
X156087628Y-66333238D01*
X156063342Y-63649689D01*
X156082727Y-63581392D01*
X156135960Y-63534416D01*
X156188774Y-63522552D01*
X157214281Y-63517974D01*
X161233323Y-63500031D01*
X161235642Y-63500043D01*
X161278024Y-63500658D01*
X161295607Y-63500913D01*
X161295608Y-63500913D01*
X161304577Y-63501043D01*
X161313223Y-63498650D01*
X161313226Y-63498650D01*
X161336990Y-63492073D01*
X161352163Y-63488865D01*
X161385443Y-63483947D01*
X161393797Y-63480104D01*
X161405014Y-63474943D01*
X161424063Y-63467977D01*
X161444821Y-63462232D01*
X161452451Y-63457507D01*
X161452456Y-63457505D01*
X161473412Y-63444528D01*
X161487068Y-63437193D01*
X161493315Y-63434319D01*
X161563557Y-63424015D01*
X161628222Y-63453323D01*
X161666776Y-63512939D01*
X161671971Y-63547096D01*
X161744863Y-68989650D01*
X161745150Y-69011113D01*
X161726062Y-69079495D01*
X161673033Y-69126702D01*
X161619161Y-69138800D01*
X156108374Y-69138800D01*
X156074197Y-69128765D01*
X156083000Y-69159495D01*
X156083000Y-75133200D01*
X156096400Y-75133260D01*
X156096401Y-75133260D01*
X159294449Y-75147537D01*
X161772600Y-75158600D01*
X161772600Y-69290200D01*
X161792602Y-69222079D01*
X161846258Y-69175586D01*
X161898600Y-69164200D01*
X167730055Y-69164200D01*
X167753610Y-69171116D01*
X167741754Y-69129716D01*
X167741768Y-69126702D01*
X167761324Y-64752385D01*
X167766359Y-63626115D01*
X167786666Y-63558084D01*
X167840529Y-63511832D01*
X167892923Y-63500679D01*
X173391995Y-63525338D01*
X173430726Y-63536900D01*
X173406640Y-63480104D01*
X173405800Y-63465583D01*
X173405800Y-57531000D01*
X173392115Y-57531061D01*
X173392113Y-57531061D01*
X169887509Y-57546777D01*
X167741600Y-57556400D01*
X167741600Y-63356361D01*
X167721598Y-63424482D01*
X167667942Y-63470975D01*
X167615436Y-63482361D01*
X165353108Y-63479407D01*
X161767935Y-63474727D01*
X161699841Y-63454636D01*
X161653418Y-63400920D01*
X161643406Y-63330633D01*
X161662451Y-63281065D01*
X161665773Y-63277367D01*
X161671816Y-63264773D01*
X161680324Y-63247042D01*
X161687886Y-63233491D01*
X161701201Y-63212746D01*
X161701201Y-63212745D01*
X161706050Y-63205191D01*
X161712131Y-63184523D01*
X161719402Y-63165594D01*
X161728721Y-63146171D01*
X161734174Y-63112985D01*
X161737627Y-63097863D01*
X161747121Y-63065592D01*
X161747247Y-62988780D01*
X161747251Y-62988003D01*
X161747319Y-62979987D01*
X161792699Y-57579741D01*
X161813273Y-57511791D01*
X161867318Y-57465751D01*
X161918695Y-57454800D01*
X167200754Y-57454800D01*
X167202617Y-57454814D01*
X167273438Y-57455861D01*
X167282088Y-57453470D01*
X167282094Y-57453469D01*
X167304572Y-57447255D01*
X167320279Y-57443973D01*
X167324806Y-57443325D01*
X167352245Y-57439395D01*
X167360412Y-57435682D01*
X167360418Y-57435680D01*
X167373071Y-57429927D01*
X167391644Y-57423185D01*
X167405034Y-57419483D01*
X167405037Y-57419482D01*
X167413692Y-57417089D01*
X167441158Y-57400091D01*
X167455306Y-57392536D01*
X167484710Y-57379167D01*
X167502038Y-57364236D01*
X167517978Y-57352548D01*
X167529793Y-57345236D01*
X167529795Y-57345234D01*
X167537427Y-57340511D01*
X167559017Y-57316488D01*
X167570471Y-57305270D01*
X167594947Y-57284181D01*
X167607392Y-57264981D01*
X167619401Y-57249300D01*
X167634695Y-57232283D01*
X167648673Y-57203171D01*
X167656527Y-57189174D01*
X167669211Y-57169606D01*
X167669213Y-57169603D01*
X167674093Y-57162073D01*
X167680646Y-57140162D01*
X167687776Y-57121733D01*
X167693792Y-57109203D01*
X167693794Y-57109196D01*
X167697679Y-57101105D01*
X167702924Y-57069239D01*
X167706533Y-57053601D01*
X167713215Y-57031259D01*
X167715787Y-57022659D01*
X167716326Y-56934402D01*
X167717133Y-56841461D01*
X167757918Y-52140902D01*
X167812327Y-45870246D01*
X167832919Y-45802302D01*
X167886976Y-45756277D01*
X167938310Y-45745340D01*
X182686818Y-45743917D01*
X182701719Y-45744800D01*
G37*
%TD.AperFunction*%
%TD*%
M02*
