%TF.GenerationSoftware,KiCad,Pcbnew,(6.0.1)*%
%TF.CreationDate,2022-06-11T15:48:26-05:00*%
%TF.ProjectId,Project Narsil Sword,50726f6a-6563-4742-904e-617273696c20,rev?*%
%TF.SameCoordinates,Original*%
%TF.FileFunction,Soldermask,Bot*%
%TF.FilePolarity,Negative*%
%FSLAX46Y46*%
G04 Gerber Fmt 4.6, Leading zero omitted, Abs format (unit mm)*
G04 Created by KiCad (PCBNEW (6.0.1)) date 2022-06-11 15:48:26*
%MOMM*%
%LPD*%
G01*
G04 APERTURE LIST*
G04 Aperture macros list*
%AMRoundRect*
0 Rectangle with rounded corners*
0 $1 Rounding radius*
0 $2 $3 $4 $5 $6 $7 $8 $9 X,Y pos of 4 corners*
0 Add a 4 corners polygon primitive as box body*
4,1,4,$2,$3,$4,$5,$6,$7,$8,$9,$2,$3,0*
0 Add four circle primitives for the rounded corners*
1,1,$1+$1,$2,$3*
1,1,$1+$1,$4,$5*
1,1,$1+$1,$6,$7*
1,1,$1+$1,$8,$9*
0 Add four rect primitives between the rounded corners*
20,1,$1+$1,$2,$3,$4,$5,0*
20,1,$1+$1,$4,$5,$6,$7,0*
20,1,$1+$1,$6,$7,$8,$9,0*
20,1,$1+$1,$8,$9,$2,$3,0*%
%AMHorizOval*
0 Thick line with rounded ends*
0 $1 width*
0 $2 $3 position (X,Y) of the first rounded end (center of the circle)*
0 $4 $5 position (X,Y) of the second rounded end (center of the circle)*
0 Add line between two ends*
20,1,$1,$2,$3,$4,$5,0*
0 Add two circle primitives to create the rounded ends*
1,1,$1,$2,$3*
1,1,$1,$4,$5*%
G04 Aperture macros list end*
%ADD10HorizOval,2.127200X0.000000X0.000000X0.000000X0.000000X0*%
%ADD11RoundRect,0.200000X0.000000X1.221315X-1.221315X0.000000X0.000000X-1.221315X1.221315X0.000000X0*%
%ADD12C,2.127200*%
%ADD13RoundRect,0.200000X-0.862670X-4.794184X4.794184X0.862670X0.862670X4.794184X-4.794184X-0.862670X0*%
%ADD14RoundRect,0.200000X1.046518X-2.884996X2.884996X-1.046518X-1.046518X2.884996X-2.884996X1.046518X0*%
%ADD15RoundRect,0.200000X0.500000X0.400000X-0.500000X0.400000X-0.500000X-0.400000X0.500000X-0.400000X0*%
%ADD16C,1.300000*%
%ADD17RoundRect,0.200000X0.350000X0.750000X-0.350000X0.750000X-0.350000X-0.750000X0.350000X-0.750000X0*%
%ADD18C,6.400000*%
%ADD19O,2.127200X2.127200*%
%ADD20RoundRect,0.200000X0.863600X0.863600X-0.863600X0.863600X-0.863600X-0.863600X0.863600X-0.863600X0*%
%ADD21RoundRect,0.200000X-0.863600X0.863600X-0.863600X-0.863600X0.863600X-0.863600X0.863600X0.863600X0*%
G04 APERTURE END LIST*
D10*
%TO.C,X1*%
X160751471Y-66475627D03*
D11*
X158955420Y-68271679D03*
D10*
X162547523Y-68271679D03*
X160751471Y-70067730D03*
D12*
X164343574Y-70067730D03*
X162547523Y-71863781D03*
%TD*%
D13*
%TO.C,U1*%
X108254800Y-121462800D03*
D14*
X99836694Y-129880906D03*
X116672906Y-113044694D03*
%TD*%
D15*
%TO.C,1/0*%
X95867200Y-144457400D03*
X103167200Y-144457400D03*
X95867200Y-142247400D03*
D16*
X98017200Y-143357400D03*
X101017200Y-143357400D03*
D15*
X103167200Y-142247400D03*
D17*
X101767200Y-141597400D03*
X98767200Y-141597400D03*
X97267200Y-141597400D03*
%TD*%
D18*
%TO.C,REF\u002A\u002A*%
X181457600Y-49530000D03*
%TD*%
D19*
%TO.C,X5*%
X91813700Y-136966000D03*
D20*
X89273700Y-136966000D03*
D19*
X91813700Y-139506000D03*
X89273700Y-139506000D03*
D12*
X91813700Y-142046000D03*
X89273700Y-142046000D03*
%TD*%
D10*
%TO.C,X4*%
X123756148Y-103882646D03*
D11*
X121960097Y-105678698D03*
D10*
X125552200Y-105678698D03*
X123756148Y-107474749D03*
D12*
X127348251Y-107474749D03*
X125552200Y-109270800D03*
%TD*%
D19*
%TO.C,X3*%
X169541000Y-96330700D03*
D20*
X167001000Y-96330700D03*
D19*
X169541000Y-98870700D03*
X167001000Y-98870700D03*
D12*
X169541000Y-101410700D03*
X167001000Y-101410700D03*
%TD*%
D19*
%TO.C,X2*%
X129934900Y-60837000D03*
D21*
X129934900Y-63377000D03*
D19*
X132474900Y-60837000D03*
X132474900Y-63377000D03*
D12*
X135014900Y-60837000D03*
X135014900Y-63377000D03*
%TD*%
M02*
