%TF.GenerationSoftware,KiCad,Pcbnew,7.0.2*%
%TF.CreationDate,2023-08-16T09:45:11-05:00*%
%TF.ProjectId,Project Narsil Sword,50726f6a-6563-4742-904e-617273696c20,rev?*%
%TF.SameCoordinates,Original*%
%TF.FileFunction,Soldermask,Top*%
%TF.FilePolarity,Negative*%
%FSLAX46Y46*%
G04 Gerber Fmt 4.6, Leading zero omitted, Abs format (unit mm)*
G04 Created by KiCad (PCBNEW 7.0.2) date 2023-08-16 09:45:11*
%MOMM*%
%LPD*%
G01*
G04 APERTURE LIST*
G04 Aperture macros list*
%AMRoundRect*
0 Rectangle with rounded corners*
0 $1 Rounding radius*
0 $2 $3 $4 $5 $6 $7 $8 $9 X,Y pos of 4 corners*
0 Add a 4 corners polygon primitive as box body*
4,1,4,$2,$3,$4,$5,$6,$7,$8,$9,$2,$3,0*
0 Add four circle primitives for the rounded corners*
1,1,$1+$1,$2,$3*
1,1,$1+$1,$4,$5*
1,1,$1+$1,$6,$7*
1,1,$1+$1,$8,$9*
0 Add four rect primitives between the rounded corners*
20,1,$1+$1,$2,$3,$4,$5,0*
20,1,$1+$1,$4,$5,$6,$7,0*
20,1,$1+$1,$6,$7,$8,$9,0*
20,1,$1+$1,$8,$9,$2,$3,0*%
%AMHorizOval*
0 Thick line with rounded ends*
0 $1 width*
0 $2 $3 position (X,Y) of the first rounded end (center of the circle)*
0 $4 $5 position (X,Y) of the second rounded end (center of the circle)*
0 Add line between two ends*
20,1,$1,$2,$3,$4,$5,0*
0 Add two circle primitives to create the rounded ends*
1,1,$1,$2,$3*
1,1,$1,$4,$5*%
G04 Aperture macros list end*
%ADD10C,0.010000*%
%ADD11C,6.400000*%
%ADD12O,2.127200X2.127200*%
%ADD13RoundRect,0.200000X0.863600X0.863600X-0.863600X0.863600X-0.863600X-0.863600X0.863600X-0.863600X0*%
%ADD14C,2.127200*%
%ADD15HorizOval,2.127200X0.000000X0.000000X0.000000X0.000000X0*%
%ADD16RoundRect,0.200000X0.000000X1.221315X-1.221315X0.000000X0.000000X-1.221315X1.221315X0.000000X0*%
%ADD17RoundRect,0.200000X-0.863600X0.863600X-0.863600X-0.863600X0.863600X-0.863600X0.863600X0.863600X0*%
%ADD18C,0.900000*%
G04 APERTURE END LIST*
%TO.C,G\u002A\u002A\u002A*%
D10*
X179375066Y-57550700D02*
X173406066Y-57550700D01*
X173400852Y-63366241D01*
X173400414Y-63825870D01*
X173399951Y-64257661D01*
X173399465Y-64660862D01*
X173398958Y-65034722D01*
X173398435Y-65378488D01*
X173397896Y-65691408D01*
X173397346Y-65972730D01*
X173396786Y-66221701D01*
X173396219Y-66437571D01*
X173395649Y-66619587D01*
X173395077Y-66766996D01*
X173394506Y-66879047D01*
X173393940Y-66954987D01*
X173393380Y-66994065D01*
X173392830Y-66995527D01*
X173392292Y-66958624D01*
X173391769Y-66882601D01*
X173391263Y-66766707D01*
X173390777Y-66610191D01*
X173390315Y-66412299D01*
X173390192Y-66350741D01*
X173384746Y-63519700D01*
X167754566Y-63519700D01*
X167754566Y-69171200D01*
X161764400Y-69171200D01*
X161764400Y-75140200D01*
X156112900Y-75140200D01*
X156112900Y-80791700D01*
X161764400Y-80791700D01*
X161764400Y-92412200D01*
X167754566Y-92412200D01*
X167754566Y-98402512D01*
X164754191Y-98397148D01*
X161753816Y-98391783D01*
X161748452Y-95412575D01*
X161743087Y-92433366D01*
X156091733Y-92433366D01*
X156091733Y-80791700D01*
X150143900Y-80791700D01*
X150143900Y-92433366D01*
X144492400Y-92433366D01*
X144492400Y-98402366D01*
X138523400Y-98402366D01*
X138523400Y-104053866D01*
X132871900Y-104053866D01*
X132871900Y-110022866D01*
X126881733Y-110022866D01*
X126881733Y-115695533D01*
X121230233Y-115695533D01*
X121230233Y-121664533D01*
X115261233Y-121664533D01*
X115261233Y-127316033D01*
X109609733Y-127316033D01*
X109609733Y-133285033D01*
X103640733Y-133285033D01*
X103640733Y-138936533D01*
X91999066Y-138936533D01*
X91999066Y-127294866D01*
X97968066Y-127294866D01*
X97968066Y-121643366D01*
X103619566Y-121643366D01*
X103619566Y-115674366D01*
X109588566Y-115674366D01*
X109588566Y-110001700D01*
X115240066Y-110001700D01*
X115240066Y-104032700D01*
X121209066Y-104032700D01*
X121209066Y-98381200D01*
X126881733Y-98381200D01*
X126881733Y-92412200D01*
X132850733Y-92412200D01*
X132850733Y-86760700D01*
X138502233Y-86760700D01*
X138502233Y-80791700D01*
X150122733Y-80791700D01*
X150122733Y-75140200D01*
X138502233Y-75140200D01*
X138502233Y-69171200D01*
X132850733Y-69171200D01*
X132850733Y-63498533D01*
X138523400Y-63498533D01*
X138523400Y-69150033D01*
X150143900Y-69150033D01*
X150143900Y-75119033D01*
X156091733Y-75119033D01*
X156091733Y-69150033D01*
X161743233Y-69150033D01*
X161743233Y-63498533D01*
X167733400Y-63498533D01*
X167733400Y-57550846D01*
X164743608Y-57545408D01*
X164521997Y-57544954D01*
X164342013Y-57544476D01*
X164202949Y-57543978D01*
X164104100Y-57543461D01*
X164044759Y-57542929D01*
X164024220Y-57542384D01*
X164041777Y-57541828D01*
X164096723Y-57541266D01*
X164188353Y-57540698D01*
X164315959Y-57540128D01*
X164478836Y-57539558D01*
X164676277Y-57538992D01*
X164907576Y-57538431D01*
X165172027Y-57537879D01*
X165468923Y-57537338D01*
X165797558Y-57536811D01*
X166157226Y-57536300D01*
X166547221Y-57535808D01*
X166966837Y-57535338D01*
X167415366Y-57534892D01*
X167569358Y-57534751D01*
X173384900Y-57529533D01*
X173384900Y-51878033D01*
X179375066Y-51878033D01*
X179375066Y-57550700D01*
G36*
X179375066Y-57550700D02*
G01*
X173406066Y-57550700D01*
X173400852Y-63366241D01*
X173400414Y-63825870D01*
X173399951Y-64257661D01*
X173399465Y-64660862D01*
X173398958Y-65034722D01*
X173398435Y-65378488D01*
X173397896Y-65691408D01*
X173397346Y-65972730D01*
X173396786Y-66221701D01*
X173396219Y-66437571D01*
X173395649Y-66619587D01*
X173395077Y-66766996D01*
X173394506Y-66879047D01*
X173393940Y-66954987D01*
X173393380Y-66994065D01*
X173392830Y-66995527D01*
X173392292Y-66958624D01*
X173391769Y-66882601D01*
X173391263Y-66766707D01*
X173390777Y-66610191D01*
X173390315Y-66412299D01*
X173390192Y-66350741D01*
X173384746Y-63519700D01*
X167754566Y-63519700D01*
X167754566Y-69171200D01*
X161764400Y-69171200D01*
X161764400Y-75140200D01*
X156112900Y-75140200D01*
X156112900Y-80791700D01*
X161764400Y-80791700D01*
X161764400Y-92412200D01*
X167754566Y-92412200D01*
X167754566Y-98402512D01*
X164754191Y-98397148D01*
X161753816Y-98391783D01*
X161748452Y-95412575D01*
X161743087Y-92433366D01*
X156091733Y-92433366D01*
X156091733Y-80791700D01*
X150143900Y-80791700D01*
X150143900Y-92433366D01*
X144492400Y-92433366D01*
X144492400Y-98402366D01*
X138523400Y-98402366D01*
X138523400Y-104053866D01*
X132871900Y-104053866D01*
X132871900Y-110022866D01*
X126881733Y-110022866D01*
X126881733Y-115695533D01*
X121230233Y-115695533D01*
X121230233Y-121664533D01*
X115261233Y-121664533D01*
X115261233Y-127316033D01*
X109609733Y-127316033D01*
X109609733Y-133285033D01*
X103640733Y-133285033D01*
X103640733Y-138936533D01*
X91999066Y-138936533D01*
X91999066Y-127294866D01*
X97968066Y-127294866D01*
X97968066Y-121643366D01*
X103619566Y-121643366D01*
X103619566Y-115674366D01*
X109588566Y-115674366D01*
X109588566Y-110001700D01*
X115240066Y-110001700D01*
X115240066Y-104032700D01*
X121209066Y-104032700D01*
X121209066Y-98381200D01*
X126881733Y-98381200D01*
X126881733Y-92412200D01*
X132850733Y-92412200D01*
X132850733Y-86760700D01*
X138502233Y-86760700D01*
X138502233Y-80791700D01*
X150122733Y-80791700D01*
X150122733Y-75140200D01*
X138502233Y-75140200D01*
X138502233Y-69171200D01*
X132850733Y-69171200D01*
X132850733Y-63498533D01*
X138523400Y-63498533D01*
X138523400Y-69150033D01*
X150143900Y-69150033D01*
X150143900Y-75119033D01*
X156091733Y-75119033D01*
X156091733Y-69150033D01*
X161743233Y-69150033D01*
X161743233Y-63498533D01*
X167733400Y-63498533D01*
X167733400Y-57550846D01*
X164743608Y-57545408D01*
X164521997Y-57544954D01*
X164342013Y-57544476D01*
X164202949Y-57543978D01*
X164104100Y-57543461D01*
X164044759Y-57542929D01*
X164024220Y-57542384D01*
X164041777Y-57541828D01*
X164096723Y-57541266D01*
X164188353Y-57540698D01*
X164315959Y-57540128D01*
X164478836Y-57539558D01*
X164676277Y-57538992D01*
X164907576Y-57538431D01*
X165172027Y-57537879D01*
X165468923Y-57537338D01*
X165797558Y-57536811D01*
X166157226Y-57536300D01*
X166547221Y-57535808D01*
X166966837Y-57535338D01*
X167415366Y-57534892D01*
X167569358Y-57534751D01*
X173384900Y-57529533D01*
X173384900Y-51878033D01*
X179375066Y-51878033D01*
X179375066Y-57550700D01*
G37*
%TD*%
D11*
%TO.C,REF\u002A\u002A*%
X181457600Y-49530000D03*
%TD*%
D12*
%TO.C,X5*%
X91813700Y-136966000D03*
D13*
X89273700Y-136966000D03*
D12*
X91813700Y-139506000D03*
X89273700Y-139506000D03*
D14*
X91813700Y-142046000D03*
X89273700Y-142046000D03*
%TD*%
D15*
%TO.C,X1*%
X160751471Y-66475627D03*
D16*
X158955420Y-68271679D03*
D15*
X162547523Y-68271679D03*
X160751471Y-70067730D03*
D14*
X164343574Y-70067730D03*
X162547523Y-71863781D03*
%TD*%
D15*
%TO.C,X4*%
X123756148Y-103882646D03*
D16*
X121960097Y-105678698D03*
D15*
X125552200Y-105678698D03*
X123756148Y-107474749D03*
D14*
X127348251Y-107474749D03*
X125552200Y-109270800D03*
%TD*%
D12*
%TO.C,X3*%
X169541000Y-96330700D03*
D13*
X167001000Y-96330700D03*
D12*
X169541000Y-98870700D03*
X167001000Y-98870700D03*
D14*
X169541000Y-101410700D03*
X167001000Y-101410700D03*
%TD*%
D12*
%TO.C,X2*%
X129934900Y-60837000D03*
D17*
X129934900Y-63377000D03*
D12*
X132474900Y-60837000D03*
X132474900Y-63377000D03*
D14*
X135014900Y-60837000D03*
X135014900Y-63377000D03*
%TD*%
D18*
%TO.C,SW1*%
X101017200Y-143357400D03*
X98017200Y-143357400D03*
%TD*%
M02*
