%TF.GenerationSoftware,KiCad,Pcbnew,7.0.11*%
%TF.CreationDate,2024-07-23T21:54:52-05:00*%
%TF.ProjectId,Project Narsil Sword,50726f6a-6563-4742-904e-617273696c20,rev?*%
%TF.SameCoordinates,Original*%
%TF.FileFunction,Profile,NP*%
%FSLAX46Y46*%
G04 Gerber Fmt 4.6, Leading zero omitted, Abs format (unit mm)*
G04 Created by KiCad (PCBNEW 7.0.11) date 2024-07-23 21:54:52*
%MOMM*%
%LPD*%
G01*
G04 APERTURE LIST*
%TA.AperFunction,Profile*%
%ADD10C,0.150000*%
%TD*%
G04 APERTURE END LIST*
D10*
X68250000Y-129170000D02*
X67950000Y-152670000D01*
X75490000Y-129280000D02*
X68250000Y-129170000D01*
X75570000Y-122110000D02*
X75490000Y-129280000D01*
X83470000Y-122190000D02*
X75570000Y-122110000D01*
X83470000Y-114450000D02*
X83470000Y-122190000D01*
X90730000Y-114280000D02*
X83470000Y-114450000D01*
X90710000Y-106960000D02*
X90730000Y-114280000D01*
X98780000Y-107010000D02*
X90710000Y-106960000D01*
X98880000Y-99220000D02*
X98780000Y-107010000D01*
X106350000Y-99290000D02*
X98880000Y-99220000D01*
X106430000Y-92040000D02*
X106350000Y-99290000D01*
X114310000Y-92060000D02*
X106430000Y-92040000D01*
X114380000Y-83860000D02*
X114310000Y-92060000D01*
X121400000Y-83840000D02*
X114380000Y-83860000D01*
X121330000Y-76150000D02*
X121400000Y-83840000D01*
X129020000Y-76140000D02*
X121330000Y-76150000D01*
X129080000Y-69110000D02*
X129020000Y-76140000D01*
X137450000Y-69160000D02*
X129080000Y-69110000D01*
X137480000Y-62610000D02*
X137450000Y-69160000D01*
X129910000Y-62570000D02*
X137480000Y-62610000D01*
X130030000Y-54800000D02*
X129910000Y-62570000D01*
X122180000Y-54760000D02*
X130030000Y-54800000D01*
X122260000Y-39030000D02*
X122180000Y-54760000D01*
X138310000Y-39220000D02*
X122260000Y-39030000D01*
X138270000Y-46870000D02*
X138310000Y-39220000D01*
X153510000Y-47160000D02*
X138270000Y-46870000D01*
X153410000Y-54490000D02*
X153510000Y-47160000D01*
X160880000Y-54560000D02*
X153410000Y-54490000D01*
X160950000Y-47250000D02*
X160880000Y-54560000D01*
X168380000Y-47270000D02*
X160950000Y-47250000D01*
X168430000Y-39200000D02*
X168380000Y-47270000D01*
X176110000Y-39110000D02*
X168430000Y-39200000D01*
X176020000Y-24110000D02*
X176110000Y-39110000D01*
X199950000Y-24370000D02*
X176020000Y-24110000D01*
X199660000Y-47990000D02*
X199950000Y-24370000D01*
X184170000Y-47770000D02*
X199660000Y-47990000D01*
X184280000Y-55220000D02*
X184170000Y-47770000D01*
X176760000Y-55120000D02*
X184280000Y-55220000D01*
X176740000Y-62860000D02*
X176760000Y-55120000D01*
X168890000Y-62810000D02*
X176740000Y-62860000D01*
X168900000Y-69620000D02*
X168890000Y-62810000D01*
X176830000Y-69700000D02*
X168900000Y-69620000D01*
X176670000Y-84650000D02*
X176830000Y-69700000D01*
X184290000Y-84650000D02*
X176670000Y-84650000D01*
X184090000Y-100420000D02*
X184290000Y-84650000D01*
X167920000Y-100260000D02*
X184090000Y-100420000D01*
X167960000Y-92960000D02*
X167920000Y-100260000D01*
X160430000Y-92930000D02*
X167960000Y-92960000D01*
X160550000Y-85200000D02*
X160430000Y-92930000D01*
X153210000Y-85080000D02*
X160550000Y-85200000D01*
X153500000Y-93560000D02*
X153210000Y-85080000D01*
X146430000Y-93550000D02*
X153500000Y-93560000D01*
X146350000Y-100780000D02*
X146430000Y-93550000D01*
X138540000Y-100770000D02*
X146350000Y-100780000D01*
X138160000Y-108310000D02*
X138540000Y-100770000D01*
X130690000Y-108230000D02*
X138160000Y-108310000D01*
X130690000Y-115760000D02*
X130690000Y-108230000D01*
X123080000Y-115740000D02*
X130690000Y-115760000D01*
X123040000Y-123320000D02*
X123080000Y-115740000D01*
X115420000Y-123310000D02*
X123040000Y-123320000D01*
X115370000Y-130730000D02*
X115420000Y-123310000D01*
X107360000Y-130710000D02*
X115370000Y-130730000D01*
X107340000Y-137960000D02*
X107360000Y-130710000D01*
X99340000Y-137950000D02*
X107340000Y-137960000D01*
X99340000Y-145210000D02*
X99340000Y-137950000D01*
X91530000Y-145090000D02*
X99340000Y-145210000D01*
X91530000Y-152790000D02*
X91530000Y-145090000D01*
X67950000Y-152670000D02*
X91530000Y-152790000D01*
M02*
