M48
; DRILL file {KiCad 7.0.2} date Wed Aug 16 09:45:09 2023
; FORMAT={-:-/ absolute / inch / decimal}
; #@! TF.CreationDate,2023-08-16T09:45:09-05:00
; #@! TF.GenerationSoftware,Kicad,Pcbnew,7.0.2
; #@! TF.FileFunction,Plated,1,2,PTH
FMAT,2
INCH
; #@! TA.AperFunction,Plated,PTH,ViaDrill
T1C0.0157
; #@! TA.AperFunction,Plated,PTH,ComponentDrill
T2C0.0400
; #@! TA.AperFunction,Plated,PTH,ComponentDrill
T3C0.2165
%
G90
G05
T1
X3.7352Y-4.8955
X4.127Y-4.4528
T2
X3.5147Y-5.3924
X3.5147Y-5.4924
X3.5147Y-5.5924
X3.6147Y-5.3924
X3.6147Y-5.4924
X3.6147Y-5.5924
X4.8016Y-4.1606
X4.8723Y-4.0899
X4.8723Y-4.2313
X4.943Y-4.1606
X4.943Y-4.302
X5.0137Y-4.2313
X5.1155Y-2.3952
X5.1155Y-2.4952
X5.2155Y-2.3952
X5.2155Y-2.4952
X5.3155Y-2.3952
X5.3155Y-2.4952
X6.2581Y-2.6879
X6.3288Y-2.6172
X6.3288Y-2.7586
X6.3995Y-2.6879
X6.3995Y-2.8293
X6.4702Y-2.7586
X6.5748Y-3.7925
X6.5748Y-3.8925
X6.5748Y-3.9925
X6.6748Y-3.7925
X6.6748Y-3.8925
X6.6748Y-3.9925
T3
X7.144Y-1.95
T0
M30
