%TF.GenerationSoftware,KiCad,Pcbnew,(6.0.1)*%
%TF.CreationDate,2022-06-11T11:37:24-05:00*%
%TF.ProjectId,Project Narsil Sword,50726f6a-6563-4742-904e-617273696c20,rev?*%
%TF.SameCoordinates,Original*%
%TF.FileFunction,Soldermask,Bot*%
%TF.FilePolarity,Negative*%
%FSLAX46Y46*%
G04 Gerber Fmt 4.6, Leading zero omitted, Abs format (unit mm)*
G04 Created by KiCad (PCBNEW (6.0.1)) date 2022-06-11 11:37:24*
%MOMM*%
%LPD*%
G01*
G04 APERTURE LIST*
G04 Aperture macros list*
%AMRoundRect*
0 Rectangle with rounded corners*
0 $1 Rounding radius*
0 $2 $3 $4 $5 $6 $7 $8 $9 X,Y pos of 4 corners*
0 Add a 4 corners polygon primitive as box body*
4,1,4,$2,$3,$4,$5,$6,$7,$8,$9,$2,$3,0*
0 Add four circle primitives for the rounded corners*
1,1,$1+$1,$2,$3*
1,1,$1+$1,$4,$5*
1,1,$1+$1,$6,$7*
1,1,$1+$1,$8,$9*
0 Add four rect primitives between the rounded corners*
20,1,$1+$1,$2,$3,$4,$5,0*
20,1,$1+$1,$4,$5,$6,$7,0*
20,1,$1+$1,$6,$7,$8,$9,0*
20,1,$1+$1,$8,$9,$2,$3,0*%
%AMHorizOval*
0 Thick line with rounded ends*
0 $1 width*
0 $2 $3 position (X,Y) of the first rounded end (center of the circle)*
0 $4 $5 position (X,Y) of the second rounded end (center of the circle)*
0 Add line between two ends*
20,1,$1,$2,$3,$4,$5,0*
0 Add two circle primitives to create the rounded ends*
1,1,$1,$2,$3*
1,1,$1,$4,$5*%
G04 Aperture macros list end*
%ADD10RoundRect,0.200000X0.863600X0.863600X-0.863600X0.863600X-0.863600X-0.863600X0.863600X-0.863600X0*%
%ADD11O,2.127200X2.127200*%
%ADD12C,2.127200*%
%ADD13RoundRect,0.200000X0.000000X1.221315X-1.221315X0.000000X0.000000X-1.221315X1.221315X0.000000X0*%
%ADD14HorizOval,2.127200X0.000000X0.000000X0.000000X0.000000X0*%
%ADD15RoundRect,0.200000X-0.863600X0.863600X-0.863600X-0.863600X0.863600X-0.863600X0.863600X0.863600X0*%
%ADD16RoundRect,0.200000X0.500000X0.400000X-0.500000X0.400000X-0.500000X-0.400000X0.500000X-0.400000X0*%
%ADD17RoundRect,0.200000X0.350000X0.750000X-0.350000X0.750000X-0.350000X-0.750000X0.350000X-0.750000X0*%
%ADD18C,1.300000*%
%ADD19C,6.400000*%
%ADD20RoundRect,0.200000X-0.919239X2.687006X-2.687006X0.919239X0.919239X-2.687006X2.687006X-0.919239X0*%
%ADD21C,10.600000*%
G04 APERTURE END LIST*
D10*
%TO.C,X3*%
X167001000Y-96330700D03*
D11*
X169541000Y-96330700D03*
X167001000Y-98870700D03*
X169541000Y-98870700D03*
D12*
X167001000Y-101410700D03*
X169541000Y-101410700D03*
%TD*%
D10*
%TO.C,X5*%
X90505600Y-132673400D03*
D11*
X93045600Y-132673400D03*
X90505600Y-135213400D03*
X93045600Y-135213400D03*
D12*
X90505600Y-137753400D03*
X93045600Y-137753400D03*
%TD*%
D13*
%TO.C,X1*%
X151207936Y-76663188D03*
D14*
X153003987Y-74867136D03*
X153003987Y-78459239D03*
X154800039Y-76663188D03*
D12*
X154800039Y-80255290D03*
X156596090Y-78459239D03*
%TD*%
%TO.C,X2*%
X135014900Y-60837000D03*
X135014900Y-63377000D03*
D11*
X132474900Y-60837000D03*
X132474900Y-63377000D03*
X129934900Y-60837000D03*
D15*
X129934900Y-63377000D03*
%TD*%
D16*
%TO.C,SW1*%
X102266200Y-141874000D03*
X94966200Y-141874000D03*
X94966200Y-144084000D03*
X102266200Y-144084000D03*
D17*
X96366200Y-141224000D03*
X97866200Y-141224000D03*
X100866200Y-141224000D03*
D18*
X97116200Y-142984000D03*
X100116200Y-142984000D03*
%TD*%
D15*
%TO.C,X4*%
X119470100Y-110011400D03*
D11*
X119470100Y-107471400D03*
X122010100Y-110011400D03*
X122010100Y-107471400D03*
D12*
X124550100Y-110011400D03*
X124550100Y-107471400D03*
%TD*%
D19*
%TO.C,REF\u002A\u002A*%
X181457600Y-49530000D03*
%TD*%
D20*
%TO.C,U1*%
X114644812Y-115402988D03*
X103896788Y-126151012D03*
D21*
X109270800Y-120777000D03*
%TD*%
M02*
