%TF.GenerationSoftware,KiCad,Pcbnew,(6.0.1)*%
%TF.CreationDate,2022-06-11T11:37:24-05:00*%
%TF.ProjectId,Project Narsil Sword,50726f6a-6563-4742-904e-617273696c20,rev?*%
%TF.SameCoordinates,Original*%
%TF.FileFunction,Profile,NP*%
%FSLAX46Y46*%
G04 Gerber Fmt 4.6, Leading zero omitted, Abs format (unit mm)*
G04 Created by KiCad (PCBNEW (6.0.1)) date 2022-06-11 11:37:24*
%MOMM*%
%LPD*%
G01*
G04 APERTURE LIST*
%TA.AperFunction,Profile*%
%ADD10C,0.150000*%
%TD*%
G04 APERTURE END LIST*
D10*
X185647569Y-48055314D02*
G75*
G03*
X182724739Y-45235914I-2821230J0D01*
G01*
X161391600Y-104775000D02*
X161696400Y-104775000D01*
X161417000Y-98729800D02*
X161391600Y-104775000D01*
X155651200Y-98679000D02*
X161417000Y-98729800D01*
X155651200Y-92837000D02*
X155651200Y-98679000D01*
X150520400Y-92811600D02*
X155651200Y-92837000D01*
X150495000Y-98831400D02*
X150520400Y-92811600D01*
X144907000Y-98806000D02*
X150495000Y-98831400D01*
X144907000Y-104546400D02*
X144907000Y-98806000D01*
X138963400Y-104546400D02*
X144907000Y-104546400D01*
X138963400Y-110388400D02*
X138963400Y-104546400D01*
X133248400Y-110388400D02*
X138963400Y-110388400D01*
X133248400Y-116128800D02*
X133248400Y-110388400D01*
X127355600Y-116128800D02*
X133248400Y-116128800D01*
X127330200Y-121996200D02*
X127355600Y-116128800D01*
X121742200Y-122021600D02*
X127330200Y-121996200D01*
X121818400Y-127736600D02*
X121742200Y-122021600D01*
X115697000Y-127736600D02*
X121818400Y-127736600D01*
X115620800Y-133781800D02*
X115697000Y-127736600D01*
X110032800Y-133781800D02*
X115620800Y-133781800D01*
X110032800Y-139369800D02*
X110032800Y-133781800D01*
X104089200Y-139369800D02*
X110032800Y-139369800D01*
X104089200Y-145288000D02*
X104089200Y-139369800D01*
X85979000Y-145313400D02*
X104089200Y-145288000D01*
X86080600Y-127000000D02*
X85979000Y-145313400D01*
X91694000Y-127000000D02*
X86080600Y-127000000D01*
X91744800Y-121361200D02*
X91694000Y-127000000D01*
X97637600Y-121335800D02*
X91744800Y-121361200D01*
X97688400Y-115290600D02*
X97637600Y-121335800D01*
X103251000Y-115316000D02*
X97688400Y-115290600D01*
X103276400Y-109651800D02*
X103251000Y-115316000D01*
X109118400Y-109651800D02*
X103276400Y-109651800D01*
X109169200Y-103657400D02*
X109118400Y-109651800D01*
X114833400Y-103657400D02*
X109169200Y-103657400D01*
X114808000Y-98018600D02*
X114833400Y-103657400D01*
X120802400Y-98018600D02*
X114808000Y-98018600D01*
X120802400Y-92049600D02*
X120802400Y-98018600D01*
X126415800Y-92049600D02*
X120802400Y-92049600D01*
X126441200Y-86360000D02*
X126415800Y-92049600D01*
X132334000Y-86334600D02*
X126441200Y-86360000D01*
X132334000Y-80365600D02*
X132334000Y-86334600D01*
X138023600Y-80365600D02*
X132334000Y-80365600D01*
X138074400Y-75590400D02*
X138023600Y-80365600D01*
X132156200Y-75514200D02*
X138074400Y-75590400D01*
X132207000Y-69672200D02*
X132156200Y-75514200D01*
X126441200Y-69672200D02*
X132207000Y-69672200D01*
X126517400Y-57150000D02*
X126441200Y-69672200D01*
X139065000Y-57099200D02*
X126517400Y-57150000D01*
X139014200Y-62992000D02*
X139065000Y-57099200D01*
X150723600Y-63068200D02*
X139014200Y-62992000D01*
X150723600Y-68580000D02*
X150723600Y-63068200D01*
X155600400Y-68630800D02*
X150723600Y-68580000D01*
X155549600Y-63017400D02*
X155600400Y-68630800D01*
X161239200Y-62992000D02*
X155549600Y-63017400D01*
X161290000Y-56946800D02*
X161239200Y-62992000D01*
X167208200Y-56946800D02*
X161290000Y-56946800D01*
X167309800Y-45237400D02*
X167208200Y-56946800D01*
X182724739Y-45235914D02*
X167309800Y-45237400D01*
X185572400Y-63931800D02*
X185647569Y-48055314D01*
X173964600Y-63931800D02*
X185572400Y-63931800D01*
X173863000Y-69621400D02*
X173964600Y-63931800D01*
X168275000Y-69621400D02*
X173863000Y-69621400D01*
X168275000Y-75539600D02*
X168275000Y-69621400D01*
X162433000Y-75539600D02*
X168275000Y-75539600D01*
X162433000Y-80238600D02*
X162433000Y-75539600D01*
X168325800Y-80238600D02*
X162433000Y-80238600D01*
X168325800Y-91846400D02*
X168325800Y-80238600D01*
X174066200Y-91846400D02*
X168325800Y-91846400D01*
X174066200Y-104749600D02*
X174066200Y-91846400D01*
X161696400Y-104775000D02*
X174066200Y-104749600D01*
M02*
