M48
; DRILL file {KiCad 7.0.11} date Tue Jul 23 21:54:53 2024
; FORMAT={-:-/ absolute / inch / decimal}
; #@! TF.CreationDate,2024-07-23T21:54:53-05:00
; #@! TF.GenerationSoftware,Kicad,Pcbnew,7.0.11
; #@! TF.FileFunction,Plated,1,2,PTH
FMAT,2
INCH
; #@! TA.AperFunction,Plated,PTH,ViaDrill
T1C0.0157
; #@! TA.AperFunction,Plated,PTH,ComponentDrill
T2C0.0400
; #@! TA.AperFunction,Plated,PTH,ComponentDrill
T3C0.2165
%
G90
G05
T1
X2.9083Y-5.3441
X3.2484Y-4.8362
X3.3311Y-5.9697
X3.5776Y-5.8075
X3.8079Y-4.8488
X3.8815Y-5.4854
X4.187Y-5.1681
X4.4634Y-4.2638
X5.0197Y-2.0319
X5.6543Y-2.737
X5.7575Y-2.5075
X6.3079Y-2.9571
X6.6776Y-3.5185
X6.7539Y-2.9433
X6.8772Y-1.7764
X6.8787Y-3.2437
T2
X3.0748Y-5.4421
X3.0748Y-5.5421
X3.0748Y-5.6421
X3.1748Y-5.4421
X3.1748Y-5.5421
X3.1748Y-5.6421
X4.5452Y-4.0846
X4.6159Y-4.0139
X4.6159Y-4.1554
X4.6866Y-4.0846
X4.6866Y-4.2261
X4.7573Y-4.1554
X5.0201Y-1.7854
X5.0201Y-1.8854
X5.1201Y-1.7854
X5.1201Y-1.8854
X5.2201Y-1.7854
X5.2201Y-1.8854
X5.8259Y-2.8067
X5.8966Y-2.736
X5.8966Y-2.8774
X5.9673Y-2.8067
X5.9673Y-2.9481
X6.038Y-2.8774
X6.8713Y-3.5173
X6.8713Y-3.6173
X6.8713Y-3.7173
X6.9713Y-3.5173
X6.9713Y-3.6173
X6.9713Y-3.7173
X6.9869Y-1.6618
X7.0576Y-1.5911
X7.0576Y-1.7325
X7.1283Y-1.6618
X7.1283Y-1.8032
X7.1991Y-1.7325
T3
X7.6795Y-1.139
M30
